/* XPM */
static char *result[] = {
/* columns rows colors chars-per-pixel */
"64 64 54 1 ",
"  c #47484C",
". c #4B4D51",
"X c #4F5155",
"o c #525357",
"O c #54565A",
"+ c #595A5E",
"@ c #5C5E62",
"# c #616266",
"$ c #64656A",
"% c #67696D",
"& c #686A6E",
"* c #6C6D72",
"= c #6F7075",
"- c #717276",
"; c #74767A",
": c #77797D",
"> c #797A7E",
", c #777A80",
"< c #7C7D82",
"1 c #7E8185",
"2 c #818286",
"3 c #83858A",
"4 c #87888D",
"5 c #898B8E",
"6 c #878A91",
"7 c #8B8D92",
"8 c #8F9095",
"9 c #919296",
"0 c #94959A",
"q c #97989D",
"w c #999A9E",
"e c #979BA1",
"r c #9C9DA2",
"t c #9FA0A5",
"y c #9FA2A8",
"u c #A1A2A6",
"i c #A4A5AA",
"p c #A7A8AD",
"a c #A9AAAE",
"s c #ACADB2",
"d c #AFB0B5",
"f c #AFB2B9",
"g c #B1B2B6",
"h c #B4B5BA",
"j c #B6B8BD",
"k c #B9BABE",
"l c #BCBDC2",
"z c #C1C2C6",
"x c #C3C5CA",
"c c #C7C9CD",
"v c #C8CACE",
"b c #CBCDD1",
"n c #D1D2D6",
"m c #D2D3D9",
/* pixels */
"<p9e8y@a6,s7rr1fruur<i4;s7w84grtw0wf;<s7f6rsra4i4q@i4<h3k0itusXu",
"d4hr0e00Oi,006l3hiiiar7t<i43g3ztwihsyy:h<<a<xi9rtqi0*s<r42ha7r77",
"<epe6e06y$e63f30ai0tuqa@a7<h7rrwrrsfi*a<:i9htit3iti:r-02<kirr2*i",
"9rrer<%7rrr,a:7iuwi3700ri&p2wiaqir0xqr06i<fasti067tq<a0*sisrsr<7",
"rrieey<0rr3s:qrfii8s;rui;s-iaats3f9yf0rf*st00i<si0ir7a+sua7s3sg;",
"ry1a2ep<pqrqipus0atra<ir90adaas0f<i07h9psfthh6h:is*trissaaa3s4rh",
"eyiea3yf$4rpssa<a3rh0s9;hrsai<iqif<ii&lriai9tf0s70f@iar0s0rs<aq4",
"s<eyqi78p*ipsrlwts2if:sriris0s3iqrl70fliis;f6th2ht:hhiis*g7al*as",
":s<wa<st70drps-puih5rh7si4aai0z>rp-lrff6srk<i4ul*hrsi4aas;i00z<l",
"w9s:tp;f02$hwsf>wi2hitii&gwiaw7l<rf9ii,frrsf*sr$hras;xwgah&qg@zr",
"st6a86a8q>rp7sts;ws>gii;9a;huka;hriri<0y,l0sh$iiriu<i02awsg20swr",
"sia@aryw<6r7x0zpd99iii;3r9l9zggg*kir<3r6x6cusf3hii;q43k2xuhkwsii",
"rqtp9yy&200l6tuirsrii@;r9k50s9hsiir-qr6l6rs<suiiu$d7;l4su2susii ",
":fyiyy*00<h69s2zisuu03t;h33s3xrgtilfq&f36s6xrlsus0i$s<9r9z3barka",
"k6f9wtst+s<3irl7ruuii0Og<>awg94aiyxk:s23i0h66fsqlu-s*9r7s20hs0ga",
"60ri8rits<6t7d62hiriuuu7<u5i5<hai8ffti0y3s3;lisr2rri9s;k<<hu0s23",
"6iyqp3,0i0a-h3<dirs00urrg-a5>kauit,lsta$h3*hsa0s<99ua*k:;khs0hr7",
"aaaqpr00iu&d3<ssii4h3ii7ua9-agurrqf<friit-hsrsa3d<qrqrq3ffs9f;gi",
"ii0a<qy8suru<ssarui0s7rhia9guia2f6ih*lir7khrh0td4s72frrllukf4l-t",
"rfryf3yi$rwirts7s4rs9s0$uuwaatagrsq0l*mtrfst<l3ik*di@asaas3ag0l<",
"i3s0sf,0i*iiiugirh3ih*hiaiaa9g5uk7si$xdagatss9g30x<sssihg*l;ag*l",
"rf9yyqh0wissig*urah4wh2saatua2k<rl-aahhh9ts3rs3kr*lrhi6fad3k;rl*",
"<0f<rp*hti5waag-tt9lr3usw-iuag5h3qs7sas$g0ss;0l*hsif3;xrdak;kw<z",
"i;yh*riia:3g9kus*is$bwi47x9htag;li:ssi7l0iihh32l3lrt6f70dihl@lag",
"yi<<a<aa47h3siihg<rsriu7l29a0gah@hasi3i37s<xasi3ssa<039h2bsxk:hg",
"asir3ti3-g49i<kissrgrr;g23i2bususqrt&r33g4lihagrh0@a73x6ku7llska",
"6kifit<Oi32wwkwgauisuXa3-g0su2guhir<s9;k30r3lriia9rr&h30a7z0hhhi",
"aiuiiw*i*3r0s23g2hais75-i7r95l4zi0lls<u37u9x4aitshs$f<7urd4usiss",
"9<sirarwrs>g23h5liiiiu3d;i95z20ss0hhls40a9l3<lai00ia70r7l3:las99",
"0kiiw297i-s3<g0rsua03tuiai<k2>hgwi<hstrh*l4;za0su7*rrl*k4;lt0th-",
"sii7a20titu-a44uisua<rrii-g3<sgaars<hir0hr7hsaa6ft0ftfhi*hhtah7c",
"utii8s<isuus>rsius0rg<iiiuw9gaa7g4rg<lrrs7dhsh0h:ii<hsi4lhia3gg4",
"ss5uwia2aiuaagaaa>kruh>isrisaigg7h4us*zraaga5kwwh-usozissks7k-ig",
"uua9uuug92iaiaa9ug9awwg55uiiag2ia9s99z<mgaagh<k99x>whzghu9lu0l&i",
"i5wg5us2g5aaap5g5rk5uu#zsirsu5s2rs2ia3clkug9wh<gu2brvvhauh&ir0k>",
"2g2wk>aa;gawaua5g>uk-raakuqaau9l*ul$hila7hug3wl&gh$kks#xusl+0s*b",
"wwg<uk>gwu=riuguwk>wg5gu2=kwig9wk*9kwir<zighl29x*sgku;aa3hkz+whX",
"iwug55pur=2g2zsar5kwwua99z9iwsar<lrh9a3ri2guhg0&z3ua<3a9mrluh;9i",
"aau&gwis>>g5kwpaaa&hwiu5g25h<zugi-gus<7uwz9lssagrih<;srk0rhrkk5i",
"uuka2wi2#g99u2zuggauuw&a22g5hiigiria<0a0v29g<hghu032g2g90x2msgra",
">zaauu5&a25uwk9uaaawu.g5*g7wi2xigrrkis-l53l3zagsidwk+sr9l2th*hra",
"zusauawa&9u9k52g>ziaguu-d29iwz9wsribz#h9>l5ui<zksklghh*l<4h3btr9",
"92au9iaawa-a22g5arruahwa29i9g5<huurlhaaOs22r9bksi0wid;h<<h7sairr",
"9guuw5uuuoa2=s52grwuw9uiua-i72ksura0zawg25u7kghudr0rras;s<0sff<l",
"gaura5w-uuu-s>>guu9s9u5ir&s9-kaii9gwwzra0k-ggass;l79ltas-0slasf<",
"uupa5g2uguwg>3aaigu5a5uguuu&gsupaa4ar7hia4kgsrrah;aq4hsgrfhis<il",
"ua5auug2rsuu9gaua5ri9i93gwuakgpa9rl;rs*vrrkhh5k<ul*ih@lirsff2f$t",
"rguwuuug9&uaupprws3uh>sa+auarga5k>rl$is0srauli9k;ql#rfhfrs<xr7c&",
"a2wg9uu2k2guwu2g9pk>rh+krgaii&l0uz;0z;nhkuih+gr0x<7k-zkg0ua+g09x",
"5g5ua-au;uuw9ua2s2pk;9a0r03ash-aw9zw<skk0gagg&ui;xi7ka7&lihl@ia*",
"2ug2ag;guuw5uuap9s79krur9*aurhh*ui-lral<<k5khzOis+b9gr4vrkasl+rk",
"a2uk>9uww25k9kuap2hu>huw>5a-hagg+aa9agr5b5gaalz+ihsia3uw4k0gak$r",
"aa52kwau95g29auupsOdrii<;a9lwkrsg&krsu2h>9k>vshh<hri<400c2airss3",
"asap2uuw>a<2u2kuupa9ri;@u9u93k9gairws+k2<k5zawggtaa@7w5l<4s;bru0",
"9guauuu a2;s9wu>auirr3&i2090z5uwwaui-k7*z4wi3crksrz7s@g23k<ai<hr",
"auwawu9u5#p5<95k0arrrriO0w5g23s>kuwvzg-s;7awv05ksisk>iw-l>4u2muu",
"u>juraa9-u>299u5<s99ti9wr&g<<g5iriwkkks>5s7s72zsi2<rwi-i><a9aswi",
"9uwuwr0uu;9w5922ar900449ou5-s<>iuua;kri9g;s95bhuaa#wriru;a<0sgi0",
"8uruu25>www-w22u0000<w5420-a;-riu9au<zr95hs<lhsa09s#rwu0k&uagug0",
"wuuuiu-uuww99&w99077w-w923r<<ir9ua-rs>zuis#gasg3k-0k+0uwirigua$k",
"wuwi>rg-g995#9595<r<90-w9277iu9u99s*wg$nruukuwki2z*0z;wwraks<wg>",
"wawws2ug#552559>i<39>59*O320rwr;a<0g$7u#baishl*kw9k54lalri0ga#9k",
"a2g5ts-0io922<9>*r>202+7<32394a50a;0k>9lasia2ak-rs<cawlgausr3l+9",
"gwug2tg2=55>22>22;r<&33+223<5w+u<0s2<swlhuius#0k$rh+xuz7>gua39z#"
};
