/* XPM */
static char *result[] = {
/* columns rows colors chars-per-pixel */
"64 64 234 2 ",
"   c black",
".  c #020501",
"X  c #050503",
"o  c #060704",
"O  c #25390D",
"+  c #273D0E",
"@  c #0A1823",
"#  c #47352F",
"$  c #2A400D",
"%  c #2A410E",
"&  c #2C430E",
"*  c #2D4410",
"=  c #2F4811",
"-  c #374E13",
";  c #395916",
":  c #395817",
">  c #3A5A17",
",  c #3A5B17",
"<  c #3E601A",
"1  c #4B651C",
"2  c #456A1C",
"3  c #466B1D",
"4  c #476E1D",
"5  c #4D691D",
"6  c #49701F",
"7  c #48731F",
"8  c #476721",
"9  c #497520",
"0  c #4A7620",
"q  c #4C7421",
"w  c #4E7A21",
"e  c #4F7922",
"r  c #4F7C22",
"t  c #517D22",
"y  c #517D23",
"u  c #537F24",
"i  c #587821",
"p  c #5B7C24",
"a  c #5F7F25",
"s  c #717669",
"d  c #578626",
"f  c #578726",
"g  c #578827",
"h  c #598928",
"j  c #5A8B28",
"k  c #5A8C28",
"l  c #5B8D28",
"z  c #5C8F29",
"x  c #5E912A",
"c  c #5F922A",
"v  c #5F942A",
"b  c #628225",
"n  c #608026",
"m  c #638527",
"M  c #648528",
"N  c #698C29",
"B  c #6A8E2A",
"V  c #60942B",
"C  c #60952B",
"Z  c #66962C",
"A  c #61982C",
"S  c #62992C",
"D  c #63992C",
"F  c #639A2C",
"G  c #649A2D",
"H  c #659C2D",
"J  c #659D2D",
"K  c #669E2E",
"L  c #6C982D",
"P  c #6F9F2F",
"I  c #739A2E",
"U  c #749B2F",
"Y  c #769E2F",
"T  c #769E30",
"R  c #68A02F",
"E  c #69A12F",
"W  c #6AA22F",
"Q  c #6AA330",
"!  c #6BA330",
"~  c #6BA530",
"^  c #6CA530",
"/  c #6CA631",
"(  c #6CA731",
")  c #6EA631",
"_  c #6FA731",
"`  c #6FA831",
"'  c #6FA931",
"]  c #6EA932",
"[  c #6FA932",
"{  c #6EAB32",
"}  c #79A231",
"|  c #70A932",
" . c #71AA32",
".. c #76A933",
"X. c #72AD33",
"o. c #74AC33",
"O. c #74AD34",
"+. c #74AE34",
"@. c #75B435",
"#. c #79B235",
"$. c #7BB637",
"%. c #7FB637",
"&. c #7DB837",
"*. c #7FB838",
"=. c #7FB938",
"-. c #7FBB38",
";. c #80B737",
":. c #81BA38",
">. c #80BB39",
",. c #82BA38",
"<. c #81BD39",
"1. c #82BE39",
"2. c #85BE3A",
"3. c #86BF3A",
"4. c #8AB838",
"5. c #8BB938",
"6. c #8DBC39",
"7. c #8DBC3A",
"8. c #8FBF3A",
"9. c #85C03B",
"0. c #8CC43C",
"q. c #8DC43C",
"w. c #8FC73D",
"e. c #91C13B",
"r. c #94C53D",
"t. c #91C93E",
"y. c #90CA3E",
"u. c #90CB3E",
"i. c #97C83E",
"p. c #94CB3F",
"a. c #93CC3F",
"s. c #94CC3F",
"d. c #98CA3F",
"f. c #95CF40",
"g. c #96CF40",
"h. c #9BCC40",
"j. c #99CF40",
"k. c #97D040",
"l. c #96D041",
"z. c #97D141",
"x. c #98D341",
"c. c #9BD342",
"v. c #9CD040",
"b. c #98D541",
"n. c #9BD442",
"m. c #9FD543",
"M. c #9DD743",
"N. c #A1D642",
"B. c #A2D742",
"V. c #A3D445",
"C. c #A0D843",
"Z. c #A0D844",
"A. c #A0DA44",
"S. c #A0DF46",
"D. c #A4DC45",
"F. c #A4DD45",
"G. c #A5DD45",
"H. c #A6DC45",
"J. c #A7DD45",
"K. c #A5DE45",
"L. c #A6DE46",
"P. c #A6DF46",
"I. c #A8DF46",
"U. c #A9DA48",
"Y. c #ACDE4A",
"T. c #A7E146",
"R. c #A8E046",
"E. c #A9E147",
"W. c #A8E247",
"Q. c #AAE247",
"!. c #ABE347",
"~. c #ACE347",
"^. c #A9E448",
"/. c #A8E548",
"(. c #A9E548",
"). c #ABE448",
"_. c #AAE648",
"`. c #ABE648",
"'. c #ACE448",
"]. c #ACE548",
"[. c #ADE548",
"{. c #ACE648",
"}. c #ADE648",
"|. c #ADE649",
" X c #ADE749",
".X c #AEE749",
"XX c #AFE749",
"oX c #AFE44A",
"OX c #AFE849",
"+X c #AEE949",
"@X c #AFEA4A",
"#X c #B0E749",
"$X c #B0E949",
"%X c #B0E94A",
"&X c #B1E94A",
"*X c #B1EA4A",
"=X c #B0EB4A",
"-X c #B2EB4A",
";X c #B1EC4A",
":X c #B2EC4A",
">X c #B3EC4B",
",X c #B2ED4B",
"<X c #B3ED4B",
"1X c #B4ED4B",
"2X c #B4EE4B",
"3X c #B4EF4B",
"4X c #B4EF4C",
"5X c #B5EF4C",
"6X c #B5F04C",
"7X c #B7F04C",
"8X c #B7F24C",
"9X c #B6F24D",
"0X c #B7F24D",
"qX c #B7F34D",
"wX c #B7F44D",
"eX c #B8F34C",
"rX c #B8F34D",
"tX c #B8F44D",
"yX c #B8F54D",
"uX c #BAF64E",
"iX c #BAF74E",
"pX c #BCF84E",
"aX c #BCF94F",
"sX c #C0FD50",
"dX c #C3FD50",
"fX c #56778F",
"gX c #679ECC",
"hX c #BFBFBE",
"jX c #B0CFE8",
"kX c #D5E4FC",
"lX c #F9FCF6",
"zX c #FCFDFE",
"xX c white",
"cX c None",
/* pixels */
"cXcXcXcXcXcXcXcXcXcXcXcXcXcXcXcXcXcXcXcXcXcXcXcXcXcXcXcXcXcXcXcXcXcXcXcXcXcXcXcXcXcXcXcXcXcXcXcXcXcXcXcXcXcXcXcXcXcXcXcXcXcXcXcX",
"cXcXcXcXcXcXcXcXcXcXcXcXcXcXcXcXcXcXcXcXcXcXcXcXcXcXcXcXcXcXcXcXcXcXcXcXcXcXcXcXcXcXcXcXcXcXcXcXcXcXcXcXcXcXcXcXcXcXcXcXcXcXcXcX",
"cXcXcXcXcXcXcXcXcXcXcXcXcXcXcXcXcXcXcXcXcXcXcXcXcXcXcXcXcXcXcXcXcXcXcXcXcXcXcXcXcXcXcXcXcXcXcXcXcXcXcXcXcXcXcXcXcXcXcXcXcXcXcXcX",
"cXcXcXcXcXcXcXcXcXcXcXcXcXcXcXcXcXcXcXcXcXcXcXcXcXcXcXcXcXcXcXcXcXcXcXcXcXcXcXcXcXcXcXcXcXcXcXcXcXcXcXcXcXcXcXcXcXcXcXcXcXcXcXcX",
"cXcXcXcXcXcXcXcXcXcXcXcXcXcXcXcXcXcXcXcXcXcXcXcXcXcXcXcXcXcXcXcXcXcXcXcXcXcXcXcXcXcXcXcXcXcXcXcXcXcXcXcXcXcXcXcXcXcXcXcXcXcXcXcX",
"cXcXcXcXcXcXcXcXcXcXcXcXcXcXcXcXcXcXcXcXcXcXcXcXcXcXcXcXcXcXcXcXcXcXcXcXcXcXcXcXcXcXcXcXcXcXcXcXcXcXcXcXcXcXcXcXcXcXcXcXcXcXcXcX",
"cXcXcXcXcXcXcXcXcXcXcXcXcXcXcXcXcXcXcXcXcXcXcXcXcXcXcXcXcXcXcXcXcXcXcXcXcXcXcXcXcXcXcXcXcXcXcXcXcXcXcXcXcXcXcXcXcXcXcXcXcXcXcXcX",
"cXcXcXcXcXcXcXcXcXcXcXcXcXcXcXcXcXcXcXcXcXcXcXcXcXcXcXcXcXcXcXcXcXcXcXcXcXcXcXcXcXcXcXcXcXcXcXcXcXcXcXcXcXcXcXcXcXcXcXcXcXcXcXcX",
"cXcXcXcXcXcXcXcXcXcXcXcXcXcXcXcXcXcXcXcXcXcXcXcXcXcXcXcXcXcXcXcXcXcXcXcXcXcXcXcXcXcXcXcXcXcXcXcXcXcXcXcXcXcXcXcXcXcXcXcXcXcXcXcX",
"cXcXcXcXcXcXcXcXcXcXcXcXcXcXcXcXcXcXcX    X cXcXcXcXcXcXcXcXcXcXcXcXcXcXcXcXcXcX  o cXcXcXcXcXcXcXcXcXcXcXcXcXcXcXcXcXcXcXcXcXcX",
"cXcXcXcXcXcXcXcXcXcXcXcXcXcXcXcXcXcX  s s     cXcX                    . cXcX    s   cXcXcXcXcXcXcXcXcXcXcXcXcXcXcXcXcXcXcXcXcXcX",
"cXcXcXcXcXcXcXcXcXcXcXcXcXcXcXcXcXcX  s hXs   cX  B B B B B B B B B B   cX  s s s   cXcXcXcXcXcXcXcXcXcXcXcXcXcXcXcXcXcXcXcXcXcX",
"cXcXcXcXcXcXcXcXcXcXcXcXcXcXcXcXcXcX  s hXhXs     B dXrXrXrXrXrXrXsXtX    s hXhXs   cXcXcXcXcXcXcXcXcXcXcXcXcXcXcXcXcXcXcXcXcXcX",
"cXcXcXcXcXcXcXcXcXcXcXcXcXcXcXcXcXcX  s hXhXhX    B 6X.X.X.X.X.X.X-XOX    hXhXhXs   cXcXcXcXcXcXcXcXcXcXcXcXcXcXcXcXcXcXcXcXcXcX",
"cXcXcXcXcXcXcXcXcXcXcXcXcXcXcXcXcXcX  s hXhXY.V.i.I.%X.X.X.X.X.X.XOX.Xv.h.U.hXhXs   cXcXcXcXcXcXcXcXcXcXcXcXcXcXcXcXcXcXcXcXcXcX",
"cXcXcXcXcXcXcXcXcXcXcXcXcXcXcXcXcXcX  s hXoX@X;X.X+X`.{.{.`.{..X.X.X.X<X3X=X=XhXs   cXcXcXcXcXcXcXcXcXcXcXcXcXcXcXcXcXcXcXcXcXcX",
"cXcXcXcXcXcXcXcXcXcXcXcXcXcXcXcXcXcX  B yXOX.X.X.X.X.X.X.X.X.X.X.X.X.X.X.X.XOXu.l   cXcXcXcXcXcXcXcXcXcXcXcXcXcXcXcXcXcXcXcXcXcX",
"cXcXcXcXcXcXcXcXcXcXcXcXcXcXcX        B :X.X.X{..X.X.XxXxXxXxXxXxX.X.X.X.X.XOXT.0.        cXcXcXcXcXcXcXcXcXcXcXcXcXcXcXcXcXcXcX",
"cXcXcXcXcXcXcXcXcXcXcXcXcXcXcX  B B B :X.X.X.X.X.X.XxXlXkXkXkXkXxXxX.X.X.X.X.X-XD.' h 8   cXcXcXcXcXcXcXcXcXcXcXcXcXcXcXcXcXcXcX",
"cXcXcXcXcXcXcXcXcXcXcXcXcXcXcX  B Y I..X.X.X.X.X.XxXxXjXgXgXgXgXjXxXxX.X.X.X.X>XP. .g ,   cXcXcXcXcXcXcXcXcXcXcXcXcXcXcXcXcXcXcX",
"cXcXcXcXcXcXcXcXcXcXcXcXcXcX    B U J..X.X.X.X.XxXxXjXfX@ @ @ @ fXjXxXxX.X.X.X-XL.| f :       cXcXcXcXcXcXcXcXcXcXcXcXcXcXcXcXcX",
"cXcXcXcXcXcXcXcXcXcXcXcXcX    B B d.!..X.X.X.XxXxXkXgX@         @ gXkXxXxX.X.X-XK.` v d 2 -   cXcXcXcXcXcXcXcXcXcXcXcXcXcXcXcXcX",
"cXcXcXcXcXcXcXcXcXcXcXcXcX  B r.dX>XOX.X.X.X.XxXxXkXgX@         @ gXkXxXxX.X.X-XG._ K { ] =   cXcXcXcXcXcXcXcXcXcXcXcXcXcXcXcXcX",
"cXcXcXcXcXcXcXcXcXcXcXcXcX  B 5.uX.X.X.X.X.X.XxXxXkXgX@         @ gXkXxXxX.X.X-XG._ H Q E &   cXcXcXcXcXcXcXcXcXcXcXcXcXcXcXcXcX",
"cXcXcXcXcXcXcXcXcXcXcXcXcX  B 5.uX.X.X.X.X.X.XxXxXxXjXfX@ @ @ @ fXjXxXxXxX.X.X-XG._ H Q E &   cXcXcXcXcXcXcXcXcXcXcXcXcXcXcXcXcX",
"cXcXcXcXcXcXcXcXcXcXcXcXcX  B 5.uX.X.X_..X.X.XxXxXxXxXjXgXgXgXgXjXxXxXxXxX.X.X-XG._ H Q E &   cXcXcXcXcXcXcXcXcXcXcXcXcXcXcXcXcX",
"cXcXcXcXcXcXcXcXcXcXcXcXcX  B 5.uX.X.X_..X.X.XxXxXxXxXxXkXkXkXkXxXxXxXxXxX.X.X-XG._ H Q E &   cXcXcXcXcXcXcXcXcXcXcXcXcXcXcXcXcX",
"cXcXcXcXcXcXcXcXcXcXcXcXcX  B 5.uX.X.X X.X.X.X.XxXxXxXxXxXxXxXxXxXxXxXxX X.X.X-XG._ H Q E &   cXcXcXcXcXcXcXcXcXcXcXcXcXcXcXcXcX",
"cXcXcXcXcXcXcXcXcXcXcXcXcX  B 5.uX.X.X.X.X.X.X.X.XxXxXzXxXxXxXxXxXxXxX X.X.X.X-XG._ H Q E &   cXcXcXcXcXcXcXcXcXcXcXcXcXcXcXcXcX",
"cXcXcXcXcXcXcXcXcXcXcXcXcX  B 6.aXOX.X.X.X.X.X.X.X.XxXxXxXxXxXxXxXxX.X X.X.X.X-XG._ H Q E %   cXcXcXcXcXcXcXcXcXcXcXcXcXcXcXcXcX",
"cXcXcXcXcXcXcXcXcXcXcXcXcX  B 8.sX%X.X.X.X.X.X.X.X.X.XxXxXxXxXxXxX#X.X.X.X.X.X-XG._ H Q E $   cXcXcXcXcXcXcXcXcXcXcXcXcXcXcXcXcX",
"cXcXcXcXcXcXcXcXcXcXcXcXcX    B m 4.E.*X.X.X.X.X.X.X.X.X.X.X.X.X`. X.X.X.X.X.X1XR._ J Q ~   cXcXcXcXcXcXcXcXcXcXcXcXcXcXcXcXcXcX",
"cXcXcXcXcXcXcXcXcXcXcXcXcXcX    B I H.<X.X.X.X.X.X.X.X(.(./._..X.X.X.X.X.X.X.X[.n.) D V j   cXcXcXcXcXcXcXcXcXcXcXcXcXcXcXcXcXcX",
"cXcXcXcXcXcXcXcXcXcXcXcXcXcXcX  B T J.>X.X.X.X.X.X.X.X.X.X.X.X.X.X.X.X.X.X.XOXc.*.! x q T   cXcXcXcXcXcXcXcXcXcXcXcXcXcXcXcXcXcX",
"cXcXcXcXcXcXcXcXcXcXcXcXcXcX    B } %XqX}..X.X.X.X.X.X.X.X.X.X.X.X.X.X.XOX*X1Xw.W ] c < }       cXcXcXcXcXcXcXcXcXcXcXcXcXcXcXcX",
"cXcXcXcXcXcXcXcXcXcXcXcXcXcX  B a n b e.iX$X.X.X.X.X.X.X.X.X.X.X.X.X.X>XQ.k.t.-.F 4 ; b n a B   cXcXcXcXcXcXcXcXcXcXcXcXcXcXcXcX",
"cXcXcXcXcXcXcXcXcXcXcXcXcXcX  B N.5 B i ~.[.OX.X.X.X.X.X.X.X.X.X.X.X.X}.g.O.K J   ; i B 5 B.B   cXcXcXcXcXcXcXcXcXcXcXcXcXcXcXcX",
"cXcXcXcXcXcXcXcXcXcXcXcXcXcX  B W...B B B B <X%X.X.X.XOXOXOXOXOXOX*XOX2.) ! W 3   p m M ..W.B   cXcXcXcXcXcXcXcXcXcXcXcXcXcXcXcX",
"cXcXcXcXcXcXcXcXcXcXcXcXcX    B ^.%.B       B ]..X.X}.'.).).).).).|.).#.A G G >       B %.^.B     cXcXcXcXcXcXcXcXcXcXcXcXcXcXcX",
"cXcXcXcXcXcXcXcXcXcXcXcX    B B m.L B   cX    B .X-X!.M.z.f.l.l.g.g.a.+.z e 6 *   cX  N L m.B B     cXcXcXcXcXcXcXcXcXcXcXcXcXcX",
"cXcXcXcXcXcXcXcXcXcXcX    B }.tX7.1 B   cXcX  B OX7XC.=.^ E W W W E R / u +     cXcX  B 1 7.tX}.B     cXcXcXcXcXcXcXcXcXcXcXcXcX",
"cXcXcXcXcXcXcXcXcXcX  B B B 2X5Xj.P B   cXcX  B .Xu.Z B B B B B B B S ( y O   cXcXcX  B P j.5X2XB B B   cXcXcXcXcXcXcXcXcXcXcXcX",
"cXcXcXcXcXcXcXcXcXcX  B pX9X.X&XA.9.@.B   cX    .X&.9 B           B o.X.t   cXcXcX  B @.9.A.&X.X9Xb.C   cXcXcXcXcXcXcXcXcXcXcXcX",
"cXcXcXcXcXcXcXcXcXcX  B XX$X.X*XZ.:.[ B   cXcX  OX>.r B   cXcXcX  B s.$.w   cXcXcX  B [ :.Z.*X.X$Xy.k   cXcXcXcXcXcXcXcXcXcXcXcX",
"cXcXcXcXcXcXcXcXcXcX  B eX4X.X1XF.3.B B   cXcX  0X<.0 B   cXcXcX  B ,X1.7   cXcXcX  B B 3.8X1X*X-XeXB   cXcXcXcXcXcXcXcXcXcXcXcX",
"cXcXcXcXcXcXcXcXcXcX  B B B qXS.B B B   cXcXcX  <.;.q.B   cXcXcX  B ,X,.q.  cXcXcXcX  B B B wXx.B B B   cXcXcXcXcXcXcXcXcXcXcXcX",
"cXcXcXcXcXcXcXcXcXcXcX    B B B B     cXcXcXcX  <.,X,Xw   cXcXcX  w ,X<.w   cXcXcXcXcX    B p.B B     cXcXcXcXcXcXcXcXcXcXcXcXcX",
"cXcXcXcXcXcXcXcXcXcXcXcXcX        cXcXcXcXcXcX  w ,X<.w   cXcXcX  w ,X<.w   cXcXcXcXcXcXcX        cXcXcXcXcXcXcXcXcXcXcXcXcXcXcX",
"cXcXcXcXcXcXcXcXcXcXcXcXcXcXcXcXcXcXcXcXcXcXcX  ; & & ;   cXcXcX  4 & & 4   cXcXcXcXcXcXcXcXcXcXcXcXcXcXcXcXcXcXcXcXcXcXcXcXcXcX",
"cXcXcXcXcXcXcXcXcXcXcXcXcXcXcXcXcXcXcXcXcXcXcX  & A.A.&   cXcXcX  & ,XA.&   cXcXcXcXcXcXcXcXcXcXcXcXcXcXcXcXcXcXcXcXcXcXcXcXcXcX",
"cXcXcXcXcXcXcXcXcXcXcXcXcXcXcXcXcXcXcXcXcXcX  x.*X1X1X1X&   cX  B A.1X1X1Xx.  cXcXcXcXcXcXcXcXcXcXcXcXcXcXcXcXcXcXcXcXcXcXcXcXcX",
"cXcXcXcXcXcXcXcXcXcXcXcXcXcXcXcXcXcXcXcXcX  B # x.# B # B B   B B # B # x.# B   cXcXcXcXcXcXcXcXcXcXcXcXcXcXcXcXcXcXcXcXcXcXcXcX",
"cXcXcXcXcXcXcXcXcXcXcXcXcXcXcXcXcXcXcXcXcXcX                cX                cXcXcXcXcXcXcXcXcXcXcXcXcXcXcXcXcXcXcXcXcXcXcXcXcX",
"cXcXcXcXcXcXcXcXcXcXcXcXcXcXcXcXcXcXcXcXcXcXcXcXcXcXcXcXcXcXcXcXcXcXcXcXcXcXcXcXcXcXcXcXcXcXcXcXcXcXcXcXcXcXcXcXcXcXcXcXcXcXcXcX",
"cXcXcXcXcXcXcXcXcXcXcXcXcXcXcXcXcXcXcXcXcXcXcXcXcXcXcXcXcXcXcXcXcXcXcXcXcXcXcXcXcXcXcXcXcXcXcXcXcXcXcXcXcXcXcXcXcXcXcXcXcXcXcXcX",
"cXcXcXcXcXcXcXcXcXcXcXcXcXcXcXcXcXcXcXcXcXcXcXcXcXcXcXcXcXcXcXcXcXcXcXcXcXcXcXcXcXcXcXcXcXcXcXcXcXcXcXcXcXcXcXcXcXcXcXcXcXcXcXcX",
"cXcXcXcXcXcXcXcXcXcXcXcXcXcXcXcXcXcXcXcXcXcXcXcXcXcXcXcXcXcXcXcXcXcXcXcXcXcXcXcXcXcXcXcXcXcXcXcXcXcXcXcXcXcXcXcXcXcXcXcXcXcXcXcX",
"cXcXcXcXcXcXcXcXcXcXcXcXcXcXcXcXcXcXcXcXcXcXcXcXcXcXcXcXcXcXcXcXcXcXcXcXcXcXcXcXcXcXcXcXcXcXcXcXcXcXcXcXcXcXcXcXcXcXcXcXcXcXcXcX",
"cXcXcXcXcXcXcXcXcXcXcXcXcXcXcXcXcXcXcXcXcXcXcXcXcXcXcXcXcXcXcXcXcXcXcXcXcXcXcXcXcXcXcXcXcXcXcXcXcXcXcXcXcXcXcXcXcXcXcXcXcXcXcXcX",
"cXcXcXcXcXcXcXcXcXcXcXcXcXcXcXcXcXcXcXcXcXcXcXcXcXcXcXcXcXcXcXcXcXcXcXcXcXcXcXcXcXcXcXcXcXcXcXcXcXcXcXcXcXcXcXcXcXcXcXcXcXcXcXcX",
"cXcXcXcXcXcXcXcXcXcXcXcXcXcXcXcXcXcXcXcXcXcXcXcXcXcXcXcXcXcXcXcXcXcXcXcXcXcXcXcXcXcXcXcXcXcXcXcXcXcXcXcXcXcXcXcXcXcXcXcXcXcXcXcX",
"cXcXcXcXcXcXcXcXcXcXcXcXcXcXcXcXcXcXcXcXcXcXcXcXcXcXcXcXcXcXcXcXcXcXcXcXcXcXcXcXcXcXcXcXcXcXcXcXcXcXcXcXcXcXcXcXcXcXcXcXcXcXcXcX",
"cXcXcXcXcXcXcXcXcXcXcXcXcXcXcXcXcXcXcXcXcXcXcXcXcXcXcXcXcXcXcXcXcXcXcXcXcXcXcXcXcXcXcXcXcXcXcXcXcXcXcXcXcXcXcXcXcXcXcXcXcXcXcXcX",
"cXcXcXcXcXcXcXcXcXcXcXcXcXcXcXcXcXcXcXcXcXcXcXcXcXcXcXcXcXcXcXcXcXcXcXcXcXcXcXcXcXcXcXcXcXcXcXcXcXcXcXcXcXcXcXcXcXcXcXcXcXcXcXcX"
};
