/* XPM */
static char *a2d88fdb3a2e4aa1fe8cc7fd1518880dGw4796Ruj68BSbMC[] = {
/* columns rows colors chars-per-pixel */
"64 64 113 2 ",
"   c None",
".  c black",
"X  c #1B3703",
"o  c #1E3C02",
"O  c #051824",
"+  c #234400",
"@  c #264901",
"#  c #2E5B01",
"$  c #326202",
"%  c #366D00",
"&  c #3B680F",
"*  c #377601",
"=  c #3B7402",
"-  c #3C7C01",
";  c #426604",
":  c #436A04",
">  c #407F00",
",  c #4C7C02",
"<  c #707668",
"1  c #438401",
"2  c #458B01",
"3  c #568402",
"4  c #588803",
"5  c #479101",
"6  c #4A9401",
"7  c #4E9D00",
"8  c #5E9001",
"9  c #539B01",
"0  c #5C9A04",
"q  c #669C03",
"w  c #4FA000",
"e  c #53A400",
"r  c #5EA103",
"t  c #55AA00",
"y  c #5AAA00",
"u  c #5DB300",
"i  c #69A104",
"p  c #64AC02",
"a  c #6EAB04",
"s  c #72AE03",
"d  c #63B601",
"f  c #65BB00",
"g  c #6BBC02",
"h  c #76B403",
"j  c #7BBC02",
"k  c #6DC201",
"l  c #71C201",
"z  c #7BC500",
"x  c #7BCD01",
"c  c #7DD401",
"v  c #82C501",
"b  c #84CC02",
"n  c #8ACE08",
"m  c #83D402",
"M  c #8CD501",
"N  c #8CDB02",
"B  c #92DE01",
"V  c #93D60F",
"C  c #99DC16",
"Z  c #89E000",
"A  c #94E301",
"S  c #99E602",
"D  c #95E900",
"F  c #9DED01",
"G  c #9DEC01",
"H  c #9EEC01",
"J  c #9EED01",
"K  c #9CEE00",
"L  c #9DEF00",
"P  c #9DEF01",
"I  c #9EEF00",
"U  c #9EEE01",
"Y  c #9FEE01",
"T  c #9EEF01",
"R  c #9FEF01",
"E  c #9DEC02",
"W  c #9DEA05",
"Q  c #9BEA01",
"!  c #9DE70C",
"~  c #9FF001",
"^  c #9FF200",
"/  c #9FF102",
"(  c #9CE018",
")  c #A0EF01",
"_  c #A1F001",
"`  c #A0F101",
"'  c #A1F201",
"]  c #A1F301",
"[  c #A3F301",
"{  c #A1F002",
"}  c #A2F401",
"|  c #A2F501",
" . c #A3F601",
".. c #A4F601",
"X. c #A4F701",
"o. c #A1F301",
"O. c #A3F800",
"+. c #A4F801",
"@. c #A5F901",
"#. c #A5FA01",
"$. c #A7FC01",
"%. c #A9FE01",
"&. c #AAFF01",
"*. c #AEFF01",
"=. c #4B7892",
"-. c #519FD0",
";. c #BFBFBE",
":. c #A7D0EB",
">. c #D1E4FF",
",. c #F8FCF6",
"<. c #FCFDFE",
"1. c #FFFEFF",
"2. c white",
/* pixels */
"                                                                                                                                ",
"                                                                                                                                ",
"                                                                                                                                ",
"                                                                                                                                ",
"                                                                                                                                ",
"                                                                                                                                ",
"                                                                                                                                ",
"                                                                                                                                ",
"                                                                                                                                ",
"                                            . .                                       .                                         ",
"                                          . < < . .     . . . . . . . . . .       . . < .                                       ",
"                                          . < ;.< .   . 8 8 8 8 8 8 8 8 8 8 .   . < < < .                                       ",
"                                          . < ;.;.< . . q *.` ...... ...%.... . < ;.;.< .                                       ",
"                                          . < ;.;.;.. . 4 ` Q Q Q Q Q Q I Q . . ;.;.;.< .                                       ",
"                                          . < ;.;.C V b A I Q Q Q Q Q Q I Q M n C ;.;.< .                                       ",
"                                          . < ;.! Q I H Q D Q S D Q Q Q Q Q I I I Q ;.< .                                       ",
"                                          . 8 O.Q Q Q Q Q Q I H H H H I Q Q Q Q Q Q x 5 .                                       ",
"                                    . . . . 8 I Q Q D Q Q Q <.<.<.<.<.<.Q Q Q Q Q Q A z . . . .                                 ",
"                                    . 8 q 4 I Q Q Q Q H Q <.,.,.<.<.<.<.<.H Q Q Q Q E B y 2 & .                                 ",
"                                    . 8 q A Q Q Q Q Q H <.<.<.>.>.>.>.<.<.<.Q H Q Q I A y 2 # .                                 ",
"                                  . . 8 q B H Q Q Q Q <.<.<.:.-.-.-.-.:.<.<.<.I Q Q / A y 2 # . . .                             ",
"                                . . 8 8 b S Q H Q Q <.<.<.:.=.O O O O =.:.<.<.<.Q Q ) Z y 6 2 % o .                             ",
"                                . 8 v *.I H S Q Q Q <.<.>.-.O . . . . O -.>.<.<.Q Q ) B y 7 t t @ .                             ",
"                                . 8 j +.Q Q Q Q H I <.<.>.-.O . . . . O -.>.<.<.Q Q I A y 7 e e + .                             ",
"                                . 8 j +.Q Q Q Q Q Q <.<.>.-.O . . . . O -.>.<.<.Q Q I B y 7 e e + .                             ",
"                                . 8 j +.Q Q D Q Q Q <.<.>.-.O . . . . O -.>.<.<.Q Q I B y 7 e e + .                             ",
"                                . 4 j +.Q Q D Q Q Q <.<.<.:.=.O O O O =.:.<.<.<.Q Q ) N y 7 e e + .                             ",
"                                . q j +.Q Q Q Q Q H I <.<.<.:.-.-.-.-.:.<.<.<.I Q H I A t 7 e e + .                             ",
"                                . 8 j +.I Q Q Q Q Q Q Q <.<.<.>.>.>.>.<.<.<.Q H Q Q I B y 7 e e + .                             ",
"                                . 8 j $.H Q Q Q Q Q Q Q H <.<.<.<.<.<.<.<.I Q Q Q Q I B t 7 e e + .                             ",
"                                . 8 v *.H Q Q Q Q Q Q Q H Q <.<.<.<.<.<.W Q Q Q Q Q I B y 7 e e + .                             ",
"                                . . 4 4 j A I S Q Q S H Q Q H Q H I H D D Q Q Q Q H ` A y 7 e t 1 $ .                           ",
"                                  . . q q B I Q Q Q Q Q Q Q D A A D Q Q Q Q Q Q Q Q Q m y 7 6 5 t 2 .                           ",
"                                    . 4 i B ) H Q Q Q Q Q Q Q Q Q Q Q Q Q Q Q Q W W m g e 5 = . 5 1 .                           ",
"                                  . . q i ) ..S Q Q Q Q Q Q Q Q Q Q Q Q Q Q Q Q W { x e y 5 $ . 1 2 .                           ",
"                                  . 4 3 3 3 v +.Q Q Q Q Q Q Q Q Q Q Q Q Q H ` A m x f 7 = # . . 1 9 . . .                       ",
"                                  . 8 M ; 4 , S Q I Q Q Q Q Q Q Q Q Q Q Q Q S m u 9 w . . . .   . e e t $ .                     ",
"                                  . 8 A p q q 4 4 ` I Q Q Q H Q Q Q Q W I Q g t e e % .           . 2 w $ .                     ",
"                                . . 8 D g 4 . . . q S Q Q Q Q A A W S S Q S d 9 7 9 # .           . 2 7 $ .                     ",
"                              . . 8 8 N 0 8 .   . . 4 Q / A N m c c m c m m y 5 - = + .       . . , 6 9 # .                     ",
"                            . . 8 Q ..j ; 8 .     . 8 Q  .N g t e e e e e e y > o . .       . . h Z p e # .                     ",
"                          . 8 8 4 ` ` m i 8 .     . 8 Q x 9 8 8 4 q q 4 4 7 t > o .       . . s S / N m p % .                   ",
"                          . 8 +.+.Q H N k u 8 .   . 8 Q f * 8 . . . . . q y u > o .       . 8 O. .H / / m 7 .                   ",
"                          . 8 W I H I N g y 8 .   . 8 Q g - 8 .       . 4 c d - o .       . 4 Q I Q Q Q x 2 .                   ",
"                          . 8  ./ Q / A l 8 8 .   . 8  .g - 8 .       . 8 / g * X .       . 8  .` H I I c 6 .                   ",
"                          . 8 8 8  .Z 8 8 8 .     . . 8 z g 8 8 .     . . 8 z g = & .       . 3 B / m x 9 .                     ",
"                            . . 8 8 8 8 . .         . . 8 N g f 8 .     . . 8 N g d .         . q b 9 2 .                       ",
"                                . . . .                 . 8 a B l 8 .       . 8 h Z l .         . . . .                         ",
"                                                . . . . . 8 s S x 8 . . . . . 8 j S c 8 .                                       ",
"                                              . 8 8 8 8 8 8 b ` 8 . 8 8 8 8 8 8 M I c 8 .                                       ",
"                                              . 8 I H Q Q Q Q ` 8 . 8 / Q Q I Q W Q x 8 .                                       ",
"                                              . 8 4 q 4 8 8 8 8 . . 8 8 8 8 8 8 8 4 8 8 .                                       ",
"                                                . . . . . . . . .   . . . . . . . . . .                                         ",
"                                                                                                                                ",
"                                                                                                                                ",
"                                                                                                                                ",
"                                                                                                                                ",
"                                                                                                                                ",
"                                                                                                                                ",
"                                                                                                                                ",
"                                                                                                                                ",
"                                                                                                                                ",
"                                                                                                                                ",
"                                                                                                                                "
};
