/* XPM */
static char *_7d2b49459f44f06a92285a288873ecdNJ10ZZlkKi3p72px[] = {
/* columns rows colors chars-per-pixel */
"64 64 113 2 ",
"   c None",
".  c black",
"X  c #1B3703",
"o  c #1E3C02",
"O  c #051824",
"+  c #234400",
"@  c #264901",
"#  c #2E5B01",
"$  c #326202",
"%  c #366D00",
"&  c #3B680F",
"*  c #377601",
"=  c #3B7402",
"-  c #3C7C01",
";  c #426604",
":  c #436A04",
">  c #407F00",
",  c #4C7C02",
"<  c #707668",
"1  c #438401",
"2  c #458B01",
"3  c #568402",
"4  c #588803",
"5  c #479101",
"6  c #4A9401",
"7  c #4E9D00",
"8  c #5E9001",
"9  c #539B01",
"0  c #5C9A04",
"q  c #669C03",
"w  c #4FA000",
"e  c #53A400",
"r  c #5EA103",
"t  c #55AA00",
"y  c #5AAA00",
"u  c #5DB300",
"i  c #69A104",
"p  c #64AC02",
"a  c #6EAB04",
"s  c #72AE03",
"d  c #63B601",
"f  c #65BB00",
"g  c #6BBC02",
"h  c #76B403",
"j  c #7BBC02",
"k  c #6DC201",
"l  c #71C201",
"z  c #7BC500",
"x  c #7BCD01",
"c  c #7DD401",
"v  c #82C501",
"b  c #84CC02",
"n  c #8ACE08",
"m  c #83D402",
"M  c #8CD501",
"N  c #8CDB02",
"B  c #92DE01",
"V  c #93D60F",
"C  c #99DC16",
"Z  c #89E000",
"A  c #94E301",
"S  c #99E602",
"D  c #95E900",
"F  c #9AED00",
"G  c #9CEC01",
"H  c #9DEC01",
"J  c #9DED01",
"K  c #9EEC01",
"L  c #9EED01",
"P  c #9CEE00",
"I  c #9DEF00",
"U  c #9DEF01",
"Y  c #9EEF00",
"T  c #9EEE01",
"R  c #9FEE01",
"E  c #9EEF01",
"W  c #9FEF01",
"Q  c #9DEC02",
"!  c #9DEA05",
"~  c #9BEA01",
"^  c #9DE70C",
"/  c #9FF001",
"(  c #9FF200",
")  c #9FF102",
"_  c #9CE018",
"`  c #A0EF01",
"'  c #A1F001",
"]  c #A0F101",
"[  c #A1F201",
"{  c #A1F301",
"}  c #A3F301",
"|  c #A1F002",
" . c #A2F401",
".. c #A2F501",
"X. c #A3F601",
"o. c #A4F601",
"O. c #A4F701",
"+. c #A1F301",
"@. c #A3F800",
"#. c #A4F801",
"$. c #A5F901",
"%. c #A5FA01",
"&. c #A7FC01",
"*. c #A9FE01",
"=. c #AAFF01",
"-. c #AEFF01",
";. c #4B7892",
":. c #519FD0",
">. c #BFBFBE",
",. c #A7D0EB",
"<. c #D1E4FF",
"1. c #F8FCF6",
"2. c white",
/* pixels */
"                                                                                                                                ",
"                                                                                                                                ",
"                                                                                                                                ",
"                                                                                                                                ",
"                                                                                                                                ",
"                                                                                                                                ",
"                                                                                                                                ",
"                                                                                                                                ",
"                                                                                                                                ",
"                                            . .                                       .                                         ",
"                                          . < < . .     . . . . . . . . . .       . . < .                                       ",
"                                          . < >.< .   . 8 8 8 8 8 8 8 8 8 8 .   . < < < .                                       ",
"                                          . < >.>.< . . 8 -.o.o.o.o.X.o.*.o.. . < >.>.< .                                       ",
"                                          . < >.>.>.. . 8 [ ~ ~ ~ ~ ~ ~ Y G . . >.>.>.< .                                       ",
"                                          . < >.>.C V b A K ~ ~ ~ ~ ~ ~ ~ ~ M n C >.>.< .                                       ",
"                                          . < >.^ ~ Y K G D D S D ~ ~ ~ ~ ~ Y ( Y G >.< .                                       ",
"                                          . 8 @.~ ~ ~ ~ ~ ~ ~ ~ ~ ~ ~ ~ ~ ~ ~ ~ ~ ~ c 5 .                                       ",
"                                    . . . . 8 Y ~ ~ D K ~ ~ 2.2.2.2.2.2.~ ~ ~ ~ ~ ~ A z . . . .                                 ",
"                                    . 8 q 4 Y ~ ~ ~ ~ ~ ~ 2.1.2.2.2.2.2.2.~ ~ ~ ~ ~ Q N y 2 & .                                 ",
"                                    . 8 q A ~ ~ ~ ~ ~ ~ 2.2.2.2.2.2.2.2.2.2.~ ~ ~ ~ ( A y 2 # .                                 ",
"                                  . . 8 q B K ~ ~ ~ ~ 2.2.2.2.2.2.2.2.2.2.2.2.~ ~ ~ Y A y 2 # . . .                             ",
"                                . . 8 8 b S ~ K ~ ~ 2.2.2.2.2.<.<.<.<.2.2.2.2.2.~ ~ Y B y 6 1 % o .                             ",
"                                . 8 v -.Y K ~ ~ ~ ~ 2.2.2.2.,.:.:.:.:.,.2.2.2.2.~ ~ Y B y w t t @ .                             ",
"                                . 8 j #.~ ~ ~ S ~ ~ 2.2.2.,.;.O O O O ;.,.2.2.2.~ ~ Q A y w e w + .                             ",
"                                . 8 j #.~ ~ ~ ~ ~ ~ 2.2.<.:.O . . . . O :.<.2.2.~ ~ Y B y 7 e e + .                             ",
"                                . 8 j #.~ ~ D ~ ~ ~ 2.2.<.:.O . . . . O :.<.2.2.~ ~ Y B y 7 e e + .                             ",
"                                . 4 j #.~ ~ D ~ ~ ~ 2.2.<.:.O . . . . O :.<.2.2.~ ~ ` N y 7 e e + .                             ",
"                                . q j #.~ ~ ~ ~ ~ ~ ~ 2.2.,.;.O O O O ;.,.2.2.~ ~ K Y A y 7 e e + .                             ",
"                                . 8 j #.Y ~ ~ ~ ~ ~ ~ ~ 2.2.,.:.:.:.:.,.2.2.D ~ ~ ~ Y B y 7 e e + .                             ",
"                                . 8 j &.K ~ ~ ~ ~ ~ ~ ~ S 2.2.<.<.<.<.2.2.~ ~ ~ ~ ~ ` B t 7 e e + .                             ",
"                                . 8 v -.K ~ ~ S ~ ~ ~ ~ ~ ~ 2.2.2.2.2.2.! ~ ~ ~ ~ ~ Y B y 7 e e + .                             ",
"                                . . 4 4 j A Y ~ ~ ~ ~ ~ ~ ~ ~ ~ ~ ~ ~ D ~ ~ ~ ~ ~ ~ [ A y 7 e t 1 $ .                           ",
"                                  . . q q B Y ~ ~ ~ ~ ~ ~ ~ D D D D ~ ~ ~ ~ ~ ~ ~ ~ ~ m y 7 6 5 t 2 .                           ",
"                                    . 4 i B ` K ~ ~ ~ ~ ~ ~ ~ ~ ~ ~ ~ ~ ~ ~ ~ ~ ! ! m g t 6 = . 6 1 .                           ",
"                                  . . q i ` o.S ~ S ~ ~ ~ ~ ~ ~ ~ ~ ~ ~ ~ ~ ~ ~ ! | x e t 6 $ . 1 2 .                           ",
"                                  . 4 3 3 3 v #.~ ~ ~ ~ ~ ~ ~ ~ ~ ~ ~ ~ ~ ~ Y S m x f 7 % # . . 1 9 . . .                       ",
"                                  . 8 M ; 4 , S ~ Y ~ ~ ~ ~ ~ ~ ~ ~ ~ ~ ~ ~ ~ m u 9 w . . . .   . e e t $ .                     ",
"                                  . 8 S p q q 4 4 [ Y ~ ~ ~ ~ ~ ! ~ ~ ~ ~ ~ g t e e % .           . 2 w $ .                     ",
"                                . . 8 D g 4 . . . q S ~ ~ ~ S D D S S S ~ S d 7 7 9 # .           . 2 7 $ .                     ",
"                              . . 8 4 N 0 8 .   . . 4 ~ Y S N m c m c m m x p 5 - = + .       . . , 6 9 # .                     ",
"                            . . 8 ~ o.j ; 8 .     . 8 G [ N g t e e e e t 9 t 1 o . .       . . h Z p e # .                     ",
"                          . 8 8 8 [ [ m i 8 .     . 8 ~ x 9 8 8 4 q q 4 4 7 t > o .       . . s S ) N m p % .                   ",
"                          . 8 #.X.~ Y N k u 8 .   . 8 ~ f * 8 . . . . . q y u > o .       . 8 @.[ K Y ( m 7 .                   ",
"                          . 8 ! G ~ Y N g y 8 .   . 8 G g - 8 .       . 4 c d - o .       . 4 ~ Y ~ ~ G x 2 .                   ",
"                          . 8 X.) ~ ( A l 8 8 .   . 8 X.g - 8 .       . 8 ( g * X .       . 8 X.[ K K Y c 6 .                   ",
"                          . 8 8 8 X.Z 8 8 8 .     . . 8 z g 8 8 .     . . 8 z g = & .       . 3 B ( m x 9 .                     ",
"                            . . 8 8 8 8 . .         . . 8 N g f 8 .     . . 8 N g d .         . q b 9 5 .                       ",
"                                . . . .                 . 8 a N l 8 .       . 8 h Z l .         . . . .                         ",
"                                                . . . . . 8 s S x 8 . . . . . 8 j ~ c 8 .                                       ",
"                                              . 8 8 8 8 8 8 n [ 8 . 8 8 8 8 8 8 M ) c 8 .                                       ",
"                                              . 8 Q Q ~ ~ ~ ~ ) 8 . 8 Q ~ ~ ~ ~ ~ ~ z 8 .                                       ",
"                                              . 8 8 8 8 8 8 8 8 . . 8 8 8 8 8 8 8 8 8 8 .                                       ",
"                                                . . . . . . . . .   . . . . . . . . . .                                         ",
"                                                                                                                                ",
"                                                                                                                                ",
"                                                                                                                                ",
"                                                                                                                                ",
"                                                                                                                                ",
"                                                                                                                                ",
"                                                                                                                                ",
"                                                                                                                                ",
"                                                                                                                                ",
"                                                                                                                                ",
"                                                                                                                                "
};
