/* XPM */
static char *_851b78cfbe64f16fcefa591b04675b9NqevrHOWu3ECvkIO[] = {
/* columns rows colors chars-per-pixel */
"64 64 113 2 ",
"   c None",
".  c black",
"X  c #1B3703",
"o  c #1E3C02",
"O  c #051824",
"+  c #234400",
"@  c #264901",
"#  c #2E5B01",
"$  c #326202",
"%  c #366D00",
"&  c #3B680F",
"*  c #377601",
"=  c #3B7402",
"-  c #3C7C01",
";  c #426604",
":  c #436A04",
">  c #407F00",
",  c #4C7C02",
"<  c #707668",
"1  c #438401",
"2  c #458B01",
"3  c #568402",
"4  c #588803",
"5  c #479101",
"6  c #4A9401",
"7  c #4E9D00",
"8  c #5E9001",
"9  c #539B01",
"0  c #5C9A04",
"q  c #669C03",
"w  c #4FA000",
"e  c #53A400",
"r  c #5EA103",
"t  c #55AA00",
"y  c #5AAA00",
"u  c #5DB300",
"i  c #69A104",
"p  c #64AC02",
"a  c #6EAB04",
"s  c #72AE03",
"d  c #63B601",
"f  c #65BB00",
"g  c #6BBC02",
"h  c #76B403",
"j  c #7BBC02",
"k  c #6DC201",
"l  c #71C201",
"z  c #7BC500",
"x  c #7BCD01",
"c  c #7DD401",
"v  c #82C501",
"b  c #84CC02",
"n  c #8ACE08",
"m  c #83D402",
"M  c #8CD501",
"N  c #8CDB02",
"B  c #92DE01",
"V  c #93D60F",
"C  c #99DC16",
"Z  c #89E000",
"A  c #94E301",
"S  c #99E602",
"D  c #95E900",
"F  c #9DED01",
"G  c #9DEC01",
"H  c #9EEC01",
"J  c #9EED01",
"K  c #9CEE00",
"L  c #9DEF00",
"P  c #9DEF01",
"I  c #9EEF00",
"U  c #9EEE01",
"Y  c #9FEE01",
"T  c #9EEF01",
"R  c #9FEF01",
"E  c #9DEC02",
"W  c #9DEA05",
"Q  c #9BEA01",
"!  c #9DE70C",
"~  c #9FF001",
"^  c #9FF200",
"/  c #9FF102",
"(  c #9CE018",
")  c #A0EF01",
"_  c #A1F001",
"`  c #A0F101",
"'  c #A1F201",
"]  c #A1F301",
"[  c #A3F301",
"{  c #A1F002",
"}  c #A2F401",
"|  c #A2F501",
" . c #A3F601",
".. c #A4F601",
"X. c #A4F701",
"o. c #A1F301",
"O. c #A3F800",
"+. c #A4F801",
"@. c #A5F901",
"#. c #A5FA01",
"$. c #A7FC01",
"%. c #A9FE01",
"&. c #AAFF01",
"*. c #AEFF01",
"=. c #4B7892",
"-. c #519FD0",
";. c #BFBFBE",
":. c #A7D0EB",
">. c #D1E4FF",
",. c #F8FCF6",
"<. c #FCFDFE",
"1. c #FFFEFF",
"2. c white",
/* pixels */
"                                                                                                                                ",
"                                                                                                                                ",
"                                                                                                                                ",
"                                                                                                                                ",
"                                                                                                                                ",
"                                                                                                                                ",
"                                                                                                                                ",
"                                                                                                                                ",
"                                                                                                                                ",
"                                          .                                       . .                                           ",
"                                        . < . .       . . . . . . . . . .     . . < < .                                         ",
"                                        . < < < .   . 8 8 8 q 4 8 8 8 8 8 .   . < ;.< .                                         ",
"                                        . < ;.;.< . . ..%.} ........} *.8 . . < ;.;.< .                                         ",
"                                        . < ;.;.;.. . Q R Q Q Q Q Q Q / 8 . . ;.;.;.< .                                         ",
"                                        . < ;.;.C n M Q R Q Q Q Q Q Q R A b V ( ;.;.< .                                         ",
"                                        . < ;./ Q / R Q Q Q Q D D Q D Q Q Q R Q ! ;.< .                                         ",
"                                        . 5 x Q Q Q Q Q Q Q Q Q Q Q Q Q Q Q Q Q Q @.q .                                         ",
"                                  . . . . z A Q Q Q Q Q Q 1.1.1.1.1.1.Q Q Q Q Q Q R 4 . . . .                                   ",
"                                  . & 2 y N / Q Q Q Q Q 1.1.1.1.1.,.,.1.Q Q Q Q Q Q R 4 8 8 .                                   ",
"                                  . # 2 y A R Q Q Q Q 1.1.1.>.>.>.>.1.1.1.Q Q Q Q Q Q A i 8 .                                   ",
"                              . . . # 2 y A R Q Q Q 1.1.1.:.-.-.-.-.:.1.1.1.Q Q Q Q Q B q 4 . .                                 ",
"                              . o % 1 6 y A R Q Q 1.1.1.:.=.O O O O =.:.1.1.1.Q Q Q Q S v q q . .                               ",
"                              . @ t t e y A R Q Q 1.1.>.-.O . . . . O -.>.1.1.Q Q Q Q Q ) *.b 4 .                               ",
"                              . + e e 7 t N R Q Q 1.1.>.-.O . . . . O -.>.1.1.Q Q Q Q Q Q ..j q .                               ",
"                              . + e e 7 y B R Q Q 1.1.>.-.O . . . . O -.>.1.1.Q Q Q Q Q Q @.j 4 .                               ",
"                              . + e e 7 y N R Q Q 1.1.>.-.O . . . . O -.>.1.1.Q Q Q D Q Q @.j 4 .                               ",
"                              . + e e 7 y B R Q Q 1.1.1.:.=.O O O O =.:.1.1.1.Q Q Q S Q Q @.j q .                               ",
"                              . + e e 7 y B R Q Q Q 1.1.1.:.-.-.-.-.:.1.1.1.Q Q Q Q Q Q Q @.j 4 .                               ",
"                              . + e e w t A R Q Q Q Q 1.1.1.>.>.>.>.1.1.1.Q Q Q Q Q Q Q Q @.j 8 .                               ",
"                              . + e e 7 t A R Q Q Q D Q 1.1.1.1.1.1.1.1.Q Q Q Q Q Q Q Q Q %.j 8 .                               ",
"                              . + e e w y B R Q Q Q Q Q W 1.1.1.1.1.1.Q Q Q Q Q Q Q Q Q ) %.z 8 .                               ",
"                            . $ 1 e e w y B _ Q Q Q Q Q Q D Q Q Q Q Q Q Q Q Q Q Q Q Q A j 4 8 . .                               ",
"                            . 2 t 2 6 7 y m S S Q Q Q Q Q Q Q D D D A Q Q Q Q Q Q Q ) B q 8 . .                                 ",
"                            . 1 6 . = 6 t g N W Q Q Q Q Q Q Q Q Q Q Q Q Q Q Q Q Q Q ) A q 8 .                                   ",
"                            . 1 1 . $ 6 t e x ) R Q Q Q Q Q Q Q Q Q Q Q Q Q Q Q Q Q ..Q a q . .                                 ",
"                        . . . 7 1 . . # % 7 f x m S R Q Q Q Q Q Q Q Q Q Q Q Q Q Q ..v 4 3 , 4 .                                 ",
"                      . $ e e e .   . . . . 9 7 y m S S Q Q E Q Q Q Q Q Q Q Q Q Q S , 4 : N 8 .                                 ",
"                      . $ e 2 .           . = e e y k R E E Q Q R Q Q Q Q Q Q / 8 8 4 q p A 8 .                                 ",
"                      . $ 9 2 .           . # 7 7 6 d S S S A D S A S D Q Q S 8 . . . q g A 8 . .                               ",
"                      . # 9 6 1 . .       . + = - 5 u b m m m m c m N S R Q 8 . .   . 4 0 N 8 8 . .                             ",
"                      . # e y A h . .       . . o > t w e e e e e t g N _ Q 8 .     . 8 ; j @.Q 8 . .                           ",
"                    . * p m N R A s . .       . o > t 7 8 8 8 8 8 8 4 9 c Q 8 .     . 8 r M _ / 8 4 q .                         ",
"                    . 6 m / R Q _ @.8 .       . o > u y 8 . . . . . q * f Q 8 .   . 8 u k N R Q ....4 .                         ",
"                    . 2 x R Q Q / Q 4 .       . o - f b 8 .       . 4 - g Q 8 .   . 8 y g N R Q R Q q .                         ",
"                    . 6 c R E E { { q .       . X * k / 8 .       . 8 - k } 8 .   . 8 8 l A _ Q _ _ 4 .                         ",
"                      . 9 c m / B 3 .       . $ = g z 8 . .     . q 8 g z 8 . .     . 8 8 8 Z } 4 q q .                         ",
"                        . 5 9 b q .         . d g N 8 . .     . 4 f g N 8 . .         . . 8 8 8 8 . .                           ",
"                          . . . .         . l Z h 8 .       . 8 z N a 8 .                 . . . .                               ",
"                                        . q c S j q . . . . . 8 x S s q . . . . .                                               ",
"                                        . 4 c ) M 4 q 4 8 8 8 . 8 ) b 4 q 4 q 4 8 .                                             ",
"                                        . 4 x S Q Q S Q Q R 8 . 8 ) S S S S Q R 8 .                                             ",
"                                        . q 4 q q 4 q 4 8 8 8 . . 4 q 4 q 4 8 8 8 .                                             ",
"                                          . . . . . . . . . .   . . . . . . . . .                                               ",
"                                                                                                                                ",
"                                                                                                                                ",
"                                                                                                                                ",
"                                                                                                                                ",
"                                                                                                                                ",
"                                                                                                                                ",
"                                                                                                                                ",
"                                                                                                                                ",
"                                                                                                                                ",
"                                                                                                                                ",
"                                                                                                                                "
};
