/* XPM */
static char *da21fd30d55543939037c5c1e78878b6bp6k78vPOQ4lKiAL[] = {
/* columns rows colors chars-per-pixel */
"64 64 113 2 ",
"   c None",
".  c black",
"X  c #1B3703",
"o  c #1E3C02",
"O  c #051824",
"+  c #234400",
"@  c #264901",
"#  c #2E5B01",
"$  c #326202",
"%  c #366D00",
"&  c #3B680F",
"*  c #377601",
"=  c #3B7402",
"-  c #3C7C01",
";  c #426604",
":  c #436A04",
">  c #407F00",
",  c #4C7C02",
"<  c #707668",
"1  c #438401",
"2  c #458B01",
"3  c #568402",
"4  c #588803",
"5  c #479101",
"6  c #4A9401",
"7  c #4E9D00",
"8  c #5E9001",
"9  c #539B01",
"0  c #5C9A04",
"q  c #669C03",
"w  c #4FA000",
"e  c #53A400",
"r  c #5EA103",
"t  c #55AA00",
"y  c #5AAA00",
"u  c #5DB300",
"i  c #69A104",
"p  c #64AC02",
"a  c #6EAB04",
"s  c #72AE03",
"d  c #63B601",
"f  c #65BB00",
"g  c #6BBC02",
"h  c #76B403",
"j  c #7BBC02",
"k  c #6DC201",
"l  c #71C201",
"z  c #7BC500",
"x  c #7BCD01",
"c  c #7DD401",
"v  c #82C501",
"b  c #84CC02",
"n  c #8ACE08",
"m  c #83D402",
"M  c #8CD501",
"N  c #8CDB02",
"B  c #92DE01",
"V  c #93D60F",
"C  c #99DC16",
"Z  c #89E000",
"A  c #94E301",
"S  c #99E602",
"D  c #95E900",
"F  c #9DEC01",
"G  c #9DED01",
"H  c #9CEC01",
"J  c #9EEC01",
"K  c #9EED01",
"L  c #9CEE00",
"P  c #9DEF00",
"I  c #9DEF01",
"U  c #9EEF00",
"Y  c #9EEE01",
"T  c #9FEE01",
"R  c #9EEF01",
"E  c #9FEF01",
"W  c #9DEC02",
"Q  c #9DEA05",
"!  c #9BEA01",
"~  c #9DE70C",
"^  c #9FF001",
"/  c #9FF200",
"(  c #9FF102",
")  c #9CE018",
"_  c #A0EF01",
"`  c #A1F001",
"'  c #A0F101",
"]  c #A1F201",
"[  c #A1F301",
"{  c #A3F301",
"}  c #A1F002",
"|  c #A2F401",
" . c #A2F501",
".. c #A3F601",
"X. c #A4F601",
"o. c #A4F701",
"O. c #A1F301",
"+. c #A3F800",
"@. c #A4F801",
"#. c #A5F901",
"$. c #A5FA01",
"%. c #A7FC01",
"&. c #A9FE01",
"*. c #AAFF01",
"=. c #AEFF01",
"-. c #4B7892",
";. c #519FD0",
":. c #BFBFBE",
">. c #A7D0EB",
",. c #D1E4FF",
"<. c #F8FCF6",
"1. c #FCFDFE",
"2. c white",
/* pixels */
"                                                                                                                                ",
"                                                                                                                                ",
"                                                                                                                                ",
"                                                                                                                                ",
"                                                                                                                                ",
"                                                                                                                                ",
"                                                                                                                                ",
"                                                                                                                                ",
"                                                                                                                                ",
"                                            . .                                       .                                         ",
"                                          . < < . .     . . . . . . . . . .       . . < .                                       ",
"                                          . < :.< .   . 8 8 q 4 8 8 8 8 8 8 .   . < < < .                                       ",
"                                          . < :.:.< . . q =.' X.X.X...X.&.X.. . < :.:.< .                                       ",
"                                          . < :.:.:.. . 4 ' ! ! ! ! ! ! U H . . :.:.:.< .                                       ",
"                                          . < :.:.C V b A U ! ! ! ! ! ! ! ! M n C :.:.< .                                       ",
"                                          . < :.~ ! U J ! D ! S D ! ! ! ! ! U / U H :.< .                                       ",
"                                          . 8 +.! ! ! ! ! ! U J J J J J ! ! ! ! ! ! c 5 .                                       ",
"                                    . . . . 8 U ! ! D ! ! ! 1.1.1.1.1.1.! ! ! ! ! ! A z . . . .                                 ",
"                                    . 8 q 4 U ! ! ! ! J ! 1.<.,.,.,.,.1.1.J ! ! ! ! Y N y 2 & .                                 ",
"                                    . 8 q A ! ! ! ! ! J 1.1.>.;.;.;.;.>.1.1.! J ! ! U A y 2 # .                                 ",
"                                  . . 8 q B J ! ! ! ! 1.1.>.-.O O O O -.>.1.1.U ! ! U A y 2 # . . .                             ",
"                                . . 8 8 b S ! J ! ! 1.1.,.;.O . . . . O ;.,.1.1.! ! Y B y 6 1 % o .                             ",
"                                . 8 v =.U J S ! ! ! 1.1.,.;.O . . . . O ;.,.1.1.! ! Y A y w t t @ .                             ",
"                                . 8 j @.! ! ! ! J U 1.1.,.;.O . . . . O ;.,.1.1.! ! _ N y w e w + .                             ",
"                                . 8 j @.! ! ! ! ! ! 1.1.1.>.-.O O O O -.>.1.1.1.! ! U B y 7 e e + .                             ",
"                                . 8 j @.! ! D ! ! ! 1.1.1.1.>.;.;.;.;.>.1.1.1.1.! ! U B y 7 e e + .                             ",
"                                . 4 j @.! ! D ! ! ! 1.1.1.1.1.,.,.,.,.1.1.1.1.1.! ! ' N y 7 e e + .                             ",
"                                . q j @.! ! ! ! ! J U 1.1.1.1.1.1.1.1.1.1.1.1.U ! J U B y 7 e e + .                             ",
"                                . 8 j @.U ! ! ! ! ! ! ! 1.1.1.1.1.1.1.1.1.1.! J ! ! U A y 7 e e + .                             ",
"                                . 8 j %.J ! ! ! ! ! ! ! J 1.1.1.1.1.1.1.1.U ! ! ! ! J B t 7 e e + .                             ",
"                                . 8 v =.J ! ! ! ! ! ! ! J ! 1.1.1.1.1.1.Q ! ! ! ! ! U B y 7 e e + .                             ",
"                                . . 4 4 j A U S ! ! S J ! ! J ! J U J D D ! ! ! ! J ' A y 7 e t 1 $ .                           ",
"                                  . . q q B U ! ! ! Q ! ! ! D A A D ! ! ! ! ! ! ! ! ! m y 7 6 5 t 2 .                           ",
"                                    . 4 i B _ J ! ! ! ! ! ! ! ! ! ! ! ! ! ! ! ! Q Q m g e 6 = . 6 1 .                           ",
"                                  . . q i _ X.S ! ! ! ! ! ! ! ! ! ! ! ! ! ! ! ! Q _ x e y 6 $ . 1 2 .                           ",
"                                  . 4 3 3 3 v @.! ! ! ! ! ! ! ! ! ! ! ! ! J ' A m x f 7 % # . . > 9 . . .                       ",
"                                  . 8 M ; 4 , S ! H ! ! ! ! ! ! ! ! ! ! ! ! S m u 9 w . . . .   . e e t $ .                     ",
"                                  . 8 A p q q 4 4 / U ! ! ! J ! ! ! ! ! U ! g y e e % .           . 2 w $ .                     ",
"                                . . 8 D g 4 . . . q A J ! ! ! A S S S S Q D d 7 7 9 # .           . 2 7 $ .                     ",
"                              . . 8 8 N 0 8 .   . . 4 ! / A N m m c m c m b y 5 - = + .       . . , 6 9 # .                     ",
"                            . . 8 ! X.j ; 8 .     . 8 ! ..N g t e e e e e e t 1 o . .       . . h Z p e # .                     ",
"                          . q 4 4 ' ' m i 8 .     . 8 ! x 9 8 8 4 q 8 4 4 7 t > o .       . . s A ( N m p % .                   ",
"                          . 8 @.@.! J N k u 8 .   . 8 ! f * 8 . . . . . 8 d y > o .       . 8 ..X.J U / m 7 .                   ",
"                          . 8 J U J U N g y 8 .   . 8 ! g - 8 .       . 4 m f - o .       . 4 ! U ! ! H x 2 .                   ",
"                          . 8 ../ Q / A l 8 8 .   . 8 ..g - 8 .       . 8 / k * X .       . 8 ..' J U U c 6 .                   ",
"                          . 8 8 8 ..Z 8 8 8 .     . . 8 z g 8 8 .     . . 4 z g = & .       . 3 B ' m x 9 .                     ",
"                            . . 8 8 8 8 . .         . . 8 N g f 8 .     . . q N g f .         . q b 9 2 .                       ",
"                                . . . .                 . 8 a B l q .       . 4 h Z l .         . . . .                         ",
"                                                . . . . . 4 h S x 8 . . . . . 8 j S c 8 .                                       ",
"                                              . 8 8 8 8 q 4 b ' 8 . 8 8 8 8 8 8 M Y c 8 .                                       ",
"                                              . 4 U J ! J J ! / 8 . 8 U ! ! ! ! Q Q x 8 .                                       ",
"                                              . q 8 8 8 4 q 4 8 . . 8 8 8 8 8 8 8 8 8 8 .                                       ",
"                                                . . . . . . . . .   . . . . . . . . . .                                         ",
"                                                                                                                                ",
"                                                                                                                                ",
"                                                                                                                                ",
"                                                                                                                                ",
"                                                                                                                                ",
"                                                                                                                                ",
"                                                                                                                                ",
"                                                                                                                                ",
"                                                                                                                                ",
"                                                                                                                                ",
"                                                                                                                                "
};
