/* XPM */
static char *f9d665181dac4dd3dfaa18f8e4eaea51FPunmJmTF6OkeMmU[] = {
/* columns rows colors chars-per-pixel */
"64 64 113 2 ",
"   c None",
".  c black",
"X  c #1B3703",
"o  c #1E3C02",
"O  c #051824",
"+  c #234400",
"@  c #264901",
"#  c #2E5B01",
"$  c #326202",
"%  c #366D00",
"&  c #3B680F",
"*  c #377601",
"=  c #3B7402",
"-  c #3C7C01",
";  c #426604",
":  c #436A04",
">  c #407F00",
",  c #4C7C02",
"<  c #707668",
"1  c #438401",
"2  c #458B01",
"3  c #568402",
"4  c #588803",
"5  c #479101",
"6  c #4A9401",
"7  c #4E9D00",
"8  c #5E9001",
"9  c #539B01",
"0  c #5C9A04",
"q  c #669C03",
"w  c #4FA000",
"e  c #53A400",
"r  c #5EA103",
"t  c #55AA00",
"y  c #5AAA00",
"u  c #5DB300",
"i  c #69A104",
"p  c #64AC02",
"a  c #6EAB04",
"s  c #72AE03",
"d  c #63B601",
"f  c #65BB00",
"g  c #6BBC02",
"h  c #76B403",
"j  c #7BBC02",
"k  c #6DC201",
"l  c #71C201",
"z  c #7BC500",
"x  c #7BCD01",
"c  c #7DD401",
"v  c #82C501",
"b  c #84CC02",
"n  c #8ACE08",
"m  c #83D402",
"M  c #8CD501",
"N  c #8CDB02",
"B  c #92DE01",
"V  c #93D60F",
"C  c #99DC16",
"Z  c #89E000",
"A  c #94E301",
"S  c #99E602",
"D  c #95E900",
"F  c #9AED00",
"G  c #9CEC01",
"H  c #9DEC01",
"J  c #9DED01",
"K  c #9EEC01",
"L  c #9EED01",
"P  c #9CEE00",
"I  c #9DEF00",
"U  c #9DEF01",
"Y  c #9EEF00",
"T  c #9EEE01",
"R  c #9FEE01",
"E  c #9EEF01",
"W  c #9FEF01",
"Q  c #9DEC02",
"!  c #9DEA05",
"~  c #9BEA01",
"^  c #9DE70C",
"/  c #9FF001",
"(  c #9FF200",
")  c #9FF102",
"_  c #9CE018",
"`  c #A0EF01",
"'  c #A1F001",
"]  c #A0F101",
"[  c #A1F201",
"{  c #A1F301",
"}  c #A3F301",
"|  c #A1F002",
" . c #A2F401",
".. c #A2F501",
"X. c #A3F601",
"o. c #A4F601",
"O. c #A4F701",
"+. c #A1F301",
"@. c #A3F800",
"#. c #A4F801",
"$. c #A5F901",
"%. c #A5FA01",
"&. c #A7FC01",
"*. c #A9FE01",
"=. c #AAFF01",
"-. c #AEFF01",
";. c #4B7892",
":. c #519FD0",
">. c #BFBFBE",
",. c #A7D0EB",
"<. c #D1E4FF",
"1. c #F8FCF6",
"2. c white",
/* pixels */
"                                                                                                                                ",
"                                                                                                                                ",
"                                                                                                                                ",
"                                                                                                                                ",
"                                                                                                                                ",
"                                                                                                                                ",
"                                                                                                                                ",
"                                                                                                                                ",
"                                                                                                                                ",
"                                          .                                       . .                                           ",
"                                        . < . .       . . . . . . . . . .     . . < < .                                         ",
"                                        . < < < .   . 4 4 q 8 8 8 8 8 8 8 .   . < >.< .                                         ",
"                                        . < >.>.< . . $.*.o.o.o.o.o.X.-.8 . . < >.>.< .                                         ",
"                                        . < >.>.>.. . U U ~ ~ ~ ~ ~ G ' 8 . . >.>.>.< .                                         ",
"                                        . < >.>.C n M ~ ~ ~ ~ ~ ~ ~ ~ ~ A b V _ >.>.< .                                         ",
"                                        . < >.G U ' ` ~ ~ ~ ~ D D ~ D ~ G ~ U ~ ^ >.< .                                         ",
"                                        . 5 x ~ ~ ~ ~ ~ ~ ~ ~ ~ ~ ~ ~ ~ ~ ~ ~ ~ ~ o.q .                                         ",
"                                  . . . . z A G ~ ~ ~ ~ ~ 2.2.2.2.2.2.~ ~ ~ ~ ~ ~ ` 4 . . . .                                   ",
"                                  . & 2 t B U ~ ~ ~ ~ ~ 2.2.2.2.2.2.1.2.~ ~ ~ ~ ~ ~ ~ 8 q 4 .                                   ",
"                                  . # 2 y A U ~ ~ ~ ~ 2.2.2.2.2.2.2.2.2.2.~ ~ ~ ~ ~ ~ S q 8 .                                   ",
"                              . . . # 2 y A U ~ ~ ~ 2.2.2.2.2.2.2.2.2.2.2.2.~ ~ ~ ~ ~ B q 8 . .                                 ",
"                              . o % 2 6 y A U ~ ~ 2.2.2.2.2.<.<.<.<.2.2.2.2.2.~ ~ ~ ~ S b 8 8 . .                               ",
"                              . @ t t 7 y B U ~ ~ 2.2.2.2.,.:.:.:.:.,.2.2.2.2.~ ~ ~ ~ ~ ` -.b 4 .                               ",
"                              . + e e 7 y B ` ~ ~ 2.2.2.,.;.O O O O ;.,.2.2.2.~ ~ ~ ~ ~ ~ $.j 4 .                               ",
"                              . + e e 7 y B U ~ ~ 2.2.<.:.O . . . . O :.<.2.2.~ ~ ~ ~ ~ ~ $.j q .                               ",
"                              . + e e 7 t B ` ~ ~ 2.2.<.:.O . . . . O :.<.2.2.~ ~ ~ D ~ ~ $.j 4 .                               ",
"                              . + e e 7 y B ` ~ ~ 2.2.<.:.O . . . . O :.<.2.2.~ ~ ~ D ~ ~ $.j q .                               ",
"                              . + e e 7 y B ` ~ ~ ~ 2.2.,.;.O O O O ;.,.2.2.~ ~ ~ ~ ~ ~ ~ $.j 4 .                               ",
"                              . + e e w t A U ~ ~ ~ ~ 2.2.,.:.:.:.:.,.2.2.~ ~ ~ ~ ~ ~ ~ ~ $.j 8 .                               ",
"                              . + e e 7 y B ` ~ ~ ~ ~ ~ 2.2.<.<.<.<.2.2.~ ~ ~ ~ ~ ~ ~ ~ ` $.j 8 .                               ",
"                              . + e e w t B U ~ ~ ~ ~ ~ ! 2.2.2.2.2.2.~ ~ ~ ~ ~ ~ ~ ~ ~ ~ -.z 8 .                               ",
"                            . $ 1 e e w y A ' ~ ~ ~ S ~ D D ~ ~ ~ ~ ~ ~ ~ ~ ~ ~ ~ ~ ~ A j 4 8 . .                               ",
"                            . 2 t 5 6 6 y m S ! ~ ~ ~ ~ ~ ~ ~ D A D D ~ ~ ~ ~ ~ ~ ~ ` B q 8 . .                                 ",
"                            . 1 5 . - 6 e g m ! ~ ~ ~ ~ ~ ~ ~ ~ ~ ~ ~ ~ ~ ~ ~ ~ ~ ~ ` A q 8 .                                   ",
"                            . 1 1 . $ 6 y e x ` U ~ ~ ~ ~ ~ ~ ~ ~ ~ ~ ~ ~ ~ ~ ~ ~ ~ o.~ a q . .                                 ",
"                        . . . 7 1 . . # * 7 g x m S ` ~ ~ ~ ~ ~ ~ ~ ~ ~ ~ ~ ~ ~ ~ $.v 4 3 , 4 .                                 ",
"                      . $ t e e .   . . . . e 7 y m ~ ~ ~ ~ ~ ~ ~ ~ ~ ~ ~ ~ ~ ~ ~ ~ , 4 : M 8 .                                 ",
"                      . $ w 2 .           . % e e y g ~ U ! ~ ~ ~ ~ ~ ~ ~ ~ ~ U 8 8 4 q p S 8 .                                 ",
"                      . $ w 2 .           . # 7 9 6 d ~ S S S D S D S ~ ~ ~ S 8 . . . 8 g A 8 . .                               ",
"                      . # 9 5 3 . .       . + = - 5 u b c m m m c m N S U ~ 8 . .   . 4 0 N 8 8 . .                             ",
"                      . # e p Z h . .       . . o 1 e e e e e e e e g N ' G 8 .     . 8 & j o.~ 8 . .                           ",
"                    . % p m N U A s . .       . o > t 7 8 4 8 8 4 q 4 9 x ~ 8 .     . 8 i m ' ' 8 4 q .                         ",
"                    . 7 m ' U ~ } o.8 .       . o > u y 8 . . . . . q * f ~ 8 .   . 8 u l N U ~ o.o.4 .                         ",
"                    . 2 x U ~ ~ ` ~ 4 .       . o - f m 8 .       . 4 - k G 8 .   . 8 y g N U ~ U ~ q .                         ",
"                    . 6 c U Q Q +.+.8 .       . X * g ' 8 .       . 8 - g X.8 .   . 8 8 l A ' ~ ' ' 4 .                         ",
"                      . 9 c m ) B 3 .       . $ > g z 4 . .     . q 8 g z 8 . .     . 8 8 8 Z @.4 q q .                         ",
"                        . 5 9 b q .         . f g N 8 . .     . 4 f g N 8 . .         . . 8 8 8 8 . .                           ",
"                          . . . .         . l N h 8 .       . 8 z N a 8 .                 . . . .                               ",
"                                        . q c S j q . . . . . 8 x S s 8 . . . . .                                               ",
"                                        . 4 c U M 4 q 4 8 8 8 . 8 } b 8 q 4 q 4 8 .                                             ",
"                                        . 8 x S ~ ~ S ~ ~ U 8 . 8 ` S S S S ~ U 8 .                                             ",
"                                        . 8 4 q q 4 q 4 8 8 8 . . 8 q 4 q 4 8 8 8 .                                             ",
"                                          . . . . . . . . . .   . . . . . . . . .                                               ",
"                                                                                                                                ",
"                                                                                                                                ",
"                                                                                                                                ",
"                                                                                                                                ",
"                                                                                                                                ",
"                                                                                                                                ",
"                                                                                                                                ",
"                                                                                                                                ",
"                                                                                                                                ",
"                                                                                                                                ",
"                                                                                                                                "
};
