/* XPM */
static char *result[] = {
/* columns rows colors chars-per-pixel */
"64 64 25 1 ",
"  c #131313",
". c #744A15",
"X c #552D5B",
"o c #59176F",
"O c #5A196E",
"+ c #5D1F6E",
"@ c #5D1E74",
"# c #5C206D",
"$ c #5F2171",
"% c #675C49",
"& c #7E548B",
"* c #80538F",
"= c #804C91",
"- c #825194",
"; c #9D9687",
": c #A69783",
"> c #AC9D8A",
", c #B6AFA0",
"< c #EED3A5",
"1 c #F2D1A4",
"2 c #F5D2AD",
"3 c #F6DBAB",
"4 c #D2C3D7",
"5 c #FDFEFD",
"6 c None",
/* pixels */
"6666666666666666666666666666666666666666666666666666666666666666",
"6666666666666666666666666666666666666666666666666666666666666666",
"6666666666666666666666666666666666666666666666666666666666666666",
"6666666666666666666666666666666666666666666666666666666666666666",
"6666666666666666666666666666666666666666666666666666666666666666",
"6666666666666666666666666666666666666666666666666666666666666666",
"6666666666666666666666666666666666666666666666666666666666666666",
"6666666666666666666666666666666666666666666666666666666666666666",
"6666666666666666666666666666666666666666666666   666666666666666",
"6666666666666666666666666666666666    6666666     66666666666666",
"666666666666666666666666666666666   55 66666 5   5 6666666666666",
"66666666666666666666666666666666    55566666 55555 6666666666666",
"66666666666666666666666666666666   555==6666=45555=6666666666666",
"66666666666666666666666666666666 4555===6666==444==6666666666666",
"66666666666666666666666666666666 444====6666=======6666666666666",
"666666666666666666666666666666666X======66666=====66666666666666",
"6666666666666666666666666666666666XX==6=66666666=666666666666666",
"666666666666666666666666666666666666666=66666666=666666666666666",
"6666666666666666666666666666666666666666=666%%6=6666666666666666",
"666666666666666666666666666666666%%66666=66%>%6*6666666666666666",
"666666666666666666666666666666666%:%666%%%%%>%6-%666666666666666",
"666666666666666666666666666666666%>>%%%>%>>%%%%>%%66666666666666",
"66666666666666666666666666666666%%%%>>>##%%>>%>%>%6%%66666666666",
"6666666666666666666666666666666%>%>>%##==######%%%%>%66666666666",
"6666666666666666666666666666666%%>%%#==========#>>>%666666666666",
"6666666666666666666666666666666%>>##=######==&==#%%>%66666666666",
"6666666666666666666666666666666%>#==#55  55##====#>%>%6666666666",
"6666666666666666666666666666666##=## 5   5   ##==#>%%%6666666666",
"6666666666666666666666666666666#=#            5#==#%666666666666",
"666666666666666666666666666666#=#5             ##=#>%66666666666",
"666666666666666666666666666666#=#              5##=#>%6666666666",
"666666666666666666666666666666#=# 222222222    55#=#>%6666666666",
"666666666666666666666666666666#=# 2  222  22     #=#%%6666666666",
"666666666666666666666666666666#=#22  222  222    #=#666666666666",
"6666666666666666666666666666666##22  222  222 22 #=#666666666666",
"666666666666666666666666666..6666222222222222222 #=#666666666666",
"666666666666666666666666666.,.666212     2222222#=+6666666666666",
"666666666666666666666666666.,,.66222 555 23<22###=#6666666666666",
"666666666666666666666666666.,,,###222   2222###===#6666666666666",
"666666666666666666666666666.;,,,#=##222222##O====#66666666666666",
"6666666666666666666666666666.;,,#===######======#,.6666666666666",
"6666666666666666666666666666.;,,#===============#,,.666666666666",
"66666666666666666666666666666.;,#==============#,,,.666666666666",
"666666666666666666666666666666.;;#==#########==#,,,,.66666666666",
"6666666666666666666666666666666..#=============#;,,,.66666666666",
"666666666666666666666666666666666#=============#.;,,,.6666666666",
"6666666666666666666666666666666666o==########==#6.;,,.6666666666",
"6666666666666666666666666666666666$============#66.;;;.666666666",
"6666666666666666666666666666666666@============#66.....666666666",
"666666666666666666666666666666666...==========....66666666666666",
"66666666666666666666666666666666.,,,.======...,,,.66666666666666",
"6666666666666666666666666666666.;;,,,.#####.;;;,,,.6666666666666",
"6666666666666666666666666666666.......66666........6666666666666",
"6666666666666666666666666666666666666666666666666666666666666666",
"6666666666666666666666666666666666666666666666666666666666666666",
"6666666666666666666666666666666666666666666666666666666666666666",
"6666666666666666666666666666666666666666666666666666666666666666",
"6666666666666666666666666666666666666666666666666666666666666666",
"6666666666666666666666666666666666666666666666666666666666666666",
"6666666666666666666666666666666666666666666666666666666666666666",
"6666666666666666666666666666666666666666666666666666666666666666",
"6666666666666666666666666666666666666666666666666666666666666666",
"6666666666666666666666666666666666666666666666666666666666666666",
"6666666666666666666666666666666666666666666666666666666666666666"
};
