/* XPM */
static char *result[] = {
/* columns rows colors chars-per-pixel */
"64 64 234 2 ",
"   c black",
".  c #020501",
"X  c #050503",
"o  c #060704",
"O  c #25390D",
"+  c #273D0E",
"@  c #0A1823",
"#  c #47352F",
"$  c #2A400D",
"%  c #2A410E",
"&  c #2C430E",
"*  c #2D4410",
"=  c #2F4811",
"-  c #374E13",
";  c #395916",
":  c #395817",
">  c #3A5A17",
",  c #3A5B17",
"<  c #3E601A",
"1  c #4B651C",
"2  c #456A1C",
"3  c #466B1D",
"4  c #476E1D",
"5  c #4D691D",
"6  c #49701F",
"7  c #48731F",
"8  c #476721",
"9  c #497520",
"0  c #4A7620",
"q  c #4C7421",
"w  c #4E7A21",
"e  c #4F7922",
"r  c #4F7C22",
"t  c #517D22",
"y  c #517D23",
"u  c #537F24",
"i  c #587821",
"p  c #5B7C24",
"a  c #5F7F25",
"s  c #717669",
"d  c #578626",
"f  c #578726",
"g  c #578827",
"h  c #598928",
"j  c #5A8B28",
"k  c #5A8C28",
"l  c #5B8D28",
"z  c #5C8F29",
"x  c #5E912A",
"c  c #5F922A",
"v  c #5F942A",
"b  c #628225",
"n  c #608026",
"m  c #638527",
"M  c #648528",
"N  c #698C29",
"B  c #6A8E2A",
"V  c #60942B",
"C  c #60952B",
"Z  c #66962C",
"A  c #61982C",
"S  c #62992C",
"D  c #63992C",
"F  c #639A2C",
"G  c #649A2D",
"H  c #659C2D",
"J  c #659D2D",
"K  c #669E2E",
"L  c #6C982D",
"P  c #6F9F2F",
"I  c #739A2E",
"U  c #749B2F",
"Y  c #769E2F",
"T  c #769E30",
"R  c #68A02F",
"E  c #69A12F",
"W  c #6AA22F",
"Q  c #6AA330",
"!  c #6BA330",
"~  c #6BA530",
"^  c #6CA530",
"/  c #6CA631",
"(  c #6CA731",
")  c #6EA631",
"_  c #6FA731",
"`  c #6FA831",
"'  c #6FA931",
"]  c #6EA932",
"[  c #6FA932",
"{  c #6EAB32",
"}  c #79A231",
"|  c #70A932",
" . c #71AA32",
".. c #76A933",
"X. c #72AD33",
"o. c #74AC33",
"O. c #74AD34",
"+. c #74AE34",
"@. c #75B435",
"#. c #75B535",
"$. c #79B235",
"%. c #7BB637",
"&. c #7FB637",
"*. c #7DB837",
"=. c #7FB838",
"-. c #7FB938",
";. c #7FBB38",
":. c #80B737",
">. c #81BA38",
",. c #80BB39",
"<. c #82BA38",
"1. c #81BD39",
"2. c #82BE39",
"3. c #85BE3A",
"4. c #86BF3A",
"5. c #8AB838",
"6. c #8BB938",
"7. c #8DBC39",
"8. c #8DBC3A",
"9. c #8FBF3A",
"0. c #85C03B",
"q. c #8CC43C",
"w. c #8DC43C",
"e. c #8FC73D",
"r. c #91C13B",
"t. c #94C53D",
"y. c #91C93E",
"u. c #90CA3E",
"i. c #90CB3E",
"p. c #97C83E",
"a. c #94CB3F",
"s. c #93CC3F",
"d. c #94CC3F",
"f. c #98CA3F",
"g. c #95CF40",
"h. c #96CF40",
"j. c #9BCC40",
"k. c #99CF40",
"l. c #97D040",
"z. c #96D041",
"x. c #97D141",
"c. c #98D341",
"v. c #9BD342",
"b. c #9CD040",
"n. c #98D541",
"m. c #9BD442",
"M. c #9FD543",
"N. c #9DD743",
"B. c #A1D642",
"V. c #A3D445",
"C. c #A0D843",
"Z. c #A3D842",
"A. c #A0D844",
"S. c #A0DA44",
"D. c #A0DF46",
"F. c #A4DC45",
"G. c #A4DD45",
"H. c #A5DD45",
"J. c #A6DC45",
"K. c #A7DD45",
"L. c #A5DE45",
"P. c #A6DE46",
"I. c #A6DF46",
"U. c #A8DF46",
"Y. c #A9DA48",
"T. c #ACDE4A",
"R. c #A7E146",
"E. c #A8E046",
"W. c #A9E147",
"Q. c #A8E247",
"!. c #AAE247",
"~. c #ABE347",
"^. c #ACE347",
"/. c #A9E448",
"(. c #A8E548",
"). c #A9E548",
"_. c #ABE448",
"`. c #AAE648",
"'. c #ABE648",
"]. c #ACE448",
"[. c #ACE548",
"{. c #ADE548",
"}. c #ACE648",
"|. c #ADE648",
" X c #ADE649",
".X c #ADE749",
"XX c #AEE749",
"oX c #AFE749",
"OX c #AFE44A",
"+X c #AFE849",
"@X c #AEE949",
"#X c #AFEA4A",
"$X c #B0E749",
"%X c #B0E949",
"&X c #B0E94A",
"*X c #B1E94A",
"=X c #B1EA4A",
"-X c #B0EB4A",
";X c #B2EB4A",
":X c #B1EC4A",
">X c #B2EC4A",
",X c #B3EC4B",
"<X c #B2ED4B",
"1X c #B3ED4B",
"2X c #B4ED4B",
"3X c #B4EE4B",
"4X c #B4EF4B",
"5X c #B4EF4C",
"6X c #B5EF4C",
"7X c #B5F04C",
"8X c #B7F04C",
"9X c #B7F24C",
"0X c #B6F24D",
"qX c #B7F24D",
"wX c #B7F34D",
"eX c #B7F44D",
"rX c #B8F34C",
"tX c #B8F34D",
"yX c #B9F44C",
"uX c #B8F44D",
"iX c #B8F54D",
"pX c #BAF64E",
"aX c #BAF74E",
"sX c #BCF84E",
"dX c #BCF94F",
"fX c #C0FD50",
"gX c #C3FD50",
"hX c #56778F",
"jX c #679ECC",
"kX c #BFBFBE",
"lX c #B0CFE8",
"zX c #D5E4FC",
"xX c white",
"cX c None",
/* pixels */
"cXcXcXcXcXcXcXcXcXcXcXcXcXcXcXcXcXcXcXcXcXcXcXcXcXcXcXcXcXcXcXcXcXcXcXcXcXcXcXcXcXcXcXcXcXcXcXcXcXcXcXcXcXcXcXcXcXcXcXcXcXcXcXcX",
"cXcXcXcXcXcXcXcXcXcXcXcXcXcXcXcXcXcXcXcXcXcXcXcXcXcXcXcXcXcXcXcXcXcXcXcXcXcXcXcXcXcXcXcXcXcXcXcXcXcXcXcXcXcXcXcXcXcXcXcXcXcXcXcX",
"cXcXcXcXcXcXcXcXcXcXcXcXcXcXcXcXcXcXcXcXcXcXcXcXcXcXcXcXcXcXcXcXcXcXcXcXcXcXcXcXcXcXcXcXcXcXcXcXcXcXcXcXcXcXcXcXcXcXcXcXcXcXcXcX",
"cXcXcXcXcXcXcXcXcXcXcXcXcXcXcXcXcXcXcXcXcXcXcXcXcXcXcXcXcXcXcXcXcXcXcXcXcXcXcXcXcXcXcXcXcXcXcXcXcXcXcXcXcXcXcXcXcXcXcXcXcXcXcXcX",
"cXcXcXcXcXcXcXcXcXcXcXcXcXcXcXcXcXcXcXcXcXcXcXcXcXcXcXcXcXcXcXcXcXcXcXcXcXcXcXcXcXcXcXcXcXcXcXcXcXcXcXcXcXcXcXcXcXcXcXcXcXcXcXcX",
"cXcXcXcXcXcXcXcXcXcXcXcXcXcXcXcXcXcXcXcXcXcXcXcXcXcXcXcXcXcXcXcXcXcXcXcXcXcXcXcXcXcXcXcXcXcXcXcXcXcXcXcXcXcXcXcXcXcXcXcXcXcXcXcX",
"cXcXcXcXcXcXcXcXcXcXcXcXcXcXcXcXcXcXcXcXcXcXcXcXcXcXcXcXcXcXcXcXcXcXcXcXcXcXcXcXcXcXcXcXcXcXcXcXcXcXcXcXcXcXcXcXcXcXcXcXcXcXcXcX",
"cXcXcXcXcXcXcXcXcXcXcXcXcXcXcXcXcXcXcXcXcXcXcXcXcXcXcXcXcXcXcXcXcXcXcXcXcXcXcXcXcXcXcXcXcXcXcXcXcXcXcXcXcXcXcXcXcXcXcXcXcXcXcXcX",
"cXcXcXcXcXcXcXcXcXcXcXcXcXcXcXcXcXcXcXcXcXcXcXcXcXcXcXcXcXcXcXcXcXcXcXcXcXcXcXcXcXcXcXcXcXcXcXcXcXcXcXcXcXcXcXcXcXcXcXcXcXcXcXcX",
"cXcXcXcXcXcXcXcXcXcXcXcXcXcXcXcXcXcXcX    X cXcXcXcXcXcXcXcXcXcXcXcXcXcXcXcXcXcX  o cXcXcXcXcXcXcXcXcXcXcXcXcXcXcXcXcXcXcXcXcXcX",
"cXcXcXcXcXcXcXcXcXcXcXcXcXcXcXcXcXcX  s s     cXcX                    . cXcX    s   cXcXcXcXcXcXcXcXcXcXcXcXcXcXcXcXcXcXcXcXcXcX",
"cXcXcXcXcXcXcXcXcXcXcXcXcXcXcXcXcXcX  s kXs   cX  B B B B B B B B B B   cX  s s s   cXcXcXcXcXcXcXcXcXcXcXcXcXcXcXcXcXcXcXcXcXcX",
"cXcXcXcXcXcXcXcXcXcXcXcXcXcXcXcXcXcX  s kXkXs     B gXtXtXtXtXtXtXfXuX    s kXkXs   cXcXcXcXcXcXcXcXcXcXcXcXcXcXcXcXcXcXcXcXcXcX",
"cXcXcXcXcXcXcXcXcXcXcXcXcXcXcXcXcXcX  s kXkXkX    B 7XXXXXXXXXXXXX;X+X    kXkXkXs   cXcXcXcXcXcXcXcXcXcXcXcXcXcXcXcXcXcXcXcXcXcX",
"cXcXcXcXcXcXcXcXcXcXcXcXcXcXcXcXcXcX  s kXkXT.V.p.U.&XXXXXXXXXXXXX+XXXb.j.Y.kXkXs   cXcXcXcXcXcXcXcXcXcXcXcXcXcXcXcXcXcXcXcXcXcX",
"cXcXcXcXcXcXcXcXcXcXcXcXcXcXcXcXcXcX  s kXOX#X:XXX@X'.}.}.'.}.XXXXXXXX1X4X-X-XkXs   cXcXcXcXcXcXcXcXcXcXcXcXcXcXcXcXcXcXcXcXcXcX",
"cXcXcXcXcXcXcXcXcXcXcXcXcXcXcXcXcXcX  B iX+XXXXXXXXXXXXXXXXXXXXXXXXXXXXXXXXX+Xi.l   cXcXcXcXcXcXcXcXcXcXcXcXcXcXcXcXcXcXcXcXcXcX",
"cXcXcXcXcXcXcXcXcXcXcXcXcXcXcX        B >XXXXX}.XXXXXXxXxXxXxXxXxXXXXXXXXXXX+XR.q.        cXcXcXcXcXcXcXcXcXcXcXcXcXcXcXcXcXcXcX",
"cXcXcXcXcXcXcXcXcXcXcXcXcXcXcX  B B B >XXXXXXXXXXXXXxXxXxXxXxXxXxXxXXXXXXXXXXX;XF.' h 8   cXcXcXcXcXcXcXcXcXcXcXcXcXcXcXcXcXcXcX",
"cXcXcXcXcXcXcXcXcXcXcXcXcXcXcX  B Y U.XXXXXXXXXXXXxXxXxXzXzXzXzXxXxXxXXXXXXXXX,XI. .g ,   cXcXcXcXcXcXcXcXcXcXcXcXcXcXcXcXcXcXcX",
"cXcXcXcXcXcXcXcXcXcXcXcXcXcX    B U K.XXXXXXXXXXxXxXxXlXjXjXjXjXlXxXxXxXXXXXXX;XP.| f :       cXcXcXcXcXcXcXcXcXcXcXcXcXcXcXcXcX",
"cXcXcXcXcXcXcXcXcXcXcXcXcX    B B f.~.XXXXXXXXxXxXxXlXhX@ @ @ @ hXlXxXxXxXXXXX;XL.` v d 2 -   cXcXcXcXcXcXcXcXcXcXcXcXcXcXcXcXcX",
"cXcXcXcXcXcXcXcXcXcXcXcXcX  B t.gX,X+XXXXXXXXXxXxXzXjX@         @ jXzXxXxXXXXX;XH._ K { ] =   cXcXcXcXcXcXcXcXcXcXcXcXcXcXcXcXcX",
"cXcXcXcXcXcXcXcXcXcXcXcXcX  B 6.pXXXXXXXXXXXXXxXxXzXjX@         @ jXzXxXxXXXXX;XH._ H Q E &   cXcXcXcXcXcXcXcXcXcXcXcXcXcXcXcXcX",
"cXcXcXcXcXcXcXcXcXcXcXcXcX  B 6.pXXXXXXXXXXXXXxXxXzXjX@         @ jXzXxXxXXXXX;XH._ H Q E &   cXcXcXcXcXcXcXcXcXcXcXcXcXcXcXcXcX",
"cXcXcXcXcXcXcXcXcXcXcXcXcX  B 6.pXXXXX`.XXXXXXxXxXzXjX@         @ jXzXxXxXXXXX;XH._ H Q E &   cXcXcXcXcXcXcXcXcXcXcXcXcXcXcXcXcX",
"cXcXcXcXcXcXcXcXcXcXcXcXcX  B 6.pXXXXX`.XXXXXXxXxXxXlXhX@ @ @ @ hXlXxXxXxXXXXX;XH._ H Q E &   cXcXcXcXcXcXcXcXcXcXcXcXcXcXcXcXcX",
"cXcXcXcXcXcXcXcXcXcXcXcXcX  B 6.pXXXXX.XXXXXXXXXxXxXxXlXjXjXjXjXlXxXxXxX.XXXXX;XH._ H Q E &   cXcXcXcXcXcXcXcXcXcXcXcXcXcXcXcXcX",
"cXcXcXcXcXcXcXcXcXcXcXcXcX  B 6.pXXXXXXXXXXXXXXXXXxXxXxXzXzXzXzXxXxXxX.XXXXXXX;XH._ H Q E &   cXcXcXcXcXcXcXcXcXcXcXcXcXcXcXcXcX",
"cXcXcXcXcXcXcXcXcXcXcXcXcX  B 7.dX+XXXXXXXXXXXXXXXXXxXxXxXxXxXxXxXxXXX.XXXXXXX;XH._ H Q E %   cXcXcXcXcXcXcXcXcXcXcXcXcXcXcXcXcX",
"cXcXcXcXcXcXcXcXcXcXcXcXcX  B 9.fX&XXXXXXXXXXXXXXXXXXXxXxXxXxXxXxX$XXXXXXXXXXX;XH._ H Q E $   cXcXcXcXcXcXcXcXcXcXcXcXcXcXcXcXcX",
"cXcXcXcXcXcXcXcXcXcXcXcXcX    B m 5.W.=XXXXXXXXXXXXXXXXXXXXXXXXX'..XXXXXXXXXXX2XE._ J Q ~   cXcXcXcXcXcXcXcXcXcXcXcXcXcXcXcXcXcX",
"cXcXcXcXcXcXcXcXcXcXcXcXcXcX    B I J.1XXXXXXXXXXXXXXX).).(.`.XXXXXXXXXXXXXXXX{.m.) D V j   cXcXcXcXcXcXcXcXcXcXcXcXcXcXcXcXcXcX",
"cXcXcXcXcXcXcXcXcXcXcXcXcXcXcX  B T K.,XXXXXXXXXXXXXXXXXXXXXXXXXXXXXXXXXXXXX+Xv.=.! x q T   cXcXcXcXcXcXcXcXcXcXcXcXcXcXcXcXcXcX",
"cXcXcXcXcXcXcXcXcXcXcXcXcXcX    B } &XwX|.XXXXXXXXXXXXXXXXXXXXXXXXXXXXXX+X=X2Xe.W ] c < }       cXcXcXcXcXcXcXcXcXcXcXcXcXcXcXcX",
"cXcXcXcXcXcXcXcXcXcXcXcXcXcX  B a n b r.aX%XXXXXXXXXXXXXXXXXXXXXXXXXXX,X!.l.y.;.F 4 ; b n a B   cXcXcXcXcXcXcXcXcXcXcXcXcXcXcXcX",
"cXcXcXcXcXcXcXcXcXcXcXcXcXcX  B B.5 B i ^.{.+XXXXXXXXXXXXXXXXXXXXXXXXX|.h.O.K J   ; i B 5 Z.B   cXcXcXcXcXcXcXcXcXcXcXcXcXcXcXcX",
"cXcXcXcXcXcXcXcXcXcXcXcXcXcX  B Q...B B B B 1X&XXXXXXX+X+X+X+X+X+X=X+X3.) ! W 3   p m M ..Q.B   cXcXcXcXcXcXcXcXcXcXcXcXcXcXcXcX",
"cXcXcXcXcXcXcXcXcXcXcXcXcX    B /.&.B       B [.XXXX|.]._._._._._. X_.$.A G G >       B &./.B     cXcXcXcXcXcXcXcXcXcXcXcXcXcXcX",
"cXcXcXcXcXcXcXcXcXcXcXcX    B B M.L B   cX    B XX;X~.N.x.g.z.z.h.h.s.+.z e 6 *   cX  N L M.B B     cXcXcXcXcXcXcXcXcXcXcXcXcXcX",
"cXcXcXcXcXcXcXcXcXcXcX    B |.uX8.1 B   cXcX  B +X8XC.-.^ E W W W E R / u +     cXcX  B 1 8.uX|.B     cXcXcXcXcXcXcXcXcXcXcXcXcX",
"cXcXcXcXcXcXcXcXcXcX  B B B 3X6Xk.P B   cXcX  B XXi.Z B B B B B B B S ( y O   cXcXcX  B P k.6X3XB B B   cXcXcXcXcXcXcXcXcXcXcXcX",
"cXcXcXcXcXcXcXcXcXcX  B sX0XXX*XS.0.@.B   cX    XX*.9 B           B o.X.t   cXcXcX  B #.0.S.*XXX0Xn.C   cXcXcXcXcXcXcXcXcXcXcXcX",
"cXcXcXcXcXcXcXcXcXcX  B oX%XXX=XA.>.[ B   cXcX  +X,.r B   cXcXcX  B d.%.w   cXcXcX  B [ >.A.=XXX%Xu.k   cXcXcXcXcXcXcXcXcXcXcXcX",
"cXcXcXcXcXcXcXcXcXcX  B rX5XXX2XG.4.B B   cXcX  qX1.0 B   cXcXcX  B <X2.7   cXcXcX  B B 4.9X2X=X;XyXB   cXcXcXcXcXcXcXcXcXcXcXcX",
"cXcXcXcXcXcXcXcXcXcX  B B B wXD.B B B   cXcXcX  1.:.w.B   cXcXcX  B <X<.w.  cXcXcXcX  B B B eXc.B B B   cXcXcXcXcXcXcXcXcXcXcXcX",
"cXcXcXcXcXcXcXcXcXcXcX    B B B B     cXcXcXcX  1.<X<Xw   cXcXcX  w <X1.w   cXcXcXcXcX    B a.B B     cXcXcXcXcXcXcXcXcXcXcXcXcX",
"cXcXcXcXcXcXcXcXcXcXcXcXcX        cXcXcXcXcXcX  w <X1.w   cXcXcX  w <X1.w   cXcXcXcXcXcXcX        cXcXcXcXcXcXcXcXcXcXcXcXcXcXcX",
"cXcXcXcXcXcXcXcXcXcXcXcXcXcXcXcXcXcXcXcXcXcXcX  ; & & ;   cXcXcX  4 & & 4   cXcXcXcXcXcXcXcXcXcXcXcXcXcXcXcXcXcXcXcXcXcXcXcXcXcX",
"cXcXcXcXcXcXcXcXcXcXcXcXcXcXcXcXcXcXcXcXcXcXcX  & S.S.&   cXcXcX  & <XS.&   cXcXcXcXcXcXcXcXcXcXcXcXcXcXcXcXcXcXcXcXcXcXcXcXcXcX",
"cXcXcXcXcXcXcXcXcXcXcXcXcXcXcXcXcXcXcXcXcXcX  c.=X2X2X2X&   cX  B S.2X2X2Xc.  cXcXcXcXcXcXcXcXcXcXcXcXcXcXcXcXcXcXcXcXcXcXcXcXcX",
"cXcXcXcXcXcXcXcXcXcXcXcXcXcXcXcXcXcXcXcXcX  B # c.# B # B B   B B # B # c.# B   cXcXcXcXcXcXcXcXcXcXcXcXcXcXcXcXcXcXcXcXcXcXcXcX",
"cXcXcXcXcXcXcXcXcXcXcXcXcXcXcXcXcXcXcXcXcXcX                cX                cXcXcXcXcXcXcXcXcXcXcXcXcXcXcXcXcXcXcXcXcXcXcXcXcX",
"cXcXcXcXcXcXcXcXcXcXcXcXcXcXcXcXcXcXcXcXcXcXcXcXcXcXcXcXcXcXcXcXcXcXcXcXcXcXcXcXcXcXcXcXcXcXcXcXcXcXcXcXcXcXcXcXcXcXcXcXcXcXcXcX",
"cXcXcXcXcXcXcXcXcXcXcXcXcXcXcXcXcXcXcXcXcXcXcXcXcXcXcXcXcXcXcXcXcXcXcXcXcXcXcXcXcXcXcXcXcXcXcXcXcXcXcXcXcXcXcXcXcXcXcXcXcXcXcXcX",
"cXcXcXcXcXcXcXcXcXcXcXcXcXcXcXcXcXcXcXcXcXcXcXcXcXcXcXcXcXcXcXcXcXcXcXcXcXcXcXcXcXcXcXcXcXcXcXcXcXcXcXcXcXcXcXcXcXcXcXcXcXcXcXcX",
"cXcXcXcXcXcXcXcXcXcXcXcXcXcXcXcXcXcXcXcXcXcXcXcXcXcXcXcXcXcXcXcXcXcXcXcXcXcXcXcXcXcXcXcXcXcXcXcXcXcXcXcXcXcXcXcXcXcXcXcXcXcXcXcX",
"cXcXcXcXcXcXcXcXcXcXcXcXcXcXcXcXcXcXcXcXcXcXcXcXcXcXcXcXcXcXcXcXcXcXcXcXcXcXcXcXcXcXcXcXcXcXcXcXcXcXcXcXcXcXcXcXcXcXcXcXcXcXcXcX",
"cXcXcXcXcXcXcXcXcXcXcXcXcXcXcXcXcXcXcXcXcXcXcXcXcXcXcXcXcXcXcXcXcXcXcXcXcXcXcXcXcXcXcXcXcXcXcXcXcXcXcXcXcXcXcXcXcXcXcXcXcXcXcXcX",
"cXcXcXcXcXcXcXcXcXcXcXcXcXcXcXcXcXcXcXcXcXcXcXcXcXcXcXcXcXcXcXcXcXcXcXcXcXcXcXcXcXcXcXcXcXcXcXcXcXcXcXcXcXcXcXcXcXcXcXcXcXcXcXcX",
"cXcXcXcXcXcXcXcXcXcXcXcXcXcXcXcXcXcXcXcXcXcXcXcXcXcXcXcXcXcXcXcXcXcXcXcXcXcXcXcXcXcXcXcXcXcXcXcXcXcXcXcXcXcXcXcXcXcXcXcXcXcXcXcX",
"cXcXcXcXcXcXcXcXcXcXcXcXcXcXcXcXcXcXcXcXcXcXcXcXcXcXcXcXcXcXcXcXcXcXcXcXcXcXcXcXcXcXcXcXcXcXcXcXcXcXcXcXcXcXcXcXcXcXcXcXcXcXcXcX",
"cXcXcXcXcXcXcXcXcXcXcXcXcXcXcXcXcXcXcXcXcXcXcXcXcXcXcXcXcXcXcXcXcXcXcXcXcXcXcXcXcXcXcXcXcXcXcXcXcXcXcXcXcXcXcXcXcXcXcXcXcXcXcXcX",
"cXcXcXcXcXcXcXcXcXcXcXcXcXcXcXcXcXcXcXcXcXcXcXcXcXcXcXcXcXcXcXcXcXcXcXcXcXcXcXcXcXcXcXcXcXcXcXcXcXcXcXcXcXcXcXcXcXcXcXcXcXcXcXcX"
};
