/* XPM */
static char *result[] = {
/* columns rows colors chars-per-pixel */
"64 64 84 1 ",
"  c black",
". c #1B3703",
"X c #1E3C02",
"o c #051824",
"O c #234400",
"+ c #264901",
"@ c #2E5B01",
"# c #326202",
"$ c #366D00",
"% c #3B680F",
"& c #377601",
"* c #3B7402",
"= c #3C7C01",
"- c #426604",
"; c #436A04",
": c #407F00",
"> c #4C7C02",
", c #707668",
"< c #438401",
"1 c #458B01",
"2 c #568402",
"3 c #588803",
"4 c #479101",
"5 c #4A9401",
"6 c #4E9D00",
"7 c #5E9001",
"8 c #539B01",
"9 c #5C9A04",
"0 c #669C03",
"q c #4FA000",
"w c #53A400",
"e c #5EA103",
"r c #55AA00",
"t c #5AAA00",
"y c #5DB300",
"u c #69A104",
"i c #64AC02",
"p c #6EAB04",
"a c #72AE03",
"s c #63B601",
"d c #65BB00",
"f c #6BBC02",
"g c #76B403",
"h c #7BBC02",
"j c #6DC201",
"k c #71C201",
"l c #7BC500",
"z c #7BCD01",
"x c #7DD401",
"c c #82C501",
"v c #84CC02",
"b c #8ACE08",
"n c #83D402",
"m c #8CD501",
"M c #8CDB02",
"N c #92DE01",
"B c #93D60F",
"V c #99DC16",
"C c #89E000",
"Z c #94E301",
"A c #99E602",
"S c #95E900",
"D c #9BEA01",
"F c #9DE70C",
"G c #9FEB0C",
"H c #9FF101",
"J c #9CE018",
"K c #A0EF01",
"L c #A2F401",
"P c #A5F901",
"I c #ACFF01",
"U c #A2EC13",
"Y c #4B7892",
"T c #519FD0",
"R c #BFBFBE",
"E c #A7D0EB",
"W c #EAFBC8",
"Q c #D1E4FF",
"! c #F4FDE4",
"~ c #FBFFE8",
"^ c #FAFDF4",
"/ c #F5F9FD",
"( c #FFFFFF",
") c None",
/* pixels */
"))))))))))))))))))))))))))))))))))))))))))))))))))))))))))))))))",
"))))))))))))))))))))))))))))))))))))))))))))))))))))))))))))))))",
"))))))))))))))))))))))))))))))))))))))))))))))))))))))))))))))))",
"))))))))))))))))))))))))))))))))))))))))))))))))))))))))))))))))",
"))))))))))))))))))))))))))))))))))))))))))))))))))))))))))))))))",
"))))))))))))))))))))))))))))))))))))))))))))))))))))))))))))))))",
"))))))))))))))))))))))))))))))))))))))))))))))))))))))))))))))))",
"))))))))))))))))))))))))))))))))))))))))))))))))))))))))))))))))",
"))))))))))))))))))))))))))))))))))))))))))))))))))))))))))))))))",
"))))))))))))))))))))))  ))))))))))))))))))) ))))))))))))))))))))",
"))))))))))))))))))))) ,,  ))          )))  , )))))))))))))))))))",
"))))))))))))))))))))) ,R, ) 3077777777 ) ,,, )))))))))))))))))))",
"))))))))))))))))))))) ,RR,  3IPLPPLLIL  ,RR, )))))))))))))))))))",
"))))))))))))))))))))) ,RRR  0LDDDADDDD  RRR, )))))))))))))))))))",
"))))))))))))))))))))) ,RRJBvZDDDDDDDDDmmVRR, )))))))))))))))))))",
"))))))))))))))))))))) ,RGDDDDSSZADDDDDHHDHR, )))))))))))))))))))",
"))))))))))))))))))))) 7PDDDDDDDDDDDDDDDDDDx1 )))))))))))))))))))",
"))))))))))))))))))    7DDDZD((((((UDDDDDDDCl    ))))))))))))))))",
")))))))))))))))))) 730DDDDD(((^^(((DADDADDHZt1% ))))))))))))))))",
")))))))))))))))))) 7uZDDDD(((QQQ(~((DDDDDDDZt1@ ))))))))))))))))",
")))))))))))))))))  70NDDS((^ETTTE((((SSDDDKZt1@   ))))))))))))))",
"))))))))))))))))  07vADD(((EYoooYE/(((DDDDDNt5<$X ))))))))))))))",
")))))))))))))))) 7cIKDDD((QTo   oTQ(((DDDDLNt6rr+ ))))))))))))))",
")))))))))))))))) 7hPDDDD((QTo   oTQ(((DDDDDZt6wwO ))))))))))))))",
")))))))))))))))) 7hPDDDD((QTo   oTQ(((DDDDKZr6wwO ))))))))))))))",
")))))))))))))))) 7hPDDZD(((EYoooYE/(((DDDDKNt6wwO ))))))))))))))",
")))))))))))))))) 0hPDDZD((((ETTTE(((((ASDDKMt6wwO ))))))))))))))",
")))))))))))))))) 3hPDDDDD((((QQQ(((((DDDDDDZt6wwO ))))))))))))))",
")))))))))))))))) 7hPDDDDDD((((/(((((DDDDDDDNt6wwO ))))))))))))))",
")))))))))))))))) 7hPDDDDDDD((((((((DDSSDDDKZr6wwO ))))))))))))))",
")))))))))))))))) 7lIKDDDDDDGW((((!DDADDDDDDNt6wwO ))))))))))))))",
"))))))))))))))))  73hZDDDDDADDDDDDDSDDDDDDLZt6wr<# )))))))))))))",
")))))))))))))))))  30NDDDDADDDSSZSSDDADDDDDnt654r1 )))))))))))))",
")))))))))))))))))) 0uNLDDDDDDDDDDDDDDDDDDGnfw5* 5< )))))))))))))",
")))))))))))))))))  3uKLADDDDDDDDDDDDDDDDDKzwt5# <1 )))))))))))))",
"))))))))))))))))) 0>22cPDDDDADDDDDDDDDKZnzd6$@  :8   )))))))))))",
"))))))))))))))))) 0m;7>AADDDDDDDDDDDDDDny8q    ) www# ))))))))))",
"))))))))))))))))) 3Zi7307DDDDDDDDDDDDDftww$ ))))) 1w# ))))))))))",
"))))))))))))))))  0Zf7   7ADDDASAAAADAs668@ ))))) 16# ))))))))))",
")))))))))))))))  03m97 )  7DDZMnxxnxnzi4=*O )))  >58@ ))))))))))",
"))))))))))))))  7DLh;7 )) 7DLMfrw8wwwwt:X  )))  gSsw@ ))))))))))",
"))))))))))))) 773HLme7 )) 7Dz877307736r:X )))  aZDmni$ )))))))))",
"))))))))))))) 7PPDDMjy7 ) 7Dd&7     0ty:X ))) 7PLDHHn6 )))))))))",
"))))))))))))) 7DDDKMft7 ) 7Df:7 ))) 3xs=X ))) 3DDDDDz1 )))))))))",
"))))))))))))) 7LLDHZk77 ) 7Lf=0 ))) 7Hf&. ))) 7LLDDLx5 )))))))))",
"))))))))))))) 777LC777 ))  7lf33 ))  7lf*% ))) 2NHnz8 ))))))))))",
"))))))))))))))  7777  ))))  7Mfd7 ))  7Mfs )))) 0v84 )))))))))))",
"))))))))))))))))    )))))))) 7pNk7 ))) 7gCk ))))    ))))))))))))",
"))))))))))))))))))))))))     7aAz3     7hAx3 )))))))))))))))))))",
"))))))))))))))))))))))) 777777vL0 037777mLx0 )))))))))))))))))))",
"))))))))))))))))))))))) 0DDDDDDL3 7LDDDDDDz3 )))))))))))))))))))",
"))))))))))))))))))))))) 37773037  7777777377 )))))))))))))))))))",
"))))))))))))))))))))))))         )          ))))))))))))))))))))",
"))))))))))))))))))))))))))))))))))))))))))))))))))))))))))))))))",
"))))))))))))))))))))))))))))))))))))))))))))))))))))))))))))))))",
"))))))))))))))))))))))))))))))))))))))))))))))))))))))))))))))))",
"))))))))))))))))))))))))))))))))))))))))))))))))))))))))))))))))",
"))))))))))))))))))))))))))))))))))))))))))))))))))))))))))))))))",
"))))))))))))))))))))))))))))))))))))))))))))))))))))))))))))))))",
"))))))))))))))))))))))))))))))))))))))))))))))))))))))))))))))))",
"))))))))))))))))))))))))))))))))))))))))))))))))))))))))))))))))",
"))))))))))))))))))))))))))))))))))))))))))))))))))))))))))))))))",
"))))))))))))))))))))))))))))))))))))))))))))))))))))))))))))))))",
"))))))))))))))))))))))))))))))))))))))))))))))))))))))))))))))))"
};
