/* XPM */
static char *result[] = {
/* columns rows colors chars-per-pixel */
"64 64 25 1 ",
"  c #131313",
". c #6D4C20",
"X c #4F2F58",
"o c #521D6B",
"O c #521F6A",
"+ c #542569",
"@ c #55246A",
"# c #57266E",
"$ c #552471",
"% c #655C4B",
"& c #784F8D",
"* c #775688",
"= c #79568B",
"- c #7A5490",
"; c #9C9689",
": c #A39785",
"> c #A99D8C",
", c #B5AFA2",
"< c #ECD2AA",
"1 c #E9D4AB",
"2 c #EFD3B2",
"3 c #F1DCB1",
"4 c #CFC4D6",
"5 c #FDFEFD",
"6 c None",
/* pixels */
"6666666666666666666666666666666666666666666666666666666666666666",
"6666666666666666666666666666666666666666666666666666666666666666",
"6666666666666666666666666666666666666666666666666666666666666666",
"6666666666666666666666666666666666666666666666666666666666666666",
"6666666666666666666666666666666666666666666666666666666666666666",
"6666666666666666666666666666666666666666666666666666666666666666",
"6666666666666666666666666666666666666666666666666666666666666666",
"6666666666666666666666666666666666666666666666666666666666666666",
"6666666666666666666666666   666666666666666666666666666666666666",
"666666666666666666666666     6666666    666666666666666666666666",
"66666666666666666666666 5   5 66666 55   66666666666666666666666",
"66666666666666666666666 55555 66666555    6666666666666666666666",
"66666666666666666666666&55554&6666&&555   6666666666666666666666",
"66666666666666666666666&&444&&6666&&&5554 6666666666666666666666",
"66666666666666666666666&&&&&&&6666&&&&444 6666666666666666666666",
"666666666666666666666666&&&&&66666&&&&&&X66666666666666666666666",
"6666666666666666666666666&66666666&6&&XX666666666666666666666666",
"6666666666666666666666666&66666666&66666666666666666666666666666",
"66666666666666666666666666&6%%666&666666666666666666666666666666",
"66666666666666666666666666=6%>%66&66666%%66666666666666666666666",
"6666666666666666666666666%-6%>%%%%%666%:%66666666666666666666666",
"666666666666666666666666%%>%%%%>>%>%%%>>%66666666666666666666666",
"666666666666666666666%%6%>%>%>>%%++>>>%%%%6666666666666666666666",
"666666666666666666666%>%%%%++++++&&++%>>%>%666666666666666666666",
"6666666666666666666666%>>>+&&&&&&&&&&+%%>%%666666666666666666666",
"666666666666666666666%>%%+&&*&&++++++&++>>%666666666666666666666",
"66666666666666666666%>%>+&&&&++55  55+&&+>%666666666666666666666",
"66666666666666666666%%%>+&&++   5   5 ++&++666666666666666666666",
"6666666666666666666666%+&&+5            +&+666666666666666666666",
"666666666666666666666%>+&++             5+&+66666666666666666666",
"66666666666666666666%>+&++5              +&+66666666666666666666",
"66666666666666666666%>+&+55    222222222 +&+66666666666666666666",
"66666666666666666666%%+&+     22  222  2 +&+66666666666666666666",
"6666666666666666666666+&+    222  222  22+&+66666666666666666666",
"6666666666666666666666+&+ 22 222  222  22++666666666666666666666",
"6666666666666666666..6+&+ 2222222222222226666..66666666666666666",
"6666666666666666666.,.6@&+2222222     2<2666.,.66666666666666666",
"6666666666666666666.,,.+&+++22132 555 22266.,,.66666666666666666",
"6666666666666666666.,,,+&&&+++2222   222+++,,,.66666666666666666",
"6666666666666666666.;,,,+&&&&O++222222++&+,,,;.66666666666666666",
"66666666666666666666.;,,,+&&&&&&++++++&&&+,,;.666666666666666666",
"66666666666666666666.;,,,+&&&&&&&&&&&&&&&+,,;.666666666666666666",
"666666666666666666666.;,,,+&&&&&&&&&&&&&&+,;.6666666666666666666",
"6666666666666666666666.;;;+&&+++++++++&&+;;.66666666666666666666",
"66666666666666666666666...+&&&&&&&&&&&&&+..666666666666666666666",
"66666666666666666666666666+&&&&&&&&&&&&&+66666666666666666666666",
"66666666666666666666666666+&&++++++++&&o666666666666666666666666",
"66666666666666666666666666+&&&&&&&&&&&&#666666666666666666666666",
"66666666666666666666666666+&&&&&&&&&&&&$666666666666666666666666",
"666666666666666666666666....&&&&&&&&&&...66666666666666666666666",
"666666666666666666666666.,,,...&&&&&&.,,,.6666666666666666666666",
"66666666666666666666666.,,,;;;.+++++.,,,;;.666666666666666666666",
"66666666666666666666666........66666.......666666666666666666666",
"6666666666666666666666666666666666666666666666666666666666666666",
"6666666666666666666666666666666666666666666666666666666666666666",
"6666666666666666666666666666666666666666666666666666666666666666",
"6666666666666666666666666666666666666666666666666666666666666666",
"6666666666666666666666666666666666666666666666666666666666666666",
"6666666666666666666666666666666666666666666666666666666666666666",
"6666666666666666666666666666666666666666666666666666666666666666",
"6666666666666666666666666666666666666666666666666666666666666666",
"6666666666666666666666666666666666666666666666666666666666666666",
"6666666666666666666666666666666666666666666666666666666666666666",
"6666666666666666666666666666666666666666666666666666666666666666"
};
