/* XPM */
static char *result[] = {
/* columns rows colors chars-per-pixel */
"64 64 60 1 ",
"  c #646464",
". c #F93910",
"X c #A36B1D",
"o c #11FF00",
"O c #F9AE10",
"+ c #DD9128",
"@ c #9F70AA",
"# c #818181",
"$ c gray55",
"% c #AA9F99",
"& c #AB85BB",
"* c #E6A78D",
"= c #E0A394",
"- c #D69EBC",
"; c #E1ADB1",
": c #BABAD1",
"> c #CFA6C0",
", c #DDBCCE",
"< c #CBCACA",
"1 c #C5C5D4",
"2 c #EFE3ED",
"3 c #EFE4ED",
"4 c #EFE4EE",
"5 c #EEEAEF",
"6 c #F0E4EE",
"7 c #F0E4EF",
"8 c #F0E5EF",
"9 c #F1E5EF",
"0 c #F0E4F0",
"q c #F0E5F2",
"w c #F9F8F8",
"e c #FBF9FA",
"r c #FBFBFA",
"t c #FBFAFB",
"y c #FCFAFA",
"u c #FCFAFB",
"i c #FDFAFB",
"p c #FCFBFB",
"a c #FDFBFB",
"s c #FDFEF9",
"d c #FCFDFA",
"f c #FDFCFB",
"g c #FCFAFC",
"h c #FDFAFC",
"j c #FDFBFC",
"k c #FCFAFD",
"l c #FDFBFD",
"z c #FEFBFC",
"x c #FEFBFD",
"c c #FDFCFC",
"v c #FDFDFC",
"b c #FDFCFD",
"n c #FDFDFD",
"m c #FEFCFC",
"M c #FEFCFD",
"N c #FDFCFE",
"B c #FDFDFE",
"V c #FDFDFF",
"C c white",
"Z c None",
/* pixels */
"ZZZZZZZZZZZZZZZZZZZZZZZZZZZZ ##  ## ZZZZZZZZZZZZZZZZZZZZZZZZZZZZ",
"ZZZZZZZZZZZZZZZZZZZZZZZZZZZ ## oo ## ZZZZZZZZZZZZZZZZZZZZZZZZZZZ",
"ZZZZZZZZZZZZZZZZZZZZZZZZZZ ## oooo ## ZZZZZZZZZZZZZZZZZZZZZZZZZZ",
"ZZZZZZZZZZZZZZZZZ         ### oooo ###         ZZZZZZZZZZZZZZZZZ",
"ZZZZZZZZZZZZZZZZ ############# oo ############# ZZZZZZZZZZZZZZZZ",
"ZZZZZZZZZZZZZZZ ###############  ############### ZZZZZZZZZZZZZZZ",
"ZZZZZZZZZZZZZZ 5555555555555555555555555555555555 ZZZZZZZZZZZZZZ",
"ZZZZZZZZZZZZZ #5CCCCCCCCCCCCCCCCCCCCCCCCCCCCCCCC5# ZZZZZZZZZZZZZ",
"ZZZZZZZZZZZZ ##5CCCCCCCCCCCCCzzzzzzzzjjjzzzzzzCC5## ZZZZZZZZZZZZ",
"ZZZZZZZZZZZZ ##5CCCCCCCCCCCCCzzzzzzzzcCCCCCCCCCC5## ZZZZZZZZZZZZ",
"ZZZZZZZZZZZZ ##5CCCCCCCCCCCCCCCCCCCCCCCCCijjMMCC5## ZZZZZZZZZZZZ",
"ZZZZZZZZZZZZ ##5CCCCCCC55555CCMMMMCC55555CCjMCCC5## ZZZZZZZZZZZZ",
"ZZZZZZZZZZZZ ##5CCCCCC5@@@@@5CCMMMC5@@@@@5CaMCCC5## ZZZZZZZZZZZZ",
"ZZZZZZZZZZZZ ##5CCCCj5@@666@@5NbMM5@@666@@5aMCCC5## ZZZZZZZZZZZZ",
"ZZZZZZZZZZZZ ##5CCCCu5@66666@5VbMM5@66666@5yMCCC5## ZZZZZZZZZZZZ",
"ZZZZZZZZZZZZ ##5CCCCu5@69926@5BbMM5@67996@5aMCCC5## ZZZZZZZZZZZZ",
"ZZZZZZZZZZZZ ##5CCCCu5@69966@5nbMM5@60996@5jMCCC5## ZZZZZZZZZZZZ",
"ZZZZZZZZZZZZ ##5CCCCu5@69966@5vcCC5@60996@5gMCCC5## ZZZZZZZZZZZZ",
"ZZZZZZZZZZZZ ##5CCCCu5@66966@5vcCC5@60996@5kMCCC5## ZZZZZZZZZZZZ",
"ZZZZZZZZZZZZ ##5CCCCu5@66966@5vcCC5@66996@5kMCCC5## ZZZZZZZZZZZZ",
"ZZZZZZZZZZZZ ##5CCCCC5@66966@5vcCC5@q6996@5kMCCC5## ZZZZZZZZZZZZ",
"ZZZZZZZZZZZZ ##5CCCCC5@66966@5vCMC5@q6996@5kMCCC5## ZZZZZZZZZZZZ",
"ZZZZZZZZZZZZ ##5CCCCC5@66966@5vCMC5@q6996@5kMCCC5## ZZZZZZZZZZZZ",
"ZZZZZZZZZZZZ ##5CCCCC5@66966@5vCMC5@66996@5kMCCC5## ZZZZZZZZZZZZ",
"ZZZZZZZZZZZZ ##5CCCCC5@66966@5vCCM5@66996@5kMCCC5## ZZZZZZZZZZZZ",
"ZZZZZZZZZZZZ ##5CCCCC5@69966@5vcCM5@66996@5kMCCC5## ZZZZZZZZZZZZ",
"ZZZZZZZZZZZZ ##5CCCCC5@69966@5vcCM5@66996@5kMCCC5## ZZZZZZZZZZZZ",
"ZZZZZZZZZZZZ ##5CCCCC5@69966@5vcCM5@66996@5kMCtC5## ZZZZZZZZZZZZ",
"ZZZZZZZZZZZZ ##5CCCMC5@69966@5vcCM5@66696@5kMCtC5## ZZZZZZZZZZZZ",
"ZZZZZZZZZZZZ ##5CCCMC5@69966@5vcCM5@66696@5kMCtC5## ZZZZZZZZZZZZ",
"ZZZZZZZZZZZZ ##5CCCMC5@69966@5vcCM5@66696@5kMCtC5## ZZZZZZZZZZZZ",
"ZZZZZZZZZZZZ ##5CCCMC5@69966@5vcCM5@q6696@5kMCtC5## ZZZZZZZZZZZZ",
"ZZZZZZZZZZZZ ##5CCCMC5@69966@5vcCM5@66696@5kMCtC5## ZZZZZZZZZZZZ",
"ZZZZZZZZZZZZ ##5CCCMC5@69966@5ccCb5@66996@5gMMtC5## ZZZZZZZZZZZZ",
"ZZZZZZZZZZZZ ##5CCCMC5@68846@5cbCC5@66996@5pMMtC5## ZZZZZZZZZZZZ",
"ZZZZZZZZZZZZ ##5CCCCC5@66666@5mCCC5@66666@5pjewC5## ZZZZZZZZZZZZ",
"ZZZZZZZZZZZZ ##5CCCCu5@@@@@@@5CCCC5@@@@@@@5CCCCC5## ZZZZZZZZZZZZ",
"ZZZZZZZZZZZZ ##5CCCCje5555555CC::CC5555555eCC%%C5## ZZZZZZZZZZZZ",
"ZZZZZZZZZZZZ ##5CCCCMMMlllxjaC1:::CjjCCCCxxCC%%C5## ZZZZZZZZZZZZ",
"ZZZZZZZZZZZZ ##5CCCCMCCCCCCCC::@@::MMMMMMMMCCCCC5###      ZZZZZZ",
"ZZZZZZZZZZZZ ##5CCCCCCCCCCCCCC:@@::CCCCCCCCCCCCC5######### ZZZZZ",
"ZZZZZZZZZZZZ ##5CCCCCC5555555C:::1C5555555CCCCCC5###     ## ZZZZ",
"ZZZZZZZZZZZZ ##5CCCMC599999995CC:C599999995CC<<C5## ZZZZZ # ZZZZ",
"ZZZZZZZZZZZZ ##5CCCCC599999995CCCC599>>9995CCCCC5## ZZZZZ # ZZZZ",
"ZZZZZZZZZZZZ ##5CCCCC599&&9995CCMC599>>>995CCCCC5## ZZZZOOOOOZZZ",
"ZZZZZZZZZZZZ ##5CCCCC5&&&&&995CCCC59>==>995CCCCC5## ZZZZOOOO+ZZZ",
"ZZZZZZZZZZZZ ##5CCCCC5&&@@&995CCCC59>==>995mCCCC5## ZZZZ+++++ZZZ",
"ZZZZZZZZZZZZ ##5CCCCC59&@@&995CfCC596>>9995mCCCC5## ZZZZZXXXZZZZ",
"ZZZZZZZZZZZZ ##5CCCCC599&&9995sCCC596999995mCCCC5## ZZZZOOOOOZZZ",
"ZZZZZZZZZZZZ ##5CCCCC5999,9995sCCC599999995mCCCC5## ZZZZOO$OOZZZ",
"ZZZZZZZZZZZZ ##5CCCCC599,,,995sCCC599999995mCCCC5## ZZZZO$.$OZZZ",
"ZZZZZZZZZZZZ ##5CCCCC59,;;,995sCCC599999995CCCCC5## ZZZZO$.$OZZZ",
"ZZZZZZZZZZZZ ##5CCCCC59,;;,995sCCc599999995CCCCC5## ZZZZO$.$OZZZ",
"ZZZZZZZZZZZZ ##5CCCCC599,,,995sCCd599999995CCCCC5## ZZZZO$.$OZZZ",
"ZZZZZZZZZZZZ ##5CCCCC599,99995sCCh599999995CCCCC5## ZZZZO$.$OZZZ",
"ZZZZZZZZZZZZ ##5CCCCC599399995CCCC599999995CCCCC5## ZZZZOO$OOZZZ",
"ZZZZZZZZZZZZ ##5CCCCC599999995C--C599999995CCCCC5## ZZZZOOOOOZZZ",
"ZZZZZZZZZZZZ ##5CCCCCC5555555------5555555CCCCCC5## ZZZZZXXXZZZZ",
"ZZZZZZZZZZZ ###5CCCCCCCCbCCCC--**---CCCCCCCCCCCC5### ZZZOOOOOZZZ",
"ZZZZZZZZZZ ####5CCCCCCCCCCCCCC-**--CrcbbbCbCCCCC5#### ZZOOOO+ZZZ",
"ZZZZZZZZZ #####5CCCCCCCCCCCCC------CCCMCCCCCCCCC5##### Z+++++ZZZ",
"ZZ       ######5CCCCCCCCCCCCC--CC--CCCCCCCCCCCCC5######       ZZ",
"Z #############5CCCCCCCCCCCCCCCCCCCCCCCCCCCCCCCC5############# Z",
"               5555555555555555555555555555555555               "
};
