/* XPM */
static char *_ed1bbd7df15411cdc2936f778ab8bb3EZool8hA0QTbPETj[] = {
/* columns rows colors chars-per-pixel */
"64 64 106 2 ",
"   c None",
".  c black",
"X  c #1B3703",
"o  c #1E3C02",
"O  c #051824",
"+  c #234400",
"@  c #264901",
"#  c #2E5B01",
"$  c #326202",
"%  c #366D00",
"&  c #3B680F",
"*  c #377601",
"=  c #3B7402",
"-  c #3C7C01",
";  c #426604",
":  c #436A04",
">  c #407F00",
",  c #4C7C02",
"<  c #707668",
"1  c #438401",
"2  c #458B01",
"3  c #568402",
"4  c #588803",
"5  c #479101",
"6  c #4A9401",
"7  c #4E9D00",
"8  c #5E9001",
"9  c #539B01",
"0  c #5C9A04",
"q  c #669C03",
"w  c #4FA000",
"e  c #53A400",
"r  c #5EA103",
"t  c #55AA00",
"y  c #5AAA00",
"u  c #5DB300",
"i  c #69A104",
"p  c #64AC02",
"a  c #6EAB04",
"s  c #72AE03",
"d  c #63B601",
"f  c #65BB00",
"g  c #6BBC02",
"h  c #76B403",
"j  c #7BBC02",
"k  c #6DC201",
"l  c #71C201",
"z  c #7BC500",
"x  c #7BCD01",
"c  c #7DD401",
"v  c #82C501",
"b  c #84CC02",
"n  c #8ACE08",
"m  c #83D402",
"M  c #8CD501",
"N  c #8CDB02",
"B  c #92DE01",
"V  c #93D60F",
"C  c #99DC16",
"Z  c #89E000",
"A  c #94E301",
"S  c #99E602",
"D  c #95E900",
"F  c #9BEA01",
"G  c #9DE70C",
"H  c #9FEB0C",
"J  c #9FF101",
"K  c #9CE018",
"L  c #A0EF01",
"P  c #A1F001",
"I  c #A0F101",
"U  c #A1F201",
"Y  c #A1F301",
"T  c #A3F301",
"R  c #A1F002",
"E  c #A3F601",
"W  c #A4F601",
"Q  c #A4F701",
"!  c #A1F301",
"~  c #A3F800",
"^  c #A5F901",
"/  c #A5FA01",
"(  c #A7FC01",
")  c #A5F901",
"_  c #A9FE01",
"`  c #AAFF01",
"'  c #AEFF01",
"]  c #A2EC13",
"[  c #4B7892",
"{  c #519FD0",
"}  c #BFBFBE",
"|  c #A7D0EB",
" . c #EAFBC8",
".. c #D1E4FF",
"X. c #F4FDE4",
"o. c #FBFFE8",
"O. c #FFFFF1",
"+. c #F8FCF6",
"@. c #F2F8FB",
"#. c #F7F9FF",
"$. c #FFFFFC",
"%. c #FCFDFE",
"&. c #FFFDFF",
"*. c #FEFEFF",
"=. c #FFFEFF",
"-. c white",
/* pixels */
"                                                                                                                                ",
"                                                                                                                                ",
"                                                                                                                                ",
"                                                                                                                                ",
"                                                                                                                                ",
"                                                                                                                                ",
"                                                                                                                                ",
"                                                                                                                                ",
"                                                                                                                                ",
"                                          .                                       . .                                           ",
"                                        . < . .       . . . . . . . . . .     . . < < .                                         ",
"                                        . < < < .   . 8 8 8 q 4 8 8 8 8 q .   . < } < .                                         ",
"                                        . < } } < . . Q ` Q Q Q ) Q Q ' 8 . . < } } < .                                         ",
"                                        . < } } } . . F F F F F F F F I 8 . . } } } < .                                         ",
"                                        . < } } C M M F F F F F F F F F A b V K } } < .                                         ",
"                                        . < } F F I F F F F F D D F D D F F F F G } < .                                         ",
"                                        . 5 x F F F D F F F F F F F F F F F F F F ) 8 .                                         ",
"                                  . . . . z A F F F F F F S ] &.&.&.&.&.&.F D F F F 8 . . . .                                   ",
"                                  . & 2 y Z F F F F F F F F &.&.&.+.+.&.&.&.F F F F F 8 8 8 .                                   ",
"                                  . # 2 y A I F F F F F F &.&.o.&.......&.&.&.F F F F A i 8 .                                   ",
"                              . . . # 2 y A F F F F D D &.&.&.&.| { { { | O.&.&.D F F A q 4 . .                                 ",
"                              . o % 2 6 y A L F F F F &.&.&.#.| [ O O O [ | &.&.&.F F D M 4 q . .                               ",
"                              . @ t t w y B L F F F F &.&.&...{ O . . . O { ..&.&.S F F L ' b 8 .                               ",
"                              . + e e 7 y A F F F F F &.&.&...{ O . . . O { ..&.&.F F F F Q j 8 .                               ",
"                              . + e e 7 t B F F F F F &.&.&...{ O . . . O { ..&.&.F F F F ) j 8 .                               ",
"                              . + e e 7 y B I F F F F &.&.&.@.| [ O O O [ | &.&.&.F D F F ) j 4 .                               ",
"                              . + e e 7 y B F F F D F &.&.&.&.&.| { { { | &.&.&.&.F D F F ) j q .                               ",
"                              . + e e 7 y A L F F F F F &.&.&.&.&.......&.&.&.&.F F S F F ) j 4 .                               ",
"                              . + e e w t A L F F F F F F &.&.&.&.%.%.%.&.&.&.F F F F F F Q j 8 .                               ",
"                              . + e e 7 t B L F F F D F F F &.&.&.&.&.&.&.&.F F F F F F F _ j 8 .                               ",
"                              . + e e w y B F F F F F F F F F X.&.&.&.&. .H F F F F F F L ` z 8 .                               ",
"                            . $ 1 e e w y A I F F D F F F D S F F F F F F F F F F F F A j 3 8 . .                               ",
"                            . 2 t 5 6 7 y m S F F F F F F F F D D D A F F D F F F S L B q 8 . .                                 ",
"                            . 1 6 . = 5 e g M F F F F F F F F F F D F F F F F F F F L A q 8 .                                   ",
"                            . 1 1 . $ 5 t e x L F F F F F F F F F F F F F F F F F F Q L a 8 . .                                 ",
"                        . . . 7 1 . . # = 7 f x m S F F F F F F F F F F F F F F F Q v 3 , 3 q .                                 ",
"                      . $ t e e .   . . . . 7 e y m F F F F F F F F F F F F S F F S , 4 : M q .                                 ",
"                      . $ w 2 .           . % e e y g F F F F F F F F F F F F F 8 8 4 q p D 4 .                                 ",
"                      . $ w 2 .           . # 7 7 7 d S S S S D S S S D F F F 8 . . . 8 g A 4 . .                               ",
"                      . # 9 5 , . .       . @ & - 5 u b m c m m c m N F F F 8 . .   . 8 0 M q 4 . .                             ",
"                      . # e d A h . .       . . o > t w e e e e e e g N I F 8 .     . 8 & j Q F 8 . .                           ",
"                    . % p m N F A s . .       . o > t 7 8 8 8 8 4 q 4 9 x F 8 .     . 8 i M I I 8 8 8 .                         ",
"                    . 7 m I I F T ) q .       . o > y u 8 . . . . . q * f F 8 .   . 8 u l Z F F E ) 8 .                         ",
"                    . 2 x F F F F F 3 .       . o - f b 8 .       . 4 - k F 8 .   . 8 y g N F F F F 8 .                         ",
"                    . 6 c J F F R R q .       . X * k J 8 .       . 4 * g Q 8 .   . 8 8 l A I F I E 8 .                         ",
"                      . 9 c m J B 3 .       . $ = g z 8 . .     . 8 q g z 8 . .     . 8 8 8 Z ~ 8 8 8 .                         ",
"                        . 5 9 b q .         . d g N 8 . .     . 8 f g N 8 . .         . . 8 8 8 8 . .                           ",
"                          . . . .         . l Z h 8 .       . 8 l B a 8 .                 . . . .                               ",
"                                        . q c S j 8 . . . . . 8 x S s 8 . . . . .                                               ",
"                                        . 4 m F M 8 8 8 8 8 8 . 4 L M 8 4 q 4 q 8 .                                             ",
"                                        . 4 x S F F F F F L q . q F F F F F F F 8 .                                             ",
"                                        . q 4 q 4 8 8 8 8 8 4 . . 4 8 8 4 q 8 8 8 .                                             ",
"                                          . . . . . . . . . .   . . . . . . . . .                                               ",
"                                                                                                                                ",
"                                                                                                                                ",
"                                                                                                                                ",
"                                                                                                                                ",
"                                                                                                                                ",
"                                                                                                                                ",
"                                                                                                                                ",
"                                                                                                                                ",
"                                                                                                                                ",
"                                                                                                                                ",
"                                                                                                                                "
};
