/* XPM */
static char *boo_aaaaaaaaaaaa1666003240[] = {
/* columns rows colors chars-per-pixel */
"64 64 239 2 ",
"   c #19160B",
".  c #151A13",
"X  c #1B161C",
"o  c #131C1B",
"O  c #1C1B1D",
"+  c #181715",
"@  c #161214",
"#  c #24140A",
"$  c #231C1A",
"%  c #261619",
"&  c #1A2119",
"*  c #082006",
"=  c #1C1422",
"-  c #1B1B22",
";  c #191D2B",
":  c #0F1822",
">  c #241B23",
",  c #280D20",
"<  c #1C2324",
"1  c #242821",
"2  c #242513",
"3  c #763A18",
"4  c #77471D",
"5  c #705415",
"6  c #6E4927",
"7  c #764826",
"8  c #78512A",
"9  c #764B33",
"0  c #6A542E",
"q  c #70643D",
"w  c #5B4A1F",
"e  c #581F5B",
"r  c #621C56",
"t  c #5D245C",
"y  c #592A5B",
"u  c #50334A",
"i  c #64245B",
"p  c #5A1D65",
"a  c #591F76",
"s  c #661C66",
"d  c #661E72",
"f  c #5C2365",
"g  c #5C236A",
"h  c #562866",
"j  c #5D2474",
"k  c #513063",
"l  c #612465",
"z  c #62246A",
"x  c #622A6C",
"c  c #6A2869",
"v  c #632572",
"b  c #6C2778",
"n  c #693677",
"m  c #5E5C48",
"M  c #494D54",
"N  c #525256",
"B  c #55565B",
"V  c #5A5B5F",
"C  c #5B5957",
"Z  c #4C4C50",
"A  c #6B5C4D",
"S  c #675A47",
"D  c #715949",
"F  c #685B56",
"G  c #715251",
"H  c #5A634C",
"J  c #676048",
"K  c #6B6154",
"L  c #656155",
"P  c #726557",
"I  c #5D5E62",
"U  c #7E497B",
"Y  c #725A6E",
"T  c #5D6570",
"R  c #616266",
"E  c #65666A",
"W  c #67696C",
"Q  c #696A6E",
"!  c #666867",
"~  c #68746C",
"^  c #6C6D72",
"/  c #6F6F79",
"(  c #6F7075",
")  c #717276",
"_  c #74757A",
"`  c #76797D",
"'  c #797A7E",
"]  c #7A7873",
"[  c #766E79",
"{  c #8B3F1F",
"}  c #844A19",
"|  c #824625",
" . c #854F7B",
".. c #847871",
"X. c #7B8279",
"o. c #66887A",
"O. c #87827A",
"+. c #948975",
"@. c #A68D7D",
"#. c #A8997C",
"$. c #B4997C",
"%. c #9EA07B",
"&. c #A7A37E",
"*. c #7E4D84",
"=. c #7D4B8C",
"-. c #7B4487",
";. c #7C5484",
":. c #7A5586",
">. c #7C4994",
",. c #7C7D82",
"<. c #7D7A87",
"1. c #717283",
"2. c #834C85",
"3. c #83458B",
"4. c #844B8C",
"5. c #894C8B",
"6. c #894984",
"7. c #83548A",
"8. c #885187",
"9. c #854C93",
"0. c #8B4D93",
"q. c #8A4D9B",
"w. c #894797",
"e. c #8C5194",
"r. c #855395",
"t. c #92498F",
"y. c #867B8B",
"u. c #8A53A3",
"i. c #7F8084",
"p. c #7A8787",
"a. c #7D8A94",
"s. c #818286",
"d. c #84858A",
"f. c #87888D",
"g. c #898A8E",
"h. c #888886",
"j. c #978D89",
"k. c #859387",
"l. c #979587",
"z. c #8C8D92",
"x. c #868996",
"c. c #968A98",
"v. c #8F9094",
"b. c #8C9698",
"n. c #919296",
"m. c #94959A",
"M. c #96999D",
"N. c #999A9E",
"B. c #9A9697",
"V. c #A88F86",
"C. c #A79889",
"Z. c #B5988A",
"A. c #A48C95",
"S. c #A79B96",
"D. c #B59896",
"F. c #9DA39C",
"G. c #99A698",
"H. c #93A192",
"J. c #A5A59B",
"K. c #B7A899",
"L. c #B1AF8F",
"P. c #8796A5",
"I. c #9C9DA2",
"U. c #999AA5",
"Y. c #9B8FA9",
"T. c #A39DA3",
"R. c #A49BAC",
"E. c #A99CB8",
"W. c #AF96B3",
"Q. c #9FA0A4",
"!. c #9AA7A9",
"~. c #95A5B1",
"^. c #A1A2A6",
"/. c #A3ABA3",
"(. c #ABABA5",
"). c #A4A5AA",
"_. c #AAA4AC",
"`. c #A7A8AC",
"'. c #A9AAAE",
"]. c #B6AAA7",
"[. c #A9B3A9",
"{. c #B4B2A7",
"}. c #ACADB2",
"|. c #A8A8B6",
" X c #B3ACB3",
".X c #B6A8BB",
"XX c #AEB1B4",
"oX c #AEB5BA",
"OX c #A9B7B7",
"+X c #B1B2B6",
"@X c #B4B5BA",
"#X c #BBB5BC",
"$X c #B7B8BC",
"%X c #B9BABE",
"&X c #BAB9B5",
"*X c #C5A997",
"=X c #C3B9BA",
"-X c #C1AEAE",
";X c #B6C4B3",
":X c #FBD49F",
">X c #C0C4BF",
",X c #C2C1AF",
"<X c #FDCDA5",
"1X c #F3CDAC",
"2X c #FCCDAC",
"3X c #F6C8A4",
"4X c #F9D4A9",
"5X c #FDCDB2",
"6X c #FDCCBB",
"7X c #F5CBB6",
"8X c #EBD2B7",
"9X c #F9D4B6",
"0X c #EACEAD",
"qX c #B4ACC6",
"wX c #ACB7C9",
"eX c #BCBDC2",
"rX c #B6B8C6",
"tX c #ADBED2",
"yX c #D6BAD7",
"uX c #C1B0C8",
"iX c #DDBFE1",
"pX c #BEC0C3",
"aX c #B8C1C7",
"sX c #BCCBD0",
"dX c #C1C2C6",
"fX c #C4C5CA",
"gX c #C7C8CC",
"hX c #CACACD",
"jX c #C8C6C9",
"kX c #CBCCD1",
"lX c #C4C7D2",
"zX c #D2D4D7",
"xX c #D5C9CE",
"cX c #F2D2C2",
"vX c #FFF5FF",
"bX c #FDFCFE",
"nX c #F6FDFA",
"mX c #F5FDEE",
"MX c #D6C0E4",
/* pixels */
",.}.m.m.m.Q.R '.z._ @Xg.m.^.d.XXN.`.).Q._ ).n.) `.n.M.v.z.&XI.^.U.n.U.@X) <.`.n.@Xz.U.'.I.'.g./.v.m.I '.d.y.$Xs.$XF.).Q.).'.Z `.",
"@X' eX^.v.n.m.M.N '.^ I.N.g.@Xd.$X^.).).+XN.d.`.s.).g.s.+Xs.eX).M.'.@X}.^.^.i.+X` f.).s.jX^.z.N.^.B.'.M.^ ).s.N.g.,. X`.v.Q.d.z.",
",.M.I.U.z.Q.m.d.^.E I.d.i. Xd.M.).`.m.).N.M.}.V '.d.,.%Xv.I.^.m.M.T.}.@X^.^ `.,._ ^.z.+X`.`.).d.I.^.`.) I._ m.h.` pX).^.M.s.Q '.",
"n.I.).M.I.1.E z.m.U.^.' XX' v.`.).I.^.s.n.B.M.I.).^ /.y.M.^.Q.I.'.M.m.pXI.I.v.z.`.,.}.}.).^.N.N.n.f.I.I.,.`.I.W +X).}.^.XX^.` v.",
"I.^.).U.M.).i.m.^.`.s.}._ U.v.@X).).z.}.) I.Q.R._ '._ ^.'.XX).}.<.@Xm.^.@XU.v.@XE XX^.U.m.^.i.}.^.N.`.M.m.`.I !.^.'.f.}.g.^.%X) ",
"I.T.<.}.d.m.).s.`.m.M.M.`.`.'.'.m.|.I.I.}.,.`.^.M.I.).XX'.'.}.v.@X,.`.M.f.@XI.).+X+X^.@XoXx.@X<.'.'.E I.I.).}.@X'.}.'.s.+Xg.m.&X",
"I.Q.).m.).d.).}.E d.N.`.+X X).s.`.z.Q.eXm.}.z.) +XB.}.XX^.,.Q.Q.).@X,.I.).( @XI.U.XXQ.v.`.oXv.`.z.m.@XE I.}.I.m.'.n.Q.'.' '.m.z.",
"`.i.m.Q.I.).v.v.).) `.).}.M.fXM.^.`.s.Q.XX,.}.I.`.I.'.'.B.}.d.^.M.M.eXz.U.}.eX).`.}.` @Xy.T.@Xd.+XT.` }.eXI.`..X) }.m.'.eX^ }.`.",
"` @X,.M.}.,.@XI.z.M.}.).).}.,.^.).^.+Xf.U.@Xn._./.p.|. X_.B.hX1.I.).1.oX+ . < x.}.I.rX<.).p.).pX) }.Q.}.T.z.'.}.}._ '.M.B.pX,.pX",
"m.z.}.s.U.`.) @Xn.y.E }.M.}.}.,.M.'.s.eX_.U.).).O X O o Q.N.f.eXy.T.OX& @ > $ @ M.Q.+X'._ [.M.E +XU.`.}.,.fXM.'.'.$XE M.@XB jXM.",
"}.`.f.).f.z.`.z.N.` I.`.m.}.I.oX_ M.}._ }.).!.O = > nXnX1 &X X_ $XB.. nXO % O bX< +XM.XXoXI _.}.M.'.Q.,.M.I.d.'.M.}. Xs.v.@XM.I.",
"'.R.}.I @XU.Q.Q.' v.I.m.rXm.fX).+Xg.n.).).).o O O O nXbXvX X+X+X~ %XX bXbXnXnXnX= f.jX!.@X.Xz.}.'.).) I.f.d.@X,.gX^.$X$XM.}.^.^.",
"Q.I.M.'.m.Q.I.E <.v.v.eXm.m.`.`.).}.T.Q.).B O X & mXbXvX;.;.+X[.!.T.;.iXbXnXnXvXY E.}.,.^.^.)./.^.E XXv._ eXf.$X).s.^.`.'.^.'.N ",
",.`.`.`.I.).) I.M.,.eXd.v.+Xy.%X!.'.^.^.M.s.> jXmXbXvX*.4.2.R.XXJ.W.4.-.yXxXyX*.=..Xz.hXT.rX}.F. XM.).E +X' n.n.n.#Xg.zX).^.$XI.",
"%Xf.}.n.U.I.`.I.B XX,.i.).m.eXn.M.}.M.`.`.m.> MXyXiX;.4.3.=.c.!.N..X*.4.8.U 4.=.;.c.pXX.z.rX).N.%X^.) XXQ z.).v.}.g.M.@X+XM.}.+X",
"f.m.U.`.m.I.Q.).}.,.z.Q.v.@Xd.s.XX).^.).Q.^.R.u 0.*.:.-.q.7..X[./.b.qX:.9.t.3.q.y..Xp.~ pX_. XI.s.I.I.Q.m.'.) %Xs.' @X^.n.'.d.d.",
"z.R._.U.Q.f.^ U.^.M.^.` eXy.i.XX).^.[.v.N.Q.!.I.h u 4.5.` 5. XJ.`._.1.;X!.U.0.! +Xf.^ &X}.`.v.oX,.v.n.'.`.^ rX_ _ eX@X'.m.%XM.z.",
"`.}.`.m.|.I.v.U.`.^.^ }.s.) XXXX).^.g.%X` }.).f.R..Xm.) qX>.E.G.b.N. X<..XW.=.~.Q./ @X'.T.rX).,.+X' I.m.m.`.v.x.+X}.}.I.+X' }.`.",
"`.).m.`.f.z.`.v.).).^.I.d.}.'.'.T.'.).v.oXg.M.#XG.!.m.OX^.!.7.g.aXf.F F [ ;.].Q.v.@X}.Q.+Xm.!.@Xd.}.d.f.}.I.I.eXeX).%X Xg.@X_ I.",
").|.I.^.`.z.M.|.W I.M.T.^.`.'.g.^.m.M.}.m. XB.C F }.m.).{.H.0.'.l.A Z.A %X=.zXU.U.rXXXM.<.pX<.^.@X/ @X`.I }.}.}.}.|.h.`.+XM.%Xd.",
"^.<.}.M.}.|.s.m.`./ ^.'.).^.+X).!.$Xi.}.@X) &XF #.S  X Xc.A S K A K #.K ! 8.H _.XX^.^.}.}.z.@Xd.M.jX,.T.}.}.M.@X}._ %X) }.}.Q dX",
"M.%Xz.Q.).m.+XN.M.).}.}.).'.,.F.U.Q.$Xf.I. XO.A Z.#.Y q H V.P C.l.A q S A Z.J q B.J.+Xd.F.'.f.%XI.E eXI.eX`.m.+X).&Xd.$X) ^.%X) ",
",.M.@X,.I.'.Q +XI.^.g.U.).&X'._ ).^.M.eXI.h.K S D H V.$.&.d v J F Z.S.F D.D V.D ].A F (.) M.fXE rX|.).@X,.^ eXI.@X'.pX` %XN.s.%X",
"`._ ^.#X^ I.).'.}.` d.@Xv.@X^.}.Q ^.'.Q hXL C.S %.Z.Y g z 3. .x g s h h r S ! H S J.F {.@Xf.<.pXs.eXI.U.z.$Xm.n.}.^.+X%XR eX^.#X",
"I.`.' ' '.,.'.`.z.h.@Xf.'.`.XX}.XXX.J.}.b.K m Z.K G u 5.w.0.4.8.>.8.5. .w.h Z.#.D.K O.fX|.].J.a.}.XX^.,.N.d.v.$Xs.kX'.dX%X' $XXX",
"}.).'.).f.^.^.f.^ @Xz.n.'.X.+XXXoX Xm.oXQ.G L.V.f z w.z x f f f i q.>.r.8.w.g D S C.S /.oX(.}.B.}.m.I }.g.i.hXf.$XQ.n.jX%X'.+X+X",
"h.%X`.`.I.'.,.C `.d.y.M.N.uX^.'.[.I.E.qXB.D D.y w.r.k vXbXO @ vXvXh f 8.9.=.u.t #.F C.K eX!.!. X}.m.).n.) $X<.N.}.g.dXm.eX+X%X^.",
"}.'.^.'.).m.Q '.W g.M.m.'.,.d.+X<.&X/.Q.qXy f ;.i y % bX. . $ vX@ - O t r 8.=.j D.A A m f.|.N.T.'.rX}.W XX,.z.^.I.XXg.N.'./.'.'.",
"m.' +X^.N.'.`.n.^.'.` &X,.d.%Xd.%X/.'.Q.qXe 0.h > X - 1 + . 1 . < + X > vXk 3.t.h q =Xs.X.eX).'.m.n.`.}.f.m.^.v.pXd.` eX}.}.n.m.",
"z.eX^.^.I.d.g.n.'.Q +Xg.s.+XM.N.qX^.F.d.p u.l vXo o @ O X > + + . = ; * o z c =.j Z.F ` jX_.F.!.).f.) M.U.@X^ @Xs._ $X).B.Q.@X^ ",
"@X^.).g.'.s.M.).).).Q.Q `.d.f.).).@XI.R.c =.i O & o O + O + $ . &   > - + vXf h q.y V.S |.`.'.v.'.^.m.@X).}.eXT.` @XeXI.}.@Xf.kX",
"^.I.'.'.z.'.s.^.}.Q.).'.,.Q.`.`.F.`.U.c.r r.f o 5X2X2X9X1X7X7X9X5XX o .   mXvXt 2.l Z.A oX$Xm.-X,.I.`.,.$X'.).f.rX@XQ. X<.}.rXs.",
"'.).n.).n.'.'.i.'.^.^.+X^.@X}.). Xo.#Xn.f 9.c . 7X$ = 5X1X9X% : 7X:X# : ; -   h 5.z C K v.+XT.M.@X^ I.XXB fXQ.}.}.$X}.f.eX/ ^.@X",
").^.}.m.`.^.I.$Xn.s.).`.}.).'.z.S.oXv.!.c 4.z 8X:X. o <X2X8X. 2 9X7X9Xo   % O z =.z (.J.=XX.$XM.m.dX,.M.$XpX+X$XQ.v.fXI.m.fXE I.",
"`.z.n.+Xd.^.+Xi.'.v.}.).).`.n.$Xx.E.%Xg.U.z s 4XcX  . 4X2X9X$ @ 2X5X2X> 3X7X& c q.s $Xk.T.+X`  X).d.hXI.hXjX$X^.`.}.E '.m.n.eX,.",
"' +Xg.M.$X,.^. X` #X^.I.`.'.`.d./.{ 4 ;X/ Q. X3X2X5X9X0X<X<X1X9X9X7X9X0X2X6X  z 9.t ).&X<.I.eXW '.$XE eX%X'.! gX`.}.eXI m.).` lX",
"N.N.+Xs.'.dX' +XM.).) ^.'.Q.&X^.m.4 -X7 oXO.rX4X2X0X- ; # < : 0X4X4X<X5X6X9Xj 7.h Y..X#XaXs.T.;X` '.+X$X)._ XX`.f.}.+XhXI I. XM ",
"'.N.N.+Xz.s.^.^.^.W s.&X,.fX`.}.U.7 ].K.9 /.F.cX<X4X# nXbXnX> 5X4X3X3XcXp h v *.x i..XT.OX.Xc.~ %Xg.`.).' d.+Xg.zXB.lXM.@X` z.'.",
"XX).'.W +XM.}.}._ s.+Xs.eXN.`.'.L.4 {.-XC.n d h 6X9X2X+ O # 3X4X4X9Xb p h 5.4.w.y pXm.jX/.|.}.OX^.^.$X' ' '.N.dXz.`.+XU.eX+Xm.^.",
"^.).#X`.d.M.^.d.E }.z.m.^.f.%X).}.4 j.].K.K.c 2.l h 6X4X9X8X<X6Xz g s 7.4.3.:.s MXX.z.OXX.qX$X[.^.n.s.s. Xs.+Xn.R.eXs.zX}.@XU.`.",
"X.eX'.}.I.).g.W `.s.f.^.T.@Xn.^. XN.6 V.[.L.i 5.4.5.f z f z l l 4.4.;.w.4.=.v ].7 h.=Xs.lX(. XqX'.'.^.eXV `.Q.z.pX,.^.+XQ %XU.`.",
"%X'.@X^.).}.^.`.! M.I.M.@Xf.d.+Xp.=X| l.K.$Xl 9.4.4.5.3.e.5.3.5.5.0.3.w. .:.a L.{.4 z.).T.X.sX X}.%X+X+X}.&X) dX_ M.'.f.zX^.M.n.",
"m.d.^.).v.`.).'.M.^._ }.s.,.+Xg.!.S.R.| j.K.z 5.7.4.4.4.4.4.5.e.w.2.9.6.>.j *X{.{.7 O.B.I.gXpX@X).I.I.^.@X) $X,.' @Xg.`.`.`.^.M.",
"v.+X).I.M.B.N.^.).N '.d.( +Xm.,.}.~.b.!.} C.V.l 3.3.x x l f z p z f h e.9.h *XL.K.K.8 g.rXOX{.N.'.I.n.Q.Q.}.+X) }.d.m.+X@X'.<.eX",
"+X`.).Q.}.d.I._ Q.`.^.Q +X_ ' &XqXl.b.}...7 0 p 4.0.-.4.4.4.e.3.3.8.q.2.0.g C.K.{.{.6 &X'.'.@X+X,.eXg.M.%XN.`.+X' n.'.eX).+XXXs.",
"`.`.I.'.f.}.g.I.+XI.M.+X,.f.).`.E.{.).k.`.A.M.l 3.=.e.-.4.4.5.5.q.2.w.U w.v w A.K.K.K.9 oXU.^.!.'.,.'.n.g.eX}.}.I.@X@X).}.i.^.@X",
"^.`.g.+X`.).+Xd.I.XX`.'.d.+X+X).`.p.~.T.P.|.x.c.U =.4.x x f l f t g v 7. .z 1.0 $.J.&X7 {.z.=X` ).dXR '.%XV dX`.M.'.%X+X' %XE ).",
"^.'.).m.I.^.^.+XB.E ^.'.^.'.^.!.b. XX.|.OX..{.!.x r.4.4.4.4.0.4.e.-.q.;.3.j  XV.6 C.@.@.8 ^.P.=X) M.fXE m.@X+X#XN.'.s.eXI.z.lXE ",
").f.m.+Xm.I.^.s.%Xd.+XN.^.`.,.+Xj.`.wX] S.$XB %Xn 4.2.0.w.=.9.5.2.=.r.3.e.h xXrX4 6 8 4 6 #XU.B.gX' f.dX_ pXeX+Xn.^.'.I }.I.f.gX",
"B.`.z.Q.}._ ).)._ M.`.).n.M.@X,. Xp.`.aX1.g.{.9 7 4 0.2.2.r.9.=. .8.3. .9 | } 7 M.#X`.+X X! ).Q.) dX'.f.%X}.f.Q jX^.+XpXR I.).^ ",
",.'.}.' }.+X) &X). XM.g.^.^.+X^.P.{.x.m.&XB.9 *XL.-X6 >. .;.2.5.q.7 | 9 K.].K.5 ..eXx.aXeX=XZ `.+XV gXm.}.I.f.hXM.@X+X'.%XB ^.%X",
"`.,.`.dX` z.`.M.m.,.f.%Xg.%X^.'.J.O.=XU...q +.B.].K.K.5 c d f f g 6 C.l.l.L..X].4 j.|.(.J.eXsXF `.&X+XN.+Xs.I.I.d.fXn.+X+XeXR I.",
"+X'.g.s.%XN.XXN.N.v.XXy.m.'.).^.!.OXM aXT.6 8 6 8 7 4 9 A.eX^.qX].5 4 3 8 5 7 | 9 z.wX<.gXoXOXXX' @XI.^.' n.v.M.hXs.'.Q.^.).&Xd.",
"'.).'.`.s.^.Q.N.( XX` s.).g.%X^.Q.].|.n.I.I...A F.Y.`.x.h.lXp.[.|.(.R.R..XN #Xy...rXP.aX}.B.&XXXQ.).).E z.M.z.%Xs.,.+X,.hXI.^.m.",
"n. X`.`.^.'.^.Z +Xs.^ &Xn.M.`.) `.!.S.S.B.n.T `.y.B.j.m.;Xp./.B.~.Q.T._.] eXk.~ >Xd.B.(.h.jXT.=X}.I.jXf.+XR $X,.d.eX,.`.'.' $XI.",
"'.^.N.'.N.^.M.N.s.R `.g.s.n.g.%XB.~.~.Q.m.!.`.N M.M.a.OXf.d..Xy.#X/.!.lX,XqX_ |._ P.`.C.hXP.a.=X}.).}.%X' ^.B.` %X,.f.^.s.zX^.Q.",
"Q.i.%XN.Q.'.`.m.) ^.,.,.I.B.I.z.,.|.n.m.U.`.n.M.U.^ OXp.,.&Xg.).M.`.m.%X%X@X+X' z.}.n.'.g.g.pX}.).d.s.I.I.).) '.,.' }.m.^.+XI.I.",
"N.N.T.).M.I.B.^.`.` m.I.' M.d.,.}.T.m.B.n.d.g.n.N I.n._ XX' ' ).}.M.}.' +X^.^.n.@X) ^.U.s.zX%XI.`.'.V N.N.).T.M.) }.` z.$X}.^.I.",
"g.`.N.^.'.' g.` M.N.B.) M.f.i.`.M.v.M.m.d.Q.g.g.` M.( )._ _ ^.^.M.n. X^.,.jX^.n.f.@X`.s.%X&X}.}.n.B.+XR ).n.`.I.%X^ '.}.}.^.@Xn.",
"M.'.).M.).^.' ).^.M.M.m.z.Q m.n.f.I.v.z.n.^ M.n.z.d.v.d.s.I.Q.n.`.}.^ I.}._ jXI.`.}.E }.'.@X}.i.eX^ m.eXB N.I.M.'.m.).&X`.}.R eX",
"N.M.m.'.' I.XX^ @Xm.v.f.E m.m.z.z.' M.s.n.M._ M.z.,.v.d.'.^.z.Q.n.v.+XW M.+XI zXM.^.^.&XI.I.%X'.d.dX^ m.kX) I.M.F.`.$X'.,.n.$X_ ",
"m.+XN.M.}.s.I.@XE i.f.f.z.f.z.' ).s.d.n.' y.M.^ I a.,.M.M.I.)._ '._ M.@XW z.^.E zX'.).+XeX&X( @Xn.N.%Xf.i.jX`.eXI.).M.$X`.Q n.%X",
"}.s.+Xv.I.+X( M.}.N v.f.<.<.I.,.Q I.s.s.M.v.N z.,.<.p.f.m.f.}.d.M.`.` N.+X,.m.eX'.'.^.).i.}.eX) I.}.' hX'.B.$X%X}.^. XN.d.%XV m.",
"@XI.I.&Xi.M.@X,./ f.v.' i.s._ s.s._ N.` ) ' f.I p.d.p.,.f.T.N ).,.B.'.d.s.'.N.eXXX`.`.).XXI m.%XE Q.@XV dX`.dXg.` +X).`.d.m.eXR "
};
