/* XPM */
static char *boo_certo_up1666002446[] = {
/* columns rows colors chars-per-pixel */
"64 64 242 2 ",
"   c #0A0C0A",
".  c #0B0A0C",
"X  c #130E0D",
"o  c #1A0D04",
"O  c #0D140B",
"+  c #081308",
"@  c #13130C",
"#  c #1C140B",
"$  c #111105",
"%  c #0C0F11",
"&  c #130D15",
"*  c #140B1A",
"=  c #0D1218",
"-  c #131414",
";  c #15141B",
":  c #1A1A1B",
">  c #191717",
",  c #211319",
"<  c #240D15",
"1  c #181321",
"2  c #5C5319",
"3  c #5C4D16",
"4  c #684A16",
"5  c #655418",
"6  c #684F13",
"7  c #5D4F2C",
"8  c #5D5226",
"9  c #5F5632",
"0  c #674B26",
"q  c #754A26",
"w  c #63522C",
"e  c #685425",
"r  c #745625",
"t  c #655839",
"y  c #754F33",
"u  c #48334B",
"i  c #4A285B",
"p  c #522858",
"a  c #4E3153",
"s  c #4C1D69",
"d  c #541E66",
"f  c #4D2564",
"g  c #4B2469",
"h  c #4A2968",
"j  c #532665",
"k  c #532B64",
"l  c #53256B",
"z  c #542B6B",
"x  c #5A2668",
"c  c #493263",
"v  c #4C2571",
"b  c #4B2875",
"n  c #562675",
"m  c #632E6E",
"M  c #5D5949",
"N  c #4C4D52",
"B  c #525356",
"V  c #54565A",
"C  c #5A5B5F",
"Z  c #5B5C56",
"A  c #4B4C50",
"S  c #655B4A",
"D  c #655849",
"F  c #645E53",
"G  c #685B58",
"H  c #715E4D",
"J  c #5D6253",
"K  c #656248",
"L  c #666253",
"P  c #60725C",
"I  c #5D5E63",
"U  c #595762",
"Y  c #544B60",
"T  c #754D7A",
"R  c #6A567B",
"E  c #74517C",
"W  c #735272",
"Q  c #5F6065",
"!  c #616266",
"~  c #64656A",
"^  c #67696D",
"/  c #696A6E",
"(  c #67716A",
")  c #6C6D72",
"_  c #646971",
"`  c #6E7074",
"'  c #6F737B",
"]  c #717276",
"[  c #74757A",
"{  c #76797D",
"}  c #797A7E",
"|  c #777A76",
" . c #706671",
".. c #837C78",
"X. c #837D6D",
"o. c #7A8472",
"O. c #8D8C7B",
"+. c #A6977C",
"@. c #532780",
"#. c #6A4B85",
"$. c #744B85",
"%. c #754C8B",
"&. c #7A4D8B",
"*. c #784B87",
"=. c #6C5585",
"-. c #745385",
";. c #7A5284",
":. c #75538B",
">. c #7A538C",
",. c #775984",
"<. c #754C93",
"1. c #7B4C93",
"2. c #794A98",
"3. c #7B5292",
"4. c #775594",
"5. c #685393",
"6. c #7C7D82",
"7. c #767A85",
"8. c #756981",
"9. c #784DA2",
"0. c #7F55A1",
"q. c #825498",
"w. c #82508D",
"e. c #887C8B",
"r. c #867495",
"t. c #8455B1",
"y. c #7F8085",
"u. c #7B8983",
"i. c #688080",
"p. c #818286",
"a. c #84858A",
"s. c #86888C",
"d. c #898A8E",
"f. c #8A8786",
"g. c #9D8F8A",
"h. c #8B9587",
"j. c #979789",
"k. c #8C8D92",
"l. c #898897",
"z. c #968B98",
"x. c #8F9094",
"c. c #8B9597",
"v. c #919296",
"b. c #94959A",
"n. c #97999C",
"m. c #999A9E",
"M. c #999795",
"N. c #A69A88",
"B. c #A79A96",
"V. c #B79C98",
"C. c #A28F95",
"Z. c #9DA39B",
"A. c #9CA495",
"S. c #AAA286",
"D. c #B5A889",
"F. c #A2A29D",
"G. c #A8A698",
"H. c #B6AA9B",
"J. c #B5B398",
"K. c #B8B58C",
"L. c #8C8DA6",
"P. c #968BA3",
"I. c #9C9DA2",
"U. c #9C9BA9",
"Y. c #9897A6",
"T. c #9A9DB0",
"R. c #A19BA3",
"E. c #A59BAC",
"W. c #A69BB3",
"Q. c #A688A2",
"!. c #9FA0A4",
"~. c #9DA3AB",
"^. c #9BA7A7",
"/. c #9DAFAF",
"(. c #A1A2A6",
"). c #A4AAA4",
"_. c #AAABA4",
"`. c #A4A5AA",
"'. c #AAA6AD",
"]. c #A7A8AC",
"[. c #A9AAAE",
"{. c #ABA3A2",
"}. c #B4ACA3",
"|. c #B7AAA8",
" X c #AAB3A9",
".X c #B7B4A8",
"XX c #A4A4B3",
"oX c #A3AAB3",
"OX c #ACADB2",
"+X c #ACACB9",
"@X c #A9A6BB",
"#X c #B1ACB3",
"$X c #B6A8B7",
"%X c #AEB1B4",
"&X c #ACB4BB",
"*X c #B1B2B6",
"=X c #B4B5BA",
"-X c #BBB4BB",
";X c #B6B8BC",
":X c #B9BABE",
">X c #B9B9B4",
",X c #C1BCB7",
"<X c #C2ABB1",
"1X c #C6AB96",
"2X c #BBC2BF",
"3X c #EBD09E",
"4X c #CECBB4",
"5X c #F3CDA6",
"6X c #EAD5AA",
"7X c #F5D3AB",
"8X c #F7CEB9",
"9X c #E5D3B3",
"0X c #EBD4B4",
"qX c #E9D7B8",
"wX c #F3D4B4",
"eX c #F5D8B7",
"rX c #E8CBB7",
"tX c #A9AAC3",
"yX c #B7ADC2",
"uX c #B6BBC2",
"iX c #BCBDC2",
"pX c #B6B6C7",
"aX c #AFB6C0",
"sX c #C6B9C5",
"dX c #CBB7D1",
"fX c #BFC0C4",
"gX c #B4C1C9",
"hX c #C1C2C6",
"jX c #C3C4C9",
"kX c #C6C8CC",
"lX c #C9CACE",
"zX c #CBC8C7",
"xX c #CCCDD1",
"cX c #C8C6D4",
"vX c #D3C6D8",
"bX c #D2D3D7",
"nX c #F8D6C4",
"mX c #F2D3C4",
"MX c #FEF4FF",
"NX c #FEFDFD",
"BX c #F7F9F6",
"VX c #D8C5E5",
/* pixels */
"6.OXb.b.v.`.I ].k.[ ;Xk.b.(.p.OXm.].`.(.] ].v.] [.v.m.k.d.*X(.(.m.v.I.=X' 6.].v.+Xk.!.[.I.].d.{.x.M.I ].p.e.;Xy.;XI.`.!.`.[.B `.",
"=X} uX(.k.v.b.I.B ].) I.m.d.=Xs.=X(.(.`.*Xm.p.`.y.`.a.p.=Xp.hX(.m.].=XOXI.`.6.+X{ p.[.p.kX(.x.n.(.n.].n.) ].a.n.k.6.%X].x.I.s.d.",
"6.m.I.I.k.I.b.s.U.~ I.p.p.OXa.b.].[.n.].m.m.OXI [.a.} iXk.I.`.b.n.I.OX=X`.~ [.6.[ `.x.OX].`.].a.I.(.].] I.| v.s.[ fX`.(.n.a./ [.",
"k.I.`.m.I.6.~ l.n.I.I.6.OX6.k.[.(.n.!.p.k.M.n.I.(.] ].p.m.(.(.I.[.m.b.iXI.I.v.k.].6.*XOX[.I.I.m.v.s.I.I.6.[.I.^ =X(.OX(.OX(.[ x.",
"I.`.`.I.b.`.6.b.(.`.a.[.{ m.v.=X].[.x.*X[ I.`.(.] [.] (.[.[.).[.p.=Xv.(.*XI.x.*X~ OX`.m.b.U.y.OX(.m.`.m.b.`.I `.!.].d.OXs.(.:X[ ",
"I.I.y.OXs.b.`.p.`.n.m.n.XX[.XX[.v.XXm.m.XX6.`.R.b.!.`.*X[.[.#Xk.=Xy.XXm.k.*XI.XX*X*X(.*X=Xs.;X6.[.[.~ ~.I.`.OX*X[.%X[.p.*Xd.n.=X",
"I.U.`.v.`.a.`.OX~ s.m.].*X*X].p.].k.(.:Xn.OXk.| *Xn.[.*X`.} `.(.`.=X6.I.].] =XI.I.*X`.k.[.OXv.XXk.b.;X! I.OXI.b.[.v.(.[.} OXM.d.",
"].p.b.(.I.`.x.k.`.] ].`.[.n.hXm.(.`.a.!.%Xy.XXI.`.I.].[.b.*Xs.(.n.m.iXv.m.XXhX`.[.XX6.*Xs.U.aXa.*X!.{ OXiXI.`.*X] OXv.OX:X/ OX[.",
"} *X6.m.XX6.*XI.k.m.XX].`.OX} `.`.I.uXe.b.aXl.OXE.- O O ].z.cX{ R.].] iX~.*X*Xf. X!.=Xy.`.s.`.sX] %X(.XX!.k.[.[.OX[ ].n.v.hX} hX",
"b.k.OXp.!.XX[ *Xb.6.~ OXm.OXOX6.I.[.a.-X~.^.`.'.: : O - - m.a.hX| I.&Xv.- O - 1 I.n.=X].) %Xv.~ *XI.[.OX6.hXm.OX[.;X/ n.;XV jXn.",
"OX].d.(.s.x.].k.I.{ I.'.v.OX(.%X' Y.OX{ %X_.].. BX  : & NX$ ).{ uXI.!.O NXNX. = - :Xb.%X;X! OXR.m.[.!.6.I.I.p.[.n.OX#Xp.x.>Xn.(.",
"XX`.OXI ;Xm.`.I.{ k.I.b.uXb.jX`.=Xs.v.OX^.(.6.1 BXNXNXNXBX- *XOX_ ;X'.NXMXNX: @ % > jX(.*X*Xp.=X[.`.` I.a.a.;X6.kX(.;X;Xn.OX(.R.",
"!.I.m.[.n.!.I.~ e.v.v.iXb.v.'.].Z.=Xm.].].U 8.R MXNXNXMXVXR +X XG.W.=.=.NXBXNX  > - OX{ `.I.(.OX(.~ %Xv.{ iXs.-X`.p.(.`.[.(.[.B ",
"} [.].].I.(.] I.b.6.uXa.v.=Xp.:X`.(.(.(.k.s.@X=.,.vXvXvX#.:.W.%XA.$X%.%.T NXBXNXlX& s.xXI.jX*XI.OXn.`.! *X} v.v.v.;Xs.bX(.(.;X!.",
";Xk.OXv.m.I.].!.V %X6.p.].b.iXv.n.OX!.).~.Y.Y R $.>.R T 4.-.l.^.[.Y.,.*.<.-.dXvXvX& iXa.k.%X].I.:X(.[ OX^ k.].v.*Xa.m.=X%Xm.OX%X",
"s.v.I.].b.I.~.(.%X} l.I.x.=Xa.p.*XXXI.(.).Z.I.P.2.%.1.1.-.r.:X).A.L.3.q.-.-.:.4.u $Xa.[ iXXX[.R.p.I.I.(.b.[.] :X} y.=X(.v.OXa.a.",
"l.`.'.I.`.a._ I.`.b.`.{ ;Xp.6.%X].b.[.m.v.(.F.m.*Xq.).a.| ;X%X^.'.R.=.sX4.#.u i =Xs.' %X=X).n.OX6.v.v.[.].) iX[ { uX:X[.v.:Xm.x.",
"].+XXXv.XX(.v.Y.].`._ #Xp.| *XOXXX].d.*Xp.(.I.x.W.#.P.e.*X*Xm.!.N.E.5.r.>XB.@XW.!.} +X%Xm.%X%Xe.%X} I.b.b.`.x.l.=XOX[.I.*X} #X`.",
"`.`.b.`.a.v.'.k.].(.`.I.p.+X[.[.n.(.`.M.%Xx.!.&X`.[.,.[.F G |.l.yX5.[.#X_ kX~.F.d.%XiXE.=Xb.I.*Xs.OXa.s.OXI.`.iX-X`.:XOXd.=X| I.",
"`.XX(.(.[.k.m.XX~ I.b.!.`.].[.d.*Xv.n.].n.[.L.~ '.Z.>.^.L N.D }.M.5.j.M.uX_ lXL ! *XI.(.} :X6.`.*X) ;X].! [.XX].OX[.s.[.%Xn.iXp.",
"`.6.[.m.OX[.a.v.].) `.[.`.(.*X`.I.=Xp.`.=X` :X(.'.L ;.%XS S.K K L M D '.^ sXL +.M {.`.OXOXb.=Xl.I.jX6.R.OX%Xn.;X%X[ ;X[ OX*X^ hX",
"I.;Xk.(.`.b.*XI.b.`.OXOX].[.} I.m.].-Xd.b.=Xp._.K 9 V.F D t D B.G.F V.9 D D N.N.L G.#Xe.I.OX} uXU.! iXI.iX`.b.%X`.=Xa.;X] I.uX] ",
"} b.=X6.I.[.^ *XI.(.k.m.`.=X].| !.`.m.:X`.G M .XK N.t B.G V.V.D D g v S.S.H.S L S S _.#X[ n.jX_ ;XOX].=X6.) iX!.=X].:X} :Xm.p.:X",
"[.] `.=X) I.`.[.OX} a.*Xv.;X`.[.^ `.{.( zXD G.S K W S i h j p l k ;.1.d h G S.+.S G.Z *X;Xa.6.sXa.pXI.Y.k.;Xb.v.*X(.=X:X! :X`.-X",
"I.[.6.} [.} OX].d.s.*Xd.[.].*X%X+Xo.A.@X`.G.M B.D.N.h 2.*.;.E 2.&.<.2.1.>.a G D N.L t gX#X X{.u.[.*X(.p.m.a.k.;Xp.lXOXfX:X} ;XOX",
"OX`.[.(.s.(.(.d.) ;Xd.v.[.} *X#X;XOXA.*X!.M S.S S g 9.:.q.%.q.i j i f z l <.l d V.C.H ^.*X[.;XY.%Xb.I XXd.y.lXs.;X(.x.jX:X[.*X=X",
"a.:X`.[.I.[.} V ].a.p.n.m.iXI.[.`.`.`.XXS N.G N.g q.*.1.:.f g NXNX. : NXMXc 4.9.u B.D O.pXT.'.).XXM.`.v.] :Xy.m.[.k.hXM.:X*X:X(.",
"[.[.(.OX].b./ [./ d.n.n.[.6.a.>Xs.=XOX[.L L S B.x <.*.p i > - * NX> # $ NX* a i 3.p g vXd.G.F.!.OX:XOX~ *X6.k.R.F.OXd.m.OX).[.[.",
"b.} OX`.m.].`.M.(.[.{ =X} s.:Xa.;X'.XXA.`.B.t z q.%.i NX: 1 + > = :   O > - & , b *.g e.7.hX_.(.b.k.].OXd.b.`.v.sXa.| iXOX[.v.M.",
"k.iX(.`.I.a.d.v.[./ *Xs.p.=Xn.m.*X(.XXM.k.G N.n $.k v ; + 1 ; + > - > ; % - - @ MXj t.i [.G.n.@X].d.] m.m.:X) =Xp.] uX`.b.(.;X) ",
"=X`.`.d.].p.n.`.`.].!.` ].a.s.`.'._.I.aXD N.k *.h i MX$ = 1 X #   > . ; % - - > : p *.l U.+X~.x.[.(.b.=X`.XX:XI.{ =XuXI.XX;Xd.cX",
"`.m.[.].x.[.p.(.[.R.(.[.} (.].].m.OXn.U.M S.z w.j MXNX$ @ O * wXwXwXwX6XeXwXwX0X- f :.l Y.-X!. X6.I.].6.;X[.`.l.uX;X`.*X6.OX;Xp.",
"[.].v.`.v.].[.6.].(.(.*X(.=XOX`.^.u.,Xm.S K d 3.z + ; & = , 5XqX& ; 9X7X0X= ; 8X# h <.j e.pXB.n.=X` Z.%XV hX(.[.%X:XOXs.uX] `.*X",
"`.(.[.n.].`.I.=XM.a.`.].[.].].k.`.).P.=XE.c.m #.s : # # - 9XnXwX# $ qX8XwX> $ 6X8Xl 4.x ^.{ =XM.b.fX6.n.;XhX=X=X!.x.jXI.b.jX^ R.",
"].d.v.*Xa.(.*Xp.[.k.[.`.`.].v.:Xz.~.>Xf.U.`.s >.z & qX6X- 9XwX0X= - qXwX6XO - mX5Xx l l.I.gXr. X(.s.kXI.lXjX;X{.`.OX~ ].b.v.uX6.",
"6.*Xd.n.;X6.`.OX} =X(.(.[.].`.s.tX..(.5 5 m.d 5.x o 0X7X9XeXmX6XwX9X0X7X7XmXeX5XeX$X^.sXo.4 q P [.=X^ iXiX[.~ kX].OXiX! b.].[ cX",
"m.m.*Xe.[.hX} *Xn.(.] (.[.!.=X(.Z.gXX.e D.0 Q.l 1.n 0X8XwX5XeX6X0X> 1 + * > 9XwX6XXX/.+Xy |.e sX[ OX*X;X`.[ [.].s.OX=XkXC I.OXA ",
"[.m.Z.*Xk.6.(.(.(./ p.=X6.hX[.OXM.f.&X0 sXJ.q n ;.l l s nX7X3XeX8X< NXNXNXo 6X7XmXf.*Xq 1XH.3  .iXs.].`.{ a.*Xs.bXb.kXI.;X} v.XX",
"%X`.].^ *Xm.OXOX| p.=Xp.fXm.[.[.'.tX( r F.D.J.l 2.>.$.j d n nX5X6X9X: O $ 0XnXqXh n f K.{..Xe J.!.`.;X} } [.m.hXk.].*Xm.:X=Xv.`.",
"(.`.=X`.a.m.(.a.~ [.x.b.I.d.:X(.>X%XoXq +. XJ.}.z *.:.3.&.d h l 8X6XrXeX7X8Xx l w.z J.}..Xg.4 $X(.v.p.p.*Xa.*Xv.I.iXa.bX[.=XI.`.",
"6.:X].[.(.`.d./ [.a.s.(.!.;Xv.(.].@X+XN.7 +.H.}.J.v 3.T 2.*.3.&.z z z f j f %.3.*.c J.H.N.3 H.@X[.].(.:XC [.I.d.jX6.`.*X/ :Xm.].",
":X[.=X(.`.%X(.`.! n.I.b.;Xa.d.*X7.4X^.#X8 N.H.}.|.f 2.;.<.4.5.%.*.3.%.&.3.%.3.%.q.f -X}.j.8 zX=X[.:X=X=X[.=X] hX{ b.XXd.bX(.b.b.",
"n.a.(.`.x.].`.].m.(.} [.a.} =Xa.@XI.M.).E.w N.J.K.|.z T :.3.<.>.1.3.$.1.%.%.3.%.w.d H.g.e vX;XOX(.(.!.(.;X] ;Xp.} =Xd.`.].].(.m.",
"x.*X`.I.n.M.m.`.].B [.p.] OXM.y.OXR.c.].M.m.e g.j.C.n &.*.z f x f f z f z z $.-.l +.N.3 >X#XyXZ.OXm.x.!.(.#X*X] OXa.b.*X=XXXp.:X",
"*X[.(.I.OXa.!.| I.[.!./ %X[ } =X`.^.b.).b.C.x.8 t e j w.E 4.:.<.%.&.3.&.%.$.3.4.b 0 2 j.>X$X XOX} :Xd.M.fXm.].%X{ v.[.iX`.*X*Xy.",
"[.`.!.OXd.[.a.I.=X!.n.*X} s.].OX`.'.oXd.}.L.B..XB.B.n 2.>.<.*.&.3.3.%.3.$.3.<.%.f f.,X$X XY.F.oX[.p.OXb.s.:X[.*X(.=X=X`.[.p.`.;X",
"I.[.k.OX[.(.*Xa.m.*X].[.a.=X%X(._.l.R._.l._.c.a. XG.h $.&.k j x f g f z n %.*.:.E.W.pX&X>Xx.*X6.(.hXQ [.:XV jX].M.[.;X=X} ;X~ (.",
"!.OX`.n.I.(.(.*Xn.! (.[.(.].!.!.Y..Xp.~.*X| %X@XU '.v 3.%.$.:.%.&.3.3.*.$.3.%.m [.Z.].{.pX^.j.pX] n.fX^ b.=X=X=Xm.[.y.iX!.k.cX~ ",
"`.s.n.*XM.I.(.y.;Xa.*XI.(.].6.*Xn.^.iX6.m.>XC uX!.}.c &.1.1.2.=.>.%.*.2.<.$.>.#.-X].(. XC aXI.j.lX6.d.iX[ :X:X*Xv.(.[.C *X!.s.kX",
"b.].d.R.[.[ ].].[ m.`.(.v.n.=X6.F.f.].iX6.s.XXn.0 4 q y E >.;.w.$.0.2.;.w.<.0 6 w |.#XyX&X^ T.[.] fX[.d.:XOXd./ kX(.*XiX! m.]./ ",
"6.OX*X} #X=X[ =X`.%Xn.d.!.(.%X(.m.[.f.v.uXU.R.B.r D.|.G.w 0 q q.3.T *.T 2.e <X1XD.t O.>X*X2XJ `.=XC kXb.*Xm.s.xXm.;X*X[.:XV (.:X",
"].} [.fX} d.].n.M.6.s.iXk.:X(.OXXX} 2X^.' ;XH.7 }.-XJ.j.j.O.w x j l n i 5 H.J.{.C.N.M (.@X4X:XZ `.=X[.!.=Xa.m.I.a.hXv.=X*XiX! I.",
"=X].d.a.;Xm.[.m.n.v.=Xp.v.`.`.(.@X&XB %X~.'.G.9 q 6 5 0 r q 6 |.tX( :XR.7 6 y 3 4 r 8 ..cXoX;XgX} ;X(.`.{ M.k.m.kXp.[.(.(.(.;Xa.",
"[.`.[.].p.`.(.m.) *X} a.`.s.:X(.!.{._.k.`.R.] G oXh.{.P.a.&Xh.tX[.`.P.R.tXG *XO.X..Xl.cX].Y. X+X(.`.].~ k.M.k.;Xp.y.*X} lXR.(.n.",
"v.%X].].(.[.(.A *Xp.] =Xv.n.`.]  X).`.b.`.l.~ '.o.h.P.j.sXz.R.T.A.].].G.{ ;Xh.' fXl.M.`.O.4XE.hX[.(.jXs.%XQ ;X6.s.:X} [.[.} ;Xm.",
"[.!.n.[.n.(.n.m.a.! ].s.p.v.d.:Xb.XXE.~.M.Z.).V Y.b.L. Xu.u. Xy.=XXXM.cXgXaX( &X{ l.OXm.cXL.k.>X[.].[.:X} !.b.} uXO.s.(.p.bX(.(.",
"I.y.;XI.!.[.].M.] (.} p.I.b.m.k.6.OXv.b.m.[.v.m.I.^ %Xy.p.=Xs.`.m.].n.:X;X;X%X} d.OXv.OXd.s.hX[.`.a.p.m.I.(.` [.6.{ [.n.`.=Xm.(.",
"I.m.I.(.m.I.b.(.`.{ b.I.} n.a.6.XXI.m.b.v.s.d.v.V ~.c.{ [.} } `.%Xn.OX} *X(.`.x.=X] (.I.p.xX;X!.].OXC I.I.`.(.n.` OX{ v.;X[.`.m.",
"d.].I.(.[.} d.{ n.m.M.] m.d.p.].b.v.m.b.a.I.s.d.} n.` (.[ | (.(.n.b.OX(.6.jXI.M.d.>X].a.iX=XOX[.v.v.*X! (.b.].I.;X) XX[.[.(.=Xv.",
"b.[.(.m.`.(.} `.(.n.m.b.k./ b.v.d.I.k.k.v.) m.v.c.a.v.a.p.I.I.v.`.OX` m.OX| jXI.[.[.~ [.[.;X*Xy.fX) b.:XV m.I.m.'.b.].=X].*X! :X",
"m.m.b.OX[ !.%X) =Xb.x.s.! b.v.v.k.} m.p.v.I.] n.l.y.c.s.[.(.k.(.b.x.=X~ m.*XI bXn.`.(.=X(.m.:X[.a.jX/ M.lX] Z.m.R.].;X[.} v.;X{ ",
"n.OXm.n.%Xp.m.;XQ e.s.s.k.s.k.} `.p.a.v.6.y.n.) V s.7.n.n.I.`.[ XX] m.*X^ k.`.! bX].`.*X:X=X` =Xv.m.iXa.e.jX].:Xm.].n.:X[./ v.:X",
"*Xp.*Xk.m.=X] b.OXB v.s.6.6.I.6._ I.p.y.b.k.V k.6.y.y.s.M.a.[.s.n.].| I.*X6.b.iX[.[.(.`.p.[.iX] I.OX} lX[.n.;X:XOX(.[.m.a.iXC M.",
"*Xm.(.=X6.Y.;X6.' s.x.6.6.p.[ p.y.[ I.} ) 6.s.I y.u.y.y.s.(.B `.6.n.[.a.p.[.m.iX*X].`.`.*X! b.:X~ !.=XC jX).jXd.{ *X`.`.a.b.iX! "
};
