/* XPM */
static char *_de3a7920503411e853c6c7bbc06dcdbpFkaF81JorLQq6BQ[] = {
/* columns rows colors chars-per-pixel */
"64 64 242 2 ",
"   c #0A0C0A",
".  c #0B0A0C",
"X  c #130E0D",
"o  c #1A0D04",
"O  c #0D140B",
"+  c #081308",
"@  c #13130C",
"#  c #1B150A",
"$  c #111105",
"%  c #0C0F11",
"&  c #130D15",
"*  c #140B1A",
"=  c #0D1218",
"-  c #131414",
";  c #15141B",
":  c #1A1A1B",
">  c #191717",
",  c #211319",
"<  c #240D15",
"1  c #181321",
"2  c #5E4A1D",
"3  c #644B0F",
"4  c #684818",
"5  c #724B1C",
"6  c #675417",
"7  c #65520D",
"8  c #5E5532",
"9  c #5F5228",
"0  c #684C27",
"q  c #744A26",
"w  c #675227",
"e  c #735426",
"r  c #64583C",
"t  c #6E4F35",
"y  c #48334B",
"u  c #4A285A",
"i  c #552859",
"p  c #4E3153",
"a  c #4B1E68",
"s  c #511E67",
"d  c #4D2564",
"f  c #4B246A",
"g  c #4D2B6B",
"h  c #462863",
"j  c #522666",
"k  c #532964",
"l  c #54256C",
"z  c #542B6B",
"x  c #5B2769",
"c  c #4D2B74",
"v  c #552875",
"b  c #4E3469",
"n  c #653D7B",
"m  c #5C594A",
"M  c #4C4D52",
"N  c #515256",
"B  c #55565A",
"V  c #5A5B5F",
"C  c #5D5C53",
"Z  c #4E4B4C",
"A  c #655B4A",
"S  c #655848",
"D  c #645D53",
"F  c #685B58",
"G  c #715E4D",
"H  c #5E604A",
"J  c #646247",
"K  c #666355",
"L  c #5D5E63",
"P  c #525963",
"I  c #4F5365",
"U  c #734C7C",
"Y  c #6A567B",
"T  c #76527A",
"R  c #735272",
"E  c #5F6065",
"W  c #616266",
"Q  c #65666A",
"!  c #67686D",
"~  c #6A6A6E",
"^  c #686B64",
"/  c #657069",
"(  c #6C6D72",
")  c #666974",
"_  c #6E7074",
"`  c #6F737B",
"'  c #717276",
"]  c #74757A",
"[  c #76797D",
"{  c #797A7E",
"}  c #777977",
"|  c #7C756D",
" . c #837F7C",
".. c #7C8277",
"X. c #85847B",
"o. c #989679",
"O. c #A4977B",
"+. c #A38F77",
"@. c #532780",
"#. c #6A4A84",
"$. c #734B85",
"%. c #754C8B",
"&. c #7A4D8C",
"*. c #774A89",
"=. c #6C5585",
"-. c #745484",
";. c #7A5284",
":. c #75528C",
">. c #7A538C",
",. c #725980",
"<. c #764B93",
"1. c #7B4C92",
"2. c #784A97",
"3. c #7B5292",
"4. c #7A5596",
"5. c #685694",
"6. c #7C7D82",
"7. c #767A85",
"8. c #7E7B95",
"9. c #756981",
"0. c #7A50A1",
"q. c #844E96",
"w. c #825694",
"e. c #867E8B",
"r. c #867695",
"t. c #8355AA",
"y. c #7F8085",
"u. c #7D8389",
"i. c #818286",
"p. c #84858A",
"a. c #86888C",
"s. c #898A8E",
"d. c #8A8886",
"f. c #8C9488",
"g. c #989789",
"h. c #8C8D92",
"j. c #888694",
"k. c #8F9094",
"l. c #8C919A",
"z. c #919296",
"x. c #9A9B94",
"c. c #94959A",
"v. c #96999C",
"b. c #999A9E",
"n. c #999695",
"m. c #968991",
"M. c #A79A87",
"N. c #A89A99",
"B. c #B69D99",
"V. c #A38F90",
"C. c #9CA397",
"Z. c #AAA286",
"A. c #B2A487",
"S. c #B6B28F",
"D. c #A3A39D",
"F. c #A9A699",
"G. c #B5A899",
"H. c #B7B198",
"J. c #A5B593",
"K. c #988BA3",
"L. c #8F94A3",
"P. c #9C9DA2",
"I. c #9897A8",
"U. c #9A9EB1",
"Y. c #8C8AA0",
"T. c #A19BA4",
"R. c #A79AAA",
"E. c #A799B4",
"W. c #9EA0A4",
"Q. c #9EA2AB",
"!. c #99A7A5",
"~. c #9DAEB9",
"^. c #A1A2A6",
"/. c #AAABA5",
"(. c #A4A5AA",
"). c #A9A5AC",
"_. c #A7A8AC",
"`. c #A9AAAE",
"'. c #A8A7A4",
"]. c #B3ACA3",
"[. c #B2ACAD",
"{. c #B8A8A4",
"}. c #ACB5A9",
"|. c #B2B2AB",
" X c #B7B5A7",
".X c #A4A4B2",
"XX c #AAA3B5",
"oX c #A5ABB5",
"OX c #ACADB2",
"+X c #AAAABA",
"@X c #B3ACB3",
"#X c #B2A7B8",
"$X c #AEB1B4",
"%X c #A8B2BA",
"&X c #B1B2B6",
"*X c #B5B6BA",
"=X c #B4B5BA",
"-X c #B7B8BC",
";X c #B9BABE",
":X c #BAB6B5",
">X c #C2B5A7",
",X c #C4B7B8",
"<X c #C4A6A8",
"1X c #C6AB96",
"2X c #BEC0BD",
"3X c #EBD09E",
"4X c #D5D1B4",
"5X c #F3CDA6",
"6X c #EAD5AA",
"7X c #F5D3AB",
"8X c #F5CEB8",
"9X c #E5D3B3",
"0X c #ECD3B4",
"qX c #E9D7B8",
"wX c #F3D4B4",
"eX c #F6D8B8",
"rX c #E9CCB4",
"tX c #ABABC3",
"yX c #B7ADC1",
"uX c #ACB6C3",
"iX c #BCBDC2",
"pX c #B6B8C6",
"aX c #C6BBC7",
"sX c #D0BDD9",
"dX c #BEC1C3",
"fX c #B9C2CA",
"gX c #B3C5D1",
"hX c #C1C2C6",
"jX c #C3C4C9",
"kX c #C7C8CC",
"lX c #C9CACE",
"zX c #CDCBC8",
"xX c #CCCDD1",
"cX c #C8C7D3",
"vX c #D2C6D7",
"bX c #D2D3D7",
"nX c #F9D7C5",
"mX c #F2D3C4",
"MX c #FEF4FF",
"NX c #FEFDFD",
"BX c #F7F9F6",
"VX c #D8C5E5",
/* pixels */
"6.OXc.c.c.^.W (.h.] =Xh.c.W.p.OXP.(.(.^.' (.z.' _.z.v.h.s.&X^.^.v.z.P.=X_ 6._.z.=Xh.P._.P._.s.(.s.c.L /.i.i.;Xi.;XP.(.^.(.`.N (.",
"=X{ iX^.h.z.c.P.N .X( P.b.s.-Xp.=X^.^.(.&XP.p.(.i.(.a.i.&Xi.hX(.b.`.$X$XQ.^.6.$X[ p.`.e.kXW.k.b.(.v._.b.' (.i.b.h.{ $X`.h.P.p.h.",
"6.P.P.P.h.P.c.j.^.Q P.p.i.OXp.c.(.`.v.(.P.b.OXL _.p.{ iXz.b.(.c.b.P.OX=X^.! `.6.[ ^.h.OX`.(.`.i.P.^._.' P.] z.p.] hX(.^.v.p.~ `.",
"h.P.(.c.P.[ Q h.v.P.P.6.OX6.h._.^.P.P.i.h.z.b.b.^.' _.i.v.^.^.W.`.c.c.aXP.P.l.h.(.7.&XOX`.P.P.b.z.a.P.P.6.`.P.! &X(.`.^.@X^.[ h.",
"P.^.(.P.I.^.i.z.P.(.i.OX[ P.h.-X(.OXh.OX] T.^.^.' `.' ^.`.@X(.`.6.=Xz.^.=XP.h.=X! OX^.P.c.^.u.OX^.b.^.b.c.(.L (.^.(.s.$Xa.^.;X' ",
"P.Q.6.OXp.c.(.i.(.c.P.b.`.(.OX.Xz.OXP.P.OX6.(.P.c.^.(.&X`.`.OXk.-X6.OXI.s.=XP.(.&X=X^.&X-Xp.=X6.`.`.! ^.P.(.OX=X_.&X_.i.&Xs.v.&X",
"P.P.(.c.^.p.(.OX! a.b.(.&X$X(.i.OXp.(.iXc.OXh.] &Xv.`.&X^.{ ^.^.^.=X6.P.(.' -XP.P.OX(.k..X@Xl.(.h.c.;XW P.OXP.c.`.c.^.`.{ `.v.s.",
"(.i.c.^.P.(.z.h.(.' `.(.`.b.hXb.W.(.u.P.&X6.OXb.(.b._.`.v.$Xa.^.c.P.iXh.P.OXiX(._.OX[ $Xj.P.=Xp.&XW.] OXiXQ.(.OX] `.c.`.iX_ `.`.",
"{ $X{ v.OX6.$XP.h.b.OX(.(.`.{ ^.(.P.iXp.L.pXh.+XR.- O O OXj.cX[ R.(.] pXQ.&X$Xd.`.W.=Xu.(.j.P.aX] OXP.OX^.h.`.`.`.] /.v.z.dX6.iX",
"c.h.$Xe.P..X' =Xz.6.! OXI.OXOX6.P.(.p.yXQ.C.(.).: : % @ - x.p.hX} P.&Xl.- @ - 1 C.P.=X_._ OXc.! &XP.(.OX6.hXb.OX`.-X! v.;XB jXP.",
"OX.Xa.(.a.h.`.h.P.[ P.(.c.OX^.OX` P.$X[ $X/._.. BX  : & NXO /.{ pXv.!.@ NXNX. = - ;Xc.$X=XW OX^.P.`.^.6.b.P.p._.v.@X$Xp.z.=Xb.P.",
"OX^.OXL -XP.W.P.6.h.P.c.iXc.jX(.=Xa.z.`.!.^.6.1 NXNXNXNXNX- &X`.! ;X).NXMXNX: @ O > dX(.&X=Xi.&XOX^.' P.p.p.=X6.kX^.-X&Xv.OX(.P.",
"W.P.P._.c.Q.P.! 6.z.k.iXc.z.(.`.b.=Xb._.(.E 9.Y MXNXNXNXVXY #X$XF..X=.=.NXBXNX  ; & OX] (.T.T.OX^.Q OXz.] ;Xs.=X_.p.(._.`.^._.N ",
"{ _.(.(.P.^._ P.c.6.iXp.l.=Xe.iX(.(.^.(.l.j.E.Y ,.sXvXvX#.:.U.$XC.#X:.%.#.NXBXNXvX- s.xXW.jX=XP.OXc.(.Q &X{ z.c.z.&Xa.bX(.^.-XP.",
"-Xh.OXz.P.P.`.Q.V OX6.y.(.c.iXk.c.OX^.(.^.b.I Y %.-.U U 4.=.k.!.`.I.;.&.>.=.sXvXvX& pXp.s.$X_.P.iX^.' OX! h.(.z.$Xp.b.=X$Xv.OX@X",
"p.z.P.OXc.P.T.^.OX6.h.P.l.=Xp.i.=X_.b.!.'.P.P.K.2.<.1.>.-.r.;X/.C.L.>.1.;.$.:.:.y @Xp.' dX`.`.P.i.P.P.^.v.`.' ;Xi.{ &X^.z.$Xp.p.",
"h.(..XI.^.p.) P.(.P.^.] ;Xy.6.$X(.c.`.b.z.D.W.b.`.w._.j.} *X$X!.(.R.#.aX5.=.p u =Xa.` =X=X/.b.OX6.k.z.OX_.( iX[ ] iX;X`.z.;Xb.k.",
".X+XOXz.OXT.k.I.(.^.) @Xp.] &X$XOX_.s.&Xi.(.W.k.XX#.K.e.|.&Xv.W.Z.R.5.r.:XN.XXR.W.[ +XOXb.OX&Xy.OX6.P.z.z.(.l.j.=XOX`.P.&X{ @X(.",
"(.(.c.(.p.h.`.h.^.(.^.P.p.OX`.`.c.^.(.c.$Xh.W.%X'.`.Y _.K F @Xj.yX5.`.@X) kXQ.^.s.&XaXQ.=Xc.T.&Xp.OXp.p.OXP.^.iX;X(.iXOXs.=X] P.",
"(.OXP.^.`.h.b.OX! P.b.^.W._.`.s.OXz.b._.I._.L.Q .XD.w.Q.D M.S ].z.5.g.g.pX) xXC K &XP.P.[ iX6.(.=X( =XOXQ .XOX(.`.`.a.`.$Xb.;Xi.",
"^.6.`.b.OXOXi.c.`.( ^.`.(.(.&X(.P.=Xi.(.*X_ ;X^.).K ;.$XA Z.J A K m A XXQ aXK O.C '.R.OXOXc.=Xj.P.jX6.^.OXOXb.-XOX} -X] OX$X! hX",
"P.;Xh.^.^.c.$XP.c.(.OXOX_.`.{ b.P.`.:Xs.c.&Xi.].J w G.D m r S F.M.F G.r S F O.A.D F.|.e.P.OX{ pXI.Q iXI.iX(.c.&X(.&Xp.-X' W.;X' ",
"6.c.=X6.T.`.! $XW.^.h.b.(.&X_.] P.(.b.;X'.F m  XJ M.r N.F B.B.S S g a A.Z.F.A G A D /.OX' b.jX! -XOX.X=X6.( ;XP.=X`.iX{ ;Xb.p.;X",
"`.' ^.-X( b.`..XOX{ p.&Xz.-X(.OX) ^.).^ zXm F.A H R A i h j i z i ;.1.a g F Z.O.S F.C &X;Xi.6.hXi.iXP.P.h.;Xc.z.&X^.&X;XW ;X(.=X",
"P.`.6.{ _.{ `._.s.p.=Xs.`._.$XOX$X| C.+X(.F.m F.A.M.b 2.;.&.T 2.%.1.2.1.:.p F S M.A r fXOX}.D.a.OX$X^.6.b.p.h.;Xi.lXOXhX;X6.=XOX",
"OX(.`.^.a.^.(.s._ :Xs.k.`.{ &X$X-XOXC.&XT.m Z.A S a 0.:.3.<.q.u k d j z l 1.x s B.M.G (.$X`.;XL.OXc.L OXs.6.xXp.-X^.z.jX;X`.&X&X",
"p.;X(.`.^._.{ B `.i.i.b.b.iXW.[.(.^.(.OXm M.K O.d q.*.1.;.d f NXNX. : NXNXu 4.0.y R.F X.pXQ.(.(.OXz.(.z.] -Xy.b.OXs.hXc.;X&XiX^.",
"`.`.^.OX_.c.~ `.! h.b.c.`.6.p.&Xj.=XoX_.K K G N.x <.*.u u > = * NX> @ $ NX* u u :.i j vXs.'.D.P.OXiXOX! &X{ h.^.P.&Xs.x.`.(.`.`.",
"c.{ &X^.b.`.(.c.^.`.[ =X{ a.;Xp.;X(.oXg.(.D.r z 1.<.u NX; 1 + > = :   O : - - , c $.s e.7.2X/.^.z.h.(.OXs.c.^.h.dXp.} iXOX_.z.c.",
"h.iX^.^.W.p.s.z.`.~ &Xa.i.&Xv.b.&X^.oXx.m.F V.v -.k f ; $ 1 ;   ; - ; ; % - - @ MXk t.u `./.v.+X(.h.' P.I.-X( =Xi.] ;X_.v.^.-X( ",
"=X^.(.s._.i.v.(.(.(.W.( _.p.a.(.OX/.P.yXm M.i <.g u MX$ = 1 X # X > X - % - - - : u $.k I.XXU.k.OX^.z.-X^.OXiXT.[ =XiXI.OX-Xs.lX",
"^.P.`.`.h.`.i.^.OXP.^.OX6.^._._.x.+Xv.I.m A.z >.k MXNX$ - O > 0X0XwXwX6XeXwXwX0X- f >.l R.yX!.].6.P.(.6.;X`.(.a.pX-XP.@X7.OX;Xi.",
"`.(.z.(.z.`.`.6.`.W.^.&X^.&XOX(.`.6.:XP.A F g *.z   ; & = # 5XeX& - 0X7X6X; ; 8X- u q.g r.2Xg.P.=X( P.$XB hX(.`.&X-X$Xp.iX_ ^.=X",
"(.^.OXc.(.(.P.-Xz.p.(.`.OX_._.h.^.`.z.OXx.n.h 1.f : # # ; 9XnXqX# $ qX8XwX; $ 6X6Xv ;.h D.7.pXI.c.aX6.b.&XhX&X-X^.k.jXP.c.jX! P.",
"_.h.z.&Xp.^.&Xi.`.z.`.(.(.`.z.;Xs.(.&Xk.C.R.b *.x & qX6X; 9XwXqX; - qXwX6XO - mX8Xf f R.g.iXu.&X(.a.lXP.kXkX-X(.(.&XQ _.c.h.iX6.",
"{ &Xs.b.-X6.^.OX[ =X^.P.`._._.p.[.{ !.-X' T.u q.l o 0X7X9XeX8X0X0X9X0X7X6XmXeX5X8X,XP.].d.Y.dXQ `.=XQ iX;X_.Q kX).`.iXE c.(.[ cX",
"b.b.&Xy.`.hX{ &Xv.(.' ^.`.P.=X^.D.iXu.L.%Xp.E.f &.v 0X8XwX5XeX6X0X, 1 O * > 9XwX0XXXJ.uXhXh.f.zX] OXOX;X(.] $X_.p.OX=XkXL P.OXM ",
"`.b.P.&Xh.y.^.^.^.! i.=X .hX`.OXx.p.uXC.c.OX#Xu ;.l x a nX7X3X7X8X< BXNXNXo 6X7XwXe.}.!.|._.c./ ;Xa._.(.{ p.&Xs.bXc.kXP.-X[ h.OX",
"&X(.`.! &Xb.`.`.] i.&Xp.hXv._._./.@X` @Xv.(.'.u 2.>.$.j s v mX6X6X9X: O # qXeXqXv f c pXtX+X=XoX^.^.-X6.{ `.b.hXk.(.OXv.iX=Xl.(.",
"^._.&X_.d.b.(.p.Q `.z.c.^.a.;X(.=X+XXX/.!.P.K yXz $.<.3.&.s j l nX6XrXeX7X8Xs l >.x 4 :X..|. XuX^.z.i.i.OXp.&Xz.^.iXe.bXOX=XP.(.",
"{ ;X_.OXW.(.s.! `.p.a.^.P.-Xz.^.oX[./.P.U.Z /.q ].z 1.T t.U :.3.k z l u j d %.>.:.x G.w 2X[.@X%XOX/.(.;XV `.W.s.jX6.^.OX) ;XP.(.",
";X`.:X(.^.$XW._.W c.P.v.-Xa.a.&Xy.pX].!.pX^.w G.H.c :.T <.;.<.&.*.>.%.1.>.%.3.%.3.f  XF.5 8.gX>XOX;X&X&X$X&X' hX] c.OXs.bX^.c.c.",
"v.p.^.(.z._._.`.b.^.{ `.p.{ &Xa.}.c.^.Q.(. Xe  X}.G.c %.%.>.;.1.>.3.%.1.%.%.4.%.4.k J.:Xq zX:XOX^.W.b.(.-X' -Xy.6.=Xh.(.(.(.^.b.",
"z.&X(.b.v.c.b.^._.N `.p.' OXc.i.OX^.c.W.!.5 G.}.H.G.z >.4.f d l j d l d z z $.%.l $X1XG.|.5 }.E.OXP.k.^.^.`.&X' OXi.c.$X-XOX6.iX",
"&X_.(.^.OXp.W.] W.`.^.~ OX} { =XW.R.I.OXn.4  X].H.M.a &.$.1.:.1.%.1.3.&.%.%.4.3.x g.A.:X].7 uX(.{ iXs.c.aXb._.$X[ z.`.iX(.=XOXi.",
"_._.P.`.s.`.a.b.&XP.c.&X6.s._.`.oX'.(.h.2  XG.{.V.0 l q.;.4.;.<.>.3.%.1.$.4.$.%.h 6 V.{.S.@X3 uX`.6.OXc.a.iX`.$XW.=X=X(.OX6.^.pX",
"^._.s.OX_.(.&Xp.P.$X(.`.p.&X$X^.oXd.I.{.6 }.{.O.8 K.v T #.v f k d l d z z %.*.$.E.v.w M./.].5 X.^.hXE `.;XB hX`.v.`.;X&X{ =XQ ^.",
"^.`.(.c.^.^.^.&Xc.Q ^.`.(._.W.W.C.~.i.q o.o.g.t m [.c U >.1.*.q.<.>.3.$.$.3.%.n oXN.`.6 N.g.M.4 ' b.dXQ c.-X&X=Xb.`.i.iXW.h.cX! ",
"(.a.b.&Xz.P.(.i.-Xp.$XP.W._.6.&Xf.XX,Xw e 0 e 5 I.].h >.1.1.2.Y ;.%.%.2.<.#.4.#.:XQ.XXt 4 6 e 5 lX{ s.iX' iX;X&Xz.^.`.L OXP.s.kX",
"n._.h.P.$X] (._.[ v._.^.z.v.=X6.%Xu.XX,X^ f.$Xk.0 4 q t T :.;.q.$.t.<.;.w.<.0 3 w {.].&X&X/ L._.' hX`.s.;X$Xs.! kX^.&XdXW P.(.~ ",
"6.`.OX{ OX&X] =X(.&Xv.h.P.^.$X^.v./.y.c.fXI.W.C.e G. XA.9 0 0 2.4.$.;.U <.w <X1XH.8  .,X|.aXK (.&XV lXc.&XP.s.cXb.;X&X`.;XB ^.;X",
"(.6.`.dX{ s._.c.c.{ a.,Xh.;X^.$XD.d.;XD.[ -XB.0 /.*XG.M.g.g.w x x j v u 6 G.H.|.g.O.r /.%XaXpXP _.&XOXP.&Xp.b.P.p.dXz.&X&XiXW P.",
"&X`.h.p.-Xb.$Xb.c.k.&Xi.c.(.(.^.oXoXP `.P.#X'.w 5 4 7 0 e q 7 {.+X/ iXT.9 3 t 4 q 5 4 d.fX@X:X:X{ ;X^.^.[ c.h.v.lXi.`.^.^.(.=Xp.",
"`._.`.(.6.(.P.P._ OXe.p.^.a.;X^.^.(._.P.I.U.6.D ~.g.'.K.p.-Xf.tX`.(.K.T.XXL =XX.8.:Xh.2X~.l.|.|.^.(._.Q s.c.f.:Xi.6.$X .lXP.^.v.",
"z.OX`.(.^.`.^.Z &Xi.' &Xz.v._.' /.N.|.z.(.p.! (...f.c.z.aXm.N.U.x._.(.F.[ ;Xf._ fXY.x.D.g.zXL.dXOXP.hXs.&XW -Xe.p.iX{ _._.[ -XP.",
"`.^.b.OXb.^.v.b.d.W _.a.i.c.s.-Xl.tXU.x.C.W.OXN I.c.Y.}.u.u.}.u.-X.Xx.cXjX%X/ %X| h.oXb.jXL.l.,X`._.$X-X{ ^.c.[ ;X6.a.(.i.bX^.^.",
"^.6.-Xb.P.`._.c._ !.[ i.b.v.b.s.6.OXh.c.b.`.z.b.W.~ $Xy.i.&Xa.(.P._.v.;X;X-X$X{ s.OXc.`.h.a.hX`.(.p.i.b.b.(.' `.6.{ `.v.(.&XT.W.",
"b.v.^.(.b.W.c.^.).[ v.T.{ v.a.6.OXP.I.z.z.a.s.z.B !.z.' &X{ { (.$Xc.`.[ &X^.^.k.&X' (.b.i.bX;XP._.OXV b.b.(.^.b.' &X] z.-X`.^.b.",
"s._.b.^.`.{ s.] v.b.c.' b.a.i._.c.k.b.c.p.P.a.s.` P._ (.] ] ^.^.v.z.OX(.y.jX^.z.s.=X_.p.-X&X&X_.z.c.&XW (.c._.b.;X( `.OX`.^.-Xz.",
"c.`.(.b.(.^.{ (.^.v.b.c.h.~ c.z.h.P.h.h.z.( b.z.k.u.z.p.p.b.T.z.(.$X_ b.OX} hXW.`.OXW OX`.=X&Xi.hX~ v.;XB b.P.b._.c.(.&X`.$XW ;X",
"P.b.v.`.[ P.OX( -Xc.k.a.Q b.z.h.h.6.v.i.z.b.] v.k.u.k.u.`.^.k.^.c.h.&XQ b.&XL bXv.(.^.=XP.^.-XOXp.hX~ c.xX' P.b.W.`.-X`.y.z.-X} ",
"c.@Xv.v.$Xi.P.;XW i.a.a.s.a.h.{ (.i.p.k.6.i.v.~ B a.7.v.v.b.^.] `.] b.=X! h.^.Q bX_.'.&X;X&X_ =Xc.v.;Xa.i.jX_.;Xb.(.c.;X_.! z.;X",
"$Xp.$Xk.P.&X' v.OXN k.p.e.6.P.6.~ P.i.y.c.k.N h...y.u.s.c.a.OXp.v.(.} P.&X6.c.iX_._.(.(.i.`.;X' P.OX[ zX`.v.-X;XOX^.$Xb.p.iXV c.",
"&Xb.^.&X6.b.-X6.( j.h.6.6.i.' p.i.' P.{ ( 6.s.L u.u.u.y.a.P.B (.6.v.`.p.i.`.b.iX&X_.(.(.&XW c.;X! ^.=XV hX(.hXs.{ &X^.(.p.c.iXW "
};
