/* XPM */
static char *boo_certo_right1666002446[] = {
/* columns rows colors chars-per-pixel */
"64 64 247 2 ",
"   c #19160C",
".  c #141A13",
"X  c #1B1C14",
"o  c #1C151C",
"O  c #131C1A",
"+  c #1B1B1C",
"@  c #151416",
"#  c #161014",
"$  c #24140A",
"%  c #251919",
"&  c #270C1F",
"*  c #1B211B",
"=  c #082006",
"-  c #24231A",
";  c #1C1622",
":  c #1B1B22",
">  c #1A1C2A",
",  c #0F1822",
"<  c #221C22",
"1  c #261925",
"2  c #1C2325",
"3  c #212224",
"4  c #673F26",
"5  c #78461A",
"6  c #6E5017",
"7  c #6D4828",
"8  c #774927",
"9  c #764A31",
"0  c #685937",
"q  c #6F522E",
"w  c #5C593A",
"e  c #601757",
"r  c #59255B",
"t  c #522F4E",
"y  c #65245A",
"u  c #591D64",
"i  c #641D69",
"p  c #6A1E76",
"a  c #5C2465",
"s  c #5C2A64",
"d  c #5C246A",
"f  c #552868",
"g  c #552E68",
"h  c #612365",
"j  c #63246B",
"k  c #642A6D",
"l  c #682568",
"z  c #652577",
"x  c #6A376F",
"c  c #5D584B",
"v  c #515256",
"b  c #55565A",
"n  c #5A5B5E",
"m  c #4E4C4E",
"M  c #635A4B",
"N  c #6B5D4B",
"B  c #695847",
"V  c #72574A",
"C  c #695B52",
"Z  c #635C56",
"A  c #755A56",
"S  c #694C4E",
"D  c #5A634C",
"F  c #676659",
"G  c #6C634D",
"H  c #5D5E63",
"J  c #515A63",
"K  c #5A4C63",
"L  c #7B4B7E",
"P  c #785279",
"I  c #6F5A6F",
"U  c #5B6067",
"Y  c #616266",
"T  c #64656A",
"R  c #67696D",
"E  c #6A6B6E",
"W  c #6B6667",
"Q  c #6C6D72",
"!  c #696976",
"~  c #746C7C",
"^  c #6E7175",
"/  c #6E7777",
"(  c #717276",
")  c #74757A",
"_  c #77797D",
"`  c #797A7E",
"'  c #7A757B",
"]  c #726060",
"[  c #813E13",
"{  c #844927",
"}  c #8B4C30",
"|  c #854B7B",
" . c #86517F",
".. c #85796B",
"X. c #7D8676",
"o. c #6B8375",
"O. c #84887D",
"+. c #938B7E",
"@. c #A7987B",
"#. c #AE927C",
"$. c #A5A17C",
"%. c #652B82",
"&. c #7D4585",
"*. c #7E4688",
"=. c #7D4B8D",
"-. c #7B4B84",
";. c #7B5387",
":. c #7D4795",
">. c #7B539A",
",. c #7C7D82",
"<. c #7D788B",
"1. c #7C6883",
"2. c #844B84",
"3. c #83468B",
"4. c #844B8C",
"5. c #8A4D8D",
"6. c #864685",
"7. c #85538D",
"8. c #8B528D",
"9. c #845585",
"0. c #854B92",
"q. c #8B4D94",
"w. c #884998",
"e. c #944898",
"r. c #885294",
"t. c #944889",
"y. c #857C85",
"u. c #8C7894",
"i. c #8C52A5",
"p. c #7F8085",
"a. c #7B8689",
"s. c #7C8C9C",
"d. c #818286",
"f. c #84858A",
"g. c #86888D",
"h. c #898A8E",
"j. c #8B8885",
"k. c #968D8E",
"l. c #96968A",
"z. c #8C8D92",
"x. c #8A8794",
"c. c #968A99",
"v. c #8F9095",
"b. c #8D969B",
"n. c #919295",
"m. c #94959A",
"M. c #96999C",
"N. c #999A9E",
"B. c #9B9897",
"V. c #A89787",
"C. c #A69B97",
"Z. c #B69C95",
"A. c #AC908D",
"S. c #97A39D",
"D. c #9BA39D",
"F. c #8BA79C",
"G. c #ABA789",
"H. c #A8A699",
"J. c #B9A798",
"K. c #B7B497",
"L. c #B4AD8E",
"P. c #9A8AA5",
"I. c #889BAB",
"U. c #959CA3",
"Y. c #9C9DA2",
"T. c #9998A7",
"R. c #8F8AA1",
"E. c #A59BA7",
"W. c #B399A6",
"Q. c #A999B3",
"!. c #B498B9",
"~. c #9EA0A4",
"^. c #9CABAA",
"/. c #9CA5A8",
"(. c #9AADB0",
"). c #A1A2A6",
"_. c #A3ABA4",
"`. c #A4A5AA",
"'. c #AAA5AB",
"]. c #A7A8AC",
"[. c #A9AAAE",
"{. c #ABA7A4",
"}. c #BBACA2",
"|. c #B3ACAC",
" X c #B8A8A6",
".X c #A8B2A8",
"XX c #B6B3A8",
"oX c #A5A5B2",
"OX c #ADA5B3",
"+X c #A4ACB4",
"@X c #ACADB2",
"#X c #ACABBC",
"$X c #A6A9BB",
"%X c #B4ADB5",
"&X c #B6ABBB",
"*X c #AFB0B4",
"=X c #A9B5B9",
"-X c #B1B2B6",
";X c #B4B5BA",
":X c #B7B9BC",
">X c #B9BABE",
",X c #BAB6B8",
"<X c #C3B3A3",
"1X c #C4B9B8",
"2X c #C3ACAF",
"3X c #C4A98E",
"4X c #B1C2BA",
"5X c #FBD49F",
"6X c #FDCDA5",
"7X c #F3CDAC",
"8X c #FBCCAB",
"9X c #F7D3A9",
"0X c #E9CBB6",
"qX c #FDCDB2",
"wX c #FDCCBB",
"eX c #F5CAB7",
"rX c #ECD3B8",
"tX c #FAD4B6",
"yX c #EDCFAB",
"uX c #D1C3BA",
"iX c #B3ABC4",
"pX c #ABB8C2",
"aX c #BCBDC2",
"sX c #B6B5C5",
"dX c #B3B2CB",
"fX c #A7A4C2",
"gX c #C4B9C4",
"hX c #D4B7D7",
"jX c #BEC0C4",
"kX c #B8C6CC",
"lX c #BCCDE1",
"zX c #C1C2C6",
"xX c #C4C5C9",
"cX c #C9C4CA",
"vX c #C6C8CD",
"bX c #C9CACE",
"nX c #CFCAC4",
"mX c #CBCCD1",
"MX c #C5C5D1",
"NX c #D7C6D6",
"BX c #D2D3D7",
"VX c #FFF5FE",
"CX c #F4FDFE",
"ZX c #FEFDFE",
"AX c #F8F9F3",
"SX c #F5FDEE",
"DX c #EDD4C0",
/* pixels */
",.@Xm.m.m.~.Y '.z._ ;Xz.m.~.f.@XN.].`.~.) ].v.( '.n.N.v.z.-X~.).N.m.U.,X( ,.].n.;Xz.Y.@XU.'.h.`.z.B.n ].d.d.>Xd.>XY.`.~.`.[.v `.",
";X` aX).v.n.n.U.v '.Q Y.N.h.:Xf.;X).).'.-XN.d.`.p.].g.p.-Xd.zX).N.].;X@X).).,.;X) g.`.d.xX).n.N.).N.[.M.Q '.d.N.z.` -X'.v.Y.f.z.",
",.N.Y.U.z.E.m.g.).T Y.d.d.@Xf.M.`.].M.'.N.N.@XH [.f.` aXz.Y.).B.M.Y.@X;X).E OX,._ ).z.%X'.].].d.N.).].( U.) n.h._ zX`.).N.d.E '.",
"v.Y.`.N.U._ T z.M.Y.~.,.@X,.v.`.).N.~.d.h.B.M.Y.).^ ].p.Y.).).Y.'.U.m.jXY.Y.v.z.`.,.-X@X[.~.Y.N.n.g.~.Y.,.@XY.R -X).[.).*X)._ v.",
"Y.).`.U.U.).d.n.~.'.d.@X_ U.n.:X`.@Xz.%X( ~.).).( [.( ).[.[.].[.,.;Xz.E.;XU.n.;XT @X).U.M.~.p.@X).N.`.N.m.`.H ).~.].z.*Xg.).>X( ",
"Y.E.p.@Xg.m.`.d.`.m.U.M.`.'.@X].n.@XU.U.@X,.`.~.m.~.`.-X[.[.[.v.:X,.@XY.g.;XY.).;X*X`.@X;Xg.sX,.[.[.T ~.Y.`.@X;X'.*X].p.-Xh.M.;X",
"Y.~.`.m.`.f.`.OXT h.N.].-X%X`.d.@Xg.).aXm.@Xv._ -XM.[.;X`.` `.).).;X,.Y.`.^ :XY.Y.*X`.v.].@Xc.`.z.m.:XY Y.@XY.m.@Xv.~.'.` [.M.h.",
"`.p.m.~.Y.`.v.v.`.( ].`.@Xm.zXN.).`.d.Y.-X,.[.U.].N.].[.m.*Xg.).N.U.aXv.U.@XaX`.@X@X_ #Xf.Y.:Xf.;X~._ @XaX~.`.*X^ *XB.[.jXQ [.].",
"_ ;X,.M.@X,.-XY.z.M.@X`.).@X` `.`./.-Xx.E.%Xn.$X).2 . + Y.b.MX,.T.`.( gXT.sX*XO.*XY.:Xp.Q.g.~.zX) @X~.@X~.v.'.@X*X( '.M.n.jX,.jX",
"m.z.@Xy.U.`.) ;Xn.,.T @XU.@X@X,.m.@Xg.#X`.Y.`.+Xo < o @ + D.g.gX_ Y.=Xz.* . + : N.~.*X$X) '.U.Y *XY.`.@X,.jXN.@X[.:XR M.:Xb zXN.",
"@X`.h.`.h.z.].z.Y.,.U.'.m.@XE.*X( U.;X/ *X.X~.@ AX@ ; 3 AXX _.) sXN.H.* AXZX# < + >XM.+X;XT ].`.U.[.~.,.Y.N.f.'.M.*X@Xf.n.;XN.~.",
"@X).@XH ;XY.~.E.` z.N.N.:Xm.xX`.,Xf.b.].^.).( 1 ZXZXCXZXZXo -X=X! aX'.AXZXZX3 . o 3 4X`.-X@Xh.-X[.`.^ Y.g.f.;X,.vX~.,X:XN.@X).~.",
"Y.Y.U.'.m.).Y.R <.v.v.aXm.n.`.oXN.,X~.~.^.H 1.P ZXZXCXZXhXP &X].D.OXP ;.VXAXZX. % + +X_ [.Y.).].).T *Xn._ >Xg.;X].d.).`.'.).[.v ",
",.oX'.`.Y.`.( U.M.,.aXg.n.;Xd.aX).`.).).v.u.#X-.| hXmXhX5.5.!.;XD.Q.4.3.;.VXZXZXNX# z.mXY.bX+X~.%Xm.`.T -X` n.m.n.;Xh.BX).).:X~.",
":Xz.*Xn.U.Y.].Y.b *X,.p.`.m.aXn.U.].E.[.~.b.K P 0.8.L 7.3.;.x.H.].Q.9.3.0.;.hXhXNXo ;Xp.z.].*XN.>X).( @XE z.].n.*Xf.N.;X*XM.*X@X",
"g.m.Y.].m.Y.~.`.@X,.z.Y.n.;Xd.f.;X`.).].S.~.oXc.w.3.q.3.;.<.aX_.D.c.7.0.2.-.7.w.t -Xg.^ jX'.]./.d.Y.Y.).m.[.( >X` p.;X).n.*Xg.d.",
"x.).oXU.`.f.! U.`.N.).) :Xd.p.*XoXm.'.~.v.~.).N.[.8.{.a.o.>X%XD.].~.4.4X5.4.t s -Xf.,.*X:X[.B.-X,.n.n.@X].Q aX,.) sX:X'.m.>XN.v.",
"oX@XoXm.@XE.c.N.].).E %Xd.) *X*X'.].h.*Xd.).~.v.oX&.P.y.[.%XN./.l.Q.>.u.@X).OXT.~._ $X$XM.@X@Xd.*X` Y.m.n.`.v.x.;X@X[.Y.*X` *X].",
"`.`.m.`.g.z.`.v.`.`.).Y.f.@X@X].M.)._.B.=Xz.Y.-X~.'.9.OXC ] `.a.aX&.(..XR zX/./.h.-XaXY.:Xb.~.*Xg.@Xf.f.@XY.~.aX>X`.>X*Xh.;X) Y.",
"`.@X~.~.`.z.N.@XT Y.U.Y.).`.'.z.*Xv.M.].M.].m.T (._.=.'.A V.N XXn.e.l.k.aX! BXM F ,XN.)._ :X<.~.;XQ :X].T oX@X].'.@Xg.].*XN.>Xd.",
"/.p.'.N.@X@Xd.m.].Q ).@X`.).-X].Y.;Xd.`.:X( aX`.OXD 7.;XM L.N C Z S B &XQ gXA #.c '.E.-X@Xb.:Xg.U.zX,.E.@X@XM.:X*X) >X( *X@XE zX",
"N.aXz.).).m.;XT.M.`.@X@X].[.` N.Y.`.:Xh.m.-Xd.'.V 0 Z.F M w B V.G.C Z.D B S @.L.C H.-Xd.~.@X_ aXY.T aXY.aX`.m.*X`.;Xf.:X( ~.>X( ",
",.m.;X` ~.[.R -XY.).z.N.`.;X].) Y.`.N.,X'.Z M }.N V.q A.Z Z.Z.C c d i $.V.J.D V N M |.|./ N.xXT sXOX`.,X,.Q aX~.-X[.aX` >XN.d.>X",
"].) ).:XQ N.].'.*X_ f.-Xn.,X`.*XE /.`.E nXM G.M c ] N y f f y d s 2.e.d d A @.G.N C.Z ;X-Xf.p.jXf.aXY.U.z.:Xm.n.-X).-X>XY >X`.:X",
"Y.'.,.` ].p.[.].h.g.-Xh.[.].*X[.=XX.H.$XY.H.M Z.V.Z.r 0.| 5.2.w.7.6.e.0.5.t A N V.G B kX@X%XH.d.@X*X).,.N.g.z.,Xd.bX[.zX>X` ,X*X",
"@X`.[.).h.).).h.^ ;Xh.v.'._ -X-X;X$XB.%XE.M G.B V a w.9.r.:.q.r s s s d d 0.u i Z.V.V ^.@X@X;XT.@Xm.H @Xg.y.mXg.:X).n.cX>X[.-X-X",
"f.>X].].Y.'.` b ].d.d.N.N.zX).[.'.`./.].M V.A @.r i.=.0.8.r f VXVXo + ZXZXg 0.w.t W.V O.dX/.oX].@Xn.`.v.( :X,.U.[.h.zXm.aX-XaX).",
"[.[.).@X].M.E [.E h.N.M.[.` f.-Xx.;X+X.XG N N C.k =.2.e r ; : # VXX X X AX& s r 7.r a NXn.H.`.U.oXaX@XR *X,.z.).D.-Xh.N.[._.[.[.",
"m.` *X`.N.].].n.).[._ ;X` h.>Xf.;X`.$Xl.OXH.0 s t.0.g VX< o . 2 O O @ . - o < < g 3.u u.,.4X@X`.m.z.`.@Xh.m.).n.zXg._ aX@X'.n.m.",
"v.aX).).~.f.h.n.[.E -Xh.d.-XN.N.*X).@XB.z.Z V.%.=.l d o = > : . X + % o 3 @ O O VXl i.r @XH.T.fX].z.( U.U.;XQ ;Xd.( >X`.m.).:X^ ",
";X).].h.].p.M.`.).`.).Q ].f.h.`.].{.).#Xc V.x 3.f f VX. > 1   X   - @ + + + @ * 2 y *.l E.$X).n.[.).m.,X`.@X>XE._ -XaXT.@X;Xh.bX",
").N.[.'.v.[.d.).*XY.).[.` ).].].C.$XS.T.B #.l 2.y VXSX  . O o wXtXeXtXtX7X9XqX8XO a 4.i T.sXH..X,.Y.'.` >X].`.h.sX:X).@X,.@XsXd.",
"[.].n.`.B.].].p.[.).~.*X).-X@X`.^.y.-XC.M W k 6.g   : : , X 5XqX, % 9X7XtX; % eX. l 0.h y.gXF.B.;XQ Y.*Xb zX).[.-X,X*Xg.:X^ ).;X",
"`.).@Xm.`.`.N.;Xm.d.`.[.@X].].v.).*Xn.%Xl.k.u 0.a + % $ O 9XwXtX- . 0XqX6XO . 9XrXj 0.l /._ pXB.m.xX,.M.;XzX;X;X).v.xXY.m.xX! Y.",
"].z.n.-Xf.).-Xd.[.v.*X).`.].n.,Xz./.*Xm./.).l 0.l + eX9X1 8XqX7X# % tX8X9XX   rX9Xi d x.Y.>Xu.+X`.f.bXY.bXvX:X`.].*XT `.M.c.>X,.",
"` -Xh.M.:X,.).*X_ :X).~.].'.].g.-X` ~.:X/ E.r w.l   wX8X0XtXeX9XtX7X6X6XyXtXqX8XtX%X_.aXX.5 { F [.:XT aX>X[.Y vX`.@XaXY m.)._ mX",
"N.N.*Xp.'.zX` -XM.`.( ).'.~.:X).C.,Xd.b.%Xx.Q.u 4.d wXwXqX6X9X9XyXo 2   2 + 0X8X8X#X.X*X9  X8 >X_ [.*X>X)._ *X].g.@X;XcXJ N.-Xm ",
"'.Y.N.-Xz.p./.`.).R d.;Xp.zX].[.S.y.#X/.B.OXOXa -.j f d wX8X9X9X7X1 CXZXCX$ 9X6XeXj.-X7 <X}.5 R aXg.'.).` f.-Xh.BXm.bXY.:X_ z.@X",
"*X`.[.E -XN.[.@X) p.-Xf.jXN.].'..X-X~ =XN.`.^.g w.4.5.a u z wX8X9X9X$ % @ 8XtXwXa z r L.J.XX9 K.~.).:X,.` [.N.jXz.`.*XU.aX;Xv.`.",
").`.;X].f.N.).d.R @Xz.B.~.g.aX).*X+X#XH.S.~.F !.l ;.3.=.7.i d j wX6XrXtX6XwXf h 7.i K. XXXk.[ &X).n.d.d.*Xf.-Xn.~.jXf.BXoX;XY.`.",
"p.>X'.*X~.`.h.R ].f.h.).N.,Xn.).$X{.[.Y.U.c '.q }.i =.2.e.-.4.4.h l j a h a 5.0.w.y L..XA.6 ].%X[.].).>Xn [.~.h.zX,.`.*XQ >XU.'.",
",X[.;X`.).*X~.].Y N.N.N.:Xh.h.-Xd.kX{.`.sX~.9 G.L.z ;.2.w.7.*.5.3.4.4.5.4.4.8.4.w.e -X}.l.8 cX=X@X>X;X;X[.;X( zX_ m.'.h.BX~.m.m.",
"M.g.).).v.].`.'.N.)._ ].d.` -Xf.[.M.N./.{.XX{ XX|.<Xg :.5.r.| w.q.q.3.4.4.3.5.4.4.u K.C.8 mX,X+X).~.Y.).:X( :Xp.` ;Xh.`.`.`.).N.",
"v.*X).~.N.M.N.).].v [.f.( *XM.d.-XH.M./.E.9 G.XXK.W.s q.4.d s j h a h a k k =.4.y V.A.5 :X.X-X].@XN.n.~.).@X-X( @Xf.m.-X;X@X,.aX",
"-X'.`.N.*Xf.~.) ~.'./.E *X) _ :XE.T.M.[.m.7 <X XL.#.u q.&.0.4.0.4.4.5.4.4.=.r.r.d q 7 V.@X=X.X&X` >Xh.B.aXN.].*X_ v.'.aX`.;X@Xp.",
"'._.).-Xh.].g.N.-X~.M.-X` h.].'.+X|.^.z.4 J.J.J.k.q z e.9.w.L 0.4.5.4.4.*.5.4.*.h a.1X@X.XU.B.$X[.d.@Xm.g.aX[.-X~.;X:X`.@Xp.).aX",
"~.[.h.[.].).;Xd.N.-X].[.f.-X-X`.].k.U.{.8 {.XX#.0 P.j L L z d l a j a k k 4.=.*.W.T.dXpX,Xc.-X_ ).zXY [.>Xb xX].M.[.>X;X_ :XT ).",
"~.@X`.M.~.).).;XM.Y `.[.).]././.l.$Xj.8 #.@.l.q c ].z 2.9.w.5.3.5.5.4.=.=.5.4.x (.H.{./.dX_.A.kX( M.jXT M.:X-X-XY.'.p.aX~.x.mXT ",
"`.g.m.-Xn.Y.).p.>Xf.-XN.).].,.-Xk.^.,X9 { 7 9 8 U.XXf 4.5.0.w.;.5.0.2.0.0.2.7.&.sX`.`.XXn pXY.k.bX,.h.jX_ >X>X-Xn.).[.n *XY.g.bX",
"M.].h.~.@X_ ].]._ N.`.`.n.N.;X,.=X<.@X1XW k.XXn.8 [ } 9 | 3.| 6.-.r.0.t.8.3.5 5 9  X'.pX=XE /.{.( zX'.h.>X*Xh.E vX).-XaXY Y.`.Q ",
"p.[.-X` @X-X( ;X).-XN.h.~.).*X).U.|.d.n.kX/.Y.C.6 H.|.L.9 8 { w.5.&.;.P :.q %XK.3Xq g.1X-XaXn (.;Xn vXM.-XY.h.bXN.,X*X@X>Xb ~.>X",
"`.p.'.aX_ z.].m.m.` h.>Xz.,X).*XC.f.>XJ.' =X{.7  X1XJ.l.l.@.q a l j p i 6  XJ. Xl.l.9 H.%X1X1Xc ].-X@XN.-Xd.N.N.f.zXm.-X-X>XY ~.",
"-X[.h.f.,XN.*XN.M.v.;Xd.n.`.`.).@X$XJ [./.$XH.8 } 5 6 8 { { 6 .XfXE >XE.9 5 } 7 8 { q ,.lX=XpXkX` :X~.).` B.z.N.bXp.[.).).`.;Xf.",
"[.].[.].p.).Y.N.Q -X,.f.`.g.>X).~.`.`.U.I./.` Z oXk.'.m.x.&Xk.sX.X/.T.C.$XH =XX...<Xg.vX{.N.}.+X).).].Y z.m.z.:Xd.p.-X` bX~.).m.",
"n.*X].].).[.).m -Xd.^ ;Xv.M.].( |.C.|.l.).d.R ].p.l.b.n.gXz.D.I.D._.^.D.) ,X+.~ cXs.N.).j.uX/.jX@X~.xXg.*XY :Xp.g.>Xp.].'.` ,X~.",
"'./.N.[.N.).N.Y.f.Y ].h.p.n.z.,Xz.pXI.C.C.~.+Xv U.n.R..Xp.a.|.y.,XOXM.bXkXpX^ *X) n.+XN.vXs.s.1X[.'.*X:X_ ~.m._ >Xp.g.).d.BX~.~.",
"~.p.>XN.~.'.`.B.( ).` p.Y.m.N.z._ @Xv.m.N.'.n.N.Y.R =Xp.p.-Xg.`.Y.].m.>X>X;X-X` h.@Xn.*Xh.g.jX[.`.f.d.N.Y.)./ '.` ` [.M.`.;XN.).",
"N.N.Y.`.N.~.m.).`._ m.Y.` M.f.,.@XY.Y.c.v.f.h.n.b ~.n.) *X` ,.`.@Xm.[._ -X).`.n.;X( `.N.d.mX>X~.].*Xn N.N.`.).N.( *X_ n.:X].`.N.",
"h.].N./.].` h._ N.N.B.( M.g.d.'.N.v.N.m.f.~.g.h._ M./ `.( _ ~.).N.n.@X`.,.xXY.B.h.:X].f.>X;X*X[.n.n.*XY ).m.].N.>XQ [.[.[.).;Xn.",
"N.[.).Y.`.).` `.~.N.M.m.v.Q m.n.z.N.z.z.m.^ M.v.v.f.n.d.f.N.~.n.'.@X^ Y.@X_ xXY.'.|.Y [.*X-X*Xp.jXQ M.aXb N.~.N.].M.`.;X].-XY >X",
"N.N.m.[._ Y.*XQ ;Xm.v.g.Y m.n.v.z.` N.d.n.N.) m.z.p.b.f.'.`.z.~.n.n.-XE M.-XH BXN.`.).;X).Y.>X[.f.zXE m.mX( ~.N.~.].:X].` B.:X_ ",
"m.@XN.N.*Xd.N.:XU y.g.g.z.g.z._ `.d.f.v.,.d.M.Q J f._ M.M.N.`.) [.( N.;XR h.`.T BX].`.-X>X;XQ ;XB.M.aXf.d.xX].,XN.`.M.:X].E v.,X",
"@Xf.-Xz.Y.-X) M.@Xv n.g.,.,.Y.,.Q U.d.d.m.z.v z.,.p.a.h.B.f.@Xf.N.`._ N.-X,.m.>X[.].`.`.d.[.aX( Y.@X_ bX'.M.>X>X@X).*XY.f.aXn m.",
";XN.).;Xp.N.;X<.^ g.z.,.p.p.) f.p.) Y.` Q ,.g.H p.a.a.p.h.Y.b `.,.M.[.f.d.[.N.aX-X].`.).-XY m.>XR ~.;Xn xX`.zXh._ -X).`.f.m.aXY "
};
