/* XPM */
static char *cilindro_grito_certo1666002507[] = {
/* columns rows colors chars-per-pixel */
"64 64 227 2 ",
"   c #010301",
".  c #080200",
"X  c #00030D",
"o  c #0C0706",
"O  c #000112",
"+  c #4C4D52",
"@  c #4F5054",
"#  c #515256",
"$  c #55565A",
"%  c #57585C",
"&  c #5A5B5F",
"*  c #53504B",
"=  c #655148",
"-  c #77625F",
";  c #5D5E63",
":  c #5F6165",
">  c #5C666F",
",  c #616266",
"<  c #65666A",
"1  c #66696D",
"2  c #696A6E",
"3  c #6C6D72",
"4  c #646B74",
"5  c #6E7075",
"6  c #6D797C",
"7  c #717276",
"8  c #74757A",
"9  c #76797C",
"0  c #797A7E",
"q  c #7A7C74",
"w  c #756E6F",
"e  c #FC030C",
"r  c #FB0007",
"t  c #FD0214",
"y  c #FD011B",
"u  c #FB0717",
"i  c #FF0023",
"p  c #F71231",
"a  c #B4661C",
"s  c #9B5D2A",
"d  c #B15E27",
"f  c #956D36",
"g  c #966D2B",
"h  c #A36524",
"j  c #AD6323",
"k  c #AC6B25",
"l  c #AC652B",
"z  c #A36C2B",
"x  c #A6692A",
"c  c #B56526",
"v  c #AA6937",
"b  c #B36D32",
"n  c #B67734",
"m  c #AD7333",
"M  c #E97B1C",
"N  c #CE7B28",
"B  c #D37629",
"V  c #D87E33",
"C  c #C67C39",
"Z  c #977A7E",
"A  c #FF9B1D",
"S  c #C8802E",
"D  c #DB8927",
"F  c #C58232",
"G  c #D68C3F",
"H  c #DB853A",
"J  c #DA9539",
"K  c #E78B2D",
"L  c #FE9F27",
"P  c #E68732",
"I  c #E48C33",
"U  c #EC8B33",
"Y  c #E68B3D",
"T  c #EA8B39",
"R  c #EF8635",
"E  c #F48A39",
"W  c #E7933A",
"Q  c #FD9A34",
"!  c #FEA425",
"~  c #FEA42B",
"^  c #F4AD2C",
"/  c #FDAB2E",
"(  c #FBA827",
")  c #FFB22E",
"_  c #FCB422",
"`  c #E9AA3C",
"'  c #F4A534",
"]  c #FEA534",
"[  c #F5AC35",
"{  c #FDAB34",
"}  c #F7A43C",
"|  c #FEA53C",
" . c #F4AD3C",
".. c #FEAB3A",
"X. c #EAB138",
"o. c #F6B037",
"O. c #FFB13C",
"+. c #F7B536",
"@. c #E0C43F",
"#. c #BB894A",
"$. c #87827A",
"%. c #928378",
"&. c #87917A",
"*. c #A08870",
"=. c #CF8641",
"-. c #D68747",
";. c #DD9346",
":. c #D99156",
">. c #E48C43",
",. c #EC8B44",
"<. c #E48948",
"1. c #F58B41",
"2. c #E69043",
"3. c #FDA542",
"4. c #F4A945",
"5. c #FDAB42",
"6. c #FEAB4B",
"7. c #F7A84B",
"8. c #FEB243",
"9. c #FCB64B",
"0. c #FFBD4C",
"q. c #F8B847",
"w. c #FFAE55",
"e. c #FDB554",
"r. c #FFBC57",
"t. c #EDAB53",
"y. c #FCB772",
"u. c #FDC25B",
"i. c #FCC253",
"p. c #F4CD4C",
"a. c #5B6A81",
"s. c #7C7D82",
"d. c #7A7787",
"f. c #6A7283",
"g. c #877B89",
"h. c #987D90",
"j. c #7F8084",
"k. c #798789",
"l. c #7E9784",
"z. c #818286",
"x. c #84858A",
"c. c #87898D",
"v. c #898A8E",
"b. c #8A8984",
"n. c #978E8C",
"m. c #928488",
"M. c #8A948B",
"N. c #99948E",
"B. c #858C95",
"V. c #8C8D92",
"C. c #898B98",
"Z. c #908D96",
"A. c #8F9094",
"S. c #8E9993",
"D. c #899297",
"F. c #919296",
"G. c #94959A",
"H. c #97989C",
"J. c #999A9E",
"K. c #979897",
"L. c #A49A9A",
"P. c #AB899A",
"I. c #9EA18C",
"U. c #9CA29B",
"Y. c #96A399",
"T. c #88A292",
"R. c #A7A798",
"E. c #B3A896",
"W. c #878FA5",
"Q. c #9197A6",
"!. c #9C9DA2",
"~. c #949BAC",
"^. c #9597AC",
"/. c #9494AF",
"(. c #A39AA2",
"). c #A09FAD",
"_. c #8EA0AE",
"`. c #9FA0A4",
"'. c #9CA3AC",
"]. c #9BA7B2",
"[. c #A1A2A6",
"{. c #ACA2A1",
"}. c #A4A9A3",
"|. c #A4A5AA",
" X c #ABA2AC",
".X c #A7A8AC",
"XX c #A9AAAE",
"oX c #ABAAA7",
"OX c #B4ABA5",
"+X c #A6B5AA",
"@X c #A4A3B7",
"#X c #ACADB2",
"$X c #A6A6B5",
"%X c #B1ACB4",
"&X c #B7ACBE",
"*X c #AFB0B4",
"=X c #ADBAB4",
"-X c #A9B3B8",
";X c #B1B2B6",
":X c #B3BBB4",
">X c #B4B5BA",
",X c #B7B8BC",
"<X c #B9BABE",
"1X c #BBB7B6",
"2X c #B1B3A8",
"3X c #C0AEBC",
"4X c #C7B4AC",
"5X c #ACC3B3",
"6X c #9DA7C0",
"7X c #A9B2C2",
"8X c #BCBDC1",
"9X c #B4B9C6",
"0X c #BFADD3",
"qX c #ADADC2",
"wX c #C1BFCA",
"eX c #C5BFD9",
"rX c #BFC0C4",
"tX c #B9C4C7",
"yX c #B5C3D0",
"uX c #C1C2C6",
"iX c #C4C5C9",
"pX c #C7C8CC",
"aX c #C9CACE",
"sX c #C9CCC5",
"dX c #CBCCD1",
"fX c #D1D2D6",
"gX c #D3D4D9",
/* pixels */
"s.#XG.G.F.[.< |.V.8 >Xv.H.(.x.*X!.oX|.[.7 |.A.7 XXF.J.v.c.;X!.[.!.G.!.;X8 j.XXF.>XC.!.$XJ.XXv.|.v.K.; .Xx.g.,Xj.<X`.|.`.|.#X@ |.",
">X0 8X[.A.F.G.!.# .X3 !.J.v.,Xx.>X`.'.|.;XJ.x.|.0 |.v.x.1Xx.rX|.G..X*X*X`.`.s.;X8 x.oXx.pX[.V.J.|.H.XXH.3 |.z.J.V.0 %XXXA.!.x.V.",
"s.!.!.!.V.!.G.x.`.< !.x.j.#Xx.H..XXXH..X!.J.#X, ;Xv.0 ,Xv.J.[.G.H.(.*X*X|.3 XXs.8 |.V.;XoX|.|.z.!.[.oX5 !.8 G.c.9 rX|.[.H.x.2 XX",
"Z.!.|.G.J.d.< V.G.!.'.0 #Xs.A.|.[.H.`.j.V.F.J.J.J.2 .Xx.!.oX[.[.XXQ.G.rX!.!.A.C..Xs.#X#XoX'.!.J.G.v.!.!.s..X!.< ;X[.+X[.#X[.0 V.",
"!.'.|.!.Q.[.z.G.(.|.z.XX8 Q.F.,XoX.XA.*X8 !.[.[.0 ;X8 J..XXX|.XXs.;XV.`.*X!.V.;X1 *X[.!.G.[.s.#X`.J.|.J.H.|.; .X!.oXv.#Xv.[.<X7 ",
"!.!.s.#Xx.H.[.x..XH.!.J.XX.XXX.XG.$X!.J.$Xs..X`.A.H.|.;XXX;X#XF.;Xs..XH.x.;X!.|.;X;X`.;X;XB.>Xs..X$X< '.!.[.#X;X#X*XXXz.;Xv.F.1X",
"!.!..XG.|.x.|.#X< c.J..X;X;X|.z.XXv.[.<XG.*XC.8 ,XK.#X;X[.0 [.[..X;Xj.!.|.7 >X!.!.*X[.V..X;XZ..Xv.F.<X: !.#X!.G.#XF.[.XX9 XXH.V.",
".Xz.G.!.!.|.Z.V.|.7 .X|.XXJ.uXJ.[.|.z.`.;Xs.#X!.|.J..XXXG.;Xx.[.G.!.8XZ.Q.#XrX|.$X#X8 9Xg.!.,Xx.1X`.8 *X8X`.|.*X7 $XF.#X8X3 #X.X",
"0 *X0 H.$Xs.;X!.V.H.#X|.|.#X0 |.|.[.1Xv.H.*XF.#X|.V. XoX@X/.uXq ).(.w aX/.#X,Xb.;X!.<Xs.|.x.`.rX7 #X[.#X`.V.XXXX*X7 XXH.F.rXs.rX",
"H.V.*Xg.!..X8 >XF.s.< #XQ.#X#Xs.J.|.j.;X.X|.|.!.4 +XS.].}.I.D.9Xf..X0Xm.oX].6 7X!.J.#X;X7 [.`.< *X!.oX$Xs.uXJ.#XXX,X1 J.,X$ iXJ.",
"*X.Xc.|.c.V..XV.!.9 !.|.G.#X[.#X9 J.;X9 ;X`.|.s.Q.E.7 :X(.=X{.s.5XK.U.Y.'.k.K.(.s.iXA.#X8X, #X[.!.$X`.s.!.!.x.XXH.*X*Xz.F.>XH.U.",
"XX`.#X; >X!.'.!.s.V.!.G.,XG.iX.X;Xv.G.[..X.X8 x.!.P.yX^.dX;X=X#Xw <X|.Y.z.g.).D.rXc.dX`.XX<Xs.1XXX}.5 !.x.x.>Xs.pX`.,X>XH.#X[.[.",
"`.`.Q.XXH.`.!.< j.F.F.8XG.G.|.$X[.;XH.|.[.< 7 [.D.:XM.G.e.r.i.y.r.u.u.y.r.i.Z 8XV.Q.$Xs.#X|.XX.X[.1 *XA.8 <Xc.<X|.z.|..XXX[.XX@ ",
"s.|..X|.!.|.7 !.H.s.9Xx.Z.>Xj.<XXX.X[.[.G.v.!.8 ,Xq g.p.+.8.r.q.e.5.q.0.w.9.@.g.x.;XV.8X!.<XXX[.#XG.|.< ;X0 F.F.A.<Xx.fX|.[.>X`.",
",Xc.#XF.J.!.$X[.$ #Xs.j..XF.8XF.G.XXJ.$X.XV.; $Xd.s.} { 4.) ! 5..._ ) ' ' { 5.J .XV.>XG.F.;X.XJ.8X[.7 #X2 V.oXF.*Xx.H.;X;XH.#X;X",
"x.H.!.XXF.!.[.[.#Xs.V.`.F.;Xx.x.;XXX[.`.[.[.[.V.s.}.] | 7./ 3.{ 7...~ 6.5.{ ..U z.;Xx.3 8X|.XX[.z.!.!.[.H.$X5 <Xs.j.1X[.F.#Xx.x.",
"C.|.$XQ.|.x.2 !.|.G.[.8 <Xz.s.#X|.J.XXJ.G.[.H.J.&X4 q. .Q ..{ { ..} 5./ 4.| / J ;Xx.3 8X#X.XF.;Xs.A.G.XX.X3 9X8 8 8X,X.XG.<XH.F.",
"$X#XXXF.#X!.Z.Q..X[.3 *Xz.8 ;X;X#X}.v.;Xz..XXXv.`.+XA 9...{ [ 3.{ { 3.{ ( 8.3.R `.8 <X.X`.>X|.c.#Xs.!.G.G..XZ.v.>X#XXX!.;X0 #XoX",
"|.|.G..Xc.Z.$XF.|.|.[.!.x.#XXXXXH.|.|.J.%Xx.J.>X@XXXJ P Y K :.K T Y T U ;.<.Q D A.,X#X(.*XF.!.qXx.#Xx.x.#X!.).8X8X|.<X%Xv.;X8 !.",
"|.#X!.(.XXv.J.XX1 !.J.[.[..X$Xv.#XV.H.XXG.;XH.< (.R.L.H F N =.N V S B B H B n @XJ.*XXX|.s.9Xx.|.>X3 ,X.X, .X#X.X.X$Xv..X;XJ.8Xz.",
"[.j..XJ.#XXXx.G..X3 [.$X|.`.;X|.J.<Xs.oX<X2 >X|.'.+X$X. . . . X     o     X   OX*X<XF.|.;XG.>Xg.!.iXs.'.#X#XH.,X*X9 ,X8 #X*X2 rX",
"!.<XV.[.[.H.>XJ.H.|.#X#X|.XXs.!.`.`.rXx.K.<Xz.XX%XXXJ.v v h c b v h x v v l g 2XG.H.;Xc.!.|.x.9X!.< 8X!.8X|.G.;X|.;Xx.,X7 `.<X7 ",
"s.F.>Xs.`.XX< %X!.`.V.!.|.;XoX8 `..Xv.uX[.x.[.XXS.d.].6.0.q.q.9.5.0.9.O.q.8.r.- *X!.;X*X7 J.rX1 9X$XoX;Xs.3 8X!.;XXXrX9 <XJ.z.8X",
".X8 [.,X3 J.oX$X#X9 x.;XF.<X|.#X3 !.*X1 pXH.XXx.b.wX6.! { / 4.{ 6.( ......{ [ -.H.oX|.;X;Xx.x.rXg.9X!.!.V.,XG.F.XX|.;X<X, <X[.,X",
"`..Xs.0 XXs.#X.XV.x.;Xv.XXXX#X#X;Xj.!.$X`..XJ.A.<Xx...' ..] ..v.&.&.W...{ { / U F.*X0 iX$X*X#Xz.XX*X[.j.!.x.V.<Xx.aX#XuX<X0 <X#X",
"#X|.XX[.c.`.`.v.3 >XV.F.XX0 ;X*X;XoX`.;XJ.J.0 ;XV.9 { ....] { V.i p g.{ { { | ;.|.V.rXoX*XoX;XH.#XG., $Xv.s.aXc.,X[.F.iX<XXX;X;X",
"x.<X|.XX!..X0 $ XXz.j.J.J.8X!.#XXX|.[.;X[.% .Xc.3 <X{ ] [ { ..v.e y M.{ | { 3.>.v.H.H.z.8X`.`.*X#XG.|.F.7 <Xj.J.XXV.rXF.8X;X<X[.",
"XXXX[.#XoXH.2 XX2 v.H.H.XXj.x.;Xj.>XoX[.XXv.c.7 XXB.....{ ..{ v.u t M.~ ..{ [ U v.`.H.pXx.XX`.!.$X<X#X< ;X0 v.'.R.#XV.J.XX}.XXXX",
"F.0 *X|.!.|.|.G.[.XX9 >Xs.x.8Xz.rX|.XX|.`..Xx.*X7 `.{ ] 5.{ { c.t t D.|  .] { K #XV.<XV.0 8X;X|.G.A.oX#XV.G.(.F.8Xx.8 8X#XXXF.H.",
"A.rX`.[.!.x.V.F.XX2 ;Xv.z.;XF.!.*X!.*XJ.x.`.`.`.;X|.{ ..] ..] V.u e S.Q 5...3.J 3 iXx.9 8X.XJ.XX.Xv.7 H.H.,X3 >Xx.7 8X|.H.[.>X2 ",
">X[.oXV..Xj.H.|.[.|.[.3 .Xx.v.|.|.#X!.XX0 `.`..X`.1 O.' O.] ] V.r t b.] ..] 3.1.1XH.F.;X#XXXXXV.XX[.H.;X|.XX8X(.8 >X8X!.#X>Xv.dX",
"[.J.XX.XV.#Xz.`.*X!.[.XXs.[.oX.X`.*XF.J.,X0 oX|..X|.' ....{ { B.t y M.] O.+.{ I ;XV.XX,X#X,XH.>Xs.!..Xs.9XXX|.v.,X9X!.;Xd.#X,Xx.",
"XX}.F.|.F..X.Xj.XX[.[.;X[.1XXX|.[.z.<XJ.|.,X9 .X$XR.5.{ / 3.[ F.t t &.{ ] ..] <.#X#X;X.XA.8XG.`.1X5 J.*X$ rX[.#X*X<X*Xx.<X8 '.;X",
"|.[.#XH..X|.J.,XG.x.[.XX#X.X.XV.|..XG.#XH.J.;Xx.Z.U.5.5.{ 5./ x.t y m.6.....^ U XX#X.X;XXXj.<XG.F.iXj.H.,XrX;X,X`.V.iX`.F.iX< [.",
"XXV.F.;Xx.[.;Xz.XXA.XX|.[.XXF.,XF.J.>XH.`.[.: iXXXXX..Q 8.Q / V.e u v...[ ] ^ T rX!.*XH.H.<X0 ;X[.x.pX!.aXpX,X|..X*X, .XG.F.<Xs.",
"0 ;Xv.H.,Xs.[.*X9 ,X`.`.XXXX|.v.;X0 |.;X3 [.oXXX<X`.{ 5.' { ~ D.e t B.{ { ..5.,.v.;X|.*Xv.G.<X2 XX,X< 8X<XXX, pX.X$XrX: G.|.8 dX",
"J.J.;Xs.XXiX0 ;XH.|.7 [.XX[.,X|.`.<Xj.J.*Xz.,X[.V.: { O.' { ..A.t u h.| | 5.] Y pXoX*X;X;Xx.H.rX9 #X*X,X[.9 *XoXc.#X;XpX; !.#X+ ",
"XXJ.!.1Xv.z.[.[.[.1 j.1X0 uX.XXXH.F.XXH.`.|.#XA.V.uX/ { ....5.%.B.%.T.X.{ { { >.[.j.*X`.8X*XH.2 rXx.XX[.0 z.;Xv.gXG.pX!.,X8 F.$X",
"#X|..X1 ;XJ.XX#X8 j.;Xz.uXH..X.XXX|.7 ;XJ.`.`.V.*Xx.{ | ~ ' ..t.) ] Q [ ..5.^ U J.iXJ.rX.X;X|.*X`.[.,Xj.0 XXJ.uXC.|.#X!.8X;XF.|.",
"[.|.>X|.x.J.[.z.1 #XV.H.`.v.<X[.1X;XXX.XJ.`.2 .Xk.m.' 6./ [ { / ' 6./ ..| 3.] W aXz.v.*Xj.,X;X<X[.A.z.z.;Xx.;XF.[.8Xx.gX#X;X!.|.",
"j.<X.XXX[.|.v.2 XXz.v.[.`.>XG.[.#X|.*X!.!.# *XV.4 1X;.P U ,.P I I W H I 1.T K >.v.z.wXz.rX#XXX;XXXXX[.8X& XX!.V.iXs.[.*X3 8X!..X",
"<XXX>X|.|.#X!.oX, J.!.H.>Xx.v.;X0 iX`..X;X`.!.7 .XZ n.z m s b x c b k l c c f F.0 uXx..X`.j.pX;X*X<X;X;X#X<X5 8X7 H.XXv.fX`.F.G.",
"H.x.[.[.V.|..XXXJ.[.8 #Xz.s.*Xx.oX|.!.|..X<X!..XV.V.{..     .     X     O X   = XXz.0 [.F.pX<X#X[.`.!.[.>X8 <Xs.s.1Xv..X|.oX[.H.",
"F.;X|.!.J.H.!.[.|.# XXx.7 ;XG.j.#XH.H..XJ.v.'.oX~.qXd.l m j j v b j k k k a f 1Xx.V.}.F.<X1X*XXXXX!.F.`.`.XX*X8 $Xx.F.;X>X$Xj.8X",
"*XXX[.!.#Xx.`.8 [.XX|.1 *X8 0 1X.X|.F..XF.[.F.`.T.> ~ ` ' 9.^ 5.] 3...! ] 5.] E H.>X7 ;X1X|.<X[.0 <Xv.H.8XJ.oX*X8 G..X8X|.;X;Xj.",
".X|.`.#Xv.XXx.J.;X!.H.*Xs.x.oX.X[.;X[.v.;Xv.H.,XE.].6.{ ..3./ ]  .[ { [ 8.{ { H XXv.<X;XXX!.J.;X#Xs.XXG.v.8X#X#X!.,X;X.X#Xj.[.9X",
"`.XXV.#X.X|.>Xx.`.*X.X.Xx.;X;X|.#Xv.J.|.F.[.!.z.#X~.~ X.| 7.{ / { 3.O.{ ] ' ..>.[.J.1X<X;XA.<X0 |.uX: XX<X% iX.XH.#X<X;Xs.>X< [.",
"`.#X|.H.`.`.!.1XF.< `.#X`.#X!.[.H.XXv.|.;X0 #X|.; oX4.! ] 3.' ....| ] | 5.{ { U XX[.$X[.8X[.A.8X7 H.uX1 H.;X;X;X!..Xj.8X!.V.dX< ",
"[.x.J.;XG.J.[.j.<Xx.;XJ.|.oXs.*XG.`.8X8 `.,X& ,X_.4XG U U -.W >.T T I Y U I ,.T <X`.|.<X: #X|.F.pX0 v.rX8 8X<X;XG.`.XX& ;XJ.v.pX",
"H.XXv.`.#X9 .XoX9 J.|.[.F.J.;Xs.#Xj.|.uX5 V.;XG.Q.N.%.F =.M B V N F C D N F #.4XH.#X*X#X*X1 `..X7 uXXXv.<X*Xv.2 iX[.;X<X, `..X2 ",
"s.#X*X0 #X;X8 ;X|.*XH.v.`.[.*X[.J.#XV.A.8X[.J.[.K.3 }.{.z h l z b d n l c x 4Xx.s.rXV.<X>XiX& `.;X& pXG.*X!.x.aXJ.,X;XXX<X% [.<X",
"oX0 XXrX0 v.XXH.H.0 x.8XV.8X[.#X|.x.;X#X0 ,X`.J.q v.#Xf.:X%X;X&X# .X{.n.$XqX^.W.aXc.*X|.oX<X8X% .X1X#XJ.;Xz.!.!.z.iXG.;X;X<X, `.",
";XXXV.z.<XJ.#XJ.J.A.;Xj.F.|.|.[.|.#X% .XH.|.#X9 f.|.G.4X_.5XY.XX-X4 tXY.-X'.$.OX9 v.>Xz.aX;X<X,Xs.<X!.|.8 F.V.J.aXz..X[.[.|.>Xx.",
"#X|.#X|.s.[.`.J.3 *Xs.x.|.c.<X[..X`..X`.(..X7 ; .X^.(.S.v.7XD.9XoX(.`._.OX= 9Xz.s.iXv.8X.XH..X1X`.|.|.< V.G.V.<Xz.s.;Xs.aXU.[.H.",
"A.#XXX|.[.XX[.+ ;Xz.3 ,XA.H.oX7 [.oX.XG.`.x.< XX$.F.M.n.pXm.U.H.!.$X@XL.8 9XF.4 uXx.!.`.v.pX!.rX#X!.iXc.;X: <Xj.x.8X0 XXXX0 <X!.",
"XX`.J.#XJ.[.J.J.x., .Xc.z.A.V.<XK.*XJ.`.`.[.|.$ ~.S.D.-Xg.B.&Xq 9XoXN.aXyX+X6 OX0 v.XX`.iXG.v.<XXXoX#X<Xs.`.F.9 <Xs.v.[.z.fX[.!.",
"`.j.<XJ.`.XX.XG.7 [.8 s.!.H.J.v.s.XXF.G.J.XXV.J.!.4 -Xs.j.1Xv.|.J.XXH.<X<X>X;X0 c.#XF.#XV.x.rXXX|.x.z.J.J.|.8 XXs.0 XXH.|.;X!.!.",
"J.H.`.|.J.(.G.[.|.0 H.!.0 J.x.s.XX!.J.G.F.x.V.F.$ `.F.8 *X0 0 |.*XH.#X0 #X[.|.F.1X7 |.J.j.fX<X`..X#X& J.J.|.[.J.7 ;X8 A.,XXX[.!.",
"v.oXJ.`.oX0 v.9 J.J.H.7 J.v.z.XXH.F.J.F.x.!.v.v.9 H.5 |.7 8 |.[.H.G.#X[.z.iX!.H.v.>X.Xx.<X>X*XXXF.K.;X, |.G.XXJ.,X2 XX#XXX[.>XF.",
"H.XX|.!.|.`.0 |.!.J.J.H.V.2 G.F.B.!.A.A.F.3 J.F.C.x.S.x.x.J.J.G.|.+X3 !.#X8 uX!.XX#X, #X#X;X*Xj.uX2 H.<X$ H.J.J..XH.|.1X.X;X, 8X",
"!.J.H.XX9 !.;X3 ;XG.G.x.< G.G.V.V.9 H.z.F.J.8 H.D.j.S.x.XX|.v.[.G.A.;X< H.;X; gXJ.|.[.;X`.`.,X#Xx.uX2 H.aX7 !.J.`.XX<XoXs.F.,X9 ",
"F.-XJ.H.*Xz.J.,X< x.x.v.V.x.V.8 |.g.x.A.0 z.H.2 $ v.s.H.H.J.|.8 XX8 J.1X2 v.[.< fX.XoX;X<X>X3 >XF.J.,Xc.z.iX.X<XJ.|.H.<X.X2 F.,X",
"#Xz.#XV.!.;X7 J.$X# A.x.s.s.!.s.3 !.z.z.H.V.# V.s.k.k.x.G.x.XXv.H.|.9 J.;Xs.G.<X.X.X|.|.z.XX<X7 !.#X9 aXXXH.<X<X#X[.XXJ.x.<X& G.",
"1X!.[.>Xs.J.>Xs.5 v.F.d.s.x.7 x.z.7 !.0 3 s.B.; j.x.j.s.v.!.$ [.s.H..Xx.x.XXJ.8X;X|.|.|.;X, H.<X< `.1X& iX|.uXv.9 ;X|.|.x.G.uX, "
};
