/* XPM */
static char *exit_certo1666002507[] = {
/* columns rows colors chars-per-pixel */
"64 64 211 2 ",
"   c #4E4F53",
".  c #4F5054",
"X  c #55565A",
"o  c #5B5C5D",
"O  c #555659",
"+  c #46474B",
"@  c #685B59",
"#  c #5E615E",
"$  c #5D6657",
"%  c #61615F",
"&  c #646C5D",
"*  c #5D5E62",
"=  c #675E61",
"-  c #5F6063",
";  c #5D6869",
":  c #5F7171",
">  c #636463",
",  c #666966",
"<  c #686967",
"1  c #64666A",
"2  c #686669",
"3  c #67686B",
"4  c #696A6B",
"5  c #6B6C71",
"6  c #6F7075",
"7  c #727376",
"8  c #7B7374",
"9  c #797977",
"0  c #75757A",
"q  c #7A7779",
"w  c #77787C",
"e  c #7C7C7D",
"r  c #767877",
"t  c #FE020B",
"y  c #FF0406",
"u  c #EE0B14",
"i  c #FF001B",
"p  c #F6091D",
"a  c #F60822",
"s  c #817D7D",
"d  c #87787A",
"f  c #7D837C",
"g  c #758474",
"h  c #81817E",
"j  c #8E807F",
"k  c #7D7D82",
"l  c #827E82",
"z  c #8A7A84",
"x  c #877E8A",
"c  c #9B6C99",
"v  c #8F7290",
"b  c #897894",
"n  c #977C96",
"m  c #9D799B",
"M  c #987596",
"N  c #A6769B",
"B  c #A26E94",
"V  c #9D6DA1",
"C  c #9C76A7",
"Z  c #9F68B9",
"A  c #A46EA6",
"S  c #A66AAB",
"D  c #A86DAD",
"F  c #A66AA5",
"G  c #A171A6",
"H  c #A47BA1",
"J  c #A570A8",
"K  c #AC74AD",
"L  c #A978A7",
"P  c #A76CB5",
"I  c #AC78B5",
"U  c #B36CA6",
"Y  c #7F8083",
"T  c #748B82",
"R  c #838384",
"E  c #898485",
"W  c #888886",
"Q  c #85858A",
"!  c #898589",
"~  c #87888C",
"^  c #898A8D",
"/  c #81928C",
"(  c #8C8D92",
")  c #8F8190",
"_  c #95889B",
"`  c #8F9094",
"'  c #929396",
"]  c #94959A",
"[  c #97989C",
"{  c #999A9E",
"}  c #9A9695",
"|  c #968887",
" . c #A69C92",
".. c #AEA09D",
"X. c #B1A39C",
"o. c #9D9DA2",
"O. c #AB8CAE",
"+. c #A486A8",
"@. c #A09FA4",
"#. c #AC88B5",
"$. c #B387BC",
"%. c #AA90B5",
"&. c #9FA0A4",
"*. c #97A5A8",
"=. c #A1A2A6",
"-. c #A4A5AA",
";. c #A7A8AC",
":. c #A9AAAE",
">. c #A9A3AF",
",. c #ADADB2",
"<. c #A7A7B1",
"1. c #B9A9B6",
"2. c #AFB0B4",
"3. c #A0B4B5",
"4. c #B1B2B6",
"5. c #B4B5BA",
"6. c #B8B7BE",
"7. c #B7B8BC",
"8. c #B9BABE",
"9. c #E39195",
"0. c #D79BA9",
"q. c #D59DB8",
"w. c #DA9CB9",
"e. c #E59CA3",
"r. c #ED9EA4",
"t. c #E09EA8",
"y. c #E89BB6",
"u. c #FD9CB0",
"i. c #C8A8B8",
"p. c #D6A5B8",
"a. c #DEB5BD",
"s. c #D5A3AA",
"d. c #E6A7A8",
"f. c #E1AAB8",
"g. c #EAB0BE",
"h. c #F5A0A7",
"j. c #B3CABA",
"k. c #BCBDC2",
"l. c #BBB4C7",
"z. c #BBB7D8",
"x. c #D7A6C2",
"c. c #C2B6CA",
"v. c #C2B9CB",
"b. c #DCB5C8",
"n. c #C2B4D3",
"m. c #C6B9D2",
"M. c #DBBBD2",
"N. c #E3B8C3",
"B. c #E8BED2",
"V. c #BFC0C4",
"C. c #B8C8C5",
"Z. c #C2C3C6",
"A. c #C3C4C9",
"S. c #C7C8CC",
"D. c #C9CACD",
"F. c #CBCCD1",
"G. c #DBC2D0",
"H. c #D1D2D6",
"J. c #EDC5CD",
"K. c #E7E8DB",
"L. c #EBDDE5",
"P. c #EEDEE9",
"I. c #F3DDEB",
"U. c #F6DFE9",
"Y. c #FAD7F4",
"T. c #F5DCF2",
"R. c #F9DEF5",
"E. c #F5DEF9",
"W. c #FBDBFB",
"Q. c #F6D2F8",
"!. c #DBE6ED",
"~. c #DEEEFD",
"^. c #E4E3E5",
"/. c #EBE4E6",
"(. c #EBEAE6",
"). c #E7E4EA",
"_. c #ECE5EB",
"`. c #EDEAED",
"'. c #E5EAE8",
"]. c #F2E4ED",
"[. c #FAE5EF",
"{. c #F1EAED",
"}. c #F5E8E7",
"|. c #EDF3EE",
" X c #E7F3EA",
".X c #F1F5E7",
"XX c #F3F1ED",
"oX c #FCF9EE",
"OX c #FFF7EA",
"+X c #ECE5F2",
"@X c #EEEAF1",
"#X c #EDECF9",
"$X c #E2EEFB",
"%X c #F2E5F1",
"&X c #FAE3F4",
"*X c #F2ECF2",
"=X c #FBEAF4",
"-X c #F5E4FA",
";X c #FCE3FB",
":X c #F4EAFA",
">X c #FBEBFB",
",X c #E5F1F9",
"<X c #ECF4F5",
"1X c #F5F1F5",
"2X c #F9F2F6",
"3X c #F4FCF4",
"4X c #FBFCF5",
"5X c #F7F6F9",
"6X c #FDF5FD",
"7X c #F4FEFB",
"8X c #FEFDFE",
/* pixels */
"k ,.] ] ] o.* -.Q k ,.( o.o.k 4.&.&.-.&.k &.Q w ,./ } | : z f - ; Y z ; 8 e 3.' 4.' ] ,.] 2.~ -.Q &.X -.( k 5.l k.o.-.=.-.,.. -.",
"5.w k.=.` ' o.o.X -.6 o.o.~ 4.Q 4.:.-.&.-.&.^ @.d >./ 1 g d ; i i $ E g 1 *.q 1.w w 4.R F.&.' ] ;.] &.&.4 -.k =.( k ,.:.( o.Q ( ",
"k o.o.o.^ o.] ~ o.= o.~ Y ,.Q o.:.=.' ;.-.] 4.O 1./ - x x & i y y i $ ) z ; ;.z r -.! 7.o.=.-.W o.&.,.3 -.7 [ Y 0 k.-.=.{ R 5 :.",
"( o.-.] o.k 1 ( o.o.o.k <.k ` o...< > , # > > , 1 % f l b $ u t t u & b W g > - > , < % 2 , o } ( [ [ -.w :.[ 5 4.=.,.=.,.=.w ( ",
"o.=.-.o.o.o.Q ' o.-.w :.k o.o.,.> f k e W Q f W x R h s h ^ = a a @ l h q R h ! R w W e R W l , -.` <.&.( -.* ;.&.-.( 2.~ =.k.7 ",
"o.&.k ,.Q ] *.Q -.o.o.o.&.,.o.- R R R e e e W q k T E d R l Q @ @ Q ! ! s d T s W f e ! q q R f 1 ,.> o.&.-.2.;.:.,.:.Y 4.^ ] 5.",
"o.&.<.] &.Q -.<.1 Y &.&.5.:.5 @X_._.<X`.1X`.`.*X).XX_.{.#X`.K.,X~. X(.!.}.1X].|.`.@X`._.`.<X@X@X`.4 5.* -.-.o.o.,.' &.:.w :.[ ( ",
"-.Y ] &.o.<.` ` <.6 =.,.:.> Y `.8X8X8X8X6X8X8X8X8X6X8X8X4X4X8X4X4X6X8X4X8X8X8X4X8X8X8X8X8X8X8X8X@Xk > 2.5.:.-.:.6 ,.' ,.k.5 :.:.",
"k 4.k o.<.k 4.o.~ o.2.o.; R e *X8X8X8X8X8X8X8X8X8X8X8X7X8X5X8X8X6X6X7X8X4X8X8X8X6X8X6X8X8X8X8X8X1XR e - <.( :.:.2.r <.[ ` V.k V.",
"o.~ ,.Y o.-.0 5.o.k 1 k.* l R *X8X8X1X8X8X8X8X8X5X6X8X8X8X6X8X8X8X8X6X4X8X8X8X8X8X8X8X8X8X6X8X8X/.e R , w V.o.4.:.5.< [ 8.O A.[ ",
"<.-.~ -.~ ` <.( ` k o.<.> h e _.8X8X8X8X8X7X|.8X8X8X8X8X7X8X8X7X7X8X8X8X8X5X8X8X8X|.3X3X8X8X8X8X*XR k , -.' ~ &.[ ,.2.Q ` 5.[ &.",
"<.&.,.* 5.o.o.*.k ` ] ~ , W k *X8X8X8X5X8X8X8X_.!.<X#X#X8X6X8X8X8X8X8X8X+X#X#X@X_.8X8X8X3X8X8X8X*Xh k 1 ~ Y 4.Q S.&.8.5.[ ,.-.&.",
"&.&.o.-.[ &.o.1 k ] ' Z.- 9 h *X8X8X8X8X8X8X;Xm N B N c ;X8X7X3X3X3X4X;Xc H c N n E.6X8X8X8X8X8X`.R h < k l.Q 2.-.R =.;.:.=.:.. ",
"k -.<.-.&.&.6 o.[ k l.~ , R R _.8X8X8X8X6X-XC c R.;XW.N M >X8X2X4X4XR.M N Q.;XW.c +.-X6X8X8X8X8X{.R f < <.k ] [ ' 7.! H.-.&.8.&.",
"8.^ ,.` o.o.<.&.o ;.k Q % R R `.8X8X8X8X6X>XM W.*X).:XW.v :X7X8X3X8X:Xb W.;X%X_.W.v ;X6X5X8X8X8X_.R s > 6 o.' ` 2.Q { 5.2.[ ,.2.",
"Q ] o.<.] &.&.&.,.w ( o.> h s *X8X8X3X8X8X_.n Y.K.{.L.W.N +X8X4X8X6X-Xn ;XP.{.K.W._ _.8X8X4X8X8X*Xe R < ( -.k 8.k Y 7.*.` 2.Q R ",
"( &.<.o.@.~ 5 o.-.` <.0 3 e R `.8X8X8X8X8X@XA ].].].].].A _.8X8X8X8X*XA %X].].%X].A @X6X8X8X8X8X`.e R > -.5 k.k w k.8.:.` 8.[ ` ",
"<.2.<.' <.@._ o.-.-.5 ,.> R s `.8X8X8X8X8X_.A ]._.}.].].G *X3X8X8X8X:XG ]._.}.%X_.A @X8X8X8X8X8X{.W e > o.o.] k 5.<.:.o.2.k 2.;.",
"<.-.] <.Y ` -.` <.-.o.o.< R q *X8X8X8X8X8X*XJ ].].].[.].G *X8X8X8X8X*XA ].I.`.%X].A *X6X4X8X8X8X_.R h # ,.<.[ Z.8.-.8.2.^ 5.7 &.",
"*.,.@.@.<.~ o.<.- o.o.o.4 f R {.8X8X8X8X6X*XA ].].].].].G _.4X8X8X8X%XA ].].}.].].A `.8X8X8X8X8X`.s W # - -.,.-.:.,.Q :.2.[ k.Y ",
"=.k :.o.,.<.Y ] <.5 &.,.- 9 W _.8X8X8X8X8X*XA ].]._.].].G `.4X8X8X8X*XA ].].].%X].A +X8X8X8X8X8X{.e 9 4 ,.-.-.l.2.0 8.7 2.2.3 V.",
"o.k.~ =.-.o.4.o.' ,.5.<.% W R *X8X8X8X8X8X+XA ].].].].].G @X8X8X8X8X*XG ].].].]._.A *X6X4X8X8X8X_.W W # 8.<.~ 5.-.4.Q 8.7 &.k.6 ",
"k ] 7.e &.<.1 4.-.&.k o.< f q `.8X8X8X8X8X*XA ].].].].].G *X3X8X8X8X%XG ].].`.%X].A @X6X8X8X8X8X1X9 R > Q 0 S.] 5.:.k.w k.[ Y V.",
"-.0 *.5.5 o.;.<.<.k Q 5.> s W `.8X8X8X8X8X*XA ].].].].].G _.8X8X8X8X*XA ].].].%X].A @X6X8X8X8X8X*Xs h , ~ 5.( ] 4.*.2.8.- k.-.5.",
"o.:.k w :.k :.-.Q ` 5.Q , h s *X8X8X8X8X8X%XA ].]._.].].G `.8X8X8X8X@XA %X_.].%X].A @X6X8X8X8X8X1Xe h > ] Q ( 8.R D.:.Z.8.e 7.,.",
",.-.,.=.Q =.=.^ e :.^ ] % R R {.8X8X8X8X8X@XA ].%X].].].G *X4X8X8X8X@XA ]._.].%X].A *X8X8X8X8X8X^.W h > ' ~ V.Q 8.&.' A.8.:.4.4.",
"Q 8.-.:.o.:.k X &.~ Y { > e R @X8X8X8X8X8X%XA ].].].].].G @X8X4X8X8X@XG ]._.].]._.A @X6X4X8X8X8X*XW 9 > 4 2.k o.,.^ Z.] 8.4.8.=.",
":.,.&.:.:.] 4 <.5 R &.' > R R _.8X8X8X8X8X*XA ].].].U.].G @X4X5X8X8X@XA ].].].%X].A *X8X8X8X8X8X@Xs Q > 2.Y ` -.o.2.^ { ,.-.:.:.",
"] w 4.=.{ ;.-.' &.-.k 4.> h R *X8X8X8X8X8X`.A ].].].I.%XA *X8X8X8X8X@XG ].].].].].A @X6X8X8X8X8X_.R e > ( ~ o.' V.~ w V.,.:.' ] ",
"` k.*.-.o.W ( ' =.r ,.f , e Q +X8X8X8X8X8X*XA ]._.}.].].A *X3X8X8X8X@XA [./.].%X%XA @X8X4X8X8X8X*Xe R , *.l.5 5.Y 6 8.-.] =.7.5 ",
"5.=.-.^ :.k [ -.:.&.&.r > h W _.8X8X8X8X8X@XA ].%X}.].].V `.8X8X8X8X@XA ].].].].].A @X6X8X8X8X8X_.R R # &.5.l.&.w 5.l.&.,.5.^ D.",
"=.{ :.:.( ,.R =.-.=.:.-.% h e 1X8X8X8X8X8X%XA ].].{.].].G *X4X8X8X8X@XA ]._.].].{.G @X6X4X8X8X8X{.s e 4 5.<.<.Q k.5.o.2.k ,.5.Q ",
",.-.` -.` :.:.k -.-.o.:.> W Y +X8X4X7X6X4X!.K ^.R./.&X^.D (.8X4X8X8X`.D '.R.}.I._.U +X4X6X7X8X7X_.Q h > . V.:.:.4.7.,.( 5.6 -.4.",
"-.&.2.[ -.-.o.8.' W :.:.< q R 2X8X8X7X6X4X`.U _.}..XP.(.D `.8X6X8X8X*XD (.L..X]._.F <X7X8X8X6X8X*Xl h > 8.S.2.5.{ ` k.*.] k.5 -.",
"-.` ` 2.Q &.4.Y 5.^ :.:.# h k /.8X4X3X6X8X(.F -X&XP.;X=XV _.4X8X8X8X/.A %X;X/.R.:XF @X3X>X8X8X8X*Xh R # Z.V.7.-.-.8.> :.o.] l.r ",
"e 2.( [ 7.Y =.2.9 :.;.{ > R R 1X8X4X8X8X8X{.K Y.`.(.].*Xc 1X3X8X8X3X1Xc {.%X(.(.W.F _.7X8X4X4X7X`.s h 4 V.5.- A.-.:.k.o ' ,.6 H.",
"[ [ 2.Y :.Z.w 4.[ :.6 o.% h R _.8X8X4X8X4X_.G n S D D V D -X8X8X8X8X:XP V D D F n L ].3X8X4X8X8X@X! h % -.7 5.-.Q ,.k.A.* ] ,.  ",
":.o.o.5.( Y &.-.o.5 W 5.> R R *X8X8X8X8X5X8X;X&X(.`.`.*X:X3X3Xl.l.3X|.>X*X(.@X{.+XE.8X8X6X ...8X@XR 9 > w W :.' H.o.k.&.5.k ` <.",
"2.-.:., 5.[ :.,.f Y 2.Y > e l *X8X8X4X8X8X4X8X4X8X6X8X3X6X7Xj.m.n.j.7X8X4X4X8X8X8X8X3X8X8XX.X.6X*Xe R < q 2.[ 8.o.o.2.-.4.k.( -.",
"&.-.5.-.Q { &.Q o 4.` ] , l R @X8X8X8X8X8X8X8X8X8X8X8X8X8Xv.m.Z P c.v.6X8X5X8X8X4X8XOX8X8XoX4X7X@XR R e 2 - 3 > * ; ~ D.2.2.o.<.",
"Y k.;.:.=.-.^ < :.R Q -., f R @X8X8X8X8X8X8X8X8X8X8X8X8X8X6Xm.) C z.n.6X8X8X8X8X8X8X8X8X8X8X8X8X_.R R f f R Y R k R > 4.3 k.o.-.",
"8.<.5.-.-.:.=.:.< { &.' o W w 2X8X8X8X8X4X8X@X(.}.^.`.(.`.8Xv.z.z.C.8X#X!. XK.+X*X*X8X6X8X8X8X8X*Xe R W < - < * < R R ; F.o.-.` ",
"[ Q *.-.' ;.-.:.{ :.4 4.< f R _.8X8X8X3X8X1X/.=X:X]._.}._._.8X6Xl.8XK._.:X].U.>X].^.@X8X8XA.D.8X`.R f % :.e 5.z 0 > w < :.-.o.o.",
"` 2.-.@.{ ] { =.{ X 4.e % h s *X8X8X8X8X8X)._.E.E.;X%XP.}.{.8X8X6X8X%X].%Xi.x.R.].{.*X5X8X8X8X8X`.R ^ - -.-.-.k 5.> Y 4 2.<.Y l.",
"4.:.=.o.,.Q o.r :.{ =.r > h R *X8X8X8X8X3X*X>XW.O.O.E.=X>X^.8X8X8X7X*X/.].p.x.i.[.}.*X8X8X8X8X8X_.! q > k.=.,.-.6 [ ,.4.,.2.5.k ",
";.-.&.,.^ :.Q o.4.{ o.4.% e k @X8X8X8X8X8X/.+.#.I $.O.T.].`.8X8X7X4X}.%Xi.d.9.p.].L.{.8X8X8X8X8X*Xe R 4 k k.,.5.&.<.k.4.<.k o.k.",
"&.:.( ,.:.-.5.Q o.,.=.-.> W W _.8X8X6X8X8X_.O.#.K V O.;X_.*X8X8X8X4X}.I.i.r.h.s.].{.*X8X8X8X8X8X_.W Y > 5.* k.-.&.2.,.,.k k.6 o.",
"&.,.-.] o.&.&.4.' 4 -.;.> e R *X4X8X8X8X4X=XW.$.F A O.-X_.XX4X8X8X8X%X#X[.p.p.@X_.{.`.5X8X8X8X8X`.Q Y > o.5.4.k.] :.Y k.&.~ V.5 ",
"=.! { 4.' o.=.Y 5.~ 5.{ , h e 1X8X8X8X8X8X<X].].#.%.E.%X].(.8X4X8X8X{.{.].].].].].].{.8X8X8X8X8X_.! R % r Z.8.2.' =.:.o 2.&.~ S.",
"[ -.( &.,.r -.:.e o.{ -.o h ! ^.8X8X8X8X8X(.].=XY.M.I.=X*X{.8X8X8X8X{.%X].].].{.*X%X`.8X8X8X8X8X*Xw h , 8.-.` < A.-.2.V.- o.-.5 ",
"k :.2.e ,.5.7 5.&.-.o.` > s R *X8X8X8X8X8X{.%XI.J.a.J.].P.@X8X8X8X8X`.].].%X].].].].`.8X8X8X8X8X*Xh R > ,.=.Y D.{ k.2.,.8.O &.k.",
"-.k :.V.w ^ :.] { R ^ 5.> R k *X8X8X8X8X8X*X].G.d.f.b.[.].*X8X8X8X8X{.*X].].].].%X_.{.8X8X8X8X8X`.R e < -.~ &.{ R V.] 2.2.V.- o.",
"2.:.` Y 8.{ 4.{ ` ( 5.R % h e 1X8X8X8X8X8X*XI.G.g.g.b.&X].@X4X8X8X8X{.%X].].{.].%X%X`.8X8X8X8X8X@XQ s > e ^ ] ' D.R :.=.&.*.5.Q ",
",.-.:.-.R *.o.o.w <.k R > W R `.8X8X8X8X8X`.].I.b.J.M.]._.`.4X8X8X8X`.{.].%X].].].{.{.8X8X8X8X8X{.e f > ` o.( 8.R k 2.k F.&.=.[ ",
"` 2.:.-.=.:.=.+ :.R r ,.> W e *X8X8X8X8X8X`.*X=XG.U.I.&X=X*X8X8X8X8X{.%X].].].].].].`.8X8X8X8X8X*XQ h < :.- 2.R Q k.k :.:.w 8.o.",
":.&.{ ,.{ =.{ { R 2 -.( # e R *X8X8X8X8X8X@X%XI.L.=X]./._._.8X8X8X8X`.].].%X].{.%X%X{.8X8X8X8X8X_.~ s o 9 <.[ r k.k Q =.R H.=.@.",
":.7 k.&.o.-.,.' 7 -.w W > l k 1X8X8X8X8X8X*X_./.]._.].R.+X$X8Xw.w.6X#X%X&X].{._./.%X*X8X8X8X8X8X`.R e 4 ] -.0 =.k 7 ,.[ <.2.o.-.",
"] [ o.&.o.o.o.&.-.7 ] ' < R Q ).8X8X8X8X8X6X6X*X@X=X*X X=Xy.y.0.s.y.p._.`.=X_.@X*X1X5X8X8X8X8X8X*Xe W > { -.] :.6 ,.Y ` 2.4.&.] ",
"~ 2.o.o.=.Q ~ w -.` &.< 7 R e 1X8X8X8X8X8X8X8X8X8X1X8X7X6Xp.e.d.d.0.0.p.8X7X8X8X8X8X8X8X8X8X8X8X`.W R e > { :.' k.3 o.,.5.o.k.( ",
"o.&.o.-.-.o.k &.o.] , R W R W _.8X8X8X8X8X8X8X8X7X8X8X8X8X8X0.h.d.u.0.6X2X8X5X8X8X8X8X8X8X8X8X8X@Xl e W s > -.[ -.-.-.2.:.-.; V.",
"o.&.-.-.w { 2.0 5.4 R h e q ! `.8X8X8X8X8X8X8X8X7X4X6X8X8Xq.y.0.f.0.w.6X7X8X8X3X8X8X8X8X8X8X8X8X`.Q e r ^ h > ] =.-.5.:.w o.5.w ",
"' :.* 2 1 > < > < 9 e h R W R `.8X8X8X8X8X8X8X8X8X8X8X7X8Xp.q.6X6Xw.x.8X7X8X8X8X8X8X8X8X8X8X8X8X@XR Q W 9 h W < > > 2 , 2 > ] 5.",
"4.< e R Y k W f Y W R 9 R R w 1X8X8X8X8X8X8X8X8X8X8X8X7X8X8X7X8X8X8X6X6X8X7X1X8X8X8X8X8X8X8X8X8X*Xe l e R h e w R R W s e R > ] ",
"% % , > @ , > > > # , , - > 2 `.@X@X@X`.`.*X{.`.-X@X(.{.L.=X2X_.).*X`.|.(.].*X$X`.{.`.`.`.@X@X@X`.2 , % % < > , > % % < % > % % "
};
