/* XPM */
static char *exit_open_certo1666002507[] = {
/* columns rows colors chars-per-pixel */
"64 64 228 2 ",
"   c #4E4F53",
".  c #55565A",
"X  c #5B5C5D",
"o  c #545558",
"O  c #4B4C50",
"+  c #5D625E",
"@  c #586A52",
"#  c #536C4F",
"$  c #62625E",
"%  c #67675A",
"&  c #5D5D62",
"*  c #685E67",
"=  c #695D75",
"-  c #745B6F",
";  c #5F6264",
":  c #5A696A",
">  c #636463",
",  c #666865",
"<  c #696966",
"1  c #65666A",
"2  c #6A636A",
"3  c #66696B",
"4  c #696A6B",
"5  c #6B6463",
"6  c #6B6C71",
"7  c #606D75",
"8  c #6F7075",
"9  c #727376",
"0  c #7A7B76",
"q  c #75757A",
"w  c #77787C",
"e  c #7C7C7D",
"r  c #797779",
"t  c #6C6A6C",
"y  c #F9191A",
"u  c #F92416",
"i  c #F9262D",
"p  c #BD621C",
"a  c #A96527",
"s  c #B36B3B",
"d  c #9B6541",
"f  c #857D6C",
"g  c #817E7E",
"h  c #867677",
"j  c #7B847D",
"k  c #77807A",
"l  c #7C8970",
"z  c #02FD4A",
"x  c #04F94B",
"c  c #05FD54",
"v  c #D79339",
"b  c #DA8220",
"n  c #F78B3A",
"m  c #F68E2F",
"M  c #FFA52C",
"N  c #FFAB2B",
"B  c #F9A627",
"V  c #FEA535",
"C  c #FCAA34",
"Z  c #FFA43B",
"A  c #FDAA3B",
"S  c #F5AC3A",
"D  c #F9B237",
"F  c #F6AE31",
"G  c #81817E",
"H  c #858677",
"J  c #D98942",
"K  c #EC8B45",
"L  c #FDAA44",
"P  c #FBB446",
"I  c #7D7D82",
"U  c #7C7D88",
"Y  c #717F8C",
"T  c #827E82",
"R  c #857D88",
"E  c #9B6C99",
"W  c #8D7693",
"Q  c #9D799B",
"!  c #977696",
"~  c #957A81",
"^  c #A6769B",
"/  c #A26E94",
"(  c #9D6DA1",
")  c #9C76A7",
"_  c #9F68B9",
"`  c #A46EA6",
"'  c #A66AAB",
"]  c #A86DAD",
"[  c #A66AA5",
"{  c #A171A6",
"}  c #A570A8",
"|  c #A977A8",
" . c #A76CB5",
".. c #AC78B5",
"X. c #B36CA6",
"o. c #7E8183",
"O. c #788488",
"+. c #758092",
"@. c #838384",
"#. c #898A86",
"$. c #85858A",
"%. c #888689",
"&. c #87888C",
"*. c #898A8D",
"=. c #878786",
"-. c #96888B",
";. c #8C8D92",
":. c #8D8E9A",
">. c #968998",
",. c #8F9094",
"<. c #8B9999",
"1. c #929296",
"2. c #94959A",
"3. c #97999C",
"4. c #999A9E",
"5. c #979A96",
"6. c #A3918E",
"7. c #96A199",
"8. c #B1A39C",
"9. c #AEA09D",
"0. c #8C8FA3",
"q. c #8C91A0",
"w. c #9C9DA2",
"e. c #9993AD",
"r. c #AB8CAE",
"t. c #A486A8",
"y. c #A49EA9",
"u. c #AC88B5",
"i. c #B387BC",
"p. c #A697B5",
"a. c #9FA0A4",
"s. c #98A2A8",
"d. c #A1A2A6",
"f. c #A4A5AA",
"g. c #A7A8AC",
"h. c #A9AAAE",
"j. c #AAA9A4",
"k. c #AAB3A9",
"l. c #ADADB2",
"z. c #A7A8B5",
"x. c #BAAAB9",
"c. c #AFB0B4",
"v. c #A8B8BD",
"b. c #B1B2B6",
"n. c #B4B5BA",
"m. c #B6B8BC",
"M. c #B9BABE",
"N. c #BAB7BB",
"B. c #B5B9AA",
"V. c #D79BA9",
"C. c #D89CB8",
"Z. c #ED9EA4",
"A. c #E39CA4",
"S. c #E89BB6",
"D. c #FD9CB0",
"F. c #C8A8B8",
"G. c #D6A5B8",
"H. c #D8A9B0",
"J. c #E6A7A8",
"K. c #E1AAB8",
"L. c #F0A8B3",
"P. c #E39195",
"I. c #B3CABA",
"U. c #BCBDC1",
"Y. c #B8B5C5",
"T. c #B8B3CC",
"R. c #D7A6C2",
"E. c #C2B7CA",
"W. c #DCB5C8",
"Q. c #C4B7D3",
"!. c #DBBBD2",
"~. c #E3B8C3",
"^. c #E8BED2",
"/. c #BFC0C4",
"(. c #BAC5C9",
"). c #C3C3C6",
"_. c #C6C7CB",
"`. c #CBCCD0",
"'. c #DBC2D0",
"]. c #D0D1D6",
"[. c #CFCCD1",
"{. c #EDC5CD",
"}. c #E8E7DC",
"|. c #EBDDE5",
" X c #EEDEE9",
".X c #F5DEEA",
"XX c #F5DCF2",
"oX c #F9DEF5",
"OX c #F5DEF9",
"+X c #FBDBFB",
"@X c #F8D5F5",
"#X c #DCE8ED",
"$X c #E4E3E5",
"%X c #EBE4E6",
"&X c #EBEAE6",
"*X c #E7E4EA",
"=X c #ECE5EB",
"-X c #EDEAED",
";X c #E5EBE8",
":X c #F2E4ED",
">X c #FCE3EC",
",X c #F1EAED",
"<X c #F4E7E6",
"1X c #EDF4EE",
"2X c #E3F1EB",
"3X c #F6F4EB",
"4X c #ECE5F2",
"5X c #EEEAF1",
"6X c #EDECF9",
"7X c #E8E6F5",
"8X c #F2E5F1",
"9X c #FAE3F4",
"0X c #F2ECF2",
"qX c #FBEAF4",
"wX c #F5E4FA",
"eX c #FCE3FB",
"rX c #F4EAFA",
"tX c #FBEBFB",
"yX c #E9F4F6",
"uX c #F5F1F5",
"iX c #F4FCF4",
"pX c #FBFCF5",
"aX c #F6F5FA",
"sX c #FEF5FD",
"dX c #F4FEFC",
"fX c #FEFDFE",
"gX c #F9F2F6",
"hX c #D7CAF6",
/* pixels */
"I l.2.2.2.a.1 f.$.I l.;.4.d.I n.d.w.d.d.I d.&.w b.;.5.;.- O.j > 5 k O.- 0 j l.:.b.2.2.l.2.c.%.f.$.a.X f.;.I n.T M.w.f.d.f.l.  f.",
"n.w U.d.:.1.,.w.X f.q 2.4.*.n.$.b.h.f.d.f.w.;.w.w y.:.: f O.* c x 2 O.f 3 s.R l.r w b.@.`.a.1.2.g.2.a.a.3 f.I d.;.I c.g.;.w.$.;.",
"I w.w.w.&.w.2.&.w.* w.$.o.l.@.w.j.j.1.j.h.1.b.. j.>.; H Y % z x c z , +.l ; y.T r f.*.N.w.f.f.=.w.a.h.3 f.q 2.$.q U.f.d.4.$.4 h.",
":.w.f.3.w.I 1 ;.w.w.w.U z.o.;.a.a.3 1 1 X > > 5 > , @.l R * x z z x * R H @., 1 > > 3 X 1 > X 5.;.2.3.f.w g.3.6 b.f.l.d.l.d.w ;.",
"w.a.f.w.3.a.o.2.w.f.w h.I 2.d.c.> e e e =.%.j =.@.U G @.H =.: c x 7 g G U 0 R g @.e %.e @.=.@.1 f.1.f.d.;.f.X g.d.f.;.l.*.d.U.9 ",
"w.w.U l.&.2.f.@.f.w.a.4.a.l.w.> =.@.@.e T e =.r T U H R T 0 U # # U H T @.l @.T @.j g #.e 0 @.j 1 l.1 w.w.f.n.g.h.l.h.o.b.*.2.b.",
"w.a.f.2.f.$.f.h.1 $.a.d.n.h.3 ,X-X*X5X-XuX-X-X0X,X1X6X&X>XwX2XqX>XyX4X>X,XaX&X-X-X5X-X-X-X,X5X5X-X4 b.& g.f.4.3.l.1.w.l.w l.3.;.",
"f.@.2.a.w.f.:.:.f.8 d.l.h.> o.-XfXfXfXfXpXfXfXfXpXsXdXfXpXdXfXsXfXpXdXfXfXdXfXpXfXfXfXfXfXfXfXfX5XI 1 c.n.h.f.l.9 l.1.l.U.4 l.h.",
"I c.I w.l.I b.w.&.w.b.w.1 @.e 0XfXfXfXfXfXfXfXfXfXfXfXdXdXgXfXfXfXfXaXfXpXfXpXfXsXfXfXsXfXfXfXfX0X@.e + g.*.g.l.l.9 h.3.1.).I U.",
"2.;.l.o.w.f.q n.2.U 3 N.+ G @.0XfXfXgXfXfXfXfXfXpXsXfXfXfXfXsXfXsXfXsXpXfXfXfXfXfXfXfXfXfXgXfXfX%Xe =., I ).w.b.h.m.1 4.m.. ).4.",
"l.f.&.d.&.:.z.;.2.q w.l.> G e =XfXfXfXfXfXdX1XfXfXfXpXfXdXfXfXdXdXfXfXfXfXaXfXfXfX1XiXdXfXfXfXfX0X%.T 1 w.:.&.d.2.l.l.$.;.n.4.w.",
"z.a.l.& n.w.w.w.U ,.q.;.> =.g 0XfXfXfXpXfXfXfX=X#XyX6X6XfXsXfXpXfXfXfXfX4X6X6X5X=XfXfXfXaXfXfXfX,Xg w 3 $.&.b.&._.d.M.n.4.l.f.a.",
"w.w.w.f.2.a.w.3 I 2.1.).> 0 I 0XfXfXfXfXfXfXeXQ | / / E eXfXdXiXiXiXfXeX! ^ E ^ ! wXfXfXfXpXfXfX*X=.g , I Y.$.l.f.@.d.g.h.d.h.  ",
"I g.z.f.w.d.9 w.3.I Y.$.> =.@.=XfXfXfXfXgXwX| E @XeX+X^ ! tXfXpXpXpX9X! ) @XeXOXE t.eXaXfXfXfXfXuX@.g < l.U 2.3.:.m.#.].f.d.m.a.",
"m.*.l.1.w.w.z.a.X f.U =.> G @.-XfXfXfXfXfXtXW +X0X*XtXOXW rXaXfXiXfXrXW +XeXXX-X+XW eXsXpXfXfXfX=XT j > 8 2.1.1.c.&.4.n.c.3.l.c.",
"&.2.w.h.1.w.a.a.l.I ;.w.> @.e 0XfXfXpXfXfX*XQ @X}.1X|.+X^ 4XfXfXfXsXwX! oX.X,X}.+X>. XfXfXpXfXfX0Xg G 1 ;.f.I M.I o.n.d.1.l.$.$.",
";.y.f.w.w.&.6 e.f.:.l.q 3 e @.,XfXfXfXfXfX5X` :X:X:X:X:X{ :XdXpXfXfX8X{ :X:X-X8X:X` 5XsXfXfXfXfX,Xe @.> g.6 m.w r U.m.g.2.U.3.:.",
"z.z.l.1.z.y.:.3.f.d.3 l.> @.G -XfXfXfXfXfX=X` :X=X:X:X:X{ 0XfXpXfXfX8X{ :X:X:X:X=X` 5XfXfXfXfXfX,X=.j > a.e.3.U n.l.l.w.c.w l.g.",
"f.f.2.f.$.:.g.,.l.d.w.w.< @.r 0XfXfXfXfXfX0X} :X:X:X>X:X{ =XfXfXfXfX8X{ :X:X:X8X:X` 0XsXpXfXfXfX*XT G X l.g.q.).M.g.M.c.*.n.9 a.",
"f.l.a.a.g.&.w.l.; w.w.y.4 G @.,XfXfXfXfXsX0X` :X:X:X:X:X{ -XfXfXfXfX8X` :X:X,X:X:X` -XfXfXfXfXfX,XT #.$ > d.b.f.h.l.&.j.c.4.M.@.",
"d.o.g.w.l.h.$.2.l.6 w.z.+ 0 %.%XfXfXfXfXfX0X` :X:X%X:X:X{ -XfXpXfXfX8X{ :X:X:X8X:X` 4XfXfXfXfXfX0Xe 0 4 l.f.f.m.c.q m.9 c.l.4 /.",
"w.m.;.a.f.2.n.3.1.l.n.g.$ %.=.0XfXfXfXfXfX4X` :X:X:X:X:X{ 5XpXfXfXfX8X{ :X:X:X:X=X` 0XsXpXfXfXfX*X=.=.> m.l.&.m.f.n.$.m.9 a.U.8 ",
"I 2.n.I w.h.3 c.f.d.U w.< e e =XfXfXfXfXfX0X` :X:X=X:X:X{ 5XfXfXfXfX0X{ :X:X-X8X:X` 5XsXfXfXfXfXgXr G $ @.9 _.2.b.h.U.w U.3.@.U.",
"g.9 d.m.6 4.f.l.h.w $.n.> G @.5XfXfXfXfXfX0X` :X:X:X:X:X` 0XfXfXfXfX8X} :X:X:X8X:X` 5XsXfXfXfXfX,X@.G 1 $.Y.;.3.l.f.n.m.; U.f.n.",
"w.g.U w l.I l.f.$.,.n.$.> G g 0XfXfXfXfXfX8X` :X:X=X:X:X( 0XfXpXfXfX5X{ 8X:X:X8X:X` 5XsXfXfXfXfX0Xe @.> 2.@.;.M.@.`.l.).M.w m.l.",
"l.f.l.d.&.d.w.*.w l.*.1.$ =.@.5XfXfXfXfXfX5X` :X8X:X:X:X` 0XdXfXfXfX5X` :X=X:X8X:X` 5XfXfXfXfXfX%X%.j $ 1.*.).*.m.a.,.).U.g.n.b.",
"$.M.f.h.w.g.I . a.&.@.4.> 0 @.5XfXfXfXfXfX8X` :X:X:X:X:X{ 5XpXfXfXfX5X` 9X=X:X:X:X` 5XfXpXfXfXfX0X@.0 > 4 l.o.5.l.*./.5.M.b.M.d.",
"l.h.d.h.g.1.4 h.6 @.a.1.1 @.@.=XfXfXfXfXfX0X` :X:X<X.X:X{ 8XdXfXfXfX5X{ :X=X<X:X=X` 0XsXfXfXfXfX0Xg &.; b.@.,.f.w.c.;.4.h.f.h.h.",
"1.w c.f.4.g.f.2.a.g.I c.> G T 0XfXfXfXfXfX-X` :X:X:X.X:X{ 0XfXpXfXfX6X` :X:X:X:X:X` 5XsXfXfXfXfX=X@.0 1 ,.&.w.:./.$.q U.c.h.1.1.",
"1.U.d.d.w.$.;.1.d.9 l.o., 0 %.5XfXfXfXfXfX0X` :X:X,X:X:X{ :XdXpXfXfX5X` :X=X:X8X=X` 0XfXpXfXfXfX0Xe G 1 a.Y.6 n.@.q m.f.3.a.m.8 ",
"n.d.f.*.g.o.3.f.h.a.a.q , j %.=XfXfXfXfXfX5X` :X:X,X:X:X{ 5XfXfXfXfX5X` :X=X:X:X:X` 5XsXpXfXfXfX*X=.=.+ w.Y.n.f.w n.U.w.l.m.*.`.",
"d.w.h.h.;.l.@.a.g.a.h.j.> G e 0XfXfXfXfXfX8X` :X8X:X:X:X{ 0XpXpXfXfX5X' :X=X<X8X:X` 5XfXfXfXfXfX0Xg 0 4 b.z.z.$.Y.n.y.l.U z.m.@.",
"h.g.1.f.,.j.h.U g.g.a.h.$ =.T 5XfXpXdXsXfX$X| *XXX<X9X}.] &XfXfXfXpX1X' &XXX,X.X:XX.7XpXsXdXfXdX=X%.G > o /.g.h.b.m.c.;.n.8 f.b.",
"f.a.l.2.g.f.w.m.,.$.g.j.4 r $.0XfXpXfXsXpX-X[ :X,X&X X&X] -XfXpXfXfX5X] &X|.3X:X=X[ yXdXsXfXsXfX0XI G > N._.c.b.w.,./.a.2.m.8 f.",
"h.;.1.b.&.a.b.o.b.&.l.h.+ G I =XfXfXdXsXfX-X[ 9X9X XeXrX[ -XpXpXfXfX*X' :XeX X9XrX[ 5XiXsXfXpXfX0X@.G $ )./.n.f.f.m.> c.w.2.n.w ",
"I c.*.4.n.U f.l.e h.h.4.> G @.gXfXpXpXfXfX-X| @X&X&X:X0XE uXaXfXfXpXuXE ,X:X&X&X+X[ =XdXfXpXfXdX-Xe G 4 ).n.& _.d.l.Y.. :.c.8 ].",
"3.4.c.o.h.).w b.3.h.9 4.$ @.T =XfXfXpXfXpX*X{ ! ' ] ] ( ] wXfXfXfXfXrX .( ] ] [ Q | ,XiXfXpXfXfX5X%.@.> d.9 n.h.&.b.U._.; w.l.O ",
"h.4.w.n.;.o.d.d.4.6 =.m.> =.@.5XpXfXfXfXsXfXwXqX,X-X-X0XrXiXiXY.Y.dXiXtX,X-X-X-X4XOXpXfXfX6.9.fX8X@.0 , I @.f.1.].3.Y.a.n.w :.g.",
"b.f.h.1 b.3.h.l.e o.c.@.> 0 @.0XfXfXfXfXfXpXfXfXfXsXfXiXfXdX(.Q.Q.I.dXpXiXfXfXfXfXfX3XfXfX9.8.sX0Xe @., q l.4.m.w.w.b.a.n.m.,.f.",
"d.f.n.f.&.4.a.$.& n.,.1., g @.4XpXfXfXfXfXfXfXfXfXfXfXfXfXT._._ _ Q.E.sXfXpXfXfXpXfXpXfXpXpXpXdX5X@.@.0 1 > 3 > ; 1 &.`.c.b.w.g.",
"I M.j.l.a.f.;.1 g.o.&.h.> 0 @.0XfXfXpXfXfXfXfXfXfXfXfXfXfXsXQ.W ) T.Q.sXfXfXfXpXfXfXfXfXfXfXfXfX=X@.G o.j @.T @.O.j > c.4 B.5.z.",
"M.h.n.f.f.l.a.g.< 4.a.,.X *.w gXfXfXfXfXfXfX-X-X,X$X-X-X-XfXE.E.T.(.fX6X#X1X}.4X0X0XdXfXfXfXfXfX0Xe @.=.3 ; 2 X * H k - hXy.y.>.",
"3.$.d.d.,.g.f.h.4.h.4 b.< 0 =.*XfXfXpXfXfX5X=X0X0X:X:X,X=X%XfXfXT.fX}.=X6X:X>XwX=X%X0XfXfX_.`.fX-X@.e > j.e n.$.h * O.$ k.s.s.3.",
"1.c.f.w.3.2.4.f.4.. n.e $ =.I 0XfXfXfXfXfX*X:XXXwXeX.X X,X,XfXfXfXfX8X:X8XF.R.XX:X:X0XgXfXfXfXfX5X@.*.> f.j.y.e Y., O.& x.k.r (.",
"c.g.f.w.l.$.a.q h.4.d.9 1 G @.0XfXfXfXfXpXuXtX+Xt.r.+XqXqX*XfXfXfXsXgX=X:XG.K.F.>X=X0XfXfXfXfXfX=X%.r > U.d.l.f.A L N D L x.x.w ",
"g.f.a.l.*.h.$.w.b.3.a.b.$ e I 5XfXfXfXfXpX=Xt.u.u.i.r.XX=X-XfXfXdXdX<X8XF.Z.P.G.:X X,XfXfXfXfXfX0Xe @.4 I M.c.N.M D B B v U z.n.",
"a.h.*.l.g.f.n.@.a.l.a.g.$ =.=.=XfXfXfXfXfX:Xr.u.] ( r.eX8X0XfXfXfXpX<X.XF.Z.Z.G.,X,X0XfXfXfXfXfX-X$.j > M.& U.f.v n K m v b.; s.",
"a.c.f.3.a.a.a.n.1.4 f.j.1 0 @.0XpXfXfXfXpX0X@Xi.[ ` u.9X=X1XpXfXfXfX8X6X,XG.G.0X:X,X-XaXfXfXpXfX=X%.T > 4.n.n.U.5.a d a d.*.[.7 ",
"d.&.3.b.1.w.d.o.m.$.n.3., G e uXfXfXfXfXfX5X=X:Xu.p.+X8X:X&XfXpXfXfX,X,X:X:X:X:X:X:X,XfXfXfXfXfX=X#.@.> 9 ).M.b.F C Z S A 0.;.).",
"3.g.;.w.l.q g.g.w a.w.j.X G $.*XfXfXfXfXfX-X:XqX@X!..XqX0X,XfXfXfXfX,X8X:X:X:X,X0X8X-XfXfXfXfXfXrXr j , M.g.,., A L 6.N V z.j.4 ",
"I l.c.e c.n.9 n.d.f.w.;.> e @.0XfXfXfXfXfX-X:X.X{.K.{. X X5XfXfXfXfX-X:X:X8X:X:X:X:X-XfXfXfXfXfX,XR =.$ h.d.@.`.B q.u =.N . e.M.",
"f.I g.U.w *.g.3.4.@.*.n.> @.e 0XfXfXfXfXfXgX:X'.J.K.W.qX:X0XfXfXfXfX,X0X:X:X:X:X8X=X,XfXfXfXfXfX5X@.0 1 f.&.a.4.A #.i *.P Y.2 s.",
"b.h.;.@.m.3.l.4.,.;.b.=.$ G e gXfXfXfXfXfXgX:X'.K.~.W.9X:X0XpXfXfXfX,X8X:X:X,X:X8X8X-XfXfXfXfXfX0X=.g $ e ;.2.1.D -.y #.P a.N.l ",
"h.f.h.g.o.f.w.4.r h.U @.> #.@.-XfXfXfXfXfX=X:X.X~.{.!.:X=X=XpXfXfXfX-X,X:X8X:X:X:X,X,XfXfXfXfXfX0Xw j > 1.w.;.m.V :.u 0.Z d.s.5.",
",.c.g.f.a.l.w.O h.@.q l.$ =.I 0XfXfXfXfXfX-X8XqX'.XX>X8X0X0XfXfXfXfX,X8X:X:X:X:X:X:X-XfXfXfXfXfX0X@.@.< j.& l.$.P h u *.C k Y.p.",
"h.a.4.c.w.a.4.w.@.1 f.;.+ g @.4XfXfXfXfXfX5X:X:X XqX:X%X:X*XfXfXfXfX-X:X:X8X:X,X8X8X,XfXfXfXfXfX=X$.g X w l.3.9 M P -.C C ].a.s.",
"g.q m.d.w.g.l.1.q f.e =.> @.e 0XfXfXfXfXfX0X8X*X9X:X<XXX4XyXfXC.C.sX6X8X9X<X8X-X=X=X0XfXfXfXfXfX=X@.e < 2.f.q d.A L B V C v.6.f.",
"3.4.w.f.w.w.3.d.f.q 1.1.3 @.%.*XfXfXfXfXfXsXgX0X5XqX0X2XrXS.S.V.F.S.G.*X-XqX=X5X0XgXsXfXfXfXfXfX0Xe =.1 4.g.2.g.Y p s a v.h.g.<.",
"&.l.a.3.f.$.&.w f.,.a.3 9 @.e gXfXfXfXfXfXfXfXfXdXgXfXdXfXG.A.J.Z.A.V.G.fXfXfXfXfXfXfXfXfXfXfXfX5X=.@.e > 4.g.1.B S S C F s.N.>.",
"w.d.4.f.f.w.U d.w.,., @.=.@.@.-XfXfXfXfXfXfXfXfXdXfXfXfXfXsXV.Z.J.D.V.sXaXpXaXfXfXfXfXfXfXfXfXfX5X@.e #.g > g.2.B C L L n j.5 n.",
"2.d.h.f.I 4.l.8 b.4 @.e G r #.=XfXfXfXfXfXfXfXfXdXpXsXfXfXC.S.V.K.V.C.sXdXfXfXiXfXfXfXfXfXfXfXfX-X@.I 9 #.@.> 3.K J n b K s.z.T ",
"2.h.X 1 > > 2 > 1 e G g @.=.$.5XfXfXfXfXfXfXfXfXfXfXfXdXfXG.C.sXsXC.R.fXdXfXfXfXfXfXfXfXfXfXfXfX5X@.#.#.0 e @.3 % @ ; 4 : 1 <.Y.",
"l.< g @.@.e =.e j =.=.0 @.@.q uXfXfXfXfXfXfXfXfXfXfXfXdXfXfXdXfXfXfXsXsXfXdXyXfXfXfXfXfXfXfXfXfX0Xe I e =.e j e I &.G O.h k % >.",
"$ $ 1 > $ < $ 1 < X > , $ 1 1 -X5X5X5X-X-X0X,X-XwX5X&X,X|.0XgX=X*X0X-X1X-X:XuX7X-X,X-X-X-X5X5X-X5X5 1 > > 5 > 1 > > $ 6 , 4 ; ; "
};
