/* XPM */
static char *mike_certo_down1666002480[] = {
/* columns rows colors chars-per-pixel */
"64 64 245 2 ",
"   c #010302",
".  c #0B0101",
"X  c #000901",
"o  c #02020B",
"O  c #06040D",
"+  c #001200",
"@  c #020211",
"#  c #070417",
"$  c #02161C",
"%  c #15060B",
"&  c #0A2911",
"*  c #253D16",
"=  c #25360C",
"-  c #031A27",
";  c #3A3728",
":  c #4A3025",
">  c #294617",
",  c #315117",
"<  c #364926",
"1  c #375727",
"2  c #2A4E22",
"3  c #376625",
"4  c #23521C",
"5  c #495F36",
"6  c #46782A",
"7  c #4B7A35",
"8  c #4B722E",
"9  c #527025",
"0  c #453C41",
"q  c #54565A",
"w  c #5A5B5F",
"e  c #545556",
"r  c #4E4F4E",
"t  c #5B615F",
"y  c #6B725C",
"u  c #5E5E63",
"i  c #565A63",
"p  c #625D73",
"a  c #5F6165",
"s  c #45777E",
"d  c #616266",
"f  c #64656A",
"g  c #67686D",
"h  c #696A6E",
"j  c #69686C",
"k  c #6E7569",
"l  c #73756B",
"z  c #767869",
"x  c #6C6D72",
"c  c #6C6A78",
"v  c #6E7275",
"b  c #717276",
"n  c #75757A",
"m  c #76787B",
"M  c #797A7E",
"N  c #787878",
"B  c #7C6B7E",
"V  c #68921C",
"C  c #5B892C",
"Z  c #5A8937",
"A  c #589837",
"S  c #4D8A2B",
"D  c #668B2B",
"F  c #679228",
"G  c #648B35",
"H  c #638D3A",
"J  c #6A8D3C",
"K  c #678837",
"L  c #629334",
"P  c #6D923D",
"I  c #66963A",
"U  c #74893A",
"Y  c #5DA33C",
"T  c #58A438",
"R  c #61A53C",
"E  c #6AAC3E",
"W  c #76B839",
"Q  c #5F8F1F",
"!  c #7AC23C",
"~  c #5C9C43",
"^  c #5B9544",
"/  c #648D43",
"(  c #6D8C43",
")  c #698544",
"_  c #718B48",
"`  c #6A9545",
"'  c #739F41",
"]  c #6E9555",
"[  c #66AA43",
"{  c #63A449",
"}  c #68A845",
"|  c #72A946",
" . c #6CB44A",
".. c #76BA47",
"X. c #7BBA54",
"o. c #73AB58",
"O. c #79817A",
"+. c #6D8575",
"@. c #5DA448",
"#. c #78C350",
"$. c #83B93F",
"%. c #82BA4A",
"&. c #87BB5A",
"*. c #8EB152",
"=. c #848679",
"-. c #94BE68",
";. c #89C74D",
":. c #95CC46",
">. c #88C954",
",. c #97D958",
"<. c #91D355",
"1. c #A1DC5B",
"2. c #A7DE56",
"3. c #B0C55C",
"4. c #9DE453",
"5. c #9DE25B",
"6. c #9AE656",
"7. c #9CE54C",
"8. c #A6E64D",
"9. c #A5EB54",
"0. c #AAEB55",
"q. c #A4E55D",
"w. c #AAE55C",
"e. c #A4EA5C",
"r. c #AAEA5C",
"t. c #A6E554",
"y. c #B5E658",
"u. c #AAF25A",
"i. c #B3F45C",
"p. c #B0F14E",
"a. c #9BD664",
"s. c #8FC464",
"d. c #A3DA64",
"f. c #ACD672",
"g. c #9CE865",
"h. c #9FF265",
"j. c #A4E462",
"k. c #AAE564",
"l. c #A5EA63",
"z. c #AAEC63",
"x. c #A6E56B",
"c. c #ABEB6A",
"v. c #A8E86B",
"b. c #B2E867",
"n. c #ABF363",
"m. c #ABF369",
"M. c #B4F568",
"N. c #AAE875",
"B. c #B6F675",
"V. c #AFEF77",
"C. c #C4FF65",
"Z. c #7C7D82",
"A. c #797A89",
"S. c #7A7794",
"D. c #4F7593",
"F. c #847D84",
"G. c #7F8085",
"H. c #7E8789",
"J. c #5A9CBC",
"K. c #559BCA",
"L. c #56A5C9",
"P. c #65A4CF",
"I. c #818286",
"U. c #84858A",
"Y. c #87888C",
"T. c #898A8E",
"R. c #898787",
"E. c #94958A",
"W. c #8C8D92",
"Q. c #898A96",
"!. c #958A9A",
"~. c #8F9094",
"^. c #89929B",
"/. c #919296",
"(. c #94959A",
"). c #97989C",
"_. c #999A9E",
"`. c #999898",
"'. c #92878F",
"]. c #A29D9D",
"[. c #9BA598",
"{. c #A2A49D",
"}. c #A5A696",
"|. c #9C9DA2",
" X c #9A98A6",
".X c #8F99A5",
"XX c #A39DAA",
"oX c #A39CA5",
"OX c #A29FB4",
"+X c #9FA1A4",
"@X c #99A2A8",
"#X c #9CA9AF",
"$X c #A1A2A6",
"%X c #A5A9A4",
"&X c #A4A5AA",
"*X c #A7A8AC",
"=X c #A9AAAE",
"-X c #AAA8A8",
";X c #B2ACAB",
":X c #B3B3AC",
">X c #A4A3B3",
",X c #ACADB2",
"<X c #A8A9B8",
"1X c #B1ADB3",
"2X c #B2ABB8",
"3X c #AFB0B4",
"4X c #AAB6B8",
"5X c #B1B2B6",
"6X c #B4B5BA",
"7X c #B7B8BC",
"8X c #B9BABE",
"9X c #B8B7B7",
"0X c #A8B3A8",
"qX c #C1BAB2",
"wX c #B4DA82",
"eX c #BCC3BA",
"rX c #B3C5AC",
"tX c #C4CFB1",
"yX c #BCBDC2",
"uX c #B8B9C6",
"iX c #AEAFC7",
"pX c #C1BBC2",
"aX c #BEC0C4",
"sX c #BBC1CB",
"dX c #ABCFDB",
"fX c #B1D0EB",
"gX c #C1C2C6",
"hX c #C4C4C9",
"jX c #C7C8CD",
"kX c #CACBCD",
"lX c #CBC7C4",
"zX c #CCCCD1",
"xX c #D2D3D7",
"cX c #CCE6FD",
"vX c #D5E6FD",
"bX c #C3E5EF",
"nX c #FDFDED",
"mX c #FFFFE6",
"MX c #FDFEF4",
"NX c #FFF5FF",
"BX c #F4FEFD",
"VX c #FDFDFD",
"CX c #F8FBF6",
"ZX c #F2FBF4",
"AX c #DADBEF",
/* pixels */
"Z.,X(.(.(.&Xa &XW.n 6XW.).+XU.,X|.*X*X|.b *X/.b =X/._.W.T.5X+X$X_./.|.7Xb Z.=X(.5XW.|.,X_.=XT.&XT.`.u -XI.I.8XI.8X|.*X|.&X=Xe &X",
"6XM yX$XW././.|.e ,Xc |.).T.7XU.6X+X$X*X1X_.I.&XZ.$XY.I.9XU.gX&X).*X5X,X|.&XA.3Xn U.&XU.hX$XT._.&X_.*X).v *XI._.W.M 5X=XW.|.U.W.",
"Z.|.|.|.W.|.).Y.|.f |.U.G.,XU.).*X=X).*X|._.3Xa 5XY.G.7XY._.$X)._.|.,X5X&Xx =XZ.m *XW.5X*X*X&XU.|.$X*Xv +Xb /.Y.m aX&X$X_.U.h =X",
"W.|.&X(.|.M d W.(.|.|.Z.3XZ.W.*X$X).+XG.W./.)._._.j *XI.|.*X$X|.=X).).yX|.|.~.W.>XZ.,X,X-X+X|._./.T.|.|.M *X|.f 5X&X=X$X,X$Xm W.",
"|.&X&X|.).&XA.(.|.&XU.,Xn _./.7X&X=X~.,Xb |.$X$XZ.5Xb _.*X=X&X=XZ.5XW.+X3X XW.3Xf ,X&X|./.&XZ.,X$X_.*X_.).$Xu &X+X-XT.,XY.$X8Xb ",
"|.|.A.3XU.(.&XU.&X/.|.(.*X*X,X&X/.=X|.|.,XZ.*X$X~.).*X5X=X5X,X/.6XZ.*X_.Y.5X|.*X5X5X&X,X3XW.6XZ.=X=Xf oX|.*X,X6X=X3X=XI.5XT.`.6X",
"|.|.&X(.&XU.&X,Xf W._.*X5X3X&XU.=XQ.&XyX(.,XW.m 7X).=X5X$XM $X$X&X5XZ.|.&Xb 6X|.|.,XoX^.>X5X!.>XW.(.7Xa |.,X|.).,X/.|.=XM =X).W.",
"&XU.(.+X|.&XW.W.&Xb *X*X,X).gX(.|.&XU.|.5XZ.,X_.&X_.=X=X).3XI.&X X|.yXQ.|.,XyX&X,X,Xn 6XU.+X6XU.5X|.n 4XyX|.&X2Xb ,X(.,XyXx =X*X",
"M 5XZ._.,XZ.5X+XW.(.,X*X$X,XM &X&X+X7XF.oXuXQ.2X#XT.=X=X$X/.aXO.|.#Xv eX|.4XiXR.0X|.8XZ.$XU.&XhXb ,X+X,X+XW.*X,X,Xb =X)./.gXZ.aX",
"(.W.3XA.|.&Xb 6X(.Z.f 3X_.,X,XZ.E.&XU.@     %X$Xj =X|.OX2X`._.7Xz OX9X'.1X&Xm 5X    ,X,Xm =X(.a 5X|.&X,XZ.gX_.,X=X7Xg ).6Xq gX_.",
"3X&XY.&XY.W.>XW.|.n |.>X(.,X|.3XA. X  y z     M  X  X         o   o   O oXA.  O N   _.,X,Xa ,X,X|.=X+XZ.|.|.U.&X).,X3XU.~.9X_.|.",
"=X&X,Xu 7X|.+X+XZ.W.|.(.uX(.hX&X,X/.  k 8XZ.  I.  _ D L G G L ( J / D o =.  k k k O zX|.7X,XY.,X=X&Xc |.Y.U.7XZ.jX+X8X6X_.=X&X$X",
"|.|.|.*X(.+X|.f Z./.W.yX(./.&X=X[.6X  b jX8Xl #   P i.i.B.M.n.n.N.B.p.O   y jXpXl   &XU.&X|.*X&X$Xf ,X~.n yXY.7X*XI.&X-X=X$X=Xr ",
"Z.&X&X&X|.$Xb |.(.Z.yXU.~.6XG.yX+X<X  l 9XqXtX    J M.0.,.j.z.r.p.e.b.    eXuXqXl   W.hX XgX5X$X,X).*Xf ,XZ././.~.6XY.xX&X$X7X+X",
"7XQ.,X(. X|.=X|.i ,XZ.U.&X(.yX/.[.&X. z hXrXf.d.-.d.r.0.c.b.q.e.q.N.9.:.:.wXrXaXk   8XY.T.,X&X_.8X&Xb ,Xg W.-X~.,XY._.6X,X_.,X,X",
"U.(.|.=X/.|.&X&X,XZ.Q.|./.5XU.U.%XiX. y rXwX9.e.u.6.g.j.q.j.q.e.z.l.g.e.V.0.b.eXk   Z.F.yX*X5X_.I.|.|.+X(.,Xv yXZ.Z.6X$X/.3XU.U.",
"Q.&X>X X$XU.c |.#X(.&XM 2XY.M 5X>X`.O F z.c.z.q.g.k.j.9.q.k.l.g.k.k.k.9.k.f.g.:.A o B 5X4X-X).2XZ.~./.,X>Xc aXn n yX7X=X(.8X).~.",
">X,X,X/.,X|.W. X+X*Xj 2XT.b ,X    . o L z.z.q.l.w.m.q.VXNXVXVXMXBX0.q.j.6.x.8.g.#.X X     3X+XR.,XZ.|./.(.&XW.W.6X,X,X|.3XM ,X*X",
"*X$X).*XU.W.&X/.=X|.|.+XF.iX2X  V D / V.5.5.z.4.7.y.CXVXVXBXMXVXMXBX2.i.c.6.n.z.,.o.) 5 o ~.@X1XY.,XY.Y.,X|.+XyX8X&X8X,XT.6Xn |.",
"&X,X|.|.=XT. X,Xg +X).&X|.&X=X  J ' a.u.l.r.j.l.h.BXVXCXBXZXMXMXVXNXBX0.d.n.6.b.g.{ S 1   aXG.>X5Xx 7X&Xd *X,X-X=X,XU.=X5X_.8XI.",
"&XZ.*X|.,X=XU./.$Xx $X*X,X$X  X P { ,.5.j.w.t.w.VXnXNXNXmXVXBXVXVXVXVXBXc.r.x.z.a. .S 1     O U.|.gXZ.|.,X,X).7X,Xn 7Xb ,X3Xh gX",
"|.7XW.+X&X(.5X|. X*X-X4XXX  X ) C s.6.r.r.q.N.BXVXVXNXBXvXvXvXvXVXnXVXVXZXw.b.k.1.R A S 8 <   5X Xf yX|.yX&X(.3X*X9XU.7Xb +X8Xb ",
"Z.(.6XZ.|.*Xf 5XoX+XQ.|.>X  ] &.C.8.M.2.9.6.w.CXCXCXCXdXJ.K.P.J.fXMXVXCXBXb.g.u.1.[ @.[ { >   h uX,X&X5XZ.c 8X+X5X=XyXM 8X_.I.8X",
"*Xb $X7Xx |.&X,X,XM G.2X`.X G %.M.z.j.z.5.N.r.VXVXBXfXD.- $ $ - D.dXVXVXCXw.q.e.q.{ A { T > O pXU.yX|. XQ.8X).(.,X&X5X8Xd 8X*X6X",
"|.=XZ.M *XZ.,X-XI.Y.6XW.;X  P %.V.0.z.6.g.l.y.CXVXbXL.- . o   X $ L.vXVXVX6.y.l.1.} ~ Y [ >   U.,X,X&XZ._.U.W.8XI.kX=XgX8XM 7X3X",
",X&X=X$XY.$X$XT.m 5XW.Y.=Xo G %.M.8.k.e.l.q.b.BXnXvXL.- .   % . $ L.cXVXNXm.d.n.j.A ~ R ~ <   |.,X(.u ,XT.Z.zXU.7X$X/.hX8X=X5X5X",
"U.7X*X*X|.*XM q -XM G.|.`.  ( %.M.e.x.9.4.4.b.ZXNXcXL.$   o .   $ P.cXMXMX4.w.m.q.[ { T T =   #X,X/.&XW.b 8XG._.,XT.gX`.8X5X8X&X",
",X=X$X,X-X).h =Xg ^.|.(.-XX ( %.m.1.x.9.l.v.t.N.VXnXfXD.- - - & s fXNXCXb.l.w.h.,.} A Y @.<   [.,XyX,Xh 3XZ.W.oX_.5XT._.=X%X=X*X",
"/.M ,X&X_.*X-X(.XX>XZ.6X=.  K W M.z.x.t.j.v.9.w.q.BXCXfXJ.K.K.L.fXBXVXy.5.g.z.9.5.} A Y Y *   +X/.W.&X,XW.(.&X^.yXY.n yX3X=X/.`.",
"W.yX$X&X$XI.T./.>Xx ,XZ.R.  K ;.i.r.v.x.q.q.t.e.j.b.VXMXvXcXvXAXMXBXy.z.x.l.q.9.,.[ @.Y } *   ,X&XW.b |.(.7Xx 5XU.n 8X&X).+X6Xx ",
"6X&X&XT.*XI._.&X-X*X+Xb -Xo ) &.M.b.l.l.l.r.l.x.q.N.q.CXVXVXBXVXMXw.6.N.8.x.9.z.j.` ~ Y A >   Q.=X&X(.6X&X,XyXoXn 6XuX|.,X6XT.zX",
"&X_.=X*XT.=XI.$X-XoX&X,XF.@ X G H %.8.l.e.q.j.z.9.q.j.e.l.u.6.9.q.N.q.q.e.x.9.c.5.[ ~ [ { X  X6XZ.|.&XZ.7X*X&XY.uX7X|.3XZ.,XuXG.",
",X-X/.&X~.-X=XF.<X-X&X*X,X3X  O L } 1.c.9.6.l.j.e.q.e.q.5.q.j.l.1.c.q.e.e.q.w.k.>.[ ~ T C   XX`.6Xb |.,Xq aX*X,X3X8X5XY.yXb &X3X",
"&X+X,X).*X*X_.6X~.M ,X&X+X<X,X  K I 2.B.x.N.j.9.j.z.j.j.l.q.j.j.z.q.q.z.q.z.z.<.! R A 3 ' o 7X).!.hXn |.yXyX,X6X$XW.gX|.(.gXg |.",
"*XW./.3XU.+X5XI.5XT.,X=X=X,X# X ( | 8.0.8.6.e.9.q.l.e.z.l.e.q.q.e.q.q.r.q.l.v.;.{ | ^ 1 *.  o X |.U.xX).zXkX6X-X&X3Xf *X(./.uXZ.",
"Z.,XT.).7XG.$X5Xm 3X2X X%X+Xo U D 8 C s.B.z.v.l.l.w.j.q.q.w.l.r.e.e.w.r.k.<.>...{ 4 3 J 9 C K . 2XyXa yX6X=Xa jX*X,XyXu (.&Xn zX",
").).3XG.=XgXM 5X_.$Xc >X{.-XX D a.8 Z 7 x.t.g.l.r.e.k.e.l.w.l.q.e.q.e.g.<.E R A . 1 7 C 8 ,.J O x -X5X7X=XM =X5XY.,X6XhXi |.5Xr ",
"=X|.|.5XT.I.$X$X{.b H.5XR.pX  ( d.| D ` D F j.b.q.j.j.z.l.z.l.k.z.j.l.;.R @.} 3 O 9 H H E d.J   gXY.$X&XG.I.,XY.xX(.jX|.7Xn W.<X",
"3X&X=Xg 5X_.,X,XZ.k 5XT.6X  + Z ,.&.J       ] 1.q.q.j.q.5.5.1.g.j.k.g. .A ^ ] 3       / W k.D X   $X5XR.b 3X|.yX^.$X3X|.yX5X/.&X",
"+X&X6X-XU._.$XU.p 4XW.E.O   _ G ,.L (   XXO X ( l.e.q.,.<.:.>.<.;.>.>.[ A 6 3 >   Q.o D / a.G H   X G.I.:XI.7X~.&XpXU.xX,X5X|.&X",
"G.8X-X,X+X&XT.g =XI.T.o   / z.M.&.3 V o &Xr   K w.M.,. .[ A } R } T [ @.7 >     Y.=.o ) 3 %.i.x.P     4Xi 2X].^.pXZ.$X3Xx 7X|.&X",
"7X=X5X&X&X,X+X-Xc E.o J F A w.n.:.} G   2X$X  J g.<.A I Z ' Z G _ A A @.7 = X /.A.yX  I } >.M.M.Z K J O ,X;Xb eXn (.,XY.xX+X(.(.",
").U.&X&X~.*X&X*X(.{.  J B.B.1.r.a...X.J # :X  X e. .6 J     o X X Z |  .6 X ,Xe ,X# G o.#.6.x.z.m.a.` o 5Xm uXM Z.6XW.&X&X&X&X(.",
"~.3X&X|.).(._.&X$Xw X ( y.t.c.c.a.! { G   !.<X  l.X.7 D @ F.pX;X  / <. .8    X7X=.  L { ..<.r.9.u.#.Z   $X%X*XA.,XU.(.3X5X,XG.yX",
"3X-X&X|.3XU.+Xn =X Xo F i.V.e.j.4.X.L ( X &XR.o h...3 I O 8X*X=X. / n.#.S   ).[._.  U G %.M.M.6.v.M.Q X lX{.&X;Xn /.,XyX&X4X2XU.",
"*X*X+X,XY.=XY.|.;XOX@ ) C A i.q.Z L (   -XY.oX  >...s.C o ,X[.[.  / 6.#.&.o aX{.<XQ.  D V Z b.,.G P ( @ Y.5X=X5X+X6X5X&X,XG.&X7X",
"+X=XT.=X*X&X5XI.$X=X$X  X ) J K ( X X >X/.<X/.  %.9.z.S   1X5X#XX 6 n...6 o a kX X{.7Xo @ _ >.J _ o   &X6Xu gX>X_.,XyX5Xn 6Xd &X",
"|.,X*X).+X$X+X6X^.y >X-X{.@     @ :XU.XX:Xm ,XO 6 v...7 X 1X-X^.  8 m.X.9 . 3X(.;X XiX[.eX        oXrXa [.,X9X4X|.&XG.yX+XW.zXf ",
"&XY.(.5X(.|.$XG.yXU.3X_.&X*XM 5X!.>XyXM |.6Xt   1 > > , O c uX`.X 5 4 > 8 . lXyX8X$X*X7Xa ,X&X/.hXZ.T.yXn aX8X5X/.$X,Xw ,X|.T.jX",
").-XW.+X,Xn -X&XM ).*X&X/.).6XZ.,X=._.pXZ.Q.0X  > 7.:.2   2Xl ;X  < 2.<.> X gXuX_.,X3X=X5Xg |.=Xb gX=XT.8X,XT.h hX$X9XyXa |.*Xx ",
"Z.,X,XZ.,X5Xb 6X&X3X).T.$X&X3X$X(.,X/./.:XOXo 3.p.l.V.y.<   9X  I ,.c.n.x.f.X +.Z.aXW.8X5XhXw +X6Xw jX).5X_.U.kX|.8X5X=X8Xq |.8X",
"&XZ.=XyXM T.=X).(.M Y.8XT.8X$X=X&XR.9X&XS.X K ; s.0 ^ ; U C O ( U : A : >.: P # kXU.3X*X-X8XyXw -X5X,X_.5XI.|.|.I.gX/.5X5XyXd |.",
"5X=XT.I.8X_.,X_.).~.5XI.`.*X$X$X*X=Xe =X X%X@ X   O O   o   @X  o   o o X O   ;XM T.6XU.kX5XyX6XZ.8X|.$Xm `.~._.kXI.*X$X$X*X9XU.",
"=X*X=X*XG.$X|._.v 3XG.I.&XY.8X$X{.>XiX/.[.-Xc p *X!.}.!.Y.uX!.5X0X>X[.|.0Xe aXH.Z.gXT.yX*X_.*X9X|.&X*Xf W./.W.8XI.Z.5XZ.kX|.+X).",
"~.,X=X*X$X=X$Xr 5XI.c 6X/.).*Xb <X&X&X X[.R.c {.I.E.E.`.hX=.&X X`.<X}.oXM iX!.x gXI._.$XT.jX|.yX,X|.gXT.5Xu 7XZ.U.yXZ.=X=XM 8X|.",
"=X+X_.,X_.+X_.|.I.d -XT.G./.T.7XE.,X`.%X X|.{.w  X.X'.4XA.T.0XG.6X%X XzXaX4Xb 1XM T.=X$XgX(.T.8X,X*X,X8XZ.$X(.n 8XZ.U.$XI.xX$X|.",
"+XG.7X_.+X=X*X).b $XM Z.|.)._.T.Z.=X/.(._.=X~._.@Xh 3XG.G.9XY.*X X&X).8X8X6X5XM T.,X(.,XT.Y.aX,X*XI.I._.|.$Xb =XZ.M =X).*X5X|.|.",
"_._.+X&X_.oX/.$X-Xm ).|.M ).U.Z.,X|. X~.~.Y.W./.e +X^.n ,XM M *X,X(.=Xn 5X$X$X~.6Xb $X_.I.zX8X+X-X,Xw |._.*X+X).b 3Xn ~.6X=X&X|.",
"T.-X_.$X-XM T.m ).|.(.v _.T.I.=X).~.).(.U.|.Y.T.n ).v &Xb m $X+X|./.,X*XF.hX$X(.T.7X-XU.yX5X3X=X~.(.,Xd &X(.*X|.7Xh =X,X=X$X9X~.",
"(.,X&X_.&X+Xm *X+X)._.).W.x /./.W.|.W.W.(.x _.~.^.H./.I.U.|.|.(.*X,Xx |.=Xn hX|.*X,Xd 3X=X7X3XG.yXx ).yXe _.|._.*X_.&X9X=X,Xd yX",
"|._.(.,Xm |.5Xx 6X.X~.Y.d (./.W.W.Z.).G.(._.b ).W.G.~.U.=X&XW.+X(.~.5Xg _.5Xa xX).&X+X5X+X|.7X,XU.gXh ).zXb |._.|.-X7X*XZ./.8Xn ",
"(.,X).).3XI.|.6Xa F.Y.Y.W.Y.W.Z.&XG.U.~.Z.G.).x q Q.M ).)._.&Xb =Xb ).6Xg T.&Xf xX*X*X3X8X9Xx 6X(._.8XU.I.gX*X8X|.*X).7X*Xh ~.8X",
"3XI.3X~.|.5Xb ).,Xe ^.R.Z.Z.|.Z.x |.I.G.(.W.e W.Z.G.H.Y.(.Y.,XU.).-Xm |.3XZ.`.8X=X*X&X&XG.,X8Xb |.3XM kX=X).7XyX,X+X,X|.I.8Xw ).",
"5X|.+X5XZ._.6XF.c Y.W.Z.Z.U.b U.I.b |.M x Z.T.i G.H.H.G.Y.|.e &XZ.).=XU.I.=X_.yX3X-X&X&X3Xd ).8Xf $X5Xw gX*XaXT.M 3X&X-XU.).yXd "
};
