/* XPM */
static char *mike_certo_right1666002480[] = {
/* columns rows colors chars-per-pixel */
"64 64 248 2 ",
"   c #010302",
".  c #0A0101",
"X  c #010A01",
"o  c #02020B",
"O  c #05070A",
"+  c #120003",
"@  c #001100",
"#  c #010312",
"$  c #040018",
"%  c #031818",
"&  c #113A0A",
"*  c #021A27",
"=  c #02122D",
"-  c #142F2E",
";  c #194314",
":  c #16440C",
">  c #255419",
",  c #18641B",
"<  c #2B6F1C",
"1  c #1F7724",
"2  c #2B7728",
"3  c #336F29",
"4  c #265624",
"5  c #527930",
"6  c #4B6A2C",
"7  c #091744",
"8  c #2F7F74",
"9  c #54565B",
"0  c #5A5A5E",
"q  c #545558",
"w  c #4B4F4F",
"e  c #696B5D",
"r  c #5D5D64",
"t  c #5F6065",
"y  c #616266",
"u  c #64656A",
"i  c #66696C",
"p  c #6A6A6E",
"a  c #686C65",
"s  c #6B7469",
"d  c #727868",
"f  c #6C6D72",
"g  c #656A74",
"h  c #6D7177",
"j  c #717276",
"k  c #75767A",
"l  c #77787C",
"z  c #797A7E",
"x  c #7C7978",
"c  c #706F75",
"v  c #847C7C",
"b  c #2D8B1A",
"n  c #378928",
"m  c #399A2A",
"M  c #378839",
"N  c #3B9B36",
"B  c #2B8D29",
"V  c #39A629",
"C  c #3AA633",
"Z  c #33A92D",
"A  c #3FAF1C",
"S  c #58941C",
"D  c #4E9019",
"F  c #4A8727",
"G  c #5B8A24",
"H  c #538C2A",
"J  c #5C8C2D",
"K  c #568827",
"L  c #4A982B",
"P  c #53922B",
"I  c #599426",
"U  c #458935",
"Y  c #588A38",
"T  c #5B9536",
"R  c #4E9937",
"E  c #658B2E",
"W  c #649C34",
"Q  c #639133",
"!  c #45A72C",
"~  c #59A528",
"^  c #42A534",
"/  c #45AB34",
"(  c #4AAA38",
")  c #48B336",
"_  c #5AB937",
"`  c #50B330",
"'  c #69BB3A",
"]  c #6AB32F",
"[  c #64A11C",
"{  c #5BC32F",
"}  c #69C637",
"|  c #75C53A",
" . c #77D63B",
".. c #6ED032",
"X. c #75E632",
"o. c #3D9C40",
"O. c #549444",
"+. c #668F45",
"@. c #47A840",
"#. c #57BA44",
"$. c #67BC44",
"%. c #72BD40",
"&. c #7C857C",
"*. c #6DC846",
"=. c #6DD544",
"-. c #78DA47",
";. c #79C84B",
":. c #7EF148",
">. c #72E748",
",. c #5BC048",
"<. c #84DD3C",
"1. c #8AD539",
"2. c #8BE53C",
"3. c #84EC3C",
"4. c #8CEB3D",
"5. c #87E937",
"6. c #93E63C",
"7. c #92EC3D",
"8. c #97E937",
"9. c #8AF13D",
"0. c #95F53C",
"q. c #8BEA2D",
"w. c #84867B",
"e. c #85CD43",
"r. c #87DA45",
"t. c #93D74A",
"y. c #93DF56",
"u. c #A6DA55",
"i. c #84E344",
"p. c #8CE443",
"a. c #85EC43",
"s. c #8CEB44",
"d. c #8CE54B",
"f. c #8CEB4C",
"g. c #84E84B",
"h. c #92EC44",
"j. c #92E64B",
"k. c #92EC4A",
"l. c #99E847",
"z. c #8CF242",
"x. c #83F345",
"c. c #94F244",
"v. c #98F749",
"b. c #8BEC53",
"n. c #88E857",
"m. c #95E855",
"M. c #88F454",
"N. c #94F253",
"B. c #98F456",
"V. c #A4F253",
"C. c #A2FA61",
"Z. c #94F061",
"A. c #457A9A",
"S. c #7C7D82",
"D. c #7A7881",
"F. c #726C88",
"G. c #827987",
"H. c #837E92",
"J. c #30A2BC",
"K. c #7F8085",
"L. c #798887",
"P. c #7F9191",
"I. c #349CCC",
"U. c #35A3D2",
"Y. c #4096C5",
"T. c #818286",
"R. c #84858A",
"E. c #86898C",
"W. c #898A8E",
"Q. c #878A84",
"!. c #8C948D",
"~. c #8C8D92",
"^. c #848392",
"/. c #978B9A",
"(. c #8E9094",
"). c #8B939A",
"_. c #919296",
"`. c #959A96",
"'. c #94959A",
"]. c #97989C",
"[. c #999A9E",
"{. c #9B959C",
"}. c #96958B",
"|. c #A29C9D",
" X c #A59D8F",
".X c #9BA299",
"XX c #9AB19A",
"oX c #A3A69B",
"OX c #9C9DA2",
"+X c #9D9CA9",
"@X c #9597A4",
"#X c #9692A8",
"$X c #A49BA8",
"%X c #A99BB4",
"&X c #9FA0A4",
"*X c #9DA4AC",
"=X c #9DA2B2",
"-X c #99B2AE",
";X c #A1A2A6",
":X c #A4A5AA",
">X c #A7A8AC",
",X c #A9AAAE",
"<X c #A7A8A6",
"1X c #B2A8A9",
"2X c #A9B2AB",
"3X c #B7B7AD",
"4X c #ACADB2",
"5X c #A7A7B6",
"6X c #B3ABB7",
"7X c #AFB0B4",
"8X c #A9B4B8",
"9X c #B1B2B6",
"0X c #B4B5BA",
"qX c #B7B9BC",
"wX c #B9BABE",
"eX c #B8B8B6",
"rX c #C3B7BA",
"tX c #B4C9AC",
"yX c #C4C6B7",
"uX c #BCBDC2",
"iX c #B6B6C2",
"pX c #AFB0C7",
"aX c #C3BBC8",
"sX c #C4BBD4",
"dX c #BFC0C4",
"fX c #B9C1C5",
"gX c #97CFEC",
"hX c #9FD0E1",
"jX c #C2C2C6",
"kX c #C4C4C9",
"lX c #C7C8CC",
"zX c #C8C9CB",
"xX c #CCCDD1",
"cX c #C7C7D9",
"vX c #D2D3D7",
"bX c #D4C5C8",
"nX c #C8EAF8",
"mX c #D5E5FA",
"MX c #D5E7E9",
"NX c #FAFDE8",
"BX c #EEFBFE",
"VX c #FDFDF5",
"CX c #FEF5FF",
"ZX c #F4FDFE",
"AX c #FEFCFE",
"SX c #F7FAF5",
"DX c #EEF7F1",
"FX c #E0F1E9",
/* pixels */
"D.4X'.'.'.&Xy ,X~.k 0XW.'.;XR.4XOX:X:X&Xk :X(.j 4X_.[.~.W.9XOX;X[._.OX0Xj K.>X'.9X~.OX4X@X,XW.<X~.'.r >XR.K.wXT.qXOX:X;X:X4Xw :X",
"qXz iX;X(.'._.@Xq ,Xf &X[.W.0XE.0X;X;X:X9X[.T.<XS.;XE.T.9XE.jX:X].>X9X7X&X&XS.7Xk R.>XR.kX;X!.[.;X].>X].c :XT.[.W.S.7X>X~.OXE.~.",
"S.[.&X[.~.OX'.E.&Xu OXR.K.7XE.'.:X,X].>XOX[.7Xy 9XE.S.wXW.[.;X'.@XOX4X9X:Xg >XS.k :X~.9X:X>X:XR.OX;X>Xj OXk _.E.l uX:X;X].R.f >X",
"_.OX:X[.OXD.y ~.'.OX&XD.7XD.(.:X;X[.&XK.W.'.].[.[.i >XT.;X:X:XOX,X[.'.aXOXOX_.~.>XS.7X4X>X;X[.[._.W.OX|.S.,XOXi 9X<X4X;X7X;Xl ~.",
"OX;X:X@X@X<XG.'.$X>XT.4Xk ]._.qX:X,X(.7Xj $X;X;XS.7Xk OX:X>X<X,XS.9X(.&X9X[.~.9Xi 7X*XOX'.;XK.4X;X[.:X].'.:Xr :X;X<XW.,XE.:XwXj ",
"OX&XS.4XE.'.:XT.:X'.[.[.,X>X4X>X_.4XOX[.,XS.:X;X(.].:X9X4X7X,X_.0XD.>X].R.0X@X>X9X9X$X7X9XW.iXD.,X4Xu ;XOX:X4X9X,X9X,XT.7XW.].9X",
"OX&X>X'.:XE.:X4Xy W.[.>X9X7X;XT.,XW.:XiX'.7X~.l qX].4X7X$Xz ;X;X:X0XS.OX>Xj qX$XOX7X$X).>X7X_.:X~._.iXy OX4XOX'.4X_.;X>Xz ,X].W.",
">XK.'.OX@X<X(.~.:Xj >X:X,X[.jX@X&X:XR.&X7XS.4X[.:X[.<X4X'.9XR.;X].@XuX(.[.,XdX;X>X4Xk 0XR.+X0XR.9XOXl 7XuX;X:X7Xj 4X'.,XaXf ,X,X",
"D.9XD.[.4XD.9X;X~.].4X;X:X4Xz :X&XpX9X&.$XiXW.2X,X^.;X4X>X@XuXv [.,Xp kX$X4X0XP.4X[.0XG.<XK.=XfXj 4X;X4X;X_.,X,X4Xj ,X'.'.aXz jX",
"'.~.7XT.OX>Xj 0X'.K.i 4X@X4X4XS.`.:XK.3X;X  :X5Xu 0X$X[.&X`.!.wXw.[.qXW.oX;XS.8X=X    7Xa 3X'.i 7XOX>X4Xz jX[.,X,XwXi '.qX9 jX[.",
"7X>XR.:XE.~.:XW.OXl OX>X_.4X&X7Xx [.>X&.  s X o ).oXF.. O O o $ o # # X X G./.O o s d O wXt ,X;X[.,X;Xz @X[.R.>X'.4X4XE._.qX[.&X",
"4X&X4Xr qXOX;X;Xl ~.OX'.iX'.kX>X0XW.'.=Xo s d e X }.$ J D S ~ F S P H S +.X ].  e yXs # 5X9XQ.iX,X:Xj OXE.E.qXS.zX;XwX0X].,X;X&X",
"OX&X].4X].&XOXi K._._.iX'._.>X>X;X,X*X=XX e 3XzXj . X B.v.9.v.v.c.v.v.V.I X # e jXtXd   5X,X;X&X:Xu 7X(.k iXW.0X:XR.:X:X,X;X,Xw ",
"D.>X>X:XOX:Xj @X'.S.uXR._.0XT.iX;X2XOX$XX d jXuXjX. X m.f.k.m.h.N.i.p.C.Y X o yXsXaXd   OXuX>X<X4X'.:Xu 9Xz _.'.(.0XE.vX<X&XwX;X",
"iXW.4X_.@XOX>X&X0 7XS.K.:X'.uX'..X&X$X>X. s jXtXt.e.e.2.z.x.i.f.g.a.x.s.r.e.t.t.tXtXc   W.0X,X'.wX;Xk 4Xp ~.>X_.9XE.[.0X7X{.4X4X",
"R.'.OX>X'.OX&X:X4XD.~.OX_.0XR.T.pX<X$X:Xo h tXu.x.0.7.j.j.2.c.2.7.z.2.a.9.7.3.s.u.tXF.  jX$X7XOXT.&X[.$X'.,Xj wXz S.0X;X(.4XR.E.",
"~.:X>X@X:XR.g OX:X_.4Xf qXR.S.7X-X@X4X+X$ m { M.s.k.5.g.h.m.2.7.j.x.9.n.0.:.a.l.b.B.P . 1X5X#X7Xl '.[.;X4Xi qXz k iXqX>X'.qX]._.",
",X5X5X_.4X$X(.@X;X&Xf qXT.S.7X4X|.+   X X | j.p.b.6.m.5.h.j.x.VXSXSXAXVXCXa.6.p.3.4.P o X o X L.0Xz OXOX'.:X_.T.0X7X,XOX9Xz 7X<X",
">X:X'.>XR.~.>X(.9XOX[.[.W.>X,X>X&X  3 n @.:.i.4.N.p.j.N.5.f.AXCXCXDXVXAXCXCXj.x.8.m.0.K P J X 9XE.4XE.S.0XOX;XwXwX>XwX7XW.0Xk OX",
";X4XOX+X4X~.{.4Xr ,X[.:X$X;X4X_.4X  4 n Z i.N.h.h.q.a.2.j.AXSXVXCXmXnXnXVXNXZXm.9.n.4.m.~ E . $XwXf 0X,X9 4X;X9X,X,XE.,X7X[.wXT.",
":XS.,X[.4X4XT.'.:Xu ,X>X>X;X4X    X > n ) l.y.c.7.s.:.f.CXVXAXSXgXU.I.J.hXVXNXAX6.n.9.2.` 5     '.iXK.>X7X9X>X9X,Xk qXk 7X,Xp jX",
"@XwX~.;X;X'.0X@X@X4X,X:X;X4Xk o & 3 n m V r.N.q.b.f.:.VXAXAXAXgXA.% * * A.gXCXCXVXj.y.X. .I E X   j uX@XiX&XW.0X:X0XR.qXj $XwXj ",
"z ].0Xz OX4Xi 7XOX;X~.@X4X>X9X  > ^ ( ^ ! <.N.s.a.f.u.ZXVXAXMXI.* X X   * I.nXAXAXp.B.6.v.V...P   >X>X9XR.k zX[.0X,XwXz uX[.R.wX",
">Xk :X0Xf [.:X,X,X&.G.0X_.wXOX  & C C m ` 2.d.s.v.q.q.CXCXZXnXU.= . O . * U.mXAXCXf.4.s.k.v.' I   uX$XOXE.0X~.].4X<X0XqXy wX;XqX",
"$X>XS.z ,XS.,X:XW.W.eXW.4X>X;X  ; ^ ^ C / i.f.p.M.p.8.ZXAXAXmXI.7 . . O = I.mXZXCXk.X.q.N.v.] Q   ,X>Xz [.E.W.qXT.xX,XjXwXz qX9X",
",X<X,X;XE.;X;XW.c 9XE.E.4XG.0XX ; ( ^ m C 2.f.h.5.M.l.CXAXBXBXgX8 - * % A.hXSXVXAX6.d.l.a.v.' P o [.r ,XW.R.kXQ.0X;X_.kXwX,X9X9X",
"E.wX:X,XOX,Xz 9 ,X~.x ;X[.wX{.  ; ^ C N ( i.f.h.7.b.q.NXAXSXAXZXgXI.I.U.gXVXBXSXNXB.n.m.s.v.*.P   R.;X$Xp qXE.'.4XW.jX].wX9XqX<X",
",X,X;X4X>X'.p 4Xu T.oX_.4XS.^.o ; ^ ^ m ) p.f.4.h.d.N.k.VXVXCXAXAXmXmXmXAXCXAXVXl.4.5.5.N.v.' K O iX4Xp 9Xl (.;X[.9XW.[.,X<X>X>X",
"_.z 7X:X[.:X:X_.$X5Xv 4XE.~.9X  ; ( ^ m ( i.k.c.h.2.b.2.7.CXCXAXZXAXSXDXCXAXAXs.f.f.x.3.2.c.} S   @X:X>X'./.;X~.jXE.l dX7X,X_.'.",
"(.uX;X;XOXE.~.(.>Xj ,XW.S.,X`.X & ! ^ m ^ r.f.h.x.f.2.M.6.l.BXVXCXSXCXAXSXAXq.N.f.8.b.N.h.C.' P   W.f $X@X0Xf 0XT.j qX:X'.;XqXp ",
"0X;X:XW.,XT.].<X>XOX,Xc :X~.Q.X > V V ^ ( i.f.2.a.j.f.5.N.6.g.NXAXVXAXSXFXv.:.X.f.8.2.s.0.B.| E   ;X(.qX>X5X4X>Xk 0XiXOX4X0XW.xX",
";XOX,X,X~.,XT.;X>X*X;X4Xl ;XX w 3 ) V C / p.N.4.7.f.p.M.q.j.3.j.k.3.f.k.8.t.k.j.b.8.j.i.%.F K     *X>XD.iX4X,XR.iXqX+X6XS.4XwXT.",
",X:X_.:X(.>X,XS.6XoX+X4X>XpX. b #.2 V C C  .5.s.j.p.s.h.f.s.s.2.s.g.n.a.5.s.f.s.x.k.8.r.W G O o 0Xj +X4X9 aX:X,X9XqX4XR.iXj ;X9X",
":X&X4X].>X<XOXqX(.T.5X>XXX=X+ B B @ 3 n ( { r.m.s.c.h.s.s.s.f.s.4.d.f.s.4.f.s.4.k.p.c.i.~ T   {.'.uXk @XuXuX9X0X;X(.kXOX].kXi ;X",
",X~.(.9XE.$X9XK.8XW.5X2XoX8X. b n   4 b ^ ^ | M.s.s.5.4.s.s.f.s.3.s.a.7.h.f.j.7.k.3.B.7.~ D @   OXE.vX[.xXzXqX<X>X4Xu >X'._.iXS.",
"z 7XW.].qXS.;X7Xk eX:X#X. o . R 2 .   < 2 m ,.}  .d.s.k.h.k.j.s.b.k.h.7.h.d.f.f.3.B.*.K F 5 +.  9XwXy uX0X,Xt zX:X4XuXy '.>Xk xX",
"[.[.7XK.,XjXz 9X$X|.s X > C V A . fXX X .   M A ! -.g.f.p.h.h.s.f.h.7.k.s.:.i.4.7.6.5 F 3 1.W   f ,X9XwX,Xz >X9XE.4X0XzXr @X9Xw ",
",XOX[.9X~.S.;X;XOXp R.o 2 V M $ $XQ.aX#X#XO 2 ! C ` } d.s.s.s.s.9.7.2.s.a.3.c.p.K J U T ~ <.D $ jXE.:X<XS.T.7XW.vX'.lXOXqXk (.,X",
"4X:X,Xp 9X[.4X,Xz S.9X  , V n . ,XXXp 2X%X  , L C m ! b.d.d.i.g.a.2.p.d.f.v.t.J o O X S ' g.K o   :X9XT.k 9X[.wX~.>X6X@XuX0X_.:X",
";X<XqX:XE.[.;XR.i ,X!.. 4 L V 2 o . 6X.X.Xo & 3 B n ` -... . . .;.-.r.s.4.d.T X X G.X H R e.[ K     z Q.,XT.qX_.&XuXT.vX4X9XOX:X",
"K.wX,X4XOX:XW.i <XT.~.  > C _ -.]     OX$Xw     & 2 ! C R / C ! Z C _ r.9.2.Q X E.w.  J 6 ' c.f.H o   8Xr 1X`.).kXz ;X9Xg wX[.,X",
"wX,X0X;X:X4X;X>Xh /.X , _ -.1.N.y.] X   iX+XXX. & n ! ! ! H Y P K W F O.=.0.Y o D.sXX P ~  .v.N.R J E X 9XeXj wXk '.,XW.vX;X'.'.",
"].E.;X:X_.:X:X,X(.,XX N  .z.c.g.7.v.Q X >X8X=X. : 2 @.( F X o X   X R 2 ) z.G o 6X$ S ( _ g.x.7.0.C.K   qXd eXz D.0XW.:X:X>X;X[.",
"(.9X;XOX].'.[.:X<Xq   O.} d.v.d.f.M.F   |.P. X  & 2 *.*.J   sX9X%X  K B { p.E O K.  H _ _ =.z.l.5.M.S   '.5XiXS.4XE.'.9X0X,XG.wX",
"7X,X<XOX7XR.$Xk *X*X  M =.:.2.l.l.M.T X {.|.).o : 1 { v.E   :XoX1Xo H 2 _ v.I X ].X J L ' p.x.p.B.3.I $ kX&X5X<Xz _.,XdX:X7X7XK.",
",X:XOX4XE.,XE.[.fX@X{.@ R =.X.c.r.F X Q.;X/.o , < ,.{ H X   :X5XX G ! #.} G O   5XQ.X J E U g.0.H T E   R.qX,X2X&X9X0X>X4XK.:XiX",
"OX4X~.4X,X:X9XR.|.>X:X|.X M m ;.~ + [.2X_.$XO ` $.r.I   o ,X;XX U } _ 2.Y X $ bX$X X0X# X E P Y J X X >XeXe tX4X].,XiX9Xl qXi ;X",
"OX4X:X].OX;X.X0X_.p <X:X$XO . .   5X^.{.rX  } >.] G   pX].6XO K *. .W S O 1XoX@X4X+X5X.X3X. O   X /.rXg '.4XiXpX[.,XT.uXOX~.zXi ",
"<XR.[.9X'.[.<XS.uXE.9XOX;X:XS.9X'..XuXv   T ..a.} G . o   X O K | 2.] O.X .   X X $X1X3X0 8X&X_.zXS.W.uXk rXfX9X_.;X,X0 9XOXE.zX",
"'.>X~.OX4Xk :X>Xk {.:X;X_.[.0XS.7X&.*XsXX F -.f. .P O.Y P H Y X F N. .D Y Q F T +.  %X7X3Xg @X1Xj jX,XW.qX9XE.p kX;X9XuXy OX:Xf ",
"S.4X4XS.4X9Xk 9X:X7X].W.;X;X7X;X@X2XW./.X H } 2.6.B.i.5.k.0.[   W m.c.2.j.h.7.s.K X ).iX9XfX9 ,X0X0 lX'.9X[.E.xX[.qX9X,XwX9 &XwX",
":XS.,XuXz W.,X].'.S.E.wX~.wX;X4X$X&.qX1X  +.H W Y H I J J I 5 . X Y K J F W F H Y X iX:X4XfXjXq :X9X4XOX9XR.[.[.R.jX'.9X9XuXy OX",
"9X,XW.R.qX[.7X[.[.~.9XT.'.:X<X;X7X<X0 <X$XX X     X   X     o 8Xo X     O   X   . '.1X&.vX5X0XiXS.wX&X;Xz _._.].zXT.,X;X;X<X0XE.",
",X:X4X:XK.;XOX[.f 9XS.E.;XE.wX;X&X;X>X`.$X0XF.y $X/.$X`.R.uX(.2X,X&X:XOX6X0 aXv H.0XQ.jX5X'.2X9X;X:X:Xu W.].W.qXT.S.9Xz xX[.;X'.",
"_.4X,X:X;X,X;Xw 9XT.f 0X_.'.:Xj ,X<X>X.X'.Q.p oXQ.@X_.!.jXR.:X[.`.>X+X>Xk 0X~.j aXG.oX<X~.xX.XuX,X&XkXW.9Xy qXK.E.uXS.,X,Xz wXOX",
",X;X[.4X[.;X[.[.E.y :XW.T._.~.wX}.,X#X+X=X&X;Xq '.!.).6Xv ~.8Xx tX$X%XaXdX9Xh 8Xd '.5X`.zX_.W.wX4X:X,XwXz ;X'.l wXS.E.;XT.vX;XOX",
"&XK.qX&X$X>X>X'.j $Xz K.[.].[.W.S.4X_.'.@X,X_.[.OXg 7XL.S.0XW.;XOX>X'.wXwX0X9Xz ~.4X_.,X_.E.jX,X<XE.T.@XOX:Xj ,XS.z 4X'.:X9X$X.X",
"[.].&X:X[.;X'.OX;Xl '.OXz ].E.K.,XOX[._._.E.W._.q &X_.k 7XD.S.<X4X@X4Xl 9X;X:X(.9Xj ;X@XT.xXqX;X<X,X0 |.[.:X;X[.j 4Xk _.qX,X;XOX",
"W.:X[.;X:Xz ~.z [.[.].j [.W.T.>X[._.[.'.R.[.W.W.k ].c :Xk k ;X;X{._.4X:XS.kXOX'.~.0X<XE.wX0X,X,X_._.7Xy :X'.>X[.wXf ,X,X,X;X0X_.",
"].,X;X[.<X;Xz :X&X].[.].~.p _._.W.@X~.~.'.p [.'.~.E.(.R.T.OXOX'.>X4Xf OX4Xl kXOX,X4Xy 4X,XqX9XT.uXf ].wXq ].OX[.,X'.:X0X>X7Xy uX",
"[.[.'.,Xz OX9Xp qX'.(.^.y '._._.(.D.{.T._.[.j [.~.L.).R.,X;X~.;X'.(.9Xi ].0Xr vX'.:X;X9X&XOXqX,XR.jXg '.xXj OX[.;X>XqX,XS._.qXk ",
"].7X[.].4XT.[.qXy T.E.W.~.E.~.z <XT.E.(.z T.[.g 9 E.D.].{.[.:Xk >Xk [.0Xi W.<Xu vX>X:X9XwXeXf 0X'.OXwXE.T.jX>XwX[.:X].qX,Xp _.wX",
"9XR.9XW.OX9Xj @X4Xw _.R.S.S.OXD.g [.T.T.'.(.q ~.S.L.L.W.'.E.,XE.].<Xl [.9Xz '.wX4X,X<X:XT.4XwXk [.7Xz zX,X].qXwX,X:X4X@XE.uX0 '.",
"9X[.;X0XT.[.0XS.f ~.(.D.K.T.k R.T.j OXz f S.E.r K.^.K.S.E.OXq :XS.].,XR.R.,X[.uX7X>X;X;X9Xy '.wXi $X0X0 kX<XjXE.z 9X;X<XR.'.uXy "
};
