/* XPM */
static char *mike_certo_left1666002480[] = {
/* columns rows colors chars-per-pixel */
"64 64 248 2 ",
"   c #010302",
".  c #0A0001",
"X  c #010A01",
"o  c #01020B",
"O  c #08040C",
"+  c #120108",
"@  c #021304",
"#  c #010112",
"$  c #050415",
"%  c #021815",
"&  c #143616",
"*  c #031827",
"=  c #0E102C",
"-  c #223C1D",
";  c #1A4315",
":  c #124B0E",
">  c #21451C",
",  c #265319",
"<  c #287A15",
"1  c #2A6B19",
"2  c #2E5B2A",
"3  c #37682D",
"4  c #337325",
"5  c #2C6E2E",
"6  c #1D690E",
"7  c #537E28",
"8  c #4E7A18",
"9  c #54565B",
"0  c #5A5B5F",
"q  c #525458",
"w  c #4D4F51",
"e  c #6C765D",
"r  c #5C5B62",
"t  c #645A6C",
"y  c #5D6165",
"u  c #616266",
"i  c #65666A",
"p  c #66696C",
"a  c #6A6A6E",
"s  c #6A6A66",
"d  c #757868",
"f  c #6C6D72",
"g  c #6F6570",
"h  c #6D7278",
"j  c #717276",
"k  c #74757A",
"l  c #77787C",
"z  c #797A7E",
"x  c #797876",
"c  c #736B71",
"v  c #5A605C",
"b  c #2A941C",
"n  c #378728",
"m  c #399629",
"M  c #3A9D31",
"N  c #359735",
"B  c #2F8D2D",
"V  c #3EA52E",
"C  c #38A827",
"Z  c #3FA531",
"A  c #38A737",
"S  c #3EA41C",
"D  c #4E881C",
"F  c #538C1B",
"G  c #4F9418",
"H  c #64951D",
"J  c #54A61D",
"K  c #488729",
"L  c #5B8D25",
"P  c #5C8D2C",
"I  c #548929",
"U  c #499727",
"Y  c #579627",
"T  c #458B37",
"R  c #598C36",
"E  c #589537",
"W  c #4A9832",
"Q  c #63962A",
"!  c #628A39",
"~  c #639635",
"^  c #668F2F",
"/  c #45A62C",
"(  c #41A531",
")  c #4AAB35",
"_  c #47A838",
"`  c #59AA36",
"'  c #58B936",
"]  c #4FAD30",
"[  c #67BB38",
"{  c #6AAF32",
"}  c #61AF1E",
"|  c #56C134",
" . c #6BC739",
".. c #75C838",
"X. c #6CD53C",
"o. c #76D63A",
"O. c #6BC82D",
"+. c #7EE531",
"@. c #659145",
"#. c #56BB4A",
"$. c #48A743",
"%. c #66BC44",
"&. c #78837D",
"*. c #76CA47",
"=. c #7AD643",
"-. c #68D246",
";. c #7DE449",
":. c #5DC344",
">. c #87DC3E",
",. c #92D935",
"<. c #85E43C",
"1. c #89E53B",
"2. c #8CEC3C",
"3. c #87EB38",
"4. c #92ED3C",
"5. c #94E63B",
"6. c #8CF23C",
"7. c #85F237",
"8. c #94F83B",
"9. c #8BEC2D",
"0. c #84857D",
"q. c #8DD74E",
"w. c #84E243",
"e. c #8BE544",
"r. c #86ED43",
"t. c #8CEB45",
"y. c #85E44D",
"u. c #8BE54A",
"i. c #86EC4C",
"p. c #8CEB4B",
"a. c #92EC44",
"s. c #93EC4B",
"d. c #97E749",
"f. c #8DF144",
"g. c #89F547",
"h. c #93F145",
"j. c #93F24C",
"k. c #9AF848",
"l. c #8DEB53",
"z. c #8AE752",
"x. c #93EB52",
"c. c #99EA57",
"v. c #8CF553",
"b. c #96F555",
"n. c #A3F859",
"m. c #A3EE4C",
"M. c #A3D864",
"N. c #3F7A8D",
"B. c #3A79A2",
"V. c #7C7D82",
"C. c #767682",
"Z. c #49799D",
"A. c #837985",
"S. c #807F91",
"D. c #26A6BB",
"F. c #7F8085",
"G. c #7F878A",
"H. c #7E8190",
"J. c #499EBB",
"K. c #319BCE",
"L. c #2BA4C3",
"P. c #35A2DA",
"I. c #818286",
"U. c #84858A",
"Y. c #86898C",
"T. c #898A8E",
"R. c #888685",
"E. c #94978D",
"W. c #8C8D92",
"Q. c #888596",
"!. c #948D93",
"~. c #8F9094",
"^. c #8E9198",
"/. c #919296",
"(. c #94959A",
"). c #97989C",
"_. c #999A9E",
"`. c #999798",
"'. c #918E87",
"]. c #A39B96",
"[. c #9AA69C",
"{. c #93AB9B",
"}. c #A6A79B",
"|. c #9C9DA2",
" X c #9899A6",
".X c #9294A9",
"XX c #A69CA6",
"oX c #A59EB3",
"OX c #9FA0A4",
"+X c #99A3A9",
"@X c #9FA1B0",
"#X c #A1A2A6",
"$X c #A4A5AA",
"%X c #A7A8AC",
"&X c #A9AAAE",
"*X c #ABA5A8",
"=X c #ABB3AA",
"-X c #B5B4AD",
";X c #ABA5B3",
":X c #A5ADB4",
">X c #ACADB2",
",X c #A6A7B5",
"<X c #B2ACB4",
"1X c #B2AABA",
"2X c #AEB1B4",
"3X c #ABB7B9",
"4X c #B1B2B6",
"5X c #B4B5BA",
"6X c #B7B9BC",
"7X c #B9BABE",
"8X c #B8B9B5",
"9X c #B3A9A7",
"0X c #C5BCB8",
"qX c #C0BEAF",
"wX c #BDC1BB",
"eX c #AFC5AE",
"rX c #C2C4BB",
"tX c #BCBDC1",
"yX c #B9B7C6",
"uX c #AEB0C7",
"iX c #C3BCC7",
"pX c #C7BCD2",
"aX c #BFC0C4",
"sX c #BDC4CA",
"dX c #ABC6C7",
"fX c #9DCBE4",
"gX c #A5CBEB",
"hX c #BDEDEF",
"jX c #C2C2C5",
"kX c #C3C5C9",
"lX c #C7C8CC",
"zX c #C9C8CC",
"xX c #CACBD1",
"cX c #D2D3D7",
"vX c #CBD0D6",
"bX c #F0FDD7",
"nX c #C9E5F9",
"mX c #D4E8FA",
"MX c #CCEDF5",
"NX c #FDFEEE",
"BX c #F0FEEF",
"VX c #ECFEFD",
"CX c #FDFEF4",
"ZX c #FFF5FF",
"AX c #F4FEFF",
"SX c #FEFDFD",
"DX c #F7FAF6",
"FX c #F4EFFF",
/* pixels */
"V.>X(.(.(.#Xu %XT.l 5XW.(.#XI.<X X%X$XOXj %XW.j &X/.`.W.T.5X|.#X_.(. X5Xj V.&X(.5XW.|.&X|.&XT.$XW.).v &XU.I.7XI.6X|.$X#X$X>Xw $X",
"5Xz tX#XW./.(. Xq %Xf |._.T.6XU.8X#X#X$X4X_.U.$XV.$XU.U.8XU.tX$X(.%X5X2X#X#XV.>Xk U.$XU.kX$XW.`.#X`.&X_.f $XI._.T.V.>X%XW.|.U.W.",
"V._.|. XW.|.(.Y.#Xi |.I.F.>XU.).%X%X_.$X_._.>Xy 8XY.F.6XT._.#X(. X|.>X4X$Xf &XV.k $XW.4X$X%X$XU.|.#X%Xj |.k (.Y.k tX$X#X`.U.f &X",
"~.|.$X_. XV.u W.)._.#XV.2XV.W.%X#X_.OXI.W.(.`.|._.p %XI.|.%X$X|.&X_.(.tX|.|./.W.$XV.2X>X%X#X_._./.Y.|.|.V.%X|.p 8X$X>X#X>X#Xz W.",
"|.#X$X_. X#XF.(.#X$XI.>Xk _.~.6X%X%XW.4Xk OXXX$XV.>Xj |.$X&X$X&XV.5X~.OX2X(.W.5Xi 4X#X X(.$XA.:X#X_.$X).(.$Xr %X#X$XT.>XY.#XtXj ",
" XOXF.>XU.(.$XI.%X(._._.%X%X>X%X~.>X X_.%XV.$X|.W.).$X8X>X>X>X~.4Xl %X).Y.5X|.$X4X4X#X4X>XW.5XV.&X&Xi $X|.$X>X4X&X2X&XF.4XT.).4X",
"|.OX$X/.$XU.$X>Xu Y._.%X4X2X$XI.&XW.$XtX(.:XW.k 7X(.>X4X|.V.|.#X$X4XV.|.;Xj 5X|. X2X|.^.%X4X(.$XW.(.7Xy |.>X|.(.&X(.#X&Xl >X).W.",
"%XI.(.#X|.$X/.W.$Xj %X$X>X(.jX XOX$XI.|.4XF.>X X$X_.&X&X(.5XU.$X X|.tXW. X>XtX$X>X>XC.5XU.|.5XU.4X|.k <XtXOX$X2Xj &X(.&XtXa >X%X",
"l 5XV. X>XV.4X|.W._.>X$X$X>Xl $X#X%X5XT. X8XT.4X;XR.&X$X;X/.kXV.].>Xf aX X<X4XY.>X_.7Xz XX0.|.sXj >X#X>XOXW.&X&X>Xk &X)./.jXV.tX",
"(.W.>XV.|.%Xj 5X(.V.i >X_.>X>XV._.$XI.4XOX$X    f :X).}.*X XQ.tXC.OX:X).,X|.U.3X|.@X,XX j uX`.u 4X|.%X&XV.jX_.>X&X7Xp `.6X9 kX_.",
">X%XT.$XY.W.%XW. Xz |.%X(.>XOX>Xk |.5Xl >X  j d o   A.yX  O     $   O       .XXXV.  X C.# u <X}._.>X#XV. X_.U.&X(.>X2XU./.5X_.|.",
">X$X>Xr 5X|.#X|.z W. X`.yX(.kX%X4XT.T.>X$XX d 7Xe o yXX P U E Y T Y P F E L O 0.  j d e   6XS.8X&X$Xj |.Y.U.5XV.zX#X6X5X_.&X$XOX",
"|.|.(.>X).#X_.p F.~.~.tX(.(.$X%X X6X_.#X#X  s rXwXe . o I k.8.b.8.k.k.a.b.k.# O k qXiXd . @X@X}.#Xi >X/.k tXY.5X$XI.$X%X&X#X&Xw ",
"V.%X%X$XOX$Xj |.(.V.tXU.~.4XF.tX$X%X$X#X`.  &.wXrXqXo X Q 8.8.x.m.>.p.j.e.m.X   3XjX0Xs   8X4X$X>X(.$Xi 4Xz /.(.~.6XU.cX$X#X5X#X",
"6XT.>X^. X_.,X|.9 2XV.F.,X(.tX(.#X|.#X$X].  s 7XdXM.,...u.t.l.f.w.p.v.g.6.4.q.q.d.sX7X&.o 6X$X_.7X#Xj >Xa W.$X/.2XU._.5X2X`.>X4X",
"U.(. X;X/.|.#X$X>XV.W.OX~.4XI.I.>X2X|.OX>X  j rXx.9.t.z.t.t.y.1.t.6.w.a.d.z.6.g.9.c.eXj X OXuX`.I.|. X$X(.&Xj 7XV.I.5X#X/.>XU.U.",
"W.$X%X X$XU.a  X$X X#Xl 6XI.V.4X&X/.5X(.~.X R b.g.t.s.3.x.t.5.z.d.t.5.t.6.1.r.d.f.<.-.n o 1X(.3Xz )./.$X$Xj 7Xz l 7X6X&X(.6X`.~.",
";X>X;X(.>X X/. X%XOXa >XI.k 4X>X$X*X. O X   Q 1.5.c.q.f.AXSXSXSXAXAXh.x.d.6.i.d.t.s.w.*.X X X + 5Xz `.(. X(.(.A.5X>X&X|.4Xz 2X%X",
"$X+X(.%XU.~.%X/.$X$X$X|.U.>X&X%X@X}.o 7 R @.e.j.g.<.a.ZXAXNXZXBXCXSXCXw.w.u.d.i.i.s.s.p.$.T 3   I.<XU.Y.7X$X_.jX7X%X7X<XT.4Xk |.",
"$X>X#X|.%XT. X&Xp |.(.|.#X%X>XT.$X^.X ~ / <.6.y.3.h.SXCXAXmXhXmXSXbXZXSXb.5.v.1.j.1.a.<.( b , X wXi 5X%X9 >X&X>X&X&XY.&X2X_.7XU.",
"$XV.&X_.>X&XU.(.%Xf $X>X$X#X4X$X].    ! ` 1.9.c.z.SXZXSXgXK.P.D.gXSXCXAXZXw.3.x.t.t.j.p._ n , X X O V.;X1X%X$X4X2Xl 7Xj >X>Xa jX",
" X7XW.#X$X(.5X_.(.$X>X>X%X&Xz |.. X Q E ..u.3.d.DXSXSXgXN.* * * Z.fXVXAXNXSXl.t.a.<.<.;._ m K 5 - X yXXX6X$XW.4X$X4XU.6Xj #X7Xj ",
"z `.5Xz OX&Xi <X|.#XW._.$X8X%Xk o R ..k.k.i.f.w.AXSXnXL.=   . X * D.mXZXSXCX1.k.s.2.k.u.$.A ( A - X >X1XF.h kX|.4X&XtXz tX_.U.7X",
"%Xk $X5Xf |.$X&X>Xl U.5X/.5X$X>Xo G [ k.5.a.u.j.SXSXnXL.% . O . * K.MXZXBXAXa.u.u.h.5.1._ m ) V > X |. XY.3X~.).>X$X4X6Xu 7X$X5X",
"OX%Xz z &XV.&X%XT.U.4XT.&X%X>X>X  P [ h.a.t.i.t.SXSXMXJ.* o   X % L.MXCXCXZXu.p.t.t.h.w.) M V ( ;   ;XV.`.R.Y.7XI.xX&XjX7Xz 6X<X",
">X$X&X$XU.#X$XT.f 6XT./.&Xz 4X2X  P *.k.j.t.>.s.AXDXVXgXZ.= = % B.gXSXVXNXFX8.2.t.p.h.w.) M Z ( ;   r %XT.R.vXU.6X#X/.kX7X&X4X4X",
"U.7X$X%X|.&Xz 9 %XU.I._._.tX|.>XO ^ [ k.2.h.w.5.SXSXZXDXfXK.D.P.fXCXAXSXSXAXu.t.t.t.h.w.) M V V ; X |.+Xs &XF.).&XW.jX(.7X4X7X$X",
"&X&X$X&X%X(.a >Xp T.).).&XV.U.8X  I  .k.1.t.j.t.u.VXSXCXCXmXnXmXZXAXBXCXSXe.4.i.t.t.f.<.) M V V ;   yXy 8XI.^.OX[.<XT._.=X$X&X&X",
"(.z >X$X_.%X$X/.#X&Xz 8XV.U.7XU.o I  .k.p.u.l.y.h.c.VXSXDXSXZXAXSXZXSXSX7.3.<.x.t.t.h.=.) A V ( - . oX:X~.~. X~.jXU.z tX>X&X/.(.",
"W.wX#X$XOXI.W./.&Xa 4XY.I.4X(._.X Y [ k.k.<.f.t.5.3.a.SXSXAXDXNXSXNXSXt.r.j.s.y.t.t.h.w.) Z Z ( >   h  XXXtXp 6XI.j 7X$X(.#X6Xf ",
"6X#X$XT.&XV.`.$X$X$X#Xa %XU.T.$X. P *.n.s.1.3.4.p.h.y.d.bXDXAXSXVXbX5.y.z.5.3.6.t.t.h.w.) M Z ( :    X>XXX>X5X$Xk 5XtX X>X5XT.zX",
"$X_.&X&XW.>XU.OX>X|.$X&XV.OX%X%X$ @ R D [ c.x.e.s.t.3.s.r.e.a.t.h.q.s.i.6.x.u.a.t.p.h.w.) M Z ( 4 3   &.8X;X,XY.yX6X|.4XV.>XyXI.",
"&X$X/.$X~.&X&XF.$X%X$X$X&X4X&X&X%X  # L / q.a.6.f.p.u.1.2.f.w.s.t.t.1.t.p.e.a.a.s.3.2.=.) M m n _ b . uXq jX*X>X:X7X2XU.7Xj $X2X",
"$X#X>X).%X$X|.5X).V.#X>X>X#X>XW.[.<X  ! ` +.c.p.y.5.h.s.u.p.k.1.u.i.e.t.t.p.t.1.d.x.=.%.m m 5 X m B   +X8XwX3XeXXXW.sXOX(.kXp OX",
"%XT./.4XU.#X4XI.>XW.$X&X&X#X/.4X^.. X I { a.k.<.b.1.3.s.x.u.t.t.s.t.t.t.a.t.j.i.>.v.-.V ) B 5   B T   .XrXvXuX$X%X>Xi ;X)./.yXz ",
"V.4XT._.5XV.#X>Xk 8X4X/.$X4X#X~.-Xo Q n 7 8 ..v.4.e.j.d.2.p.i.r.t.d.t.2.3.t.p.p.o.X.| N < 2 X   n G + $ X &Xi pX%X>XtXy (.$Xk xX",
"`._.2XF.&XkXz 4X|.|.j $X&X#X4X|.].o Y o.3 P K t.t.p.r.3.2.d.s.<.t.t.s.2.a.t.y.=.' C K @       kXo W C C 1   -X2XY.>X5XzXr |.4Xw ",
"&X|.|.4XW.V.#X#X|.f V.6Xk kX>X>X X$ L a.{ R 8 ~ I c.6.3.s.w.t.j.t.t.e.t.a.t.O./ C $.3   uXyX).a jXX B / 2   [.T.cX(.lX_.5Xl W.%X",
"2X$X&Xp 8X).>X&Xz k 5XT.tX_.|.>XX X Q u.' D %     R u.s.v.t.p.p.p.u.z.u.p.y.' m C M ,   9X&X+X2XXX  N M 2 o +XyXW.$X4X XtX4X(.$X",
"#X$X5X%XU._.#XU.u 5XW./.%XY.tX.   @.K =./ L O ,XO X I s.3.t.=.o.o.X.=.o.o.-.) N 4 5 : X A.-X5X#   8 b M 1   >X(.XXsXU.cX>X4X X$X",
"V.7X%X&X#X%XT.p :X&.R.;X XyX    ! a.t.[ 3 L o /.c   Y 2.j.=.:.C / N V $.] ( ) B & . $ U.kX%XX $ { 7.' / > O {.'.sXz #X2Xa 7X X%X",
"7X&X5X$X$X&X#X%Xf E.[.^.yXX 7 Q T 8.k.w.` Y   c 5X  I a. .U I ! I Q Q F T S ( < & X G.{.XX+ X { y.u.q.X.[ 6 X pXk (.&XT.cX#X(.(.",
"`.U.#X$X~.%X$X&X XOXl %XI.X P n.8.t.u.=.| ] H . C.  L s.#.< I   X o . X W ( ] K -   U.[.OX  R h.g.d.g.b.X.m $ A.z 8XT.%X$X$X#X_.",
"~.4X$X|.`.(._.$X;X9 :X0.s X I r.s.2.j.y.| _ E o 9X$ I 2.#.n P   XX XuX  U -.#.< : X XXY.5X  I i.4.>.g.t. .m O x &XY.(.4X5X>XI.7X",
"2X%X$X|.2XU.|.k *X`. Xz <X  Y 6.c.t.k.>.[ U R X @X  R n.' b ~ X }.E.>X  ^ f.| 5 & o x 1X5X  ^ j.m.j.c.g.X.n O =Xz /.&XtX$X4X5XV.",
"%X%X|.>XT.&XU._.4X[.@X4Xk   @.Y U b.=.G ~ ^   <X[.  X I O.| K 7 o $XQ.  o E ..| 4 3   4X>X[.X I 1.7.-. ._ X :X=X|.5X5X$X>XV.$X6X",
"#X&XW.>X%X$X5XU. X2X|.#X(.1X  o H F Y R o X ~./.8X].O   E =.' %.L X 0XC.    L o.[ ] X 7X=XY.tX  E =.W N X t pX}.).&X7X4XC.5Xp $X",
"#X&X$X).|.OXOX8X(.s %X;X$X}.9XXXo X o o 5Xx 3X#X9 1XE.>X  ! } >.:.R   8Xu ;X  Y { ;.[ X iX;X!.7X$ .     _.3XuX4X_.&XI.tXOXW.xXu ",
"$XY.`.4X/.|.$XI.7XU.4X_.$X%XF.2X(.OX7Xz |.7Xq tX        X @.{ 1. .I   o X . . Y O.w.=.F   8X X~.zXz T.iXk 7X7X4X(.#X&X0 2X|.Y.zX",
"(.%XW.|.>Xl $X%Xk _.$X$X/.`.4XV.&XU.%X7Xz W.>X  R I ~ R I F =.j.E X ! U E P R U =.b.*.Y   a oX$Xj jX&XT.6X4XT.a kX$X4XaXu OX%Xa ",
"V.&X2Xz >X4Xj 5X$X4X`.T.OX$X2X#X`.&X/.(.6X(.>X  J x.u.a.x.u.p.b.7 . H 8.z.6.1.t.s.j...D X jX9 ,X8X0 lX/.4X_.Y.xX`.6X4X&X7X9 OX7X",
"%XV.&XtXz T.&X(.(.z U.tXT.tXOX>X$Xz 6X$XF.8X|.o K E L F F Q L F @ o ! Y I Q R R D I R R X 8XrXv $X5X&XOX4XU._._.U.jX/.4X4X7Xu OX",
"8X&XT.I.7X_.>X|.`./.4XI./.&X$X$X$X6X9 &X_.2X$Xz o   o X o X X     h #           X   X @ kX5X4X>XV.6X|.$Xl /./._.zXU.%X$X#X$X5XU.",
"&X$X>X%XV.#X|._.f 4Xz U.$XU.6X$XOX#X&X~._.$Xk r }.!.].|.V.tXT.<X<X|.$X].3Xr 0XS.A.pXW.5XuX X5X5XOX$X%Xi T.(.T.6XU.z 4Xz xX[.XX).",
"~.>X&X$X#X&X#Xw 4XU.f 6X/.).$Xj >X#X%X|._.U.f $XR././.(.tXT.,X|.`.&XXX$Xh 5X'.f rXY.`.*XY.kX XsX>X|.kXY.4Xu 6XF.U.7Xz &X&Xz 7X|.",
"&XOX_.>X|.OX_._.U.u %XU.I./.T.6X`.%X_.#X_.#X$Xq (. XQ.4XT.R.%Xz 3X%X^.xXzX2Xh <Xj ^.:X).sXE.'.8X>X$X>X7Xz $X/.l 7XF.U.$XI.cX#X|.",
"OXF.6X_.OX&X%X).j OXz F.|.)._.T.V.>X/.(._.&X~._.+Xa 2XF.F.8XT.$XOX%X(.7X7X8X2Xz Y.>X/.>XW.U.aX&X$XU.I._.|.$Xj &Xz z &X).$X4XOX|.",
"|.`.OX$X_.#X/.OX%Xl (.|.z ).U.V.&X|.).(./.U.W./.q OX^.k >Xz z $X2X).&Xz 4X#X$X~.8Xj $X_.I.vX6XXX%X2X0 _._.$X#X`.j 4Xk ~.6X&X$X_.",
"T.%X_.#X%Xz T.l )._.(.j _.T.I.%X_./.).(.U.|.T.T.k ).j +Xk k #X#X)./.>X$XF.kXOX/.T.6X%XU.7X5X>X&X/./.4Xu $X/.%X_.7Xa &X>X>X#X8X~.",
"(.&X$X_.$X#Xz $XOX)._.).W.a (./.T. XW.W./.f _./.W.Y.~.U.U.|.OX/.$X>Xf OX&Xl kXOX%X>Xu 2X&X5X4XI.jXa ).7X9 _.#X_.%X).$X8X%X>Xu tX",
"_._.(.&Xl OX>Xa 5X(.W.Y.u (.(.W.W.z ).I./._.j _.W.G.^.G.>X#XW.OX/.~.4Xi `.4Xy cX`.$XOX4XOX|.7X&XU.jXa (.xXj _._.OX%X6X&XV.~.7Xk ",
").2X_.).2XI.|.6Xy A.T.Y.W.Y.W.z %XF.Y.~.V.I._.a 9 Y.C.).`._.$Xk &Xl `.6Xp W.$Xu cX%X%X4X7X6Xf 5X(._.7XU.I.kX%X7X_.$X).6X%Xa ~.7X",
">XU.2XW.|.4Xj ).:Xq (.Y.F.V.|.V.a |.I.F.(.W.q T.z F.G.Y.(.Y.2XU.).%Xl _.4Xz (.7X&X&X$X$XI.&XtXj |.>Xz xX&X).6X7X&X$X>X_.U.tX0 (.",
"4X|.|.8XF._.5XA.f W.W.V.V.I.j U.I.j |.z f F.T.0 G.G.G.F.Y._.q $XV.).&XU.U.&X_.aX2X$X$X$X4Xu (.7Xi OX8X0 kX$XjXT.z 4X$X$XU.(.aXu "
};
