/* XPM */
static char *mike_certo_up1666002480[] = {
/* columns rows colors chars-per-pixel */
"64 64 240 2 ",
"   c #010301",
".  c #0B0101",
"X  c #000900",
"o  c #02020B",
"O  c #0A000C",
"+  c #010A0D",
"@  c #001200",
"#  c #020211",
"$  c #070417",
"%  c #03181E",
"&  c #16070C",
"*  c #0A2A12",
"=  c #253D16",
"-  c #25360C",
";  c #021928",
":  c #3A3728",
">  c #4A3025",
",  c #294617",
"<  c #315117",
"1  c #364926",
"2  c #375727",
"3  c #2A4E22",
"4  c #376625",
"5  c #23521C",
"6  c #495F36",
"7  c #46782A",
"8  c #4B7A35",
"9  c #4B722E",
"0  c #527025",
"q  c #453C41",
"w  c #54565A",
"e  c #5A5B5F",
"r  c #545556",
"t  c #4E4F4E",
"y  c #5B615F",
"u  c #6B725C",
"i  c #5E5E63",
"p  c #565A63",
"a  c #625D73",
"s  c #5F6165",
"d  c #616266",
"f  c #64656A",
"g  c #67686D",
"h  c #696A6E",
"j  c #69686C",
"k  c #6E7569",
"l  c #73756B",
"z  c #767869",
"x  c #6C6D72",
"c  c #6C6A78",
"v  c #6E7275",
"b  c #717276",
"n  c #75757A",
"m  c #76787B",
"M  c #797A7E",
"N  c #787878",
"B  c #7C6B7E",
"V  c #68921C",
"C  c #5B892C",
"Z  c #5A8937",
"A  c #589837",
"S  c #4D8A2B",
"D  c #668B2B",
"F  c #679228",
"G  c #648B35",
"H  c #638D3A",
"J  c #6A8D3C",
"K  c #678837",
"L  c #629334",
"P  c #6D923D",
"I  c #66963A",
"U  c #74893A",
"Y  c #5DA33C",
"T  c #58A438",
"R  c #61A53C",
"E  c #6AAC3E",
"W  c #76B839",
"Q  c #5F8F1F",
"!  c #7AC23C",
"~  c #5C9C43",
"^  c #5B9544",
"/  c #648D43",
"(  c #6D8C43",
")  c #698544",
"_  c #718B48",
"`  c #6A9545",
"'  c #739F41",
"]  c #6E9555",
"[  c #66AA43",
"{  c #63A449",
"}  c #68A845",
"|  c #72A946",
" . c #6CB44A",
".. c #76BA47",
"X. c #78B456",
"o. c #79817A",
"O. c #6D8575",
"+. c #5DA448",
"@. c #78C350",
"#. c #83B93F",
"$. c #82BA4A",
"%. c #87BB5A",
"&. c #8EB152",
"*. c #848679",
"=. c #94BE68",
"-. c #89C74D",
";. c #97CA46",
":. c #88C954",
">. c #97D958",
",. c #91D355",
"<. c #A1DC5B",
"1. c #A7DE57",
"2. c #B0C55C",
"3. c #9BE44D",
"4. c #9CE353",
"5. c #9DE35A",
"6. c #9AE957",
"7. c #A4E44D",
"8. c #A4EB54",
"9. c #A4E55D",
"0. c #A4EA5C",
"q. c #ABEA5C",
"w. c #A9E756",
"e. c #A9F258",
"r. c #B3F45C",
"t. c #B2EA55",
"y. c #9BD664",
"u. c #8FC464",
"i. c #A3DB64",
"p. c #ABDB71",
"a. c #B9DF6E",
"s. c #9DE766",
"d. c #A4E462",
"f. c #AAE564",
"g. c #A5EA62",
"h. c #AAEC63",
"j. c #A6E56B",
"k. c #A6EA6A",
"l. c #ABEB6A",
"z. c #A9E56B",
"x. c #B3E867",
"c. c #ABF366",
"v. c #B4F568",
"b. c #ABE875",
"n. c #B6F675",
"m. c #AFEF77",
"M. c #C4FF65",
"N. c #4E7591",
"B. c #7C7D82",
"V. c #797A89",
"C. c #7A7794",
"Z. c #847D84",
"A. c #7F8085",
"S. c #7E8789",
"D. c #5A9CBC",
"F. c #539ACA",
"G. c #59A5CB",
"H. c #66A1CB",
"J. c #818286",
"K. c #84858A",
"L. c #87888C",
"P. c #898A8E",
"I. c #898787",
"U. c #94958A",
"Y. c #8C8D92",
"T. c #898A96",
"R. c #958A9A",
"E. c #8F9094",
"W. c #89929B",
"Q. c #919296",
"!. c #94959A",
"~. c #97989C",
"^. c #999A9E",
"/. c #999898",
"(. c #92878F",
"). c #A29D9D",
"_. c #9BA598",
"`. c #A2A49D",
"'. c #A5A696",
"]. c #9C9DA2",
"[. c #9A98A6",
"{. c #8F99A5",
"}. c #A39DAA",
"|. c #A39CA5",
" X c #A29FB4",
".X c #9FA1A4",
"XX c #99A2A8",
"oX c #9CA9AF",
"OX c #A1A2A6",
"+X c #A4A5AA",
"@X c #A7A8AC",
"#X c #A9AAAE",
"$X c #A8A9A7",
"%X c #B2ACAB",
"&X c #B3B3AC",
"*X c #A4A3B3",
"=X c #ACADB2",
"-X c #A8A9B8",
";X c #B1ADB3",
":X c #B2ABB8",
">X c #AFB0B4",
",X c #AAB6B8",
"<X c #B1B2B6",
"1X c #B4B5BA",
"2X c #B7B8BC",
"3X c #B9BABE",
"4X c #B8B7B7",
"5X c #A8B3A8",
"6X c #C1BAB2",
"7X c #B4DA82",
"8X c #BCC3BA",
"9X c #B3C5AC",
"0X c #C4CFB1",
"qX c #BCBDC2",
"wX c #B8B9C6",
"eX c #AEAFC7",
"rX c #C1BBC2",
"tX c #BEC0C4",
"yX c #BBC1CB",
"uX c #AAD0DD",
"iX c #B2D3E4",
"pX c #ACCDEC",
"aX c #C1C2C6",
"sX c #C4C4C9",
"dX c #C7C8CD",
"fX c #CACBCD",
"gX c #CBC7C4",
"hX c #CCCCD1",
"jX c #D2D3D7",
"kX c #D4DDF9",
"lX c #D6E8FD",
"zX c #CAE8F7",
"xX c #FEFCEA",
"cX c #EEFFFB",
"vX c #FDFDF4",
"bX c #FEF4FE",
"nX c #F4FEFD",
"mX c #FDFDFD",
"MX c #F5FEF4",
"NX c #EEFFED",
/* pixels */
"B.=X!.!.!.+Xs +XY.n 1XY.~..XK.=X].@X@X].b @XQ.b #XQ.^.Y.P.<X].OX^.Q.].2Xb B.*X!.<XT.].#X].#XP.+XP./.i $XK.A.3XJ.2X^.@X].@X#Xt +X",
"1XM qXOXY.Q.Q.].r =Xc ].~.P.2XK.1X.X.X@X<X^.J.+XB.OXL.J.<XK.tX@X].+X<X=X].+XB.>Xn K.@XK.aXOXY.^.+X~.@X~.c +XK.^.P.A.>X$XY.].K.E.",
"B.].].].Y.].~.L.].f ].K.A.=XK.~.@X#X~.+X].^.=Xd <XL.B.3XY.]..X/.!.].=X1X+Xx @XB.B.+XY.<X@X$X+XA.].OX@Xb ].b Q.L.m tX+XOX^.K.x #X",
"Y.].+X!.].M d Y.!.].].B.>XB.Y.@XOX^..XA.Y.Q.^.^.^.j @XJ.].$XOXOX=X!.!.tX].].Q.Y.+XB.=X=X@XOX].].!.L.].].B.=X].f <X+X#X+X=X.XM Y.",
"].+X+X].~.+XV.!.].+XK.=Xn ^.Q.2X+X#XE.=Xb .X|.+XB.<Xb ^.@X#X+X#XB.<XE..X<X[.Y.>Xf >X+X].!..XZ.=X.X^.+X!.!.+Xi +X.X$XP.=XL.OX3Xb ",
"].].V.>XK.!.+XK.+XQ.].!.@X@X=X+XE.=X].].=XB.+XOXY.^.+X1X#X<X#XQ.<XB.@X~.L.<X].+X<X<X].<X>XY.1XB.@X=Xf +X].+X=X1X=X>X#XJ.<XP.~.1X",
"].].+X!.+XK.+X=Xf Y.^.@X<X>X+XK.#XT.+XqX!.=XT.n 3X~.#X<XOXM ].OX+X1XB.].+Xb 1X].^.>X.XQ.*X<XQ.+XY.!.2Xs ].=X].!.#XQ.].#XM #X~.P.",
"+XK.!..X].+XY.Y.+Xb @X@X=X~.aX!..X+XA..X>XB.=X].+X^.@X#X~.<XK.+X~.[.qXY.[.=XtX+X@X=XV.<XK.}.eXK.>X].n <XqX.X+X<Xb =X~.#XqXx #X#X",
"M <XB.^.=XB.<X.XY.!.=X@XOX=XM +X+X.X2XZ.|.wXT.=X.XY.#X#X@XQ.tXO..X Xv 8X[.,XeXL.5X].3XB.+XK.OXsXb =X].=XOXY.#X=X=Xb #X~.Q.aXB.tX",
"!.Y.>XV.].+Xb 1X!.B.f >X^.=X=XB.U.+XK.#     $X.Xc @X]. X;XR.].wXz *X1XP.;X@XN &X    =X=Xn #X!.d <X].+X=XB.aX^.#X#X3Xg ^.1Xw sX^.",
">X+XL.+XL.Y.*XY.].n ].*X!.=X].>XV.[.  u z X   n [.  X         o X o   O |.V.X O n   ].=X=Xs =X=X].=X.XB.^.].K.@X!.=X>XK.Q.1X^.^.",
"#X+X=Xi 2X]..X.XB.Y.].!.wX!.sX+X=XQ.  k 3XB.  I.  _ F L G G F ( J / D o *.X k h l   hX].2X=XL.>X#X+Xb ].K.K.2XB.dXOX2X1X^.#X+XOX",
"].].].@X!..X].f B.Q.Y.qX!.Q.+X#X_.1Xo b sX3Xl $ X P r.v.n.v.v.c.b.n.t.+   u dXrXl   +XZ.-X].+X+X.Xf =XQ.n qXK.1X+XJ.+X@X#XOX@Xt ",
"B.+X+X+X].OXb ].!.B.qXK.E.1XA.qX.X*X  z 4X6X0X    K v.w.>.d.0.q.e.0.r.X X 4XwX6Xl   Y.sX~.aX<X.X=X~.+Xf <XM Q.!.Q.3XL.hX+XOX3XOX",
"2XT.=X!.[.].#X].p =XB.K.+X!.qXQ._.+X. z sX9Xp.i.u.i.t.w.f.x.9.w.7.b.8.;.;.7X9XtXl   3XL.Y.>X@X~.qX.Xb =Xj Y.@XQ.#XL.^.1X<X^.=X=X",
"K.!.].#XQ.].+X+X=XB.T.].Q.<XK.K.$XeX. u 9X7Xe.q.8.6.s.s.s.d.9.0.f.g.s.h.m.w.x.8Xz   B.B.qX+X<X^.A.].].+X~.#Xb 3XM J.1XOXQ.=XK.K.",
"T.+X*X[.OXK.c ]..X~.+Xm 1XK.M <X*X/.O F q.l.h.9.q.d.d.q.j.8.4.0.0.p.0.8.9.b.6.:.A o B <X,X@X~.:XB.E.Q.=X#Xc qXn n qX3X#XQ.3X^.Y.",
"*X=X=XQ.=X].Y.[..X@Xx :XP.b =X  X . o L c.h.9.g.6.b.w.nXmXmXmXvXvX9.8.b.7.l.q.5.@.X X X   >X.XI.=XB.].Q.Q.+XE.T.<X=X=X].<XM <X+X",
"@XOX~.@XK.Y.+XQ.@X]..XOXZ.eX<X  V K / m.5.>.h.4.s.x.vXvXlXzXlXkXbXnXt.<.f.0.d.e.>.X.) 6 o Q._.-XL.=XL.L.=X].+XqXqX+X3X=XP.1Xn ].",
"+X=X].].#XP.[.=Xg .X~.+X].}.#X  K ' y.e.h.q.d.g.0.nXvXpXD.F.G.G.iXmXmXq.0.s.f.q.y.{ S 2   qXS.*X<Xx 2X+Xd +X=X+X=X=XK.+X=X^.qXJ.",
"+XB.@X].=X#XK.Q.}.x .X@X=X|.X X I } >.5.g.q.w.9.mXvXpXN.; ; ; * N.pXmXnXh.s.x.h.y. .S 4 X   o L.].aXB.].=X=X^.2X>Xn 3Xb =X=Xh aX",
"].2XY..X+X!.<X].^.@X@X,X}.  X ) F u.>.q.h.<.b.nXbXzXG.%   o . O % G.lXvXvX3.b.g.<.R A S 6 2 . <X[.f qX].qX+X!.<X+X1XK.1Xb OX3Xb ",
"B.!.1XB.].@Xf <X|.OXY.[.*X  ] %.M.8.v.1.8.0.1.MXxXlXF.; . X & O ; F.lXMXbXk.d.q.<.R ~ { { ,   h wX-X@X1XB.c 3X].1X@XqXM 3X^.K.3X",
"@Xb OX2Xx ].+X=X=Xm J.:X^.X G $.l.g.9.f.9.k.h.mXmXzXG.; .   . X % H.kXmXnX6.t.h.9.{ ~ { T , o tXK.qX].^.Y.3X~.Q.#X+X<X3Xd 3X@X1X",
"].#XB.M #XB.#X@XI.P.1XY.$XX P #.n.w.h.4.s.g.t.MXmXnXpXN.; % % ; N.iXmXmXmXw.f.h.>.| ~ T { ,   K.=X>X+XB.^.L.E.2XJ.fX#XaX3XM 3X=X",
"=X+X#XOXK.OXOXP.N ;XY.L.#Xo K $.v.7.g.0.g.9.x.nXvXbXxXuXD.F.H.D.iXmXmXMXmXf.s.e.d.A ~ R Y 1 . XX=XQ.i =XP.B.fXK.3XOXE.sX3X#X<X<X",
"K.2X@X@X].@XM w @XM A.]./.  ( $.v.9.z.8.4.5.x.MXmXmXMXmXlXlXzXlXnXvXmXmXMX7.b.q.9.} { T ~ -   .X=XQ.+XE.b 2XA.^.=XY.rX~.3X<X3X+X",
"=X#XOX=X@X~.h #Xf Q.[.!.$X+ ( $.c.d.j.w.g.k.1.b.bXxXbXbXxXmXbXmXmXmXvXnXb.w.p.q.>.} A Y Y 2   ^.=XwX=Xg >XB.Y..X_.;XY.^.#X$X#X@X",
"Q.M =X+X^.@X$X~.}.*XB.1XJ.  K W v.h.g.9.d.l.8.w.g.cXmXMXnXMXvXvXmXbXmX7.i.e.4.v.5. .^ Y A = X XXQ.Y.+X=XP.~.|.E.aXK.n qX>X#XQ./.",
"Y.qXOX+XOXJ.P.Q.@Xv =XB.*.  K -.r.0.z.j.9.9.8.9.7.q.nXmXmXmXmXmXmXnXq.e.k.6.q.9.>.} ~ T } = . =X@XY.v ].[.1Xx 1XJ.n 3X@X~..X1Xx ",
"1X+X+XP.@XJ.^.+X+X#X].n %Xo ) %.v.x.g.g.0.q.g.j.9.h.w.MXbXmXmXvXnXq.q.i.6.j.w.0.d.I +.Y ~ , . T.#XOX~.<X+X=XqX].n 1XwX].=X1XL.hX",
"+X^.#X@XP.#XJ.OX@X).+X=XZ.# X G H $.7.g.9.9.f.g.s.f.i.t.0.g.g.s.f.i.g.0.f.j.z.r.5.[ ~ R { X /.wXB.].+XB.3X@X+XP.wX2X].>XV.=X1XK.",
"#X@XQ.+XE.$X#XB.-X@X+X#X>X-X  . L ` <.z.8.0.g.g.9.9.0.d.5.9.d.g.9.h.9.9.0.9.9.f.,.} ^ A A   }./.1Xb |.=Xw tX@X#X<X2X=XL.qXb +X<X",
"@X].=X~.+X@X].2XQ.o.#XOX.X-X>X  G ' 7.n.j.j.d.e.0.h.d.0.d.9.d.d.h.5.9.h.9.h.x.,.! R A 4 P o 3X^.R.aXb ].3XtX<X1XOXE.tX+X!.aXg ].",
"@XY.E.<XL.OX<XA.<XI.#X-X#X=X$ X / | 7.e.3.9.5.8.d.0.9.f.g.g.9.9.0.9.9.q.5.h.k.-.{ E ^ 2 &.X +   ].K.jX~.hXfX4X@X@X=Xf +X!.Q.wXB.",
"B.=XY.~.2XB.+X=XN <X<X[.$X.Xo U D 8 Q u.m.h.k.k.0.f.9.9.9.q.h.q.0.0.q.0.g.,.:...{ 5 4 J 0 D K   >XqXs qX<X#Xd dX@X#XqXs !.+Xn hX",
"^.^.=XJ.#XsXN <X].].c *X`.#Xo D y.9 Z 8 i.9.9.g.f.q.d.q.9.q.d.9.0.9.0.g.,. .Y A . 2 8 C 9 >.J o x #X1X3X#XM #X<XL.=X1XsXp ].:Xt ",
"#X^.^.1XY.A.OXOX).N S.<XI.qXX P i.| D ( F F g.x.9.0.f.g.g.h.h.d.g.d.g.@.R I { 7 O 8 G H E i.J X sXL.+X$XM J.=XP.jX!.dX].3Xn E.#X",
"=X+X#Xj <X^.#X=XM k <XP.4X. @ Z >.%.K X o X _ <.9.9.d.9.5.<.s.d.d.g.s. .A ^ ` 2 X .   / W f.D o   |.<XJ.N >X^.3XY.+X=X].wX1XQ.+X",
"OX+X2X$XK.^.OXJ.c ,XL./.o   _ H >.L (   }.# X ( g.0.5.>.,.,.-.,.,.:.:.[ A S 4 = o Z.o D I y.L H   X B.J.=XJ.3XQ..XqXK.jX=X<X].+X",
"B.qX#X#X.X@XP.f $XJ.P.X X / d.v.%.4 V # OXt   K w.n.,.X.E T [ Y ` T [ +.7 = X   P.*.o ) 4 -.r.j.J   X 4Xp :X|.W.sXB..X>Xx wX^.@X",
"2X#X1X+X+X=X.X$Xc U.o u F A w.v.;.} G X :X+Xo K 5.,.I A Z ` G Z ( A A { 8 - + (.Z.qXX I } :.v.x.Z K J + =X%Xb 8Xn !.=XL.jX.X~.!.",
"!.K.OXOXY.@X+X=X!.$XX J M.M.i.q.y...X.J $ %X  X 0. .7 J X X   . X Z |  .8 X =Xr =X$ H | @.4.z.f.c.y./ o ;Xm 2XB.B.1XT.$X+X@X.X~.",
"Q.<X@X].^.~.^.OXOXw X _ f.>.k.l.y.! } G   Q.-X  c.X.8 D o Z.rX#X. / ,. .7   [.3X*.o H { ..,.0.w.e.@.Z   OX$X+XV.=XK.!.>X<X=XB.qX",
"<X@X+X].=XK.].n #X[.o F r.m.0.d.3.%.C (   #XI.  s...4 I o 3X@X#X  / h.@.S   ~._.~.  D P $.v.v.6.b.r.Q o rX`.#X%Xn Q.=XqX+X<X<XK.",
"@X+X.X>XP.#XK.].%X X+ ) C A r.9.Z H (   $XP.].. :...u.C + #X`._.  ` 8.@.%.o yX`.-XT.. D F Z c.>.L P ) + I.&X<X<X.X1X1X+X=XB.+X2X",
"OX@XP.#X@X+X1XJ.OX@X`.o X ) K J / X X -XQ.-X!.X ..e.g.C   ;X1XoX  8 q. .7 o s gX[.`.3Xo o _ %.H _   X +X1Xi sX*X~.=X2X<Xn 2Xf ].",
"OX#X+X^.].OXOX1XW.u *X@X`.#     # &XI.}.&XN -X# 8 k.W 8 X ;X$XW.  7 c.@.0 . >X~.%X[.eX_.8X  X .   OX6Xp XX5X4X,X^.@XK.qX].T.hXg ",
"+XL.!.<X~.^.OXJ.3XK.=X].OX@XB.<XR.*XqXM ].<Xy . 2 3 - < X c wX!.X 6 , , 9 . gXrX3XOX@X3Xd =X+XQ.sXB.Y.qXb tX3X>XQ.OX#Xe >X].P.dX",
"/.$XY..X=Xn @X@Xn ^.@XOXQ.^.1XB.=X*.).qXV.Y.5XX = 3.,.3 o :Xk %Xo 3 q.;., X aXwX^.=X<X#X<Xh ^.@Xb aX#XP.3X>XP.h sX+X<XtXd ].$Xh ",
"B.=X=XB.=X<Xb <X@X=X~.P.OXOX=XOX/.=XQ./.&X*Xo 2.8.h.v.x.1 . 1X  / >.b.c.z.y.X O.M aXP.3X1XsXe +X1Xe sX~.>X].L.fX^.3X<X#XqXw ].qX",
"@XB.#XqXM P.#X~./.M L.qXY.3XOX=X+XJ.<X}.C.X K : y.q Z : U C O ( U > A > ,.> P $ dXK.>X@X$X3X3Xe @X<X=X].<XJ.].^.K.tXQ.<X<XqXd ].",
"<X#XP.J.3X^.=X^.^.Q.<XJ./.@XOXOX@X=Xr =X].$X# X . + O X o   XXX o . o o X +   %XM P.1XJ.fX<X3X1XM 3X].OXN ~.E.~.fXJ.@XOXOX@X1XJ.",
"#X@X#X@XJ.OX].].x <XM K.OXL.3X+X`.*XeXE._.@Xc a @XR.'.R.P.wXR.<X5XoX_.^.5Xr wXS.B.sXL.aX@X^.#X1X.X@X@Xf Y.Q.E.2XJ.B.<XB.dX].OX^.",
"E.=X#X@XOX#XOXt <XJ.x 1XE.~.@Xb -X+X+X[./.I.c `.A.U.U./.sX*.+X[./.*X'.}.M wXR.x sXJ.^.OXP.dX].qX#X].sXL.<Xd 3XZ.L.3XM @X#XM 3X].",
"#X].^.=X^.OX^.^.J.d @XL.J.Q.Y.1XU.5X/.OX].OX`.p {.{.(.:XV.L.5XA.1X$X[.hXyX=Xb ;XN P.#XOXsXQ.Y.3X=X@X=X3XM OXQ.n 3XB.K.+XJ.jXOX].",
"].J.3X^.OX#X@X~.b OXN B.].^.^.Y.B.#XQ.!.].@XE.^.XXh >XA.A.<XL.+X].#X~.3X2X1X<XM P.=XQ.=XP.L.tX#X+XL.J.].].+Xv #XJ.N #X~.@X<X.X].",
"^.^.].+X^.].Q.OX@XM ~.].M !.K.B.=X].[.E.E.K.Y.Q.r .XW.n >XM B.@X=X!.#XM <XOXOXE.1Xb +X^.K.hX3X.X$X#Xe ^.^.OXOX^.b <Xb Q.2X#X+X^.",
"P.@X^.OX@XM P.n ~.^.~.b ^.P.J.@X!.Q.~.Q.K..XL.P.m ~.v +Xb n OXOX].Q.=X+XB.sXOXQ.P.1X$XK.3X<X>X#XE.!.;Xd +XQ.@X].3Xc #X>X#XOX1XQ.",
"^.#XOX^.@XOXM @X.X~.^.~.Y.x Q.Q.Y.].Y.Y.Q.x ^.Q.T.K.Q.K.J.].].!.@X=Xx ].=Xm sX].@X=Xf =X#X2X<XA.tXx ^.3Xw ^.].^.$X!.+X<X@X>Xd 3X",
"^.^.~.#XM ].<Xx 1X{.E.L.d !.Q.Y.Y.B.~.K.Q.~.b ~.E.S.W.K.=XOXY..XQ.Q.<Xf ^.<Xi jX~.+X.X<XOX^.3X=XK.sXh ~.hXb ].^.].$X3X#XA.Q.3Xn ",
"/.=X^.~.=XJ.].1Xd Z.L.L.Y.L.Y.B.+XB.K.E.M A.[.h w L.M ~.!.].+Xb #Xb ^.1Xj Y.@Xd jX#X@X>X3X1Xx 1XQ.^.3XK.J.aX@X3X].+X~.3X@Xh Q.3X",
"<XJ.=XE.].<Xb ^.=Xr E.L.B.B.].B.x ].A.A.~.E.r Y.B.A.S.L.!.L.=XL.^.$Xm ].>XB./.3X#X#X+X+XJ.#X3Xb ^.=XM dX#X~.3X3X=X.X#X^.K.3Xe /.",
"<X^.OX1XB.^.1XB.c L.Y.B.B.K.b K.K.b ].N v B.L.i A.S.S.A.L.].r +XB.!.#XK.J.#X^.qX>X$X+X+X<Xd ~.3Xj OX1Xe aX@XaXP.M <X+X+XK.~.qXs "
};
