/* XPM */
static char *mike_certo_first1666002480[] = {
/* columns rows colors chars-per-pixel */
"64 64 238 2 ",
"   c #010301",
".  c #000900",
"X  c #02020C",
"o  c #09000C",
"O  c #050607",
"+  c #001200",
"@  c #020211",
"#  c #070417",
"$  c #04181C",
"%  c #253A12",
"&  c #051A28",
"*  c #011C35",
"=  c #3A3728",
"-  c #1D360C",
";  c #4A3025",
":  c #294617",
">  c #315117",
",  c #364926",
"<  c #375727",
"1  c #2A4E22",
"2  c #376625",
"3  c #23521C",
"4  c #495F36",
"5  c #46782A",
"6  c #4B7A35",
"7  c #4B722E",
"8  c #527025",
"9  c #453C41",
"0  c #54565A",
"q  c #5A5B5F",
"w  c #545556",
"e  c #4E4F4E",
"r  c #5B615F",
"t  c #6B725C",
"y  c #5E5E63",
"u  c #565A63",
"i  c #625D73",
"p  c #5F6165",
"a  c #616266",
"s  c #64656A",
"d  c #67686D",
"f  c #696A6E",
"g  c #69686C",
"h  c #6E7569",
"j  c #73756B",
"k  c #767869",
"l  c #6C6D72",
"z  c #6C6A78",
"x  c #6E7275",
"c  c #717276",
"v  c #75757A",
"b  c #76787B",
"n  c #797A7E",
"m  c #787878",
"M  c #7C6B7E",
"N  c #68921C",
"B  c #5B892C",
"V  c #5A8937",
"C  c #589837",
"Z  c #4D8A2B",
"A  c #668B2B",
"S  c #679228",
"D  c #648B35",
"F  c #638D3A",
"G  c #6A8D3C",
"H  c #678837",
"J  c #6D923D",
"K  c #649437",
"L  c #74893A",
"P  c #5DA33C",
"I  c #58A438",
"U  c #61A53C",
"Y  c #6AAC3E",
"T  c #76B839",
"R  c #5F8F1F",
"E  c #7AC23C",
"W  c #5C9C43",
"Q  c #5B9544",
"!  c #648D43",
"~  c #6D8C43",
"^  c #698544",
"/  c #718B48",
"(  c #6A9545",
")  c #739F41",
"_  c #6E9555",
"`  c #63A449",
"'  c #67A845",
"]  c #72A946",
"[  c #6CB44A",
"{  c #76BA47",
"}  c #78B456",
"|  c #79817A",
" . c #6D8575",
".. c #5DA448",
"X. c #78C350",
"o. c #83B93F",
"O. c #82BA4A",
"+. c #87BB5A",
"@. c #8EB152",
"#. c #848679",
"$. c #94BE68",
"%. c #89C74D",
"&. c #97CA46",
"*. c #88C954",
"=. c #97DA57",
"-. c #91D355",
";. c #A1DC5B",
":. c #A7DE55",
">. c #B0D254",
",. c #9DE454",
"<. c #9CE758",
"1. c #98EE4A",
"2. c #A6E84E",
"3. c #A4E455",
"4. c #A5EB54",
"5. c #ABEB55",
"6. c #A4E55D",
"7. c #A5EA5C",
"8. c #AAEA5C",
"9. c #AAE558",
"0. c #A8F25A",
"q. c #B3F45C",
"w. c #B2ED52",
"e. c #9BD764",
"r. c #8EC665",
"t. c #A4DA64",
"y. c #ACD672",
"u. c #9EEB61",
"i. c #9EE767",
"p. c #9AF067",
"a. c #A4E562",
"s. c #ABE464",
"d. c #A5EA62",
"f. c #AAEC63",
"g. c #A6E56A",
"h. c #ABE56B",
"j. c #A5EA6A",
"k. c #ABEB6A",
"l. c #B4E965",
"z. c #AAF365",
"x. c #B4F568",
"c. c #AAE974",
"v. c #B6F675",
"b. c #AFED76",
"n. c #C4FF65",
"m. c #497388",
"M. c #7C7D82",
"N. c #797A89",
"B. c #7A7794",
"V. c #847D84",
"C. c #7F8085",
"Z. c #7E8789",
"A. c #5C9CBC",
"S. c #5AA4B4",
"D. c #569DD1",
"F. c #659BC9",
"G. c #4BA0C5",
"H. c #818286",
"J. c #84858A",
"K. c #87888C",
"L. c #898A8E",
"P. c #898787",
"I. c #94958A",
"U. c #8C8D92",
"Y. c #898A96",
"T. c #958A9A",
"R. c #8F9094",
"E. c #89929B",
"W. c #919296",
"Q. c #94959A",
"!. c #97989C",
"~. c #999A9E",
"^. c #999898",
"/. c #92878F",
"(. c #A29D9D",
"). c #9BA598",
"_. c #A2A49D",
"`. c #A5A696",
"'. c #9C9DA2",
"]. c #9A98A6",
"[. c #8F99A5",
"{. c #A39DAA",
"}. c #A39CA5",
"|. c #A29FB4",
" X c #9FA1A4",
".X c #99A2A8",
"XX c #9CA9AF",
"oX c #A1A2A6",
"OX c #A4A5AA",
"+X c #A7A8AC",
"@X c #A9AAAE",
"#X c #A8A9A7",
"$X c #B2ACAB",
"%X c #B3B3AC",
"&X c #A4A3B3",
"*X c #ACADB2",
"=X c #A8A9B8",
"-X c #B2ACB5",
";X c #AFB0B4",
":X c #AAB6B8",
">X c #B1B2B6",
",X c #B4B5BA",
"<X c #B7B8BC",
"1X c #B9BABE",
"2X c #B8B7B7",
"3X c #A8B3A8",
"4X c #C1BAB2",
"5X c #B4DA82",
"6X c #BCC3BA",
"7X c #B3C5AC",
"8X c #C4CFB1",
"9X c #BCBDC2",
"0X c #B8B9C6",
"qX c #AEAFC7",
"wX c #C1BBC2",
"eX c #BEC0C4",
"rX c #BBC1CB",
"tX c #AFCFDC",
"yX c #A9D9D9",
"uX c #A8CFE6",
"iX c #C1C2C6",
"pX c #C4C4C9",
"aX c #C7C8CD",
"sX c #CACBCD",
"dX c #CBC7C4",
"fX c #CCCCD1",
"gX c #D2D3D7",
"hX c #CFDDFF",
"jX c #D1E7EB",
"kX c #C9E7FA",
"lX c #D9E8FA",
"zX c #F9FEEF",
"xX c #FCFDF4",
"cX c #FFF4FE",
"vX c #F4FFFE",
"bX c #FDFDFE",
"nX c #F8FBF3",
"mX c #EEFFED",
/* pixels */
"M.*XQ.Q.Q.OXp OXU.v ,XU.!. XJ.*X'.+XOX'.c +XW.c @XW.~.U.L.>X XOX!.W.'.,Xc M.@XQ.>XU.'.*X'.@XL.OXL.^.q +XJ.M.1XH.<X'.+X'.+X@Xe OX",
",Xn 9XoXU.W.W.'.w *Xz '.!.L.<XJ.,XoXoX+X>X~.H.OXM.oXK.H.2XH.eXOX!.+X>X;X'.OXN.;Xv J.OXJ.pXoXL.~.OX~.+X~.x OXJ.~.L.M.;X+XU.'.J.R.",
"M.'.'.'.U.'.!.K.'.s '.J.C.*XJ.!.+X@X!.OX'.~.*Xp >XK.M.1XL.~.oXQ.!. X*X>XOXl +XM.v +XU.>X+X+X+XH.~.oX+Xc '.c W.K.v iX+XoX~.J.l @X",
"U.'.OXQ.'.n a U.Q.'.'.M.;XM.U.+XoX~. XH.U.W.~.~.~.f +XH.}.+XoXoX@X!.Q.eX'.'.W.U.&XM.;X*X+XoX~.~.Q.K.oX~.M.*X'.s ,XoX@XoX*XoXb U.",
"'.OXOX'.!.OXN.Q.'.OXJ.*Xv ~.W.<XOX*XU.*Xc '. XOXn >Xc ~.+X@XOX@XM.;XU. X;X].U.;Xs >XOX'.Q. XC.*XOX~.OX~.Q.OXy OXoX@XL.*XL.oX1Xc ",
"'.'.N.;XJ.Q.OXJ.OXW.'.Q.+X+X*XOXW.@X'.~.*XM.+XoXW.~.+X>X@X>X@XW.,XM.+X!.K.>X'.OX>X>X'.>X;XU.,XN.+X+Xs  X'.OX*X,X@X*X@XH.;XL.^.,X",
"'.'.OXQ.OXJ.OX*Xs U.~.+X>X;XOXJ.*XY.OX9XW.*XU.c ,X~.@X>XoXn '.oXOX,XM.'.OXc <X'.'.*X{.E.OX,XT.OXL.!.2Xa '.*X'.Q.@XW.'.@Xn @XQ.U.",
"OXJ.Q. X'.OXU.U.OXc +X+X*X!.iXQ.'.OXJ.'.>XM.*X'.OX~.@X@X!.>XJ.OX!.].9XR.].@XeXOX@X*Xv ,XJ.'.,XK.>XoXv >X9X XOX;Xc *XQ.@X9Xl *X@X",
"n >XM.~.*XM.>X XU.Q.*X+XoX*Xn OXOX X2XV.].0XY.-XOXL.+X@X+XR.eX| oXXXx 6X'.:XqXK.@X'.1XM.OXH.OXiXc *XoX*XoXU.@X@X*Xc @X!.W.iXM.9X",
"Q.U.;XN.'.OXc ,XQ.M.s ;X~.*X*XM.I.oXK.#     #XoXl @X'.|.=X^.~.0Xk {.,X/.-XOXb %X.   *X*Xn @X!.p >X'.+X@XM.iX~.*X@X1Xg ~.,X0 pX~.",
";XOXK.OXK.U.&XU.'.v '.&XQ.*X'.;XN.].  t k .   v ].  .         X . X   o }.N.  o c   ~.*X@Xa *X&X~.@XoXM.'.'.H.@X!.*X*XJ.W.>X~.'.",
"@XOX*Xy <X'. X XM.U.'.Q.0XQ.pXOX*XW.  h 1XM.  J.  / A K F A A ~ G ! D X #.. h h j O fX'.,X>XK.*X@X+Xz '.J.J.,XM.aXoX1X,X~.@XOXoX",
"'.'.'.+XQ. X'.s M.W.U.9XQ.W.OX@X).>X  c dX1Xc # . J q.x.v.x.x.z.c.v.w.X . t fXwXj   OXV.*X'.+XOXoXs ;XR.v 9XJ.,X+XJ.oX+X@XOX#Xe ",
"M.OXOXOX'.oXc '.Q.M.9XJ.R.,XC.9XoX=X  k 2X4X8X    H l.5.=.a.8.7.w.4.l..   6XwX%Xj   U.pX].pX;XOX*X!.+Xa ;Xn W.!.U.,XK.gXOXoX<X X",
"<XY.*XQ.].'.@X'.u *XM.J.OXQ.9XW.).&X  k pX7Xy.t.$.t.8.5.f.l.9.3.3.c.4.&.&.5X7XrXj   1XK.K.*X+X!.<XOXc *Xf U.+XW.>XJ.~.,X;X~.*X;X",
"J.Q.'.@XW.'.OXOX*XM.Y.'.W.>XJ.J.$X=XO t 7X5X4.0.4.<.u.u.i.a.a.7.k.u.i.7.b.9.l.6Xh . M.M.9XOX>X~.H.'.'.oX!.@Xc 1XM.M.,XoXW.*XJ.J.",
"Y.OX&X].oXJ.z '.XXQ.OXn -XJ.M.;X&X^.@ S f.k.s.9.9.<.h.5.a.u.<.s.g.j.<.>.0.t.2.r.C X M >X=X+X!.-XM.W.W.*X+Xl 9Xv v 9X<X@XW.1X~.U.",
"&X*X*XW.*X'.U.]. X+Xg -XU.c *X    O X S z.f.6.d.g.,.l.vXbXbXbXbXzX3.0.c.,.z.4.a.X.. .     >X XP.;Xn '.W.Q.&XR.Y.>X*X*X'.>Xn >XOX",
"+XoX!.+XJ.U.OXW.@X'. X XV.,X-X  N D ! b.i.,.k.,.<.8.vXvXbXnXzXcXxXbX4.s.j.6.u.8.=.} ! 4 X I..X;XK.*XJ.K.*X'. X9X9XOX<X*XL.,Xv '.",
"OX*X'.'.@XL.].*Xf  X!.OX].OX*X  H ) e.0.7.8.a.d.c.nXxXbXjXlXlXlXvXbXbXu.a.c.7.8.e.` Z < X 9XZ.|.,Xz <XOXp @X*X#X*X*XK.OX;X~.9XH.",
"OXM.+X'.*X@XJ.W.{.f oX+X=X X    G ' =.<.a.8.5.;.nXcXbXtXA.D.S.G.uXbXbXvXh.3.u.l.e.[ Z <     X J.~.pXM.'.*X*X~.1X>Xv 1Xv *X>Xf iX",
"'.<XU. XOXQ.>X'.].+X#X:XOX  O ^ S r.=.8.8.;.c.vXbXbXuXm.* $ & & m.tXbXbXbX1.<.l.;.U C Z 7 , O %X Xa 9X'.9XOXW.>XOX,XH.,Xc '.1Xc ",
"M.Q.,XM.'.+Xs >X{.oXU.].&X  / *.n.4.x.:.5.<.9.vXzXkXS.* O o o   & F.jXcXbXg.<.9.;.U ..' ` : O g 0X*XOX>XM.z 1X X>X@X9Xn 1X~.H.1X",
"+Xc oX<Xl '.OX*X+XM.C.-X^.. D O.b.d.a.s.<.c.8.bXbXhXF.&   .     $ D.kXxXbX;.w.j.7.` W ..I : X 9XJ.9X'.].Y.1X!.W.*XOX>X1Xa 1X+X,X",
"'.@XM.n @XM.@X+XP.K.,XU.3X  J O.v.3.f.,.p.g.9.bXbXhXF.$         & D.kXbXbX4.l.d.;.' W P ` : O H.*X*XOXM.~.K.U.<XH.sX@XiX1Xn 2X;X",
"*XOX@XoXJ.oXoXL.m ;XU.K.@XO H O.x.2.g.4.d.6.l.vXxXkXS.* . @ o . & A.jXcXbXd.j.3.a.C W U C 1 O '.*XQ.y *XL.M.fXJ.2XoXW.pX1X@X>X>X",
"J.<X+X+X'.+Xn 0 +XM.J.].^.  ~ O.x.3.h.4.,.,.l.mXbXbXuXm.* $ & & m.yXbXbXxX1.j.l.6.' ` I ` -   OX*XW.OXU.c <XM.'.*XL.iXQ.1X>X9XOX",
"*X@XoX*X+X!.f @Xs R.'.W.#XO ~ O.z.i.s.4.f.k.;.c.nXcXbXtXA.D.A.G.uXxXbXbXk.3.i.9.=.' C P U , O ).@X9X*Xf ;XM.U.oX X;XL.~.@X#X@X+X",
"W.n *XOX~.+X#X!.{.OXM.,X#.  H T x.d.g.3.a.k.4.9.c.mXxXbXjXlXlXlXbXxXbX<.l.c.d.4.;.' W P P %    XQ.U.&X*XU.Q.}.R.9XK.v 9X;X@XW.Q.",
"U.9XoXOXoXH.L.W.+Xz *XM.P.  H %.q.8.k.g.a.,.3.7.<.f.vXbXbXnXzXbXbXbX<.6.j.3.p.5.=.' W P ' % O *XOXU.c ~.~.<Xl ,XJ.c 1XOXQ. X<Xl ",
",XOXOXL.+XH.~.OXOX+X Xc @XX ^ +.x.k.d.d.f.8.d.g.k.=.l.vXbXcXbXbXnX9.0.c.:.5.u.l.a.P ..P W :   Y.@XoX!.,XOX@X9X'.v ,X1X'.*X,XL.sX",
"OX~.@X+XL.@XH.oX@X}.OX*XV.X . D G O.3.7.6.7.s.d.5.d.s.5.a.<.<.s.g.s.4.t.0.:.7.b.;.' W P ` . '.,XM.'.+Xn 0X+XOXK.0X<XOX*XN.*X<XJ.",
"@X+XW.OXR.#X@XM.=X+XOX+X*X;X  O K ' ;.k.2.4.j.a.6.7.d.6.a.<.a.g.<.k.a.6.6.7.6.s.-.' Q I Z   {.^.,Xc {.*X0 iX+X@X>X2X;XJ.9Xc OX;X",
"+X'.*X!.+X+X'.<XW.| @XoX X=X*X  D J 3.v.g.c.a.4.d.6.d.a.a.6.6.6.j.3.4.f.7.f.l.-.T U C 2 ) X 1X~.W.wXc '.1XeX>X,XOXU.iX'.Q.iXd  X",
"+XL.R.>XJ.oX>XC.>XP.*X=X@X*X# . ~ ) 2.5.2.<.6.4.6.a.d.8.6.a.6.a.6.6.7.8.<.d.j.%.` ' Q < @.  @   '.J.gX~.fXsX,X+XOX;Xa *X].R.0XM.",
"M.>XU.!.<XM.oX;Xm ,X;X].#X XX L A 6 B r.b.f.j.a.f.8.6.6.6.8.8.8.4.7.6.s.g.-.*.{ ] 3 2 J 8 A H   ;X9Xp 9X>X@Xa aXOX*X9Xa Q.OXv fX",
"~.~.*XV.@XiXn >X'.'.z &X_.@X  A e.7 V 6 g.3.a.u.8.a.8.a.6.8.6.7.d.3.a.<.-.[ U C O < 6 B 7 =.J X l @X>X1X@Xn +X>XK.*X,XaXq '.;Xe ",
"@X~.'.>XU.C.oXoX(.m Z.;XK.wX. ~ =.] S / A S g.x.6.a.d.f.j.k.f.g.f.6.j.%.U K ' 2 # 8 H V Y t.G   iXK.oXOXH.H.*XL.gXQ.aX'.,Xv R.@X",
":XOX@Xf >X~.*X*Xn h >XL.2X  + V =.+.F .   . / t.a.6.6.6.3.<.a.u.a.g.i.[ Z W _ 2     . ! T t.A . . oX>XH.m >X~.9XY.OX;X'.0X,XR.OX",
"}.OX,X#XJ.!. XH.z >XK.^.o   / D =.K ~ X {.X . G f.a.<.=.%.-.*.-.-.*.*.[ C 6 2 :   /.@ A K e.K !   O n P.@XH.2XW. X9XC.gX*X,X'.OX",
"M.1X@X@XoXOXL.g #XP.L.X . ! s.z.+.2 N X OXe   H 7.x.=.} Y C ' U K I ' ..6 %     K.#.O ^ 2 %.q.i.J   . :Xu -X}.E.iXN.oX;Xl 9X].+X",
"1X@X>XOXOX;X X#Xz W.X H S V 8.x.-.J D . ;X{.X H a.*.C K V ( V A ( C C ` 6 - O W.V.9X. F ] *.l.l.V D L X *X$Xc 6Xv !.@XL.gX X!.W.",
"!.J.OXOXR.+X+X+XQ._.. ^ n.v.;.8.e.{ } G # %X  . 0.[ 5 G .   X O . V ] [ 6 . *Xw =X# F [ X.<.g.l.k.e.(   -Xb 1XM.n >XL.#XOX+X X!.",
"R.;XOX~.!.Q.'.oXoX0 . ( s.,.k.k.<.E ( K . T.=X  z.} 6 A X V.wX@X  ( -.[ 5   ].2X#.. G ` [ -.4.4.0.X.V   oX#XOXN.*XJ.~.>X>X*XM.9X",
";X+XOX'.*XJ. Xv @X].X S z.b.7.g.,.} B ~   +XP.  d.{ 2 K o <X+X@XO ! 0.X.5   [._.!.  A G O.v.x.<.k.z.R O wX_.@X$Xn W.*X9XOX>X>XJ.",
"*X#X'.*XL.@XK.~.$X|.X ~ S S z.3.C K ~   #XK.}.O *.{ r.B X ;X).).  ! <.X.+.X eX`.=XY.O A N V z.=.K J ^ X P.%X>X>X'.>X,XOX*XM. X<X",
"'.*XU.*X#X+X>XJ.oX@XoX  . ^ G H ~ . . =XW.=XW.  { 4.j.B . *X>XXXO 7 z.X.5 O p sX].(.2XX X / @.~ / X . +X:Xy iX&X!.*X9X>XM.,Xs OX",
"'.*XOXQ.'.oXoX>XE.t &X+X_.@     @ $XP.{.%Xm =XX 6 j.T 6 . -X+XW.  5 0.} 8 O ;X!.$X].qX).6X.   .   (.6Xu .X%X2X:X~.+XM.9X'.Y.fXs ",
"OXJ.!.>XQ.'.oXC.9XJ.;X~.oX#XM.;XT.&X9Xb '.;Xr   < : : >   z 0X^.. 4 : : 7 O dXwX1XoX+X1Xa @XoXQ.pXn L.iXv 9X9X>XW.oX@Xq >X'.L.aX",
"!.+XU.'.*Xv #XOXv ~.+XOXW.~.,XM.@X#.(.iXN.Y.$X  : -.&.3 O -Xj @X. 1 9.-.:   9X9X~.*X>X@X>Xf '.@Xc iX@XL.1X*XL.f pXoX>XeXa ~.+Xl ",
"M.@X;Xn *X>Xc >X+X*X!.L.'.oX;XoX!.*XW.W.%X&XX >.5.f.v.l.,   >X  ! =.k.x.h.t.O  .n iXL.1X>XpXq oX>Xq pX!.>X'.K.aX~.1X>X@X1X0 '.1X",
"#XM.@X9Xn L.@X!.Q.M.J.9XU.9XoX*XOXP.>X{.B.. H = e.9 V = L K o ~ L ; C ; *.; ( # aXJ.>X+X@X1X1Xu +X,X@X'.>XH.~.'.H.iXQ.>X>X1Xa oX",
",X@XL.H.1X~.*X~.~.W.>XH.!.+XoXoX+X@Xw *X'.OX@     X o .     .X    O   o . # . $Xn L.>XJ.sX>X9X,XM.1X'.OXv !.R.~.aXH.@XoXoXOX>XJ.",
"@X+X@X+XM.oX'.'.l >Xn J.oXK.1XOX_.=XqXR.).+Xx i +XT.).T.L.0XT.,X+X&X.X'.3Xw :XK.M.pXK.iX+X~.#X,XoXOX#Xs U.W.U.1XH.M.>XM.sX'.oX~.",
"R.*X@X+XoX*X'.e >XH.l ,XW.~.+Xc =XOX+X].^.P.z _.H.I.I.!.pX#.oX!.~.=X`.}.| 0XT.g pXH.~.oXL.aX'.9X@X'.pXL.>Xa 2XM.J.9Xn @X@Xm 1X'.",
"@X X~.*X'. X~.'.H.a +XK.H.W.L.,XI.3X^.oX'. X_.q ].[./.;XN.U.:Xn ,X_.].sXeX=Xv ;Xm L.@XoXpXW.U.1X@X+X*X1Xn oX!.v 1XM.K.oXH.gXoXoX",
" XM.2X~.oX@X+X!.c oXm M.'.!.~.L.M.@XW.Q.~.@XR.~.'.f :XC.C.>XK.OX'.+X!.1X1X<X;Xn K.*XW.*XU.J.eX*XOXJ.H.~.'.oXl @XM.n @X!.+X>X X'.",
"'.~.oXOX~.'.W.oX+Xn !.'.n ~.J.M.*X'.].W.R.J.U.W.0  XR.c ;Xn M.+X*X!.@Xb >XoXOXR.,Xc OX~.J.fX2X X+X*Xq ~.~.+XoX~.c >Xv W.,X@XOX~.",
"L.+X~.oX+Xn L.b ~.~.Q.c ~.L.H.@XQ.R.!.Q.J. XK.L.b [.x OXc b oXoX~.Q.*XOXM.pX XW.U.,X#XJ.1X,X;X@XW.Q.>Xa OXW.+X'.2Xl @X*X@XoX>XW.",
"!.@XoX~.+XoXn +X'.~.~.!.U.f Q.W.U.'.U.U.W.l ~.W.U.J.R.J.J.'.'.Q.+X@Xl '.*Xb iX X@X*Xa *X@X,X>XC.iXf ~.1X0 ~.'.~.@X!.OX>X+X>Xa 9X",
"~.~.!.@Xn '.;Xl <XW.U.K.a Q.W.U.U.M.!.J.W.!.c Q.R.Z.E.J.@XoXU. XQ.R.>Xg ~.>Xp gX!.OX X>X X X1X*XH.iXf !.fXc '.~.'.#X1X@XM.W.1Xb ",
"!.*X~.!.*XH.'.,Xp J.L.L.U.K.U.M.OXC.J.R.M.C.].l 0 K.M.Q.!.'.OXc @Xc ~.,Xg L.OXs gX@X+X>X1X,Xl >XQ.~.2XK.H.pX+X1X'.+X!.2X+Xf W.1X",
">XH.*XU.'.>Xc !.*Xw W.J.M.M.'.M.f '.H.C.!.L.w U.M.C.Z.K.Q.K.*XJ.!.#Xm '.>XC.Q.1X@X@XOXOXC.@X9Xc '.*Xn sX@XQ.<X1X*XoX*X~.H.1Xq Q.",
">X~.oX,XM.~.<XM.z K.U.N.M.J.c J.H.c '.n l C.K.q Z.J.Z.M.K.'.w OXM.!.@XH.H.@X~.1X*X#XOXOX>Xa Q.1Xg oX,Xq iX+XiXL.n >XOX+XJ.!.9Xa "
};
