/* XPM */
static char *result[] = {
/* columns rows colors chars-per-pixel */
"64 64 6 1 ",
"  c gray18",
". c #3C3C3C",
"X c #606060",
"o c #777676",
"O c gray67",
"+ c None",
/* pixels */
"++++++++++++++++++++++++++++++++++++++++++++++++++++++++++++++++",
"++++++++++++++++++++++++++++++++++++++++++++++++++++++++++++++++",
"++++++++++++++++++++++++++++++++++++++++++++++++++++++++++++++++",
"++++++++++++++++++++++++++++++++++++++++++++++++++++++++++++++++",
"++++++++++++++++++++++++++++++++++++++++++++++++++++++++++++++++",
"++++++++++++++++++++++++++++++++++++++++++++++++++++++++++++++++",
"+++++++++++.                                        .+++++++++++",
"++++++++++X.                                        .O++++++++++",
"+++++++++XX.                                        .OO+++++++++",
"++++++++XXX.                                        .OOO++++++++",
"+++++++XXXX.                                        .OOOO+++++++",
"++++++......                                        ......++++++",
"++++++OOOOO.                                        .ooooo++++++",
"++++++OOOOO.                                        .ooooo++++++",
"++++++OOOOO..........................................ooooo++++++",
"++++++OOO.......oooooooooooooooooooooooooooooooo.....ooooo++++++",
"++++++OOO.XXXXX.oooooooooooooooooooooooooooooooo.XXX.ooooo++++++",
"++++++OO..XXXXX.oooooooooooooooooooooooooooooooo.XXX.ooooo++++++",
"++++++...XXXXXX.oooooooooooooooooooooooooooooooo.XXX.ooooo++++++",
"++++++.XXXXXXXX.oooooooooooooooooooooooooooooooo.XXX.ooooo++++++",
"++++++.XXXXXXXX.oooooooooooooooooooooooooooooooo.XXX.ooooo++++++",
"++++++.XXXXXXXX.oooooooooooooooooooooooooooooooo.XXX.ooooo++++++",
"++++++.XXXXXXXX.oooooooooooooooooooooooooooooooo.XXX.ooooo++++++",
"++++++.XXXXXXXX.oooooooooooooooooooooooooooooooo.XXX.ooooo++++++",
"++++++.XXXXXXXX.oooooooooooooooooooooooooooooooo.XXX.ooooo++++++",
"++++++..........oooooooooooooooooooooooooooooooo.XXX.ooooo++++++",
"++++++OOOOOOOOO.oooooooooooooooooooooooooooooooo.XXX.ooooo++++++",
"++++++OOOOOOOOO.oooooooooooooooooooooooooooooooo.XXX.ooooo++++++",
"++++++..........oooooooooooooooooooooooooooooooo..........++++++",
"++++++         .oooooooooooooooooooooooooooooooo.         ++++++",
"++++++         .oooooooooooooooooooooooooooooooo.         ++++++",
"++++++         .oooooooooooooooooooooooooooooooo.         ++++++",
"++++++         .oooooooooooooooooooooooooooooooo.         ++++++",
"++++++         .oooooooooooooooooooooooooooooooo.         ++++++",
"++++++         .oooooooooooooooooooooooooooooooo.         ++++++",
"++++++..........oooooooooooooooooooooooooooooooo..........++++++",
"++++++ooooo.XXX.oooooooooooooooooooooooooooooooo.OOOOOOOOO++++++",
"++++++ooooo.XXX.oooooooooooooooooooooooooooooooo.OOOOOOOOO++++++",
"++++++ooooo.XXX.oooooooooooooooooooooooooooooooo..........++++++",
"++++++ooooo.XXX.oooooooooooooooooooooooooooooooo.XXXXXXXX.++++++",
"++++++ooooo.XXX.oooooooooooooooooooooooooooooooo.XXXXXXXX.++++++",
"++++++ooooo.XXX.oooooooooooooooooooooooooooooooo.XXXXXXXX.++++++",
"++++++ooooo.XXX.oooooooooooooooooooooooooooooooo.XXXXXXXX.++++++",
"++++++ooooo.XXX.oooooooooooooooooooooooooooooooo.XXXXXXXX.++++++",
"++++++ooooo.XXX.oooooooooooooooooooooooooooooooo.XXXXXXXX.++++++",
"++++++ooooo.XXX.oooooooooooooooooooooooooooooooo.XXXXXX...++++++",
"++++++ooooo.XXX.oooooooooooooooooooooooooooooooo.XXXXX..OO++++++",
"++++++ooooo.XXX.oooooooooooooooooooooooooooooooo.XXXXX.OOO++++++",
"++++++ooooo.....oooooooooooooooooooooooooooooooo.......OOO++++++",
"++++++ooooo..........................................OOOOO++++++",
"++++++ooooo.                                        .OOOOO++++++",
"++++++ooooo.                                        .OOOOO++++++",
"++++++......                                        ......++++++",
"+++++++OOOO.                                        .XXXX+++++++",
"++++++++OOO.                                        .XXX++++++++",
"+++++++++OO.                                        .XX+++++++++",
"++++++++++O.                                        .X++++++++++",
"+++++++++++.                                        .+++++++++++",
"++++++++++++++++++++++++++++++++++++++++++++++++++++++++++++++++",
"++++++++++++++++++++++++++++++++++++++++++++++++++++++++++++++++",
"++++++++++++++++++++++++++++++++++++++++++++++++++++++++++++++++",
"++++++++++++++++++++++++++++++++++++++++++++++++++++++++++++++++",
"++++++++++++++++++++++++++++++++++++++++++++++++++++++++++++++++",
"++++++++++++++++++++++++++++++++++++++++++++++++++++++++++++++++"
};
